<svg width="276" height="337" viewBox="0 0 276 337" fill="none" xmlns="http://www.w3.org/2000/svg">
<path d="M101.918 134.686L101 133.948C101.012 133.78 101.018 133.492 101.018 133.084C101.03 132.664 101.036 132.184 101.036 131.644C101.048 131.092 101.054 130.522 101.054 129.934C101.054 129.346 101.054 128.8 101.054 128.296C101.054 127.444 101.048 126.604 101.036 125.776C101.036 124.948 101.024 124.294 101 123.814H102.746C102.734 124.042 102.722 124.414 102.71 124.93C102.71 125.434 102.704 125.986 102.692 126.586C102.692 127.174 102.692 127.72 102.692 128.224V132.454C103.196 132.226 103.76 131.95 104.384 131.626C105.008 131.302 105.626 130.96 106.238 130.6C106.85 130.24 107.408 129.886 107.912 129.538C108.416 129.19 108.806 128.884 109.082 128.62C109.082 128.776 109.1 128.986 109.136 129.25C109.172 129.514 109.214 129.766 109.262 130.006C109.322 130.234 109.364 130.396 109.388 130.492C108.992 130.828 108.47 131.2 107.822 131.608C107.186 132.004 106.502 132.406 105.77 132.814C105.05 133.21 104.348 133.576 103.664 133.912C102.98 134.236 102.398 134.494 101.918 134.686ZM94.0698 135.262C93.9978 135.142 93.8898 134.998 93.7458 134.83C93.6018 134.662 93.4458 134.5 93.2778 134.344C93.1218 134.176 92.9838 134.044 92.8638 133.948C94.1838 133.252 95.1738 132.454 95.8338 131.554C96.4938 130.654 96.9018 129.622 97.0578 128.458C97.2138 127.282 97.1838 125.956 96.9678 124.48L98.5878 124.336C98.8398 126.028 98.8578 127.552 98.6418 128.908C98.4378 130.252 97.9638 131.446 97.2198 132.49C96.4758 133.534 95.4258 134.458 94.0698 135.262Z" fill="white"/>
<path d="M89.4618 133.894C89.1858 133.702 88.8018 133.414 88.3098 133.03C87.8178 132.634 87.2778 132.196 86.6898 131.716C86.1138 131.236 85.5378 130.756 84.9618 130.276C84.3978 129.784 83.8878 129.34 83.4318 128.944C82.9758 128.536 82.6398 128.224 82.4238 128.008C82.2318 127.816 82.0698 127.72 81.9378 127.72C81.8178 127.72 81.6378 127.81 81.3978 127.99C81.0858 128.242 80.7078 128.518 80.2638 128.818C79.8198 129.106 79.3518 129.394 78.8598 129.682C78.3798 129.958 77.9118 130.216 77.4558 130.456C76.9998 130.684 76.6038 130.864 76.2678 130.996L75.2598 129.466C75.6438 129.334 76.0938 129.148 76.6098 128.908C77.1258 128.668 77.6598 128.398 78.2118 128.098C78.7758 127.786 79.3038 127.468 79.7958 127.144C80.2878 126.82 80.6958 126.514 81.0198 126.226C81.3918 125.902 81.7158 125.746 81.9918 125.758C82.2798 125.758 82.6158 125.95 82.9998 126.334C83.2278 126.562 83.5758 126.88 84.0438 127.288C84.5238 127.684 85.0698 128.128 85.6818 128.62C86.2938 129.1 86.9178 129.586 87.5538 130.078C88.1898 130.57 88.7958 131.02 89.3718 131.428C89.9478 131.824 90.4338 132.136 90.8298 132.364C90.6978 132.472 90.5418 132.622 90.3618 132.814C90.1818 132.994 90.0078 133.18 89.8398 133.372C89.6838 133.564 89.5578 133.738 89.4618 133.894ZM87.4998 126.784C87.3438 126.532 87.1458 126.262 86.9058 125.974C86.6658 125.686 86.4198 125.41 86.1678 125.146C85.9158 124.87 85.6818 124.642 85.4658 124.462L86.2758 123.832C86.4678 123.988 86.6958 124.21 86.9598 124.498C87.2358 124.786 87.4998 125.08 87.7518 125.38C88.0158 125.68 88.2138 125.932 88.3458 126.136L87.4998 126.784ZM89.0298 125.47C88.8738 125.218 88.6698 124.954 88.4178 124.678C88.1778 124.39 87.9258 124.114 87.6618 123.85C87.4098 123.586 87.1758 123.37 86.9598 123.202L87.7518 122.554C87.9438 122.71 88.1778 122.932 88.4538 123.22C88.7298 123.496 88.9998 123.778 89.2638 124.066C89.5278 124.354 89.7318 124.6 89.8758 124.804L89.0298 125.47Z" fill="white"/>
<path d="M60.8238 134.74L59.9238 134.038C59.9358 133.882 59.9418 133.588 59.9418 133.156C59.9538 132.712 59.9598 132.202 59.9598 131.626C59.9718 131.038 59.9778 130.45 59.9778 129.862C59.9778 129.262 59.9778 128.722 59.9778 128.242C59.9778 127.834 59.9778 127.396 59.9778 126.928C59.9778 126.46 59.9718 126.004 59.9598 125.56C59.9598 125.116 59.9538 124.738 59.9418 124.426C59.9418 124.102 59.9358 123.892 59.9238 123.796H61.6698C61.6578 124.024 61.6458 124.39 61.6338 124.894C61.6338 125.398 61.6278 125.944 61.6158 126.532C61.6158 127.12 61.6158 127.666 61.6158 128.17V132.598C62.4438 132.286 63.3318 131.908 64.2798 131.464C65.2398 131.008 66.1818 130.522 67.1058 130.006C68.0298 129.49 68.8758 128.974 69.6438 128.458C70.4238 127.93 71.0538 127.438 71.5338 126.982C71.5338 127.114 71.5518 127.318 71.5878 127.594C71.6358 127.858 71.6898 128.116 71.7498 128.368C71.8098 128.62 71.8518 128.806 71.8758 128.926C71.3958 129.322 70.8198 129.742 70.1478 130.186C69.4878 130.618 68.7618 131.056 67.9698 131.5C67.1898 131.932 66.3798 132.352 65.5398 132.76C64.7118 133.168 63.8958 133.546 63.0918 133.894C62.2878 134.23 61.5318 134.512 60.8238 134.74Z" fill="white"/>
<path d="M38.8278 135.766L38.4678 134.002C38.6358 133.978 38.8278 133.954 39.0438 133.93C39.2718 133.894 39.5118 133.852 39.7638 133.804V121.96H45.9378V132.49C46.2138 132.418 46.4598 132.352 46.6758 132.292C46.9038 132.232 47.1018 132.178 47.2698 132.13V133.642C46.8978 133.762 46.4418 133.9 45.9018 134.056C45.3618 134.212 44.7738 134.374 44.1378 134.542C43.5018 134.698 42.8598 134.854 42.2118 135.01C41.5638 135.166 40.9458 135.31 40.3578 135.442C39.7818 135.574 39.2718 135.682 38.8278 135.766ZM45.2538 137.386C45.1338 137.146 44.9778 136.906 44.7858 136.666C44.6058 136.426 44.4318 136.228 44.2638 136.072C45.1878 135.628 45.9678 135.16 46.6038 134.668C47.2398 134.164 47.7498 133.558 48.1338 132.85C48.5298 132.142 48.8178 131.272 48.9978 130.24C49.1778 129.196 49.2678 127.912 49.2678 126.388H46.7838V124.786H49.2678V121.24H50.8878V124.786H54.5418C54.5418 125.158 54.5358 125.554 54.5238 125.974C54.5238 126.382 54.5238 126.808 54.5238 127.252C54.5238 128.632 54.4998 129.892 54.4518 131.032C54.4158 132.16 54.3498 133.09 54.2538 133.822C54.1458 134.65 53.9658 135.304 53.7138 135.784C53.4738 136.252 53.1558 136.582 52.7598 136.774C52.3638 136.966 51.8778 137.062 51.3018 137.062H50.1138C50.0778 136.798 50.0238 136.51 49.9518 136.198C49.8798 135.886 49.8138 135.658 49.7538 135.514H51.0498C51.3378 135.514 51.5778 135.472 51.7698 135.388C51.9738 135.292 52.1418 135.106 52.2738 134.83C52.4058 134.554 52.5138 134.152 52.5978 133.624C52.6938 133.024 52.7718 132.166 52.8318 131.05C52.8918 129.922 52.9278 128.698 52.9398 127.378V126.388H50.8878C50.8758 127.984 50.7558 129.364 50.5278 130.528C50.3118 131.692 49.9698 132.694 49.5018 133.534C49.0458 134.374 48.4638 135.1 47.7558 135.712C47.0598 136.324 46.2258 136.882 45.2538 137.386ZM41.3658 133.498C42.3618 133.306 43.3458 133.102 44.3178 132.886V130.834H41.3658V133.498ZM41.3658 129.412H44.3178V127.144H41.3658V129.412ZM41.3658 125.722H44.3178V123.472H41.3658V125.722Z" fill="white"/>
<path d="M21.26 128.818C21.128 128.578 20.972 128.344 20.792 128.116C20.624 127.876 20.444 127.66 20.252 127.468C21.008 127.168 21.788 126.772 22.592 126.28C23.396 125.776 24.17 125.212 24.914 124.588C25.658 123.964 26.324 123.328 26.912 122.68C27.512 122.02 27.98 121.39 28.316 120.79L29.846 121.006C30.242 121.606 30.728 122.212 31.304 122.824C31.892 123.424 32.534 124 33.23 124.552C33.938 125.092 34.676 125.59 35.444 126.046C36.212 126.49 36.974 126.862 37.73 127.162C37.538 127.39 37.34 127.654 37.136 127.954C36.944 128.242 36.788 128.494 36.668 128.71C35.732 128.29 34.778 127.762 33.806 127.126C32.846 126.478 31.952 125.764 31.124 124.984C30.296 124.204 29.606 123.4 29.054 122.572C28.682 123.148 28.19 123.742 27.578 124.354C26.978 124.954 26.312 125.542 25.58 126.118C24.848 126.682 24.104 127.198 23.348 127.666C22.604 128.134 21.908 128.518 21.26 128.818ZM22.538 137.314C22.49 137.206 22.4 137.056 22.268 136.864C22.148 136.684 22.016 136.498 21.872 136.306C21.74 136.126 21.614 135.988 21.494 135.892C22.394 135.568 23.132 135.184 23.708 134.74C24.284 134.284 24.728 133.732 25.04 133.084C25.364 132.436 25.58 131.65 25.688 130.726C25.796 129.79 25.838 128.674 25.814 127.378H27.524C27.56 128.842 27.494 130.108 27.326 131.176C27.158 132.244 26.876 133.162 26.48 133.93C26.084 134.686 25.562 135.334 24.914 135.874C24.266 136.414 23.474 136.894 22.538 137.314ZM30.89 137.242V127.378H32.6V137.242H30.89Z" fill="white"/>
<path d="M91.9999 106.906C91.5199 106.906 91.1059 106.738 90.7579 106.402C90.4219 106.054 90.2539 105.64 90.2539 105.16C90.2539 104.668 90.4219 104.254 90.7579 103.918C91.1059 103.582 91.5199 103.414 91.9999 103.414C92.4919 103.414 92.9059 103.582 93.2419 103.918C93.5779 104.254 93.7459 104.668 93.7459 105.16C93.7459 105.64 93.5779 106.054 93.2419 106.402C92.9059 106.738 92.4919 106.906 91.9999 106.906Z" fill="white"/>
<path d="M72.3621 110.02C71.8461 110.32 71.3421 110.446 70.8501 110.398C70.3581 110.338 69.9081 109.99 69.5001 109.354C69.1521 108.778 68.8341 108.118 68.5461 107.374C68.2581 106.618 68.0061 105.82 67.7901 104.98C67.5861 104.128 67.4301 103.288 67.3221 102.46C67.2141 101.62 67.1661 100.834 67.1781 100.102L68.8701 100.12C68.8461 100.732 68.8701 101.392 68.9421 102.1C69.0141 102.808 69.1281 103.516 69.2841 104.224C69.4521 104.932 69.6441 105.604 69.8601 106.24C70.0881 106.876 70.3401 107.428 70.6161 107.896C70.8201 108.232 71.0301 108.418 71.2461 108.454C71.4621 108.49 71.6781 108.43 71.8941 108.274C72.1941 108.07 72.5061 107.794 72.8301 107.446C73.1661 107.086 73.4301 106.75 73.6221 106.438C73.7061 106.654 73.8441 106.9 74.0361 107.176C74.2401 107.452 74.4201 107.668 74.5761 107.824C74.3121 108.232 73.9701 108.646 73.5501 109.066C73.1421 109.474 72.7461 109.792 72.3621 110.02ZM79.4541 106.78C79.3461 106.456 79.1721 106.042 78.9321 105.538C78.6921 105.034 78.4161 104.512 78.1041 103.972C77.7921 103.432 77.4741 102.928 77.1501 102.46C76.8381 101.98 76.5561 101.602 76.3041 101.326L77.6361 100.48C77.9121 100.792 78.2181 101.194 78.5541 101.686C78.9021 102.178 79.2441 102.706 79.5801 103.27C79.9161 103.822 80.2101 104.35 80.4621 104.854C80.7261 105.358 80.9181 105.784 81.0381 106.132C80.7621 106.18 80.4741 106.27 80.1741 106.402C79.8741 106.522 79.6341 106.648 79.4541 106.78Z" fill="white"/>
<path d="M49.7718 112.288C49.6998 112.216 49.5738 112.12 49.3938 112C49.2138 111.88 49.0278 111.766 48.8358 111.658C48.6558 111.538 48.5118 111.466 48.4038 111.442C48.8958 110.902 49.3818 110.236 49.8618 109.444C50.3418 108.64 50.7978 107.764 51.2298 106.816C51.6618 105.856 52.0458 104.878 52.3818 103.882C51.7338 103.966 51.1038 104.056 50.4918 104.152C49.8918 104.236 49.4058 104.326 49.0338 104.422C49.0218 104.314 48.9918 104.158 48.9438 103.954C48.9078 103.738 48.8598 103.528 48.7998 103.324C48.7518 103.108 48.7098 102.958 48.6738 102.874C49.0938 102.838 49.6878 102.784 50.4558 102.712C51.2238 102.628 52.0098 102.544 52.8138 102.46C53.0538 101.68 53.2458 100.918 53.3898 100.174C53.5338 99.4299 53.6298 98.7339 53.6778 98.0859L55.2978 98.3739C55.2498 98.9619 55.1538 99.5919 55.0098 100.264C54.8658 100.924 54.6918 101.608 54.4878 102.316C55.0518 102.28 55.5138 102.262 55.8738 102.262C56.3418 102.262 56.7498 102.34 57.0978 102.496C57.4578 102.64 57.7398 102.898 57.9438 103.27C58.1478 103.642 58.2618 104.158 58.2858 104.818C58.3098 105.478 58.2198 106.312 58.0158 107.32C57.7998 108.46 57.5478 109.372 57.2598 110.056C56.9838 110.74 56.6298 111.238 56.1978 111.55C55.7778 111.85 55.2438 112 54.5958 112C54.2598 112 53.9358 111.964 53.6238 111.892C53.3118 111.82 53.0118 111.694 52.7238 111.514C52.7358 111.298 52.7418 111.028 52.7418 110.704C52.7418 110.38 52.7238 110.116 52.6878 109.912C53.2518 110.26 53.8338 110.434 54.4338 110.434C54.7578 110.434 55.0338 110.338 55.2618 110.146C55.4898 109.954 55.6998 109.612 55.8918 109.12C56.0838 108.616 56.2758 107.908 56.4678 106.996C56.6238 106.252 56.7078 105.658 56.7198 105.214C56.7318 104.77 56.6838 104.434 56.5758 104.206C56.4798 103.978 56.3418 103.828 56.1618 103.756C55.9818 103.684 55.7718 103.648 55.5318 103.648C55.3398 103.648 55.1178 103.654 54.8658 103.666C54.6138 103.678 54.3438 103.696 54.0558 103.72C53.6838 104.836 53.2578 105.94 52.7778 107.032C52.2978 108.112 51.7998 109.108 51.2838 110.02C50.7798 110.932 50.2758 111.688 49.7718 112.288ZM63.1998 107.518C63.0078 107.194 62.7378 106.822 62.3898 106.402C62.0538 105.97 61.6878 105.538 61.2918 105.106C60.8958 104.674 60.5058 104.284 60.1218 103.936C59.7498 103.576 59.4198 103.3 59.1318 103.108L60.3378 102.064C60.6498 102.28 60.9978 102.568 61.3818 102.928C61.7778 103.288 62.1738 103.678 62.5698 104.098C62.9778 104.506 63.3498 104.914 63.6858 105.322C64.0338 105.718 64.3038 106.066 64.4958 106.366L63.1998 107.518ZM62.7858 102.208C62.5698 102.016 62.3058 101.818 61.9938 101.614C61.6938 101.398 61.3818 101.2 61.0578 101.02C60.7338 100.828 60.4458 100.678 60.1938 100.57L60.8058 99.7239C61.0338 99.8199 61.3158 99.9699 61.6518 100.174C61.9878 100.378 62.3178 100.588 62.6418 100.804C62.9778 101.02 63.2418 101.206 63.4338 101.362L62.7858 102.208ZM63.9018 100.516C63.6858 100.324 63.4158 100.126 63.0918 99.9219C62.7798 99.7179 62.4618 99.5259 62.1378 99.3459C61.8138 99.1659 61.5258 99.0279 61.2738 98.9319L61.8678 98.0859C62.0958 98.1819 62.3778 98.3259 62.7138 98.5179C63.0618 98.7099 63.4038 98.9079 63.7398 99.1119C64.0758 99.3159 64.3398 99.4959 64.5318 99.6519L63.9018 100.516Z" fill="white"/>
<path d="M39.7101 113.368V110.992H34.8861V109.642H39.7101V108.706H36.2541V103.504H44.7861V108.706H41.3301V109.642H46.2441V110.992H41.3301V113.368H39.7101ZM30.3501 113.314V97.5639H35.1921L35.7501 98.0139C35.7021 98.1579 35.6001 98.4039 35.4441 98.7519C35.2881 99.0999 35.1081 99.4959 34.9041 99.9399C34.7001 100.384 34.4901 100.828 34.2741 101.272C34.0701 101.704 33.8901 102.082 33.7341 102.406C33.5901 102.73 33.4941 102.94 33.4461 103.036C34.0101 103.54 34.4901 104.092 34.8861 104.692C35.2941 105.292 35.4981 105.958 35.4981 106.69C35.4981 107.758 35.2641 108.538 34.7961 109.03C34.3401 109.51 33.7401 109.75 32.9961 109.75H32.2581C32.2341 109.522 32.1861 109.252 32.1141 108.94C32.0421 108.616 31.9641 108.358 31.8801 108.166H32.7441C33.1401 108.166 33.4401 108.04 33.6441 107.788C33.8481 107.524 33.9501 107.098 33.9501 106.51C33.9501 105.91 33.7581 105.328 33.3741 104.764C33.0021 104.2 32.5161 103.666 31.9161 103.162C31.9521 103.078 32.0301 102.898 32.1501 102.622C32.2821 102.346 32.4321 102.022 32.6001 101.65C32.7681 101.266 32.9301 100.888 33.0861 100.516C33.2541 100.132 33.3981 99.7959 33.5181 99.5079C33.6381 99.2199 33.7101 99.0279 33.7341 98.9319H31.8441V113.314H30.3501ZM34.9581 102.73V101.434H37.9641C37.8561 101.17 37.7301 100.888 37.5861 100.588C37.4541 100.276 37.3281 100.006 37.2081 99.7779H35.7321V98.4819H39.7101V96.8979H41.3301V98.4819H45.5061V99.7779H43.8321C43.7481 99.9939 43.6281 100.264 43.4721 100.588C43.3281 100.912 43.1901 101.194 43.0581 101.434H46.1901V102.73H34.9581ZM37.8201 107.536H43.2201V106.654H37.8201V107.536ZM37.8201 105.538H43.2201V104.692H37.8201V105.538ZM39.6561 101.434H41.3481C41.4441 101.23 41.5701 100.96 41.7261 100.624C41.8821 100.288 42.0141 100.006 42.1221 99.7779H38.9361C39.0441 100.006 39.1701 100.282 39.3141 100.606C39.4581 100.918 39.5721 101.194 39.6561 101.434Z" fill="white"/>
<path d="M203.5 72.5002L215.167 69.1668L218.5 57.5002L206.833 60.8335L203.5 72.5002ZM211 67.5002C210.306 67.5002 209.715 67.2571 209.229 66.771C208.743 66.2849 208.5 65.6946 208.5 65.0002C208.5 64.3057 208.743 63.7154 209.229 63.2293C209.715 62.7432 210.306 62.5002 211 62.5002C211.695 62.5002 212.285 62.7432 212.771 63.2293C213.257 63.7154 213.5 64.3057 213.5 65.0002C213.5 65.6946 213.257 66.2849 212.771 66.771C212.285 67.2571 211.695 67.5002 211 67.5002ZM211 81.6668C208.695 81.6668 206.528 81.2293 204.5 80.3543C202.472 79.4793 200.708 78.2918 199.208 76.7918C197.708 75.2918 196.521 73.5279 195.646 71.5002C194.771 69.4724 194.333 67.3057 194.333 65.0002C194.333 62.6946 194.771 60.5279 195.646 58.5002C196.521 56.4724 197.708 54.7085 199.208 53.2085C200.708 51.7085 202.472 50.521 204.5 49.646C206.528 48.771 208.695 48.3335 211 48.3335C213.306 48.3335 215.472 48.771 217.5 49.646C219.528 50.521 221.292 51.7085 222.792 53.2085C224.292 54.7085 225.479 56.4724 226.354 58.5002C227.229 60.5279 227.667 62.6946 227.667 65.0002C227.667 67.3057 227.229 69.4724 226.354 71.5002C225.479 73.5279 224.292 75.2918 222.792 76.7918C221.292 78.2918 219.528 79.4793 217.5 80.3543C215.472 81.2293 213.306 81.6668 211 81.6668ZM211 78.3335C214.695 78.3335 217.84 77.0349 220.438 74.4377C223.035 71.8404 224.333 68.6946 224.333 65.0002C224.333 61.3057 223.035 58.1599 220.438 55.5627C217.84 52.9654 214.695 51.6668 211 51.6668C207.306 51.6668 204.16 52.9654 201.563 55.5627C198.965 58.1599 197.667 61.3057 197.667 65.0002C197.667 68.6946 198.965 71.8404 201.563 74.4377C204.16 77.0349 207.306 78.3335 211 78.3335Z" fill="white"/>
<path d="M46.6665 254.333V249.667C46.6665 248.722 46.9096 247.854 47.3957 247.062C47.8818 246.271 48.5276 245.667 49.3332 245.25C51.0554 244.389 52.8054 243.743 54.5832 243.312C56.3609 242.882 58.1665 242.667 59.9998 242.667C61.8332 242.667 63.6387 242.882 65.4165 243.312C67.1943 243.743 68.9443 244.389 70.6665 245.25C71.4721 245.667 72.1179 246.271 72.604 247.062C73.0901 247.854 73.3332 248.722 73.3332 249.667V254.333H46.6665ZM76.6665 254.333V249.333C76.6665 248.111 76.3262 246.937 75.6457 245.812C74.9651 244.687 73.9998 243.722 72.7498 242.917C74.1665 243.083 75.4998 243.368 76.7498 243.771C77.9998 244.173 79.1665 244.667 80.2498 245.25C81.2498 245.805 82.0137 246.423 82.5415 247.104C83.0693 247.785 83.3332 248.528 83.3332 249.333V254.333H76.6665ZM59.9998 241C58.1665 241 56.5971 240.347 55.2915 239.042C53.9859 237.736 53.3332 236.167 53.3332 234.333C53.3332 232.5 53.9859 230.93 55.2915 229.625C56.5971 228.319 58.1665 227.667 59.9998 227.667C61.8332 227.667 63.4026 228.319 64.7082 229.625C66.0137 230.93 66.6665 232.5 66.6665 234.333C66.6665 236.167 66.0137 237.736 64.7082 239.042C63.4026 240.347 61.8332 241 59.9998 241ZM76.6665 234.333C76.6665 236.167 76.0137 237.736 74.7082 239.042C73.4026 240.347 71.8332 241 69.9998 241C69.6943 241 69.3054 240.965 68.8332 240.896C68.3609 240.826 67.9721 240.75 67.6665 240.667C68.4165 239.778 68.9929 238.792 69.3957 237.708C69.7984 236.625 69.9998 235.5 69.9998 234.333C69.9998 233.167 69.7984 232.042 69.3957 230.958C68.9929 229.875 68.4165 228.889 67.6665 228C68.0554 227.861 68.4443 227.771 68.8332 227.729C69.2221 227.687 69.6109 227.667 69.9998 227.667C71.8332 227.667 73.4026 228.319 74.7082 229.625C76.0137 230.93 76.6665 232.5 76.6665 234.333ZM49.9998 251H69.9998V249.667C69.9998 249.361 69.9234 249.083 69.7707 248.833C69.6179 248.583 69.4165 248.389 69.1665 248.25C67.6665 247.5 66.1526 246.937 64.6248 246.562C63.0971 246.187 61.5554 246 59.9998 246C58.4443 246 56.9026 246.187 55.3748 246.562C53.8471 246.937 52.3332 247.5 50.8332 248.25C50.5832 248.389 50.3818 248.583 50.229 248.833C50.0762 249.083 49.9998 249.361 49.9998 249.667V251ZM59.9998 237.667C60.9165 237.667 61.7012 237.34 62.354 236.687C63.0068 236.035 63.3332 235.25 63.3332 234.333C63.3332 233.417 63.0068 232.632 62.354 231.979C61.7012 231.326 60.9165 231 59.9998 231C59.0832 231 58.2984 231.326 57.6457 231.979C56.9929 232.632 56.6665 233.417 56.6665 234.333C56.6665 235.25 56.9929 236.035 57.6457 236.687C58.2984 237.34 59.0832 237.667 59.9998 237.667Z" fill="white"/>
<path d="M224.356 128.314V119.116H222.286C222.25 120.508 222.04 121.756 221.656 122.86C221.284 123.952 220.78 124.912 220.144 125.74C219.52 126.556 218.806 127.258 218.002 127.846C217.93 127.762 217.81 127.642 217.642 127.486C217.486 127.33 217.318 127.18 217.138 127.036C216.97 126.892 216.826 126.79 216.706 126.73C217.486 126.214 218.17 125.596 218.758 124.876C219.346 124.156 219.802 123.286 220.126 122.266C220.462 121.246 220.63 120.04 220.63 118.648V113.248C221.326 113.212 222.07 113.134 222.862 113.014C223.666 112.882 224.44 112.72 225.184 112.528C225.928 112.336 226.564 112.132 227.092 111.916L227.956 113.284C227.452 113.488 226.864 113.68 226.192 113.86C225.532 114.04 224.86 114.196 224.176 114.328C223.492 114.448 222.862 114.538 222.286 114.598V117.568H228.154V119.116H225.976V128.314H224.356ZM212.674 128.386C212.566 128.314 212.416 128.23 212.224 128.134C212.044 128.038 211.858 127.942 211.666 127.846C211.486 127.762 211.33 127.702 211.198 127.666C211.834 126.886 212.296 125.914 212.584 124.75C212.884 123.586 213.034 122.332 213.034 120.988V116.002H219.172V121.744H214.618C214.57 123.172 214.378 124.426 214.042 125.506C213.718 126.574 213.262 127.534 212.674 128.386ZM212.206 114.436V112.996H219.64V114.436H212.206ZM214.636 120.286H217.606V117.478H214.636V120.286Z" fill="white"/>
<path d="M202.162 128.35C202.114 128.29 202.012 128.2 201.856 128.08C201.7 127.96 201.538 127.84 201.37 127.72C201.214 127.6 201.094 127.528 201.01 127.504C201.694 127.204 202.348 126.784 202.972 126.244C203.608 125.692 204.172 125.098 204.664 124.462C205.168 123.814 205.552 123.202 205.816 122.626H204.682C204.298 123.286 203.818 123.928 203.242 124.552C202.678 125.176 202.048 125.746 201.352 126.262C200.656 126.766 199.93 127.174 199.174 127.486C199.126 127.402 199.036 127.288 198.904 127.144C198.784 127.012 198.652 126.88 198.508 126.748C198.376 126.616 198.268 126.532 198.184 126.496C198.796 126.268 199.42 125.95 200.056 125.542C200.692 125.122 201.286 124.66 201.838 124.156C202.39 123.64 202.828 123.13 203.152 122.626H201.946C201.502 123.118 201.01 123.574 200.47 123.994C199.942 124.414 199.402 124.762 198.85 125.038C198.802 124.966 198.712 124.864 198.58 124.732C198.448 124.6 198.31 124.474 198.166 124.354C198.034 124.222 197.92 124.132 197.824 124.084C198.352 123.844 198.886 123.526 199.426 123.13C199.966 122.722 200.464 122.278 200.92 121.798C201.376 121.306 201.736 120.826 202 120.358H199.552V119.134H210.172V120.358H203.566C203.482 120.538 203.386 120.718 203.278 120.898C203.17 121.066 203.05 121.24 202.918 121.42H209.65C209.638 121.744 209.614 122.152 209.578 122.644C209.554 123.124 209.512 123.628 209.452 124.156C209.392 124.684 209.314 125.188 209.218 125.668C209.134 126.136 209.038 126.526 208.93 126.838C208.738 127.39 208.474 127.774 208.138 127.99C207.814 128.206 207.358 128.314 206.77 128.314H205.492C205.48 128.074 205.438 127.81 205.366 127.522C205.294 127.246 205.21 127.018 205.114 126.838H206.428C206.716 126.838 206.944 126.79 207.112 126.694C207.28 126.586 207.418 126.388 207.526 126.1C207.598 125.92 207.664 125.68 207.724 125.38C207.796 125.068 207.862 124.738 207.922 124.39C207.982 124.042 208.03 123.712 208.066 123.4C208.102 123.076 208.126 122.818 208.138 122.626H207.256C206.956 123.37 206.542 124.12 206.014 124.876C205.498 125.62 204.91 126.298 204.25 126.91C203.59 127.522 202.894 128.002 202.162 128.35ZM201.028 118.234V112.438H208.462V118.234H201.028ZM194.062 124.642L193.63 123.058C193.942 122.998 194.302 122.914 194.71 122.806C195.118 122.686 195.544 122.554 195.988 122.41V117.352H193.882V115.894H195.988V112.222H197.608V115.894H199.624V117.352H197.608V121.87C198.04 121.702 198.442 121.54 198.814 121.384C199.198 121.228 199.522 121.078 199.786 120.934V122.428C199.486 122.584 199.09 122.77 198.598 122.986C198.106 123.19 197.578 123.4 197.014 123.616C196.462 123.832 195.922 124.03 195.394 124.21C194.878 124.39 194.434 124.534 194.062 124.642ZM202.576 117.064H206.932V115.894H202.576V117.064ZM202.576 114.814H206.932V113.662H202.576V114.814Z" fill="white"/>
<path d="M74.1438 304.314C74.0838 304.182 73.9698 303.99 73.8018 303.738C73.6458 303.486 73.4898 303.276 73.3338 303.108C73.2138 303.24 73.0938 303.378 72.9738 303.522C72.8538 303.666 72.7638 303.78 72.7038 303.864C72.2118 303.42 71.6178 302.982 70.9218 302.55C70.3338 302.994 69.6558 303.354 68.8878 303.63C68.1198 303.906 67.2438 304.122 66.2598 304.278C66.2358 304.182 66.1878 304.038 66.1158 303.846C66.0558 303.666 65.9898 303.48 65.9178 303.288C65.8458 303.108 65.7858 302.982 65.7378 302.91C66.5058 302.826 67.2078 302.688 67.8438 302.496C68.4798 302.304 69.0438 302.04 69.5358 301.704C69.0558 301.428 68.5818 301.182 68.1138 300.966C67.6458 300.738 67.2138 300.552 66.8178 300.408C66.9738 300.216 67.1418 299.976 67.3218 299.688C67.5138 299.4 67.7118 299.088 67.9158 298.752H65.8098V297.402H68.6718C68.8518 297.066 69.0138 296.748 69.1578 296.448C69.3018 296.136 69.4158 295.878 69.4998 295.674L69.5718 295.692V293.46C69.1638 293.952 68.7018 294.432 68.1858 294.9C67.6818 295.356 67.2018 295.746 66.7458 296.07C66.6858 295.974 66.5838 295.854 66.4398 295.71C66.3078 295.566 66.1758 295.428 66.0438 295.296C65.9118 295.164 65.8098 295.074 65.7378 295.026C66.0618 294.834 66.4158 294.588 66.7998 294.288C67.1838 293.988 67.5618 293.664 67.9338 293.316C68.3178 292.956 68.6478 292.614 68.9238 292.29H65.9898V291.012H67.7358C67.5438 290.664 67.3098 290.292 67.0338 289.896C66.7698 289.488 66.5238 289.152 66.2958 288.888L67.3758 288.24C67.5438 288.42 67.7238 288.648 67.9158 288.924C68.1198 289.188 68.3058 289.458 68.4738 289.734C68.6538 289.998 68.7978 290.232 68.9058 290.436C68.7738 290.484 68.6058 290.568 68.4018 290.688C68.2098 290.808 68.0418 290.916 67.8978 291.012H69.5718V287.97H70.9938V291.012H72.5238C72.3798 290.916 72.2118 290.814 72.0198 290.706C71.8278 290.598 71.6778 290.526 71.5698 290.49C71.8338 290.154 72.0978 289.764 72.3618 289.32C72.6258 288.876 72.8358 288.486 72.9918 288.15L74.2518 288.69C74.0718 289.038 73.8438 289.434 73.5678 289.878C73.2918 290.322 73.0278 290.7 72.7758 291.012H74.4858V292.29H71.6238C71.9718 292.698 72.3738 293.118 72.8298 293.55C73.2978 293.97 73.7358 294.3 74.1438 294.54C74.0238 294.624 73.8558 294.786 73.6398 295.026C73.4358 295.254 73.2858 295.434 73.1898 295.566C72.8178 295.29 72.4398 294.972 72.0558 294.612C71.6838 294.24 71.3298 293.85 70.9938 293.442V295.71H69.6258L70.9398 296.124C70.8558 296.316 70.7598 296.52 70.6518 296.736C70.5558 296.952 70.4418 297.174 70.3098 297.402H74.6658V298.752H73.3158C73.0158 299.844 72.5778 300.756 72.0018 301.488C72.3138 301.68 72.6138 301.878 72.9018 302.082C73.2018 302.274 73.4778 302.472 73.7298 302.676C73.7058 302.7 73.6698 302.736 73.6218 302.784C73.5858 302.832 73.5378 302.886 73.4778 302.946C74.3418 302.622 75.0978 302.202 75.7458 301.686C76.3938 301.158 76.9518 300.558 77.4198 299.886C76.5798 298.458 76.0218 296.874 75.7458 295.134C75.5898 295.434 75.4218 295.728 75.2418 296.016C75.0738 296.292 74.8998 296.556 74.7198 296.808C74.5878 296.688 74.3838 296.55 74.1078 296.394C73.8438 296.226 73.6098 296.112 73.4058 296.052C73.8018 295.56 74.1618 294.984 74.4858 294.324C74.8218 293.664 75.1098 292.968 75.3498 292.236C75.6018 291.504 75.8058 290.784 75.9618 290.076C76.1298 289.356 76.2558 288.69 76.3398 288.078L77.8698 288.33C77.7738 288.882 77.6598 289.44 77.5278 290.004C77.3958 290.568 77.2458 291.132 77.0778 291.696H82.2258V293.118H80.9478C80.8638 294.462 80.6778 295.698 80.3898 296.826C80.1018 297.942 79.7118 298.95 79.2198 299.85C80.1318 301.05 81.2718 302.07 82.6398 302.91C82.5318 303.006 82.3998 303.138 82.2438 303.306C82.0878 303.486 81.9378 303.654 81.7938 303.81C81.6618 303.966 81.5778 304.086 81.5418 304.17C80.8938 303.75 80.2998 303.294 79.7598 302.802C79.2318 302.298 78.7518 301.77 78.3198 301.218C77.2758 302.538 75.8838 303.57 74.1438 304.314ZM78.2658 298.374C78.6258 297.594 78.8958 296.76 79.0758 295.872C79.2678 294.972 79.3818 294.054 79.4178 293.118H76.8798C76.9278 294.102 77.0658 295.032 77.2938 295.908C77.5338 296.784 77.8578 297.606 78.2658 298.374ZM70.6518 300.714C70.8798 300.438 71.0778 300.138 71.2458 299.814C71.4258 299.49 71.5758 299.136 71.6958 298.752H69.5898C69.4578 298.98 69.3318 299.19 69.2118 299.382C69.0918 299.574 68.9838 299.748 68.8878 299.904C69.1638 300.012 69.4518 300.138 69.7518 300.282C70.0518 300.414 70.3518 300.558 70.6518 300.714Z" fill="white"/>
<path d="M48.9438 304.116C48.8238 303.912 48.6558 303.66 48.4398 303.36C48.2358 303.072 48.0498 302.85 47.8818 302.694C49.3218 302.034 50.5818 301.224 51.6618 300.264C52.7538 299.304 53.5998 298.2 54.1998 296.952C54.8118 295.692 55.1178 294.312 55.1178 292.812V288.294H56.8278V292.344C56.8278 293.496 57.0258 294.6 57.4218 295.656C57.8298 296.7 58.3818 297.666 59.0778 298.554C59.7738 299.442 60.5598 300.222 61.4358 300.894C62.3238 301.566 63.2538 302.1 64.2258 302.496C64.1298 302.604 64.0098 302.76 63.8658 302.964C63.7218 303.156 63.5838 303.354 63.4518 303.558C63.3318 303.762 63.2358 303.93 63.1638 304.062C62.0958 303.534 61.0998 302.88 60.1758 302.1C59.2518 301.32 58.4418 300.438 57.7458 299.454C57.0498 298.458 56.4978 297.384 56.0898 296.232C55.7658 297.396 55.2558 298.47 54.5598 299.454C53.8758 300.438 53.0538 301.32 52.0938 302.1C51.1338 302.88 50.0838 303.552 48.9438 304.116Z" fill="white"/>
<path d="M220.144 304.314C220.084 304.182 219.97 303.99 219.802 303.738C219.646 303.486 219.49 303.276 219.334 303.108C219.214 303.24 219.094 303.378 218.974 303.522C218.854 303.666 218.764 303.78 218.704 303.864C218.212 303.42 217.618 302.982 216.922 302.55C216.334 302.994 215.656 303.354 214.888 303.63C214.12 303.906 213.244 304.122 212.26 304.278C212.236 304.182 212.188 304.038 212.116 303.846C212.056 303.666 211.99 303.48 211.918 303.288C211.846 303.108 211.786 302.982 211.738 302.91C212.506 302.826 213.208 302.688 213.844 302.496C214.48 302.304 215.044 302.04 215.536 301.704C215.056 301.428 214.582 301.182 214.114 300.966C213.646 300.738 213.214 300.552 212.818 300.408C212.974 300.216 213.142 299.976 213.322 299.688C213.514 299.4 213.712 299.088 213.916 298.752H211.81V297.402H214.672C214.852 297.066 215.014 296.748 215.158 296.448C215.302 296.136 215.416 295.878 215.5 295.674L215.572 295.692V293.46C215.164 293.952 214.702 294.432 214.186 294.9C213.682 295.356 213.202 295.746 212.746 296.07C212.686 295.974 212.584 295.854 212.44 295.71C212.308 295.566 212.176 295.428 212.044 295.296C211.912 295.164 211.81 295.074 211.738 295.026C212.062 294.834 212.416 294.588 212.8 294.288C213.184 293.988 213.562 293.664 213.934 293.316C214.318 292.956 214.648 292.614 214.924 292.29H211.99V291.012H213.736C213.544 290.664 213.31 290.292 213.034 289.896C212.77 289.488 212.524 289.152 212.296 288.888L213.376 288.24C213.544 288.42 213.724 288.648 213.916 288.924C214.12 289.188 214.306 289.458 214.474 289.734C214.654 289.998 214.798 290.232 214.906 290.436C214.774 290.484 214.606 290.568 214.402 290.688C214.21 290.808 214.042 290.916 213.898 291.012H215.572V287.97H216.994V291.012H218.524C218.38 290.916 218.212 290.814 218.02 290.706C217.828 290.598 217.678 290.526 217.57 290.49C217.834 290.154 218.098 289.764 218.362 289.32C218.626 288.876 218.836 288.486 218.992 288.15L220.252 288.69C220.072 289.038 219.844 289.434 219.568 289.878C219.292 290.322 219.028 290.7 218.776 291.012H220.486V292.29H217.624C217.972 292.698 218.374 293.118 218.83 293.55C219.298 293.97 219.736 294.3 220.144 294.54C220.024 294.624 219.856 294.786 219.64 295.026C219.436 295.254 219.286 295.434 219.19 295.566C218.818 295.29 218.44 294.972 218.056 294.612C217.684 294.24 217.33 293.85 216.994 293.442V295.71H215.626L216.94 296.124C216.856 296.316 216.76 296.52 216.652 296.736C216.556 296.952 216.442 297.174 216.31 297.402H220.666V298.752H219.316C219.016 299.844 218.578 300.756 218.002 301.488C218.314 301.68 218.614 301.878 218.902 302.082C219.202 302.274 219.478 302.472 219.73 302.676C219.706 302.7 219.67 302.736 219.622 302.784C219.586 302.832 219.538 302.886 219.478 302.946C220.342 302.622 221.098 302.202 221.746 301.686C222.394 301.158 222.952 300.558 223.42 299.886C222.58 298.458 222.022 296.874 221.746 295.134C221.59 295.434 221.422 295.728 221.242 296.016C221.074 296.292 220.9 296.556 220.72 296.808C220.588 296.688 220.384 296.55 220.108 296.394C219.844 296.226 219.61 296.112 219.406 296.052C219.802 295.56 220.162 294.984 220.486 294.324C220.822 293.664 221.11 292.968 221.35 292.236C221.602 291.504 221.806 290.784 221.962 290.076C222.13 289.356 222.256 288.69 222.34 288.078L223.87 288.33C223.774 288.882 223.66 289.44 223.528 290.004C223.396 290.568 223.246 291.132 223.078 291.696H228.226V293.118H226.948C226.864 294.462 226.678 295.698 226.39 296.826C226.102 297.942 225.712 298.95 225.22 299.85C226.132 301.05 227.272 302.07 228.64 302.91C228.532 303.006 228.4 303.138 228.244 303.306C228.088 303.486 227.938 303.654 227.794 303.81C227.662 303.966 227.578 304.086 227.542 304.17C226.894 303.75 226.3 303.294 225.76 302.802C225.232 302.298 224.752 301.77 224.32 301.218C223.276 302.538 221.884 303.57 220.144 304.314ZM224.266 298.374C224.626 297.594 224.896 296.76 225.076 295.872C225.268 294.972 225.382 294.054 225.418 293.118H222.88C222.928 294.102 223.066 295.032 223.294 295.908C223.534 296.784 223.858 297.606 224.266 298.374ZM216.652 300.714C216.88 300.438 217.078 300.138 217.246 299.814C217.426 299.49 217.576 299.136 217.696 298.752H215.59C215.458 298.98 215.332 299.19 215.212 299.382C215.092 299.574 214.984 299.748 214.888 299.904C215.164 300.012 215.452 300.138 215.752 300.282C216.052 300.414 216.352 300.558 216.652 300.714Z" fill="white"/>
<path d="M196.564 303.108V289.212H207.436V303.108H196.564ZM198.31 301.524H205.69V296.79H198.31V301.524ZM198.31 295.26H205.69V290.796H198.31V295.26Z" fill="white"/>
<path d="M199.333 257.667C198.417 257.667 197.632 257.34 196.979 256.688C196.326 256.035 196 255.25 196 254.333V231C196 230.083 196.326 229.299 196.979 228.646C197.632 227.993 198.417 227.667 199.333 227.667H201V224.333H204.333V227.667H217.667V224.333H221V227.667H222.667C223.583 227.667 224.368 227.993 225.021 228.646C225.674 229.299 226 230.083 226 231V254.333C226 255.25 225.674 256.035 225.021 256.688C224.368 257.34 223.583 257.667 222.667 257.667H199.333ZM199.333 254.333H222.667V237.667H199.333V254.333ZM199.333 234.333H222.667V231H199.333V234.333ZM211 244.333C210.528 244.333 210.132 244.174 209.812 243.854C209.493 243.535 209.333 243.139 209.333 242.667C209.333 242.195 209.493 241.799 209.812 241.479C210.132 241.16 210.528 241 211 241C211.472 241 211.868 241.16 212.188 241.479C212.507 241.799 212.667 242.195 212.667 242.667C212.667 243.139 212.507 243.535 212.188 243.854C211.868 244.174 211.472 244.333 211 244.333ZM204.333 244.333C203.861 244.333 203.465 244.174 203.146 243.854C202.826 243.535 202.667 243.139 202.667 242.667C202.667 242.195 202.826 241.799 203.146 241.479C203.465 241.16 203.861 241 204.333 241C204.806 241 205.201 241.16 205.521 241.479C205.84 241.799 206 242.195 206 242.667C206 243.139 205.84 243.535 205.521 243.854C205.201 244.174 204.806 244.333 204.333 244.333ZM217.667 244.333C217.194 244.333 216.799 244.174 216.479 243.854C216.16 243.535 216 243.139 216 242.667C216 242.195 216.16 241.799 216.479 241.479C216.799 241.16 217.194 241 217.667 241C218.139 241 218.535 241.16 218.854 241.479C219.174 241.799 219.333 242.195 219.333 242.667C219.333 243.139 219.174 243.535 218.854 243.854C218.535 244.174 218.139 244.333 217.667 244.333ZM211 251C210.528 251 210.132 250.84 209.812 250.521C209.493 250.202 209.333 249.806 209.333 249.333C209.333 248.861 209.493 248.465 209.812 248.146C210.132 247.827 210.528 247.667 211 247.667C211.472 247.667 211.868 247.827 212.188 248.146C212.507 248.465 212.667 248.861 212.667 249.333C212.667 249.806 212.507 250.202 212.188 250.521C211.868 250.84 211.472 251 211 251ZM204.333 251C203.861 251 203.465 250.84 203.146 250.521C202.826 250.202 202.667 249.806 202.667 249.333C202.667 248.861 202.826 248.465 203.146 248.146C203.465 247.827 203.861 247.667 204.333 247.667C204.806 247.667 205.201 247.827 205.521 248.146C205.84 248.465 206 248.861 206 249.333C206 249.806 205.84 250.202 205.521 250.521C205.201 250.84 204.806 251 204.333 251ZM217.667 251C217.194 251 216.799 250.84 216.479 250.521C216.16 250.202 216 249.806 216 249.333C216 248.861 216.16 248.465 216.479 248.146C216.799 247.827 217.194 247.667 217.667 247.667C218.139 247.667 218.535 247.827 218.854 248.146C219.174 248.465 219.333 248.861 219.333 249.333C219.333 249.806 219.174 250.202 218.854 250.521C218.535 250.84 218.139 251 217.667 251Z" fill="white"/>
<path d="M65 55.0002C64.0833 55.0002 63.2986 54.6738 62.6458 54.021C61.9931 53.3682 61.6667 52.5835 61.6667 51.6668C61.6667 50.7502 61.9931 49.9654 62.6458 49.3127C63.2986 48.6599 64.0833 48.3335 65 48.3335C65.9167 48.3335 66.7014 48.6599 67.3542 49.3127C68.0069 49.9654 68.3333 50.7502 68.3333 51.6668C68.3333 52.5835 68.0069 53.3682 67.3542 54.021C66.7014 54.6738 65.9167 55.0002 65 55.0002ZM60 81.6668V60.0002H50V56.6668H80V60.0002H70V81.6668H66.6667V71.6668H63.3333V81.6668H60Z" fill="white"/>
<path d="M120 159V161H10V159H120ZM128 151V24C128 19.5817 124.418 16 120 16H10C5.58172 16 2 19.5817 2 24V151C2 155.418 5.58172 159 10 159V161L9.48535 160.987C4.37212 160.728 0.271903 156.628 0.0126953 151.515L0 151V24C0 18.4772 4.47715 14 10 14H120C125.523 14 130 18.4772 130 24V151C130 156.35 125.798 160.719 120.515 160.987L120 161V159C124.418 159 128 155.418 128 151Z" fill="white"/>
<path d="M266 159V161H156V159H266ZM274 151V24C274 19.5817 270.418 16 266 16H156C151.582 16 148 19.5817 148 24V151C148 155.418 151.582 159 156 159V161L155.485 160.987C150.372 160.728 146.272 156.628 146.013 151.515L146 151V24C146 18.4772 150.477 14 156 14H266C271.523 14 276 18.4772 276 24V151C276 156.35 271.798 160.719 266.515 160.987L266 161V159C270.418 159 274 155.418 274 151Z" fill="white"/>
<path d="M120 335V337H10V335H120ZM128 327V200C128 195.582 124.418 192 120 192H10C5.58172 192 2 195.582 2 200V327C2 331.418 5.58172 335 10 335V337L9.48535 336.987C4.37212 336.728 0.271903 332.628 0.0126953 327.515L0 327V200C0 194.477 4.47715 190 10 190H120C125.523 190 130 194.477 130 200V327C130 332.35 125.798 336.719 120.515 336.987L120 337V335C124.418 335 128 331.418 128 327Z" fill="white"/>
<path d="M266 335V337H156V335H266ZM274 327V200C274 195.582 270.418 192 266 192H156C151.582 192 148 195.582 148 200V327C148 331.418 151.582 335 156 335V337L155.485 336.987C150.372 336.728 146.272 332.628 146.013 327.515L146 327V200C146 194.477 150.477 190 156 190H266C271.523 190 276 194.477 276 200V327C276 332.35 271.798 336.719 266.515 336.987L266 337V335C270.418 335 274 331.418 274 327Z" fill="white"/>
<path d="M79 14C79 21.732 72.732 28 65 28C57.268 28 51 21.732 51 14C51 6.26801 57.268 0 65 0C72.732 0 79 6.26801 79 14Z" fill="white"/>
<path d="M70.9562 9.57848C71.3633 9.20566 71.9952 9.23317 72.3683 9.64C72.7415 10.0471 72.7139 10.6799 72.3068 11.0531L62.6945 19.8646L57.6027 13.7953C57.2477 13.3722 57.3028 12.7421 57.7257 12.3871C58.1488 12.0321 58.7789 12.0871 59.1339 12.5101L62.883 16.9769L70.9562 9.57848Z" fill="#74CDCC"/>
<path d="M79 190C79 197.732 72.732 204 65 204C57.268 204 51 197.732 51 190C51 182.268 57.268 176 65 176C72.732 176 79 182.268 79 190Z" fill="white"/>
<path d="M70.9562 185.578C71.3633 185.206 71.9952 185.233 72.3683 185.64C72.7415 186.047 72.7139 186.68 72.3068 187.053L62.6945 195.865L57.6027 189.795C57.2477 189.372 57.3028 188.742 57.7257 188.387C58.1488 188.032 58.7789 188.087 59.1339 188.51L62.883 192.977L70.9562 185.578Z" fill="#74CDCC"/>
<path d="M225 14C225 21.732 218.732 28 211 28C203.268 28 197 21.732 197 14C197 6.26801 203.268 0 211 0C218.732 0 225 6.26801 225 14Z" fill="white"/>
<path d="M216.956 9.57848C217.363 9.20566 217.995 9.23317 218.368 9.64C218.741 10.0471 218.714 10.6799 218.307 11.0531L208.694 19.8646L203.603 13.7953C203.248 13.3722 203.303 12.7421 203.726 12.3871C204.149 12.0321 204.779 12.0871 205.134 12.5101L208.883 16.9769L216.956 9.57848Z" fill="#74CDCC"/>
<path d="M225 190C225 197.732 218.732 204 211 204C203.268 204 197 197.732 197 190C197 182.268 203.268 176 211 176C218.732 176 225 182.268 225 190Z" fill="white"/>
<path d="M216.956 185.578C217.363 185.206 217.995 185.233 218.368 185.64C218.741 186.047 218.714 186.68 218.307 187.053L208.694 195.865L203.603 189.795C203.248 189.372 203.303 188.742 203.726 188.387C204.149 188.032 204.779 188.087 205.134 188.51L208.883 192.977L216.956 185.578Z" fill="#74CDCC"/>
</svg>
