<svg width="88" height="108" viewBox="0 0 88 108" fill="none" xmlns="http://www.w3.org/2000/svg">
<g clip-path="url(#clip0_184_108)">
<path d="M29.3391 53.105C31.4904 54.9741 33.1959 55.968 35.5982 57.1555C35.7541 57.2346 35.8753 57.371 35.9272 57.5425L37.9703 63.9811L39.9744 57.7492C39.9831 57.7272 39.9961 57.7052 40.0091 57.6832V57.6656H40.0177C40.1173 57.4545 40.3164 57.3138 40.5501 57.3006C43.5931 57.1335 45.0086 55.6294 46.3807 54.1693C46.6058 53.9318 46.8222 53.6987 47.043 53.4788C47.3503 52.652 47.4585 51.746 47.3503 50.8049L47.2941 50.7873L47.2421 52.1154C47.2291 52.4629 46.9434 52.74 46.6058 52.74C46.5971 52.74 46.5885 52.74 46.5798 52.74C46.2249 52.7268 45.9522 52.4233 45.9695 52.0627L46.2162 45.9935C43.987 47.3041 41.3726 47.6428 38.8317 47.8495C38.0525 47.911 37.3556 47.9418 36.702 47.9418C34.2607 47.9418 32.2436 47.48 30.4732 46.5169L30.4819 52.0847C30.4819 52.4409 30.1962 52.7356 29.8455 52.7356C29.4906 52.7356 29.2093 52.4453 29.2049 52.0891V50.4882C28.9192 51.4646 29.0058 52.3309 29.3478 53.1094L29.3391 53.105Z" fill="white"/>
<path d="M1.68385 91.1824C1.86565 95.0305 2.34179 105.247 5.54061 105.788C19.0328 108.07 28.837 105.674 34.6893 103.263C39.2819 101.372 42.2167 99.1822 43.5022 98.1047C43.4719 98.0651 43.42 97.9947 43.3421 97.8936C40.5588 96.0201 38.7062 91.7101 38.1088 90.1576L20.669 94.6479C20.5997 94.6655 20.5261 94.6743 20.4526 94.6655L14.9163 94.1334C14.6826 94.1114 14.4791 93.9574 14.3882 93.7375C14.2973 93.5177 14.332 93.2626 14.4835 93.0779C14.4964 93.0603 15.8773 91.3319 16.4097 90.228C16.9204 89.1637 17.7775 87.8267 19.1323 86.824L17.8078 80.1567C17.7385 79.8049 17.9636 79.4619 18.3099 79.3915C18.6475 79.3211 18.9938 79.5454 19.0631 79.9017L20.2967 86.1247C20.3573 86.0983 20.4093 86.0632 20.4699 86.0368C22.6731 85.0428 30.0836 88.9878 31.5467 89.7882C31.7805 89.9157 31.906 90.1752 31.88 90.4303L38.3512 88.7635C49.9778 85.3683 54.1505 84.7878 55.7218 84.8845L56.6395 80.3019C56.7087 79.95 57.0464 79.7213 57.3927 79.7961C57.7389 79.8665 57.964 80.2095 57.8904 80.5613L56.8949 85.5398C57.5485 86.9691 56.0768 89.3836 55.4361 90.3292C55.3539 91.2923 54.8518 95.4352 52.1031 96.0904C49.796 96.6358 45.8007 98.1751 45.0562 98.4609C44.4762 99.0195 41.5154 101.702 36.0398 104.103C41.641 104.693 56.0898 105.876 67.37 103.853C68.7508 103.607 70.6511 100.255 71.322 98.4521C74.3564 90.3248 74.1096 80.9879 73.5556 73.7577C73.2872 70.235 72.837 66.2241 70.9541 63.2071C69.2097 60.4188 66.3745 59.0862 63.3748 57.6745C62.9462 57.4722 62.5134 57.2699 62.0892 57.0632C59.6478 55.8802 57.2282 54.7763 54.7825 53.6944V53.756L53.1896 52.9951C51.4971 52.2563 49.796 51.5174 48.0516 50.7654L47.3027 50.4443V50.5367C47.3157 50.629 47.333 50.7214 47.3417 50.8093C47.4499 51.7549 47.3417 52.6565 47.0344 53.4833C47.2465 53.2722 47.4586 53.0699 47.6793 52.8852C47.952 52.6609 48.3546 52.7004 48.5797 52.9775C48.8048 53.2546 48.7615 53.6636 48.4888 53.8923C48.0949 54.2221 47.7053 54.6355 47.2941 55.0709C45.9566 56.4959 44.303 58.255 41.0479 58.5673L38.5677 66.2857C38.4811 66.5539 38.2344 66.7343 37.9617 66.7343C37.6846 66.7343 37.4379 66.5539 37.3557 66.2857L34.7931 58.2067C32.4211 57.0236 30.6853 55.9901 28.5037 54.0902C28.2353 53.8571 28.205 53.4481 28.4345 53.1754C28.6639 52.9028 29.0708 52.872 29.3348 53.1051C28.9928 52.3266 28.9063 51.4602 29.1876 50.4839V50.1584C26.6468 51.2931 23.9587 52.0671 21.3529 52.8148C18.4051 53.6592 15.3535 54.53 12.5789 55.9285C8.41046 58.0219 3.22049 60.6299 1.92192 65.6919C1.32457 68.0272 1.34622 70.644 1.36786 73.1816C1.37652 74.1624 1.38517 75.1783 1.3592 76.1458C1.19905 81.5025 1.2683 85.6234 1.58862 89.5023C1.62325 89.8938 1.64922 90.4699 1.67952 91.1824H1.68385Z" fill="#CED866"/>
<path d="M51.8174 94.8106C52.0944 94.7446 52.3325 94.6083 52.5489 94.4324C52.445 94.4939 52.3455 94.5555 52.2329 94.6127C52.0987 94.6787 51.9559 94.7446 51.8174 94.815V94.8106Z" fill="#CED866"/>
<path d="M43.5758 98.0387C43.4979 97.9903 43.4157 97.9463 43.3378 97.8936C43.4157 97.9991 43.4633 98.0651 43.4979 98.1047C43.5239 98.0827 43.5499 98.0607 43.5758 98.0387Z" fill="white"/>
<path d="M51.813 94.8106C51.813 94.8106 51.8174 94.8106 51.8217 94.8106C51.9646 94.7446 52.1074 94.6743 52.2373 94.6083C52.3498 94.5511 52.4494 94.4896 52.5532 94.428C53.9644 93.2582 54.1678 90.0916 54.1721 90.0565C54.1808 89.9333 54.2197 89.8146 54.289 89.7134C55.1893 88.4248 55.9642 86.6876 55.7564 86.1203C54.4189 85.8388 46.5971 87.7212 39.3511 89.8146C40.0133 91.4946 42.0002 95.9761 44.7272 97.1855C45.7401 96.7941 49.5016 95.3604 51.8087 94.815L51.813 94.8106Z" fill="white"/>
<path d="M17.5567 90.7909C17.2321 91.4726 16.6564 92.3126 16.1932 92.9459L20.4612 93.3549L30.6117 90.7425C27.1965 88.9086 22.145 86.692 20.985 87.2154C19.18 88.0246 18.1238 89.6079 17.5567 90.7909Z" fill="white"/>
<path d="M53.6873 27.685C53.7436 28.0412 53.5055 28.371 53.1592 28.4282C53.1246 28.4326 53.09 28.437 53.0554 28.437C52.748 28.437 52.4753 28.2083 52.4234 27.8917L52.129 26.0357C52.1074 25.8994 52.1377 25.7719 52.194 25.6575C52.1723 25.4816 52.1334 25.3145 52.1074 25.1429L51.9819 25.1122L51.4148 23.1639L50.93 24.5404L50.2071 19.0474C50.2071 19.0474 49.1943 20.9253 48.9692 18.3394C48.7441 15.7534 44.5627 13.5148 44.5627 13.5148L43.0131 15.3927L41.7188 10.2911L38.5113 16.0832C38.5113 16.0832 37.8317 11.5094 38.6066 10.5682C39.3814 9.63145 34.607 13.8227 34.5464 16.435C34.4901 19.0474 33.3257 12.1954 33.3257 12.1954C33.3257 12.1954 29.8325 18.0139 29.9581 19.452C30.0836 20.8902 28.2959 16.7033 28.2959 16.7033L24.3179 22.8384C24.3179 22.8384 23.0799 23.1771 22.5086 22.9484C22.4999 23.5685 22.461 28.1555 22.8722 28.1995L22.158 28.4326L22.3224 30.4688C22.3527 30.8251 22.0887 31.1417 21.7381 31.1681C21.7208 31.1681 21.7035 31.1681 21.6861 31.1681C21.3572 31.1681 21.0758 30.913 21.0498 30.57L21.0152 30.1434L19.4872 29.3957C19.0977 29.62 18.7817 29.9191 18.5739 30.2665C18.3791 30.5876 18.1973 31.0977 18.4181 31.6959C18.9375 33.2219 20.1062 34.1499 21.3745 34.0444C21.6212 34.0224 21.8723 33.9476 22.1493 33.8245C22.2315 33.7849 22.3224 33.7673 22.4133 33.7673C22.5042 33.7673 22.5951 33.7893 22.6817 33.8289C22.8505 33.908 22.9761 34.0576 23.028 34.2379C24.2833 38.6138 26.7289 42.3125 29.9148 44.6522C31.789 46.0331 33.8841 46.6488 36.6977 46.6488C37.3166 46.6488 37.9832 46.618 38.7278 46.5609C41.9828 46.2926 45.0908 45.8528 47.3373 43.4647C50.021 40.6237 51.8304 36.2785 52.2978 31.5551C52.3152 31.3616 52.419 31.1901 52.5749 31.0846C52.7307 30.9746 52.9255 30.9438 53.1116 30.9966C53.3973 31.0802 53.6614 31.1109 53.9427 31.0846C55.3279 30.957 56.2801 29.6332 56.4966 28.393C56.5615 27.9884 56.41 27.5398 56.0767 27.1396C55.6309 26.6075 54.9513 26.26 54.1851 26.1545C54.0206 26.4052 53.7999 26.7262 53.5921 27.0517L53.6917 27.6894L53.6873 27.685ZM41.6236 18.9858C43.2381 18.9287 44.909 19.3421 46.359 20.1469C46.6707 20.3184 46.7832 20.7142 46.6144 21.0265C46.4976 21.242 46.2768 21.3651 46.0517 21.3651C45.9478 21.3651 45.8439 21.3387 45.7444 21.286C44.4934 20.5911 43.0347 20.2305 41.6669 20.2832C41.3162 20.314 41.0176 20.015 41.0046 19.6587C40.9916 19.3025 41.2686 18.999 41.6192 18.9858H41.6236ZM42.9395 26.6031C42.8832 25.9346 43.2684 25.3541 43.9264 25.2969C44.5887 25.2397 45.2033 25.7279 45.2639 26.4008C45.3202 27.0692 44.8051 27.7421 44.1428 27.8037C43.4849 27.8609 43.0001 27.2759 42.9395 26.6075V26.6031ZM37.4032 30.0598C37.7495 30.0334 38.0655 30.2929 38.0958 30.6492L38.4118 34.317C38.4421 34.6733 38.1824 34.9899 37.8317 35.0207C37.8144 35.0207 37.7928 35.0207 37.7755 35.0207C37.4465 35.0207 37.1695 34.7656 37.1392 34.427L36.8232 30.7591C36.7929 30.4029 37.0526 30.0862 37.4032 30.0554V30.0598ZM36.8102 39.0096C38.0049 39.2163 39.7709 39.2119 40.8314 38.7282C41.1518 38.583 41.5327 38.7282 41.6755 39.0536C41.8184 39.3791 41.6755 39.7661 41.3509 39.9112C40.5328 40.285 39.4376 40.4302 38.3858 40.4302C37.7495 40.4302 37.1305 40.3774 36.5938 40.285C36.2475 40.2235 36.0094 39.8892 36.07 39.5374C36.1263 39.1811 36.4639 38.9481 36.8059 39.0052L36.8102 39.0096ZM27.9409 22.7461C27.7505 22.7461 27.5644 22.6625 27.4388 22.4998C27.2224 22.2183 27.27 21.8093 27.547 21.5894C28.772 20.6131 30.3043 19.971 31.8583 19.7863C32.2176 19.7423 32.5249 20.0018 32.5682 20.358C32.6071 20.7142 32.3561 21.0353 32.0055 21.0793C30.6766 21.2376 29.3737 21.7785 28.3348 22.6097C28.218 22.7021 28.0795 22.7505 27.9409 22.7505V22.7461ZM29.088 28.006C29.0317 27.3375 29.43 26.6734 30.0879 26.6163C30.7459 26.5591 31.235 27.1396 31.2913 27.8125C31.3475 28.481 30.9623 29.0835 30.3043 29.1451C29.6464 29.2022 29.1486 28.6789 29.088 28.0104V28.006Z" fill="white"/>
<path d="M45.2596 26.3964C45.199 25.7235 44.5843 25.2353 43.922 25.2925C43.2641 25.3497 42.8788 25.9302 42.9351 26.5987C42.9957 27.2672 43.4805 27.8521 44.1385 27.7949C44.8007 27.7378 45.3158 27.0605 45.2596 26.392V26.3964Z" fill="black"/>
<path d="M31.2913 27.8081C31.235 27.1397 30.7459 26.5547 30.0879 26.6119C29.43 26.6691 29.0318 27.3332 29.088 28.0016C29.1486 28.6701 29.6464 29.1935 30.3044 29.1363C30.9623 29.0791 31.3476 28.4766 31.2913 27.8037V27.8081Z" fill="black"/>
<path d="M37.7755 35.0251C37.7755 35.0251 37.8144 35.0251 37.8318 35.0251C38.1824 34.9943 38.4421 34.6776 38.4118 34.3214L38.0958 30.6535C38.0655 30.2973 37.7495 30.0334 37.4032 30.0642C37.0526 30.095 36.7929 30.4116 36.8232 30.7679L37.1392 34.4358C37.1695 34.7744 37.4465 35.0295 37.7755 35.0295V35.0251Z" fill="black"/>
<path d="M21.6818 31.1681C21.6818 31.1681 21.7164 31.1681 21.7337 31.1681C22.0844 31.1373 22.3484 30.8251 22.3181 30.4689L22.1536 28.4326H22.1493L22.1926 30.7239L21.0109 30.1434L21.0455 30.57C21.0715 30.9087 21.3528 31.1681 21.6818 31.1681Z" fill="black"/>
<path d="M52.129 26.0357L52.4234 27.8916C52.4753 28.2127 52.7437 28.437 53.0553 28.437C53.09 28.437 53.1246 28.437 53.1592 28.4282C53.5098 28.371 53.7436 28.0368 53.6873 27.6849L53.5877 27.0472C53.2544 27.5706 52.9514 28.1071 52.9774 28.4194L52.709 25.2925L52.1117 25.1473C52.1377 25.3233 52.1766 25.4904 52.1983 25.6619C52.1463 25.7762 52.1117 25.9038 52.1333 26.0401L52.129 26.0357Z" fill="black"/>
<path d="M41.6712 20.2876C43.039 20.2348 44.4978 20.5955 45.7487 21.2903C45.844 21.3431 45.9522 21.3695 46.0561 21.3695C46.2811 21.3695 46.5019 21.2464 46.6188 21.0309C46.7876 20.7142 46.675 20.3228 46.3634 20.1513C44.9133 19.3464 43.2425 18.933 41.6279 18.9902C41.2773 19.0034 41.0003 19.3025 41.0133 19.6631C41.0262 20.0237 41.3249 20.3184 41.6755 20.2876H41.6712Z" fill="black"/>
<path d="M32.5682 20.3536C32.5293 19.9974 32.2176 19.7423 31.8584 19.7819C30.3001 19.9666 28.7678 20.6043 27.5471 21.585C27.2701 21.8049 27.2225 22.2139 27.4389 22.4954C27.5644 22.6581 27.7505 22.7417 27.941 22.7417C28.0795 22.7417 28.218 22.6977 28.3349 22.601C29.3738 21.7697 30.681 21.2244 32.0055 21.0705C32.3561 21.0309 32.6072 20.7054 32.5682 20.3492V20.3536Z" fill="black"/>
<path d="M19.483 29.3958L21.011 30.1434L22.1927 30.7239L22.1494 28.4326H22.1537L22.8679 28.1995C22.4567 28.1555 22.5 23.5685 22.5043 22.9484C23.08 23.1771 24.3137 22.8384 24.3137 22.8384L28.2916 16.7033C28.2916 16.7033 30.0793 20.8902 29.9538 19.452C29.8326 18.0139 33.3214 12.1954 33.3214 12.1954C33.3214 12.1954 34.4815 19.0474 34.5421 16.4351C34.6027 13.8227 39.3771 9.62705 38.6023 10.5682C37.8275 11.505 38.5071 16.0832 38.5071 16.0832L41.7146 10.2911L43.0088 15.3927L44.5584 13.5148C44.5584 13.5148 48.7442 15.749 48.9649 18.3394C49.1857 20.9253 50.2029 19.0474 50.2029 19.0474L50.9258 24.5404L51.4106 23.1639L51.9776 25.1122L52.1031 25.143L52.7005 25.2881L52.9689 28.415C52.9429 28.1072 53.2459 27.5662 53.5792 27.0429C53.7913 26.713 54.012 26.3964 54.1722 26.1457C54.2371 26.0445 54.2934 25.9566 54.3367 25.8818C54.5185 25.552 54.6483 25.2397 54.7566 24.9363C55.3582 23.2079 54.8215 21.8445 54.2371 19.9006C54.2371 19.9006 56.6222 21.1364 55.9123 19.4608C55.1981 17.7852 54.012 13.9766 54.012 13.9766L55.2327 14.8826C50.8522 0.496949 40.1909 -2.49364 35.2433 1.81193C35.2433 1.81193 35.1568 1.83392 34.6936 1.64481C25.266 -2.26055 15.0592 12.0899 15.6911 19.4212L16.9161 18.7308C15.3578 23.7972 18.0632 28.7009 18.0632 28.7009L18.1757 28.7581L19.483 29.4002V29.3958Z" fill="#1A1A1A"/>
<path d="M74.5511 23.7664C73.0318 23.2915 71.4042 24.1359 70.9151 25.7455C70.4476 27.2892 71.2787 28.9428 72.8283 29.431C74.3433 29.9059 76.0098 29.0703 76.486 27.4959C76.9751 25.8862 76.0661 24.2458 74.5511 23.7664Z" fill="black"/>
<path d="M81.4552 1.66681C79.5766 1.07749 77.8928 0.914765 74.9926 1.65802C73.6248 2.00105 72.4128 2.5376 72.1055 3.54033C71.7202 4.81573 72.2353 5.96799 73.3218 6.31103C73.9841 6.51773 74.3087 6.39899 75.3562 5.91961C76.0271 5.61615 77.8365 5.00924 79.9791 5.68212C82.3858 6.43857 83.9138 8.42203 83.2212 10.7002C82.7234 12.3406 82.256 12.5605 78.1049 14.3416C77.1526 14.7419 74.5771 15.8413 73.6421 18.9243C73.3781 19.7951 73.2612 21.0045 75.274 21.6378C77.0876 22.2052 77.6027 21.3432 77.949 20.6791C78.7671 19.065 79.0268 18.5593 81.6889 17.4114C84.3077 16.2855 86.6322 15.2916 87.6537 11.9404C88.909 7.81952 86.7663 3.32923 81.4595 1.66241L81.4552 1.66681Z" fill="black"/>
<path d="M36.5981 40.2895C37.1348 40.3818 37.7538 40.4346 38.3901 40.4346C39.442 40.4346 40.5371 40.2851 41.3552 39.9156C41.6798 39.7705 41.8227 39.3835 41.6798 39.058C41.537 38.7326 41.1561 38.5831 40.8358 38.7326C39.7709 39.2164 38.0049 39.2164 36.8145 39.0141C36.4725 38.9569 36.1349 39.19 36.0786 39.5462C36.018 39.8981 36.2561 40.2367 36.6024 40.2939L36.5981 40.2895Z" fill="black"/>
<path d="M46.3764 54.1693C45.0042 55.625 43.5888 57.1335 40.5458 57.3006C40.312 57.3138 40.1129 57.4589 40.0134 57.6656C40.0134 57.67 40.009 57.6744 40.0047 57.6832C39.9961 57.7052 39.9787 57.7228 39.9701 57.7492L37.966 63.981L35.9229 57.5425C35.8709 57.3754 35.7497 57.2346 35.5939 57.1555C33.1959 55.968 31.4861 54.9697 29.3348 53.105C29.0707 52.8719 28.6638 52.9027 28.4344 53.1753C28.205 53.448 28.2353 53.857 28.5037 54.0901C30.6853 55.9856 32.421 57.0191 34.7931 58.2066L37.3556 66.2856C37.4422 66.5538 37.6846 66.7342 37.9616 66.7342C38.2387 66.7342 38.4854 66.5538 38.5676 66.2856L41.0479 58.5672C44.303 58.2505 45.9565 56.4958 47.294 55.0708C47.7053 54.6311 48.0948 54.222 48.4887 53.8922C48.7614 53.6635 48.8004 53.2545 48.5796 52.9774C48.3545 52.7004 47.952 52.6608 47.6793 52.8851C47.4542 53.0698 47.2421 53.2721 47.0343 53.4832C46.8136 53.7031 46.5971 53.9362 46.372 54.1737L46.3764 54.1693Z" fill="black"/>
<path d="M72.0362 62.499C70.0927 59.3853 66.9501 57.912 63.9158 56.4826C63.4916 56.2847 63.0674 56.0824 62.6432 55.8801C57.9726 53.6196 53.1852 51.5569 48.5493 49.5647L47.4845 49.1073C47.4412 49.0897 47.4022 49.0897 47.359 49.0809L47.5191 45.1843C47.5191 45.1448 47.5061 45.1052 47.5018 45.07C47.7615 44.8501 48.0126 44.6214 48.255 44.3619C50.9993 41.4549 52.8866 37.1185 53.4882 32.3776C53.6744 32.3908 53.8562 32.3908 54.0509 32.3776C55.8386 32.2148 57.3926 30.636 57.7519 28.6129C57.8774 27.8169 57.6263 26.9945 57.042 26.2996C56.4793 25.6267 55.6655 25.1562 54.7608 24.9451C54.6569 25.2485 54.5271 25.5608 54.341 25.8906C54.302 25.9654 54.2414 26.0533 54.1765 26.1545C54.9426 26.26 55.6222 26.6075 56.0681 27.1396C56.4057 27.5398 56.5529 27.9884 56.4879 28.393C56.2672 29.6333 55.3192 30.957 53.9341 31.0846C53.6527 31.111 53.3887 31.0846 53.103 30.9966C52.9212 30.9438 52.7264 30.9746 52.5662 31.0846C52.4104 31.1945 52.3065 31.366 52.2892 31.5552C51.8217 36.2829 50.0124 40.6237 47.3287 43.4648C45.0821 45.8528 41.9742 46.2882 38.7191 46.5609C37.9746 46.6225 37.3123 46.6489 36.689 46.6489C33.8754 46.6489 31.7804 46.0331 29.9061 44.6522C26.7203 42.3125 24.2747 38.6138 23.0194 34.2379C22.9674 34.0576 22.8419 33.9081 22.6731 33.8289C22.5865 33.7893 22.4956 33.7673 22.4047 33.7673C22.3138 33.7673 22.2272 33.7849 22.1407 33.8245C21.8636 33.952 21.6082 34.0224 21.3658 34.0444C20.0976 34.1499 18.9245 33.222 18.4094 31.6959C18.1887 31.0978 18.3705 30.5876 18.5653 30.2666C18.773 29.9191 19.089 29.6245 19.4786 29.3958L18.1714 28.7537C17.8943 29 17.6563 29.277 17.4701 29.5893C16.9897 30.3941 16.8988 31.3045 17.2061 32.1357C17.8684 34.0884 19.418 35.355 21.1537 35.355C21.262 35.355 21.3702 35.3506 21.4827 35.3418C21.6515 35.3242 21.8203 35.2978 21.9892 35.2538C23.3743 39.621 25.9022 43.3152 29.1573 45.7033C29.1659 45.7077 29.1746 45.7121 29.1789 45.7209V48.8566C29.0794 48.8434 28.9668 48.8522 28.8586 48.9006C26.3437 50.0441 23.6297 50.8181 21.0066 51.5701C18.0025 52.4321 14.8946 53.3205 12.0118 54.7674C8.45803 56.553 4.20304 58.6948 1.93486 62.4198C1.62753 62.9256 1.36349 63.4621 1.13407 64.0295C0.96093 64.4605 0.805101 64.9003 0.683901 65.3665C0.0432715 67.8645 0.0649144 70.5736 0.0908859 73.1948C0.099543 74.1843 0.1082 75.1606 0.0779001 76.1106C-0.0822573 81.5201 -0.013 85.6849 0.311643 89.6122C0.341943 89.9905 0.367915 90.5534 0.398215 91.2483C0.766144 99.0986 1.61455 106.448 5.31981 107.072C9.22419 107.732 12.8299 108.009 16.1283 108.009C23.4522 108.009 29.2698 106.65 33.5032 105.115C33.7326 105.146 42.3768 106.28 52.3671 106.28C57.4013 106.28 62.7774 105.99 67.5864 105.128C70.2571 104.649 72.4907 98.9666 72.5123 98.9095C75.6376 90.5446 75.3908 81.0187 74.8281 73.6522C74.5468 69.9755 74.0749 65.7755 72.0319 62.5078L72.0362 62.499ZM1.36349 76.1458C1.39379 75.1738 1.38513 74.1623 1.37215 73.1816C1.3505 70.6484 1.32886 68.0272 1.9262 65.6919C3.22478 60.6299 8.41474 58.0219 12.5832 55.9285C15.3621 54.5343 18.4094 53.6592 21.3572 52.8148C23.9587 52.0715 26.6467 51.2931 29.1919 50.1584V52.0847C29.1919 52.4409 29.4819 52.7312 29.8325 52.7312C30.1875 52.7312 30.4688 52.4409 30.4688 52.0803L30.4602 46.5125C32.2349 47.4757 34.2477 47.9375 36.689 47.9375C37.3426 47.9375 38.0395 47.9067 38.8187 47.8451C41.3596 47.634 43.974 47.2998 46.2032 45.9892L45.9565 52.0583C45.9435 52.4189 46.2162 52.718 46.5668 52.7356C46.5755 52.7356 46.5841 52.7356 46.5928 52.7356C46.9348 52.7356 47.2161 52.4629 47.2291 52.1111L47.281 50.7829L47.2897 50.5278V50.4355L48.0429 50.7565C49.7873 51.5086 51.4928 52.243 53.1809 52.9863C53.7133 53.2194 54.2457 53.4481 54.7738 53.6855C57.2195 54.7674 59.6435 55.8713 62.0805 57.0544C62.5047 57.2611 62.9375 57.4634 63.366 57.6657C66.3657 59.0774 69.201 60.41 70.9454 63.1983C72.8283 66.2153 73.2785 70.2262 73.5469 73.7489C74.1009 80.9791 74.3476 90.3203 71.3133 98.4433C70.6381 100.246 68.7421 103.598 67.3613 103.844C56.081 105.867 41.6279 104.684 36.0311 104.095C41.5111 101.693 44.4718 99.0062 45.0475 98.4521C45.7877 98.1662 49.783 96.627 52.0944 96.0816C54.8431 95.4307 55.3452 91.2835 55.4274 90.3203C56.0681 89.3748 57.5398 86.9603 56.8862 85.531L57.8817 80.5525C57.951 80.2007 57.7302 79.8576 57.384 79.7873C57.0377 79.7169 56.7 79.9412 56.6308 80.293L55.7131 84.8757C54.1418 84.7789 49.9691 85.3595 38.3425 88.7547L31.8713 90.4215C31.8973 90.1664 31.7761 89.9069 31.538 89.7794C30.0749 88.9789 22.6644 85.0384 20.4612 86.0279C20.4006 86.0543 20.3486 86.0895 20.288 86.1159L19.0544 79.8928C18.9851 79.541 18.6388 79.3167 18.3012 79.3827C17.9549 79.453 17.7298 79.7961 17.7991 80.1479L19.1236 86.8152C17.7688 87.8179 16.9117 89.1549 16.401 90.2192C15.8729 91.3274 14.4877 93.0514 14.4748 93.069C14.3276 93.2537 14.2886 93.5088 14.3795 93.7287C14.4704 93.9486 14.6739 94.1025 14.9076 94.1245L20.4439 94.6567C20.5174 94.6655 20.591 94.6567 20.6603 94.6391L38.1001 90.1488C38.6975 91.7013 40.5458 96.0112 43.3334 97.8848C43.4113 97.9375 43.4935 97.9815 43.5715 98.0299C43.5455 98.0519 43.5195 98.0739 43.4935 98.0959C42.208 99.1734 39.2732 101.364 34.6806 103.255C28.8283 105.665 19.0241 108.057 5.53191 105.779C2.33309 105.238 1.85695 95.0217 1.67515 91.1735C1.64052 90.4611 1.61455 89.8805 1.58425 89.4935C1.26393 85.6145 1.19467 81.4937 1.35483 76.137L1.36349 76.1458ZM39.3511 89.8146C46.5928 87.7211 54.4145 85.8432 55.7564 86.1203C55.9642 86.6876 55.1894 88.4248 54.289 89.7134C54.2198 89.8146 54.1765 89.9333 54.1721 90.0564C54.1721 90.0916 53.9644 93.2581 52.5533 94.428C52.3368 94.6083 52.0944 94.7402 51.8217 94.8062C51.8217 94.8062 51.8174 94.8062 51.8131 94.8062C49.5059 95.3516 45.7444 96.7853 44.7315 97.1767C42.0045 95.9673 40.0177 91.4858 39.3554 89.8058L39.3511 89.8146ZM20.9849 87.2154C22.145 86.692 27.1964 88.913 30.6117 90.7425L20.4612 93.3549L16.1932 92.9459C16.6564 92.3126 17.2321 91.4682 17.5567 90.7909C18.1237 89.6079 19.1799 88.0246 20.9849 87.2154Z" fill="black"/>
</g>
<defs>
<clipPath id="clip0_184_108">
<rect width="88" height="108" fill="white"/>
</clipPath>
</defs>
</svg>
