<svg width="43" height="36" viewBox="0 0 43 36" fill="none" xmlns="http://www.w3.org/2000/svg">
<path d="M21.4994 4.04187L13.8751 10.0605L14.9337 11.2531C16.6318 13.1651 19.5527 13.4455 21.5838 11.8912L24.1763 9.90741C24.4453 9.70121 24.8268 9.73167 25.0606 9.9777L38.2952 23.1068C38.6533 22.7405 38.9871 22.3812 39.2936 22.0313C46.1736 14.1687 42.6538 4.03953 35.447 0.809972C31.2557 -1.0684 26.2091 0.447574 21.5002 4.04265L21.4994 4.04187Z" fill="white"/>
<path d="M24.5085 11.3211L22.3898 12.9425C19.8098 14.917 16.0993 14.5608 13.9422 12.1318L12.4177 10.4151C12.2965 10.2792 12.2371 10.0988 12.2535 9.91761C12.2691 9.73641 12.3598 9.56927 12.5029 9.4568L20.3844 3.23512C16.0031 0.230495 11.4146 -0.920742 7.5532 0.81002C0.346398 4.03958 -3.17335 14.1687 3.70665 22.0314C8.19742 27.1643 18.8145 34.3607 21.0732 35.8673C21.3359 36.043 21.6775 36.0446 21.9426 35.872C22.2178 35.6924 22.6126 35.4299 23.102 35.0988C23.9503 34.5247 24.0652 33.3196 23.3405 32.5964L20.4172 29.6792C20.2202 29.4824 20.2194 29.163 20.4172 28.9661L20.6401 28.7428C20.8371 28.5459 21.1568 28.5452 21.3539 28.7428L24.8525 32.234C25.4177 32.7979 26.309 32.8705 26.9571 32.4042C27.0838 32.3129 27.212 32.2207 27.341 32.127C28.1533 31.5388 28.2456 30.3634 27.5357 29.655L24.2786 26.4051C24.0816 26.2083 24.0808 25.8889 24.2786 25.6921L24.5015 25.4687C24.6985 25.2719 25.0182 25.2719 25.2153 25.4687L28.943 29.188C29.5239 29.7675 30.4448 29.8253 31.0945 29.3239C31.3564 29.1216 31.6183 28.9169 31.8803 28.7115C32.6472 28.1086 32.7121 26.9698 32.021 26.281L28.14 22.4086C27.943 22.2118 27.9422 21.8924 28.14 21.6955L28.3629 21.4722C28.5599 21.2753 28.8796 21.2746 29.0767 21.4722L33.2703 25.6561C33.8778 26.2622 34.8519 26.2935 35.4985 25.7288C36.1505 25.1602 36.7737 24.5939 37.3538 24.0394L24.5093 11.3227L24.5085 11.3211Z" fill="white"/>
</svg>
