<svg width="568" height="161" viewBox="0 0 568 161" fill="none" xmlns="http://www.w3.org/2000/svg">
<path d="M101.918 134.686L101 133.948C101.012 133.78 101.018 133.492 101.018 133.084C101.03 132.664 101.036 132.184 101.036 131.644C101.048 131.092 101.054 130.522 101.054 129.934C101.054 129.346 101.054 128.8 101.054 128.296C101.054 127.444 101.048 126.604 101.036 125.776C101.036 124.948 101.024 124.294 101 123.814H102.746C102.734 124.042 102.722 124.414 102.71 124.93C102.71 125.434 102.704 125.986 102.692 126.586C102.692 127.174 102.692 127.72 102.692 128.224V132.454C103.196 132.226 103.76 131.95 104.384 131.626C105.008 131.302 105.626 130.96 106.238 130.6C106.85 130.24 107.408 129.886 107.912 129.538C108.416 129.19 108.806 128.884 109.082 128.62C109.082 128.776 109.1 128.986 109.136 129.25C109.172 129.514 109.214 129.766 109.262 130.006C109.322 130.234 109.364 130.396 109.388 130.492C108.992 130.828 108.47 131.2 107.822 131.608C107.186 132.004 106.502 132.406 105.77 132.814C105.05 133.21 104.348 133.576 103.664 133.912C102.98 134.236 102.398 134.494 101.918 134.686ZM94.07 135.262C93.998 135.142 93.89 134.998 93.746 134.83C93.602 134.662 93.446 134.5 93.278 134.344C93.122 134.176 92.984 134.044 92.864 133.948C94.184 133.252 95.174 132.454 95.834 131.554C96.494 130.654 96.902 129.622 97.058 128.458C97.214 127.282 97.184 125.956 96.968 124.48L98.588 124.336C98.84 126.028 98.858 127.552 98.642 128.908C98.438 130.252 97.964 131.446 97.22 132.49C96.476 133.534 95.426 134.458 94.07 135.262Z" fill="white"/>
<path d="M89.462 133.894C89.186 133.702 88.802 133.414 88.31 133.03C87.818 132.634 87.278 132.196 86.69 131.716C86.114 131.236 85.538 130.756 84.962 130.276C84.398 129.784 83.888 129.34 83.432 128.944C82.976 128.536 82.64 128.224 82.424 128.008C82.232 127.816 82.07 127.72 81.938 127.72C81.818 127.72 81.638 127.81 81.398 127.99C81.086 128.242 80.708 128.518 80.264 128.818C79.82 129.106 79.352 129.394 78.86 129.682C78.38 129.958 77.912 130.216 77.456 130.456C77 130.684 76.604 130.864 76.268 130.996L75.26 129.466C75.644 129.334 76.094 129.148 76.61 128.908C77.126 128.668 77.66 128.398 78.212 128.098C78.776 127.786 79.304 127.468 79.796 127.144C80.288 126.82 80.696 126.514 81.02 126.226C81.392 125.902 81.716 125.746 81.992 125.758C82.28 125.758 82.616 125.95 83 126.334C83.228 126.562 83.576 126.88 84.044 127.288C84.524 127.684 85.07 128.128 85.682 128.62C86.294 129.1 86.918 129.586 87.554 130.078C88.19 130.57 88.796 131.02 89.372 131.428C89.948 131.824 90.434 132.136 90.83 132.364C90.698 132.472 90.542 132.622 90.362 132.814C90.182 132.994 90.008 133.18 89.84 133.372C89.684 133.564 89.558 133.738 89.462 133.894ZM87.5 126.784C87.344 126.532 87.146 126.262 86.906 125.974C86.666 125.686 86.42 125.41 86.168 125.146C85.916 124.87 85.682 124.642 85.466 124.462L86.276 123.832C86.468 123.988 86.696 124.21 86.96 124.498C87.236 124.786 87.5 125.08 87.752 125.38C88.016 125.68 88.214 125.932 88.346 126.136L87.5 126.784ZM89.03 125.47C88.874 125.218 88.67 124.954 88.418 124.678C88.178 124.39 87.926 124.114 87.662 123.85C87.41 123.586 87.176 123.37 86.96 123.202L87.752 122.554C87.944 122.71 88.178 122.932 88.454 123.22C88.73 123.496 89 123.778 89.264 124.066C89.528 124.354 89.732 124.6 89.876 124.804L89.03 125.47Z" fill="white"/>
<path d="M60.8241 134.74L59.9241 134.038C59.9361 133.882 59.9421 133.588 59.9421 133.156C59.9541 132.712 59.9601 132.202 59.9601 131.626C59.9721 131.038 59.9781 130.45 59.9781 129.862C59.9781 129.262 59.9781 128.722 59.9781 128.242C59.9781 127.834 59.9781 127.396 59.9781 126.928C59.9781 126.46 59.9721 126.004 59.9601 125.56C59.9601 125.116 59.9541 124.738 59.9421 124.426C59.9421 124.102 59.9361 123.892 59.9241 123.796H61.6701C61.6581 124.024 61.6461 124.39 61.6341 124.894C61.6341 125.398 61.6281 125.944 61.6161 126.532C61.6161 127.12 61.6161 127.666 61.6161 128.17V132.598C62.4441 132.286 63.3321 131.908 64.2801 131.464C65.2401 131.008 66.1821 130.522 67.1061 130.006C68.0301 129.49 68.8761 128.974 69.6441 128.458C70.4241 127.93 71.0541 127.438 71.5341 126.982C71.5341 127.114 71.5521 127.318 71.5881 127.594C71.6361 127.858 71.6901 128.116 71.7501 128.368C71.8101 128.62 71.8521 128.806 71.8761 128.926C71.3961 129.322 70.8201 129.742 70.1481 130.186C69.4881 130.618 68.7621 131.056 67.9701 131.5C67.1901 131.932 66.3801 132.352 65.5401 132.76C64.7121 133.168 63.8961 133.546 63.0921 133.894C62.2881 134.23 61.5321 134.512 60.8241 134.74Z" fill="white"/>
<path d="M38.828 135.766L38.468 134.002C38.636 133.978 38.828 133.954 39.044 133.93C39.272 133.894 39.512 133.852 39.764 133.804V121.96H45.938V132.49C46.214 132.418 46.46 132.352 46.676 132.292C46.904 132.232 47.102 132.178 47.27 132.13V133.642C46.898 133.762 46.442 133.9 45.902 134.056C45.362 134.212 44.774 134.374 44.138 134.542C43.502 134.698 42.86 134.854 42.212 135.01C41.564 135.166 40.946 135.31 40.358 135.442C39.782 135.574 39.272 135.682 38.828 135.766ZM45.254 137.386C45.134 137.146 44.978 136.906 44.786 136.666C44.606 136.426 44.432 136.228 44.264 136.072C45.188 135.628 45.968 135.16 46.604 134.668C47.24 134.164 47.75 133.558 48.134 132.85C48.53 132.142 48.818 131.272 48.998 130.24C49.178 129.196 49.268 127.912 49.268 126.388H46.784V124.786H49.268V121.24H50.888V124.786H54.542C54.542 125.158 54.536 125.554 54.524 125.974C54.524 126.382 54.524 126.808 54.524 127.252C54.524 128.632 54.5 129.892 54.452 131.032C54.416 132.16 54.35 133.09 54.254 133.822C54.146 134.65 53.966 135.304 53.714 135.784C53.474 136.252 53.156 136.582 52.76 136.774C52.364 136.966 51.878 137.062 51.302 137.062H50.114C50.078 136.798 50.024 136.51 49.952 136.198C49.88 135.886 49.814 135.658 49.754 135.514H51.05C51.338 135.514 51.578 135.472 51.77 135.388C51.974 135.292 52.142 135.106 52.274 134.83C52.406 134.554 52.514 134.152 52.598 133.624C52.694 133.024 52.772 132.166 52.832 131.05C52.892 129.922 52.928 128.698 52.94 127.378V126.388H50.888C50.876 127.984 50.756 129.364 50.528 130.528C50.312 131.692 49.97 132.694 49.502 133.534C49.046 134.374 48.464 135.1 47.756 135.712C47.06 136.324 46.226 136.882 45.254 137.386ZM41.366 133.498C42.362 133.306 43.346 133.102 44.318 132.886V130.834H41.366V133.498ZM41.366 129.412H44.318V127.144H41.366V129.412ZM41.366 125.722H44.318V123.472H41.366V125.722Z" fill="white"/>
<path d="M21.26 128.818C21.128 128.578 20.972 128.344 20.792 128.116C20.624 127.876 20.444 127.66 20.252 127.468C21.008 127.168 21.788 126.772 22.592 126.28C23.396 125.776 24.17 125.212 24.914 124.588C25.658 123.964 26.324 123.328 26.912 122.68C27.512 122.02 27.98 121.39 28.316 120.79L29.846 121.006C30.242 121.606 30.728 122.212 31.304 122.824C31.892 123.424 32.534 124 33.23 124.552C33.938 125.092 34.676 125.59 35.444 126.046C36.212 126.49 36.974 126.862 37.73 127.162C37.538 127.39 37.34 127.654 37.136 127.954C36.944 128.242 36.788 128.494 36.668 128.71C35.732 128.29 34.778 127.762 33.806 127.126C32.846 126.478 31.952 125.764 31.124 124.984C30.296 124.204 29.606 123.4 29.054 122.572C28.682 123.148 28.19 123.742 27.578 124.354C26.978 124.954 26.312 125.542 25.58 126.118C24.848 126.682 24.104 127.198 23.348 127.666C22.604 128.134 21.908 128.518 21.26 128.818ZM22.538 137.314C22.49 137.206 22.4 137.056 22.268 136.864C22.148 136.684 22.016 136.498 21.872 136.306C21.74 136.126 21.614 135.988 21.494 135.892C22.394 135.568 23.132 135.184 23.708 134.74C24.284 134.284 24.728 133.732 25.04 133.084C25.364 132.436 25.58 131.65 25.688 130.726C25.796 129.79 25.838 128.674 25.814 127.378H27.524C27.56 128.842 27.494 130.108 27.326 131.176C27.158 132.244 26.876 133.162 26.48 133.93C26.084 134.686 25.562 135.334 24.914 135.874C24.266 136.414 23.474 136.894 22.538 137.314ZM30.89 137.242V127.378H32.6V137.242H30.89Z" fill="white"/>
<path d="M91.9999 106.906C91.5199 106.906 91.1059 106.738 90.7579 106.402C90.4219 106.054 90.2539 105.64 90.2539 105.16C90.2539 104.668 90.4219 104.254 90.7579 103.918C91.1059 103.582 91.5199 103.414 91.9999 103.414C92.4919 103.414 92.9059 103.582 93.2419 103.918C93.5779 104.254 93.7459 104.668 93.7459 105.16C93.7459 105.64 93.5779 106.054 93.2419 106.402C92.9059 106.738 92.4919 106.906 91.9999 106.906Z" fill="white"/>
<path d="M72.3621 110.02C71.8461 110.32 71.3421 110.446 70.8501 110.398C70.3581 110.338 69.9081 109.99 69.5001 109.354C69.1521 108.778 68.8341 108.118 68.5461 107.374C68.2581 106.618 68.0061 105.82 67.7901 104.98C67.5861 104.128 67.4301 103.288 67.3221 102.46C67.2141 101.62 67.1661 100.834 67.1781 100.102L68.8701 100.12C68.8461 100.732 68.8701 101.392 68.9421 102.1C69.0141 102.808 69.1281 103.516 69.2841 104.224C69.4521 104.932 69.6441 105.604 69.8601 106.24C70.0881 106.876 70.3401 107.428 70.6161 107.896C70.8201 108.232 71.0301 108.418 71.2461 108.454C71.4621 108.49 71.6781 108.43 71.8941 108.274C72.1941 108.07 72.5061 107.794 72.8301 107.446C73.1661 107.086 73.4301 106.75 73.6221 106.438C73.7061 106.654 73.8441 106.9 74.0361 107.176C74.2401 107.452 74.4201 107.668 74.5761 107.824C74.3121 108.232 73.9701 108.646 73.5501 109.066C73.1421 109.474 72.7461 109.792 72.3621 110.02ZM79.4541 106.78C79.3461 106.456 79.1721 106.042 78.9321 105.538C78.6921 105.034 78.4161 104.512 78.1041 103.972C77.7921 103.432 77.4741 102.928 77.1501 102.46C76.8381 101.98 76.5561 101.602 76.3041 101.326L77.6361 100.48C77.9121 100.792 78.2181 101.194 78.5541 101.686C78.9021 102.178 79.2441 102.706 79.5801 103.27C79.9161 103.822 80.2101 104.35 80.4621 104.854C80.7261 105.358 80.9181 105.784 81.0381 106.132C80.7621 106.18 80.4741 106.27 80.1741 106.402C79.8741 106.522 79.6341 106.648 79.4541 106.78Z" fill="white"/>
<path d="M49.7721 112.288C49.7001 112.216 49.5741 112.12 49.3941 112C49.2141 111.88 49.0281 111.766 48.8361 111.658C48.6561 111.538 48.5121 111.466 48.4041 111.442C48.8961 110.902 49.3821 110.236 49.8621 109.444C50.3421 108.64 50.7981 107.764 51.2301 106.816C51.6621 105.856 52.0461 104.878 52.3821 103.882C51.7341 103.966 51.1041 104.056 50.4921 104.152C49.8921 104.236 49.4061 104.326 49.0341 104.422C49.0221 104.314 48.9921 104.158 48.9441 103.954C48.9081 103.738 48.8601 103.528 48.8001 103.324C48.7521 103.108 48.7101 102.958 48.6741 102.874C49.0941 102.838 49.6881 102.784 50.4561 102.712C51.2241 102.628 52.0101 102.544 52.8141 102.46C53.0541 101.68 53.2461 100.918 53.3901 100.174C53.5341 99.4299 53.6301 98.7339 53.6781 98.0859L55.2981 98.3739C55.2501 98.9619 55.1541 99.5919 55.0101 100.264C54.8661 100.924 54.6921 101.608 54.4881 102.316C55.0521 102.28 55.5141 102.262 55.8741 102.262C56.3421 102.262 56.7501 102.34 57.0981 102.496C57.4581 102.64 57.7401 102.898 57.9441 103.27C58.1481 103.642 58.2621 104.158 58.2861 104.818C58.3101 105.478 58.2201 106.312 58.0161 107.32C57.8001 108.46 57.5481 109.372 57.2601 110.056C56.9841 110.74 56.6301 111.238 56.1981 111.55C55.7781 111.85 55.2441 112 54.5961 112C54.2601 112 53.9361 111.964 53.6241 111.892C53.3121 111.82 53.0121 111.694 52.7241 111.514C52.7361 111.298 52.7421 111.028 52.7421 110.704C52.7421 110.38 52.7241 110.116 52.6881 109.912C53.2521 110.26 53.8341 110.434 54.4341 110.434C54.7581 110.434 55.0341 110.338 55.2621 110.146C55.4901 109.954 55.7001 109.612 55.8921 109.12C56.0841 108.616 56.2761 107.908 56.4681 106.996C56.6241 106.252 56.7081 105.658 56.7201 105.214C56.7321 104.77 56.6841 104.434 56.5761 104.206C56.4801 103.978 56.3421 103.828 56.1621 103.756C55.9821 103.684 55.7721 103.648 55.5321 103.648C55.3401 103.648 55.1181 103.654 54.8661 103.666C54.6141 103.678 54.3441 103.696 54.0561 103.72C53.6841 104.836 53.2581 105.94 52.7781 107.032C52.2981 108.112 51.8001 109.108 51.2841 110.02C50.7801 110.932 50.2761 111.688 49.7721 112.288ZM63.2001 107.518C63.0081 107.194 62.7381 106.822 62.3901 106.402C62.0541 105.97 61.6881 105.538 61.2921 105.106C60.8961 104.674 60.5061 104.284 60.1221 103.936C59.7501 103.576 59.4201 103.3 59.1321 103.108L60.3381 102.064C60.6501 102.28 60.9981 102.568 61.3821 102.928C61.7781 103.288 62.1741 103.678 62.5701 104.098C62.9781 104.506 63.3501 104.914 63.6861 105.322C64.0341 105.718 64.3041 106.066 64.4961 106.366L63.2001 107.518ZM62.7861 102.208C62.5701 102.016 62.3061 101.818 61.9941 101.614C61.6941 101.398 61.3821 101.2 61.0581 101.02C60.7341 100.828 60.4461 100.678 60.1941 100.57L60.8061 99.7239C61.0341 99.8199 61.3161 99.9699 61.6521 100.174C61.9881 100.378 62.3181 100.588 62.6421 100.804C62.9781 101.02 63.2421 101.206 63.4341 101.362L62.7861 102.208ZM63.9021 100.516C63.6861 100.324 63.4161 100.126 63.0921 99.9219C62.7801 99.7179 62.4621 99.5259 62.1381 99.3459C61.8141 99.1659 61.5261 99.0279 61.2741 98.9319L61.8681 98.0859C62.0961 98.1819 62.3781 98.3259 62.7141 98.5179C63.0621 98.7099 63.4041 98.9079 63.7401 99.1119C64.0761 99.3159 64.3401 99.4959 64.5321 99.6519L63.9021 100.516Z" fill="white"/>
<path d="M39.7101 113.368V110.992H34.8861V109.642H39.7101V108.706H36.2541V103.504H44.7861V108.706H41.3301V109.642H46.2441V110.992H41.3301V113.368H39.7101ZM30.3501 113.314V97.5639H35.1921L35.7501 98.0139C35.7021 98.1579 35.6001 98.4039 35.4441 98.7519C35.2881 99.0999 35.1081 99.4959 34.9041 99.9399C34.7001 100.384 34.4901 100.828 34.2741 101.272C34.0701 101.704 33.8901 102.082 33.7341 102.406C33.5901 102.73 33.4941 102.94 33.4461 103.036C34.0101 103.54 34.4901 104.092 34.8861 104.692C35.2941 105.292 35.4981 105.958 35.4981 106.69C35.4981 107.758 35.2641 108.538 34.7961 109.03C34.3401 109.51 33.7401 109.75 32.9961 109.75H32.2581C32.2341 109.522 32.1861 109.252 32.1141 108.94C32.0421 108.616 31.9641 108.358 31.8801 108.166H32.7441C33.1401 108.166 33.4401 108.04 33.6441 107.788C33.8481 107.524 33.9501 107.098 33.9501 106.51C33.9501 105.91 33.7581 105.328 33.3741 104.764C33.0021 104.2 32.5161 103.666 31.9161 103.162C31.9521 103.078 32.0301 102.898 32.1501 102.622C32.2821 102.346 32.4321 102.022 32.6001 101.65C32.7681 101.266 32.9301 100.888 33.0861 100.516C33.2541 100.132 33.3981 99.7959 33.5181 99.5079C33.6381 99.2199 33.7101 99.0279 33.7341 98.9319H31.8441V113.314H30.3501ZM34.9581 102.73V101.434H37.9641C37.8561 101.17 37.7301 100.888 37.5861 100.588C37.4541 100.276 37.3281 100.006 37.2081 99.7779H35.7321V98.4819H39.7101V96.8979H41.3301V98.4819H45.5061V99.7779H43.8321C43.7481 99.9939 43.6281 100.264 43.4721 100.588C43.3281 100.912 43.1901 101.194 43.0581 101.434H46.1901V102.73H34.9581ZM37.8201 107.536H43.2201V106.654H37.8201V107.536ZM37.8201 105.538H43.2201V104.692H37.8201V105.538ZM39.6561 101.434H41.3481C41.4441 101.23 41.5701 100.96 41.7261 100.624C41.8821 100.288 42.0141 100.006 42.1221 99.7779H38.9361C39.0441 100.006 39.1701 100.282 39.3141 100.606C39.4581 100.918 39.5721 101.194 39.6561 101.434Z" fill="white"/>
<path d="M203.5 72.5002L215.167 69.1668L218.5 57.5002L206.833 60.8335L203.5 72.5002ZM211 67.5002C210.305 67.5002 209.715 67.2571 209.229 66.771C208.743 66.2849 208.5 65.6946 208.5 65.0002C208.5 64.3057 208.743 63.7154 209.229 63.2293C209.715 62.7432 210.305 62.5002 211 62.5002C211.694 62.5002 212.285 62.7432 212.771 63.2293C213.257 63.7154 213.5 64.3057 213.5 65.0002C213.5 65.6946 213.257 66.2849 212.771 66.771C212.285 67.2571 211.694 67.5002 211 67.5002ZM211 81.6668C208.694 81.6668 206.528 81.2293 204.5 80.3543C202.472 79.4793 200.708 78.2918 199.208 76.7918C197.708 75.2918 196.521 73.5279 195.646 71.5002C194.771 69.4724 194.333 67.3057 194.333 65.0002C194.333 62.6946 194.771 60.5279 195.646 58.5002C196.521 56.4724 197.708 54.7085 199.208 53.2085C200.708 51.7085 202.472 50.521 204.5 49.646C206.528 48.771 208.694 48.3335 211 48.3335C213.305 48.3335 215.472 48.771 217.5 49.646C219.528 50.521 221.292 51.7085 222.792 53.2085C224.292 54.7085 225.479 56.4724 226.354 58.5002C227.229 60.5279 227.667 62.6946 227.667 65.0002C227.667 67.3057 227.229 69.4724 226.354 71.5002C225.479 73.5279 224.292 75.2918 222.792 76.7918C221.292 78.2918 219.528 79.4793 217.5 80.3543C215.472 81.2293 213.305 81.6668 211 81.6668ZM211 78.3335C214.694 78.3335 217.84 77.0349 220.437 74.4377C223.035 71.8404 224.333 68.6946 224.333 65.0002C224.333 61.3057 223.035 58.1599 220.437 55.5627C217.84 52.9654 214.694 51.6668 211 51.6668C207.305 51.6668 204.16 52.9654 201.562 55.5627C198.965 58.1599 197.667 61.3057 197.667 65.0002C197.667 68.6946 198.965 71.8404 201.562 74.4377C204.16 77.0349 207.305 78.3335 211 78.3335Z" fill="white"/>
<path d="M338.667 78.3332V73.6665C338.667 72.7221 338.91 71.854 339.396 71.0623C339.882 70.2707 340.528 69.6665 341.333 69.2498C343.056 68.3887 344.806 67.7429 346.583 67.3123C348.361 66.8818 350.167 66.6665 352 66.6665C353.833 66.6665 355.639 66.8818 357.417 67.3123C359.195 67.7429 360.945 68.3887 362.667 69.2498C363.472 69.6665 364.118 70.2707 364.604 71.0623C365.09 71.854 365.333 72.7221 365.333 73.6665V78.3332H338.667ZM368.667 78.3332V73.3332C368.667 72.1109 368.326 70.9373 367.646 69.8123C366.965 68.6873 366 67.7221 364.75 66.9165C366.167 67.0832 367.5 67.3679 368.75 67.7707C370 68.1734 371.167 68.6665 372.25 69.2498C373.25 69.8054 374.014 70.4234 374.542 71.104C375.07 71.7846 375.333 72.5276 375.333 73.3332V78.3332H368.667ZM352 64.9998C350.167 64.9998 348.597 64.3471 347.292 63.0415C345.986 61.7359 345.333 60.1665 345.333 58.3332C345.333 56.4998 345.986 54.9304 347.292 53.6248C348.597 52.3193 350.167 51.6665 352 51.6665C353.833 51.6665 355.403 52.3193 356.708 53.6248C358.014 54.9304 358.667 56.4998 358.667 58.3332C358.667 60.1665 358.014 61.7359 356.708 63.0415C355.403 64.3471 353.833 64.9998 352 64.9998ZM368.667 58.3332C368.667 60.1665 368.014 61.7359 366.708 63.0415C365.403 64.3471 363.833 64.9998 362 64.9998C361.695 64.9998 361.306 64.9651 360.833 64.8957C360.361 64.8262 359.972 64.7498 359.667 64.6665C360.417 63.7776 360.993 62.7915 361.396 61.7082C361.799 60.6248 362 59.4998 362 58.3332C362 57.1665 361.799 56.0415 361.396 54.9582C360.993 53.8748 360.417 52.8887 359.667 51.9998C360.056 51.8609 360.445 51.7707 360.833 51.729C361.222 51.6873 361.611 51.6665 362 51.6665C363.833 51.6665 365.403 52.3193 366.708 53.6248C368.014 54.9304 368.667 56.4998 368.667 58.3332ZM342 74.9998H362V73.6665C362 73.3609 361.924 73.0832 361.771 72.8332C361.618 72.5832 361.417 72.3887 361.167 72.2498C359.667 71.4998 358.153 70.9373 356.625 70.5623C355.097 70.1873 353.556 69.9998 352 69.9998C350.445 69.9998 348.903 70.1873 347.375 70.5623C345.847 70.9373 344.333 71.4998 342.833 72.2498C342.583 72.3887 342.382 72.5832 342.229 72.8332C342.076 73.0832 342 73.3609 342 73.6665V74.9998ZM352 61.6665C352.917 61.6665 353.701 61.3401 354.354 60.6873C355.007 60.0346 355.333 59.2498 355.333 58.3332C355.333 57.4165 355.007 56.6318 354.354 55.979C353.701 55.3262 352.917 54.9998 352 54.9998C351.083 54.9998 350.299 55.3262 349.646 55.979C348.993 56.6318 348.667 57.4165 348.667 58.3332C348.667 59.2498 348.993 60.0346 349.646 60.6873C350.299 61.3401 351.083 61.6665 352 61.6665Z" fill="white"/>
<path d="M224.356 128.314V119.116H222.286C222.25 120.508 222.04 121.756 221.656 122.86C221.284 123.952 220.78 124.912 220.144 125.74C219.52 126.556 218.806 127.258 218.002 127.846C217.93 127.762 217.81 127.642 217.642 127.486C217.486 127.33 217.318 127.18 217.138 127.036C216.97 126.892 216.826 126.79 216.706 126.73C217.486 126.214 218.17 125.596 218.758 124.876C219.346 124.156 219.802 123.286 220.126 122.266C220.462 121.246 220.63 120.04 220.63 118.648V113.248C221.326 113.212 222.07 113.134 222.862 113.014C223.666 112.882 224.44 112.72 225.184 112.528C225.928 112.336 226.564 112.132 227.092 111.916L227.956 113.284C227.452 113.488 226.864 113.68 226.192 113.86C225.532 114.04 224.86 114.196 224.176 114.328C223.492 114.448 222.862 114.538 222.286 114.598V117.568H228.154V119.116H225.976V128.314H224.356ZM212.674 128.386C212.566 128.314 212.416 128.23 212.224 128.134C212.044 128.038 211.858 127.942 211.666 127.846C211.486 127.762 211.33 127.702 211.198 127.666C211.834 126.886 212.296 125.914 212.584 124.75C212.884 123.586 213.034 122.332 213.034 120.988V116.002H219.172V121.744H214.618C214.57 123.172 214.378 124.426 214.042 125.506C213.718 126.574 213.262 127.534 212.674 128.386ZM212.206 114.436V112.996H219.64V114.436H212.206ZM214.636 120.286H217.606V117.478H214.636V120.286Z" fill="white"/>
<path d="M202.162 128.35C202.114 128.29 202.012 128.2 201.856 128.08C201.7 127.96 201.538 127.84 201.37 127.72C201.214 127.6 201.094 127.528 201.01 127.504C201.694 127.204 202.348 126.784 202.972 126.244C203.608 125.692 204.172 125.098 204.664 124.462C205.168 123.814 205.552 123.202 205.816 122.626H204.682C204.298 123.286 203.818 123.928 203.242 124.552C202.678 125.176 202.048 125.746 201.352 126.262C200.656 126.766 199.93 127.174 199.174 127.486C199.126 127.402 199.036 127.288 198.904 127.144C198.784 127.012 198.652 126.88 198.508 126.748C198.376 126.616 198.268 126.532 198.184 126.496C198.796 126.268 199.42 125.95 200.056 125.542C200.692 125.122 201.286 124.66 201.838 124.156C202.39 123.64 202.828 123.13 203.152 122.626H201.946C201.502 123.118 201.01 123.574 200.47 123.994C199.942 124.414 199.402 124.762 198.85 125.038C198.802 124.966 198.712 124.864 198.58 124.732C198.448 124.6 198.31 124.474 198.166 124.354C198.034 124.222 197.92 124.132 197.824 124.084C198.352 123.844 198.886 123.526 199.426 123.13C199.966 122.722 200.464 122.278 200.92 121.798C201.376 121.306 201.736 120.826 202 120.358H199.552V119.134H210.172V120.358H203.566C203.482 120.538 203.386 120.718 203.278 120.898C203.17 121.066 203.05 121.24 202.918 121.42H209.65C209.638 121.744 209.614 122.152 209.578 122.644C209.554 123.124 209.512 123.628 209.452 124.156C209.392 124.684 209.314 125.188 209.218 125.668C209.134 126.136 209.038 126.526 208.93 126.838C208.738 127.39 208.474 127.774 208.138 127.99C207.814 128.206 207.358 128.314 206.77 128.314H205.492C205.48 128.074 205.438 127.81 205.366 127.522C205.294 127.246 205.21 127.018 205.114 126.838H206.428C206.716 126.838 206.944 126.79 207.112 126.694C207.28 126.586 207.418 126.388 207.526 126.1C207.598 125.92 207.664 125.68 207.724 125.38C207.796 125.068 207.862 124.738 207.922 124.39C207.982 124.042 208.03 123.712 208.066 123.4C208.102 123.076 208.126 122.818 208.138 122.626H207.256C206.956 123.37 206.542 124.12 206.014 124.876C205.498 125.62 204.91 126.298 204.25 126.91C203.59 127.522 202.894 128.002 202.162 128.35ZM201.028 118.234V112.438H208.462V118.234H201.028ZM194.062 124.642L193.63 123.058C193.942 122.998 194.302 122.914 194.71 122.806C195.118 122.686 195.544 122.554 195.988 122.41V117.352H193.882V115.894H195.988V112.222H197.608V115.894H199.624V117.352H197.608V121.87C198.04 121.702 198.442 121.54 198.814 121.384C199.198 121.228 199.522 121.078 199.786 120.934V122.428C199.486 122.584 199.09 122.77 198.598 122.986C198.106 123.19 197.578 123.4 197.014 123.616C196.462 123.832 195.922 124.03 195.394 124.21C194.878 124.39 194.434 124.534 194.062 124.642ZM202.576 117.064H206.932V115.894H202.576V117.064ZM202.576 114.814H206.932V113.662H202.576V114.814Z" fill="white"/>
<path d="M366.144 128.314C366.084 128.182 365.97 127.99 365.802 127.738C365.646 127.486 365.49 127.276 365.334 127.108C365.214 127.24 365.094 127.378 364.974 127.522C364.854 127.666 364.764 127.78 364.704 127.864C364.212 127.42 363.618 126.982 362.922 126.55C362.334 126.994 361.656 127.354 360.888 127.63C360.12 127.906 359.244 128.122 358.26 128.278C358.236 128.182 358.188 128.038 358.116 127.846C358.056 127.666 357.99 127.48 357.918 127.288C357.846 127.108 357.786 126.982 357.738 126.91C358.506 126.826 359.208 126.688 359.844 126.496C360.48 126.304 361.044 126.04 361.536 125.704C361.056 125.428 360.582 125.182 360.114 124.966C359.646 124.738 359.214 124.552 358.818 124.408C358.974 124.216 359.142 123.976 359.322 123.688C359.514 123.4 359.712 123.088 359.916 122.752H357.81V121.402H360.672C360.852 121.066 361.014 120.748 361.158 120.448C361.302 120.136 361.416 119.878 361.5 119.674L361.572 119.692V117.46C361.164 117.952 360.702 118.432 360.186 118.9C359.682 119.356 359.202 119.746 358.746 120.07C358.686 119.974 358.584 119.854 358.44 119.71C358.308 119.566 358.176 119.428 358.044 119.296C357.912 119.164 357.81 119.074 357.738 119.026C358.062 118.834 358.416 118.588 358.8 118.288C359.184 117.988 359.562 117.664 359.934 117.316C360.318 116.956 360.648 116.614 360.924 116.29H357.99V115.012H359.736C359.544 114.664 359.31 114.292 359.034 113.896C358.77 113.488 358.524 113.152 358.296 112.888L359.376 112.24C359.544 112.42 359.724 112.648 359.916 112.924C360.12 113.188 360.306 113.458 360.474 113.734C360.654 113.998 360.798 114.232 360.906 114.436C360.774 114.484 360.606 114.568 360.402 114.688C360.21 114.808 360.042 114.916 359.898 115.012H361.572V111.97H362.994V115.012H364.524C364.38 114.916 364.212 114.814 364.02 114.706C363.828 114.598 363.678 114.526 363.57 114.49C363.834 114.154 364.098 113.764 364.362 113.32C364.626 112.876 364.836 112.486 364.992 112.15L366.252 112.69C366.072 113.038 365.844 113.434 365.568 113.878C365.292 114.322 365.028 114.7 364.776 115.012H366.486V116.29H363.624C363.972 116.698 364.374 117.118 364.83 117.55C365.298 117.97 365.736 118.3 366.144 118.54C366.024 118.624 365.856 118.786 365.64 119.026C365.436 119.254 365.286 119.434 365.19 119.566C364.818 119.29 364.44 118.972 364.056 118.612C363.684 118.24 363.33 117.85 362.994 117.442V119.71H361.626L362.94 120.124C362.856 120.316 362.76 120.52 362.652 120.736C362.556 120.952 362.442 121.174 362.31 121.402H366.666V122.752H365.316C365.016 123.844 364.578 124.756 364.002 125.488C364.314 125.68 364.614 125.878 364.902 126.082C365.202 126.274 365.478 126.472 365.73 126.676C365.706 126.7 365.67 126.736 365.622 126.784C365.586 126.832 365.538 126.886 365.478 126.946C366.342 126.622 367.098 126.202 367.746 125.686C368.394 125.158 368.952 124.558 369.42 123.886C368.58 122.458 368.022 120.874 367.746 119.134C367.59 119.434 367.422 119.728 367.242 120.016C367.074 120.292 366.9 120.556 366.72 120.808C366.588 120.688 366.384 120.55 366.108 120.394C365.844 120.226 365.61 120.112 365.406 120.052C365.802 119.56 366.162 118.984 366.486 118.324C366.822 117.664 367.11 116.968 367.35 116.236C367.602 115.504 367.806 114.784 367.962 114.076C368.13 113.356 368.256 112.69 368.34 112.078L369.87 112.33C369.774 112.882 369.66 113.44 369.528 114.004C369.396 114.568 369.246 115.132 369.078 115.696H374.226V117.118H372.948C372.864 118.462 372.678 119.698 372.39 120.826C372.102 121.942 371.712 122.95 371.22 123.85C372.132 125.05 373.272 126.07 374.64 126.91C374.532 127.006 374.4 127.138 374.244 127.306C374.088 127.486 373.938 127.654 373.794 127.81C373.662 127.966 373.578 128.086 373.542 128.17C372.894 127.75 372.3 127.294 371.76 126.802C371.232 126.298 370.752 125.77 370.32 125.218C369.276 126.538 367.884 127.57 366.144 128.314ZM370.266 122.374C370.626 121.594 370.896 120.76 371.076 119.872C371.268 118.972 371.382 118.054 371.418 117.118H368.88C368.928 118.102 369.066 119.032 369.294 119.908C369.534 120.784 369.858 121.606 370.266 122.374ZM362.652 124.714C362.88 124.438 363.078 124.138 363.246 123.814C363.426 123.49 363.576 123.136 363.696 122.752H361.59C361.458 122.98 361.332 123.19 361.212 123.382C361.092 123.574 360.984 123.748 360.888 123.904C361.164 124.012 361.452 124.138 361.752 124.282C362.052 124.414 362.352 124.558 362.652 124.714Z" fill="white"/>
<path d="M340.944 128.116C340.824 127.912 340.656 127.66 340.44 127.36C340.236 127.072 340.05 126.85 339.882 126.694C341.322 126.034 342.582 125.224 343.662 124.264C344.754 123.304 345.6 122.2 346.2 120.952C346.812 119.692 347.118 118.312 347.118 116.812V112.294H348.828V116.344C348.828 117.496 349.026 118.6 349.422 119.656C349.83 120.7 350.382 121.666 351.078 122.554C351.774 123.442 352.56 124.222 353.436 124.894C354.324 125.566 355.254 126.1 356.226 126.496C356.13 126.604 356.01 126.76 355.866 126.964C355.722 127.156 355.584 127.354 355.452 127.558C355.332 127.762 355.236 127.93 355.164 128.062C354.096 127.534 353.1 126.88 352.176 126.1C351.252 125.32 350.442 124.438 349.746 123.454C349.05 122.458 348.498 121.384 348.09 120.232C347.766 121.396 347.256 122.47 346.56 123.454C345.876 124.438 345.054 125.32 344.094 126.1C343.134 126.88 342.084 127.552 340.944 128.116Z" fill="white"/>
<path d="M512.144 128.314C512.084 128.182 511.97 127.99 511.802 127.738C511.646 127.486 511.49 127.276 511.334 127.108C511.214 127.24 511.094 127.378 510.974 127.522C510.854 127.666 510.764 127.78 510.704 127.864C510.212 127.42 509.618 126.982 508.922 126.55C508.334 126.994 507.656 127.354 506.888 127.63C506.12 127.906 505.244 128.122 504.26 128.278C504.236 128.182 504.188 128.038 504.116 127.846C504.056 127.666 503.99 127.48 503.918 127.288C503.846 127.108 503.786 126.982 503.738 126.91C504.506 126.826 505.208 126.688 505.844 126.496C506.48 126.304 507.044 126.04 507.536 125.704C507.056 125.428 506.582 125.182 506.114 124.966C505.646 124.738 505.214 124.552 504.818 124.408C504.974 124.216 505.142 123.976 505.322 123.688C505.514 123.4 505.712 123.088 505.916 122.752H503.81V121.402H506.672C506.852 121.066 507.014 120.748 507.158 120.448C507.302 120.136 507.416 119.878 507.5 119.674L507.572 119.692V117.46C507.164 117.952 506.702 118.432 506.186 118.9C505.682 119.356 505.202 119.746 504.746 120.07C504.686 119.974 504.584 119.854 504.44 119.71C504.308 119.566 504.176 119.428 504.044 119.296C503.912 119.164 503.81 119.074 503.738 119.026C504.062 118.834 504.416 118.588 504.8 118.288C505.184 117.988 505.562 117.664 505.934 117.316C506.318 116.956 506.648 116.614 506.924 116.29H503.99V115.012H505.736C505.544 114.664 505.31 114.292 505.034 113.896C504.77 113.488 504.524 113.152 504.296 112.888L505.376 112.24C505.544 112.42 505.724 112.648 505.916 112.924C506.12 113.188 506.306 113.458 506.474 113.734C506.654 113.998 506.798 114.232 506.906 114.436C506.774 114.484 506.606 114.568 506.402 114.688C506.21 114.808 506.042 114.916 505.898 115.012H507.572V111.97H508.994V115.012H510.524C510.38 114.916 510.212 114.814 510.02 114.706C509.828 114.598 509.678 114.526 509.57 114.49C509.834 114.154 510.098 113.764 510.362 113.32C510.626 112.876 510.836 112.486 510.992 112.15L512.252 112.69C512.072 113.038 511.844 113.434 511.568 113.878C511.292 114.322 511.028 114.7 510.776 115.012H512.486V116.29H509.624C509.972 116.698 510.374 117.118 510.83 117.55C511.298 117.97 511.736 118.3 512.144 118.54C512.024 118.624 511.856 118.786 511.64 119.026C511.436 119.254 511.286 119.434 511.19 119.566C510.818 119.29 510.44 118.972 510.056 118.612C509.684 118.24 509.33 117.85 508.994 117.442V119.71H507.626L508.94 120.124C508.856 120.316 508.76 120.52 508.652 120.736C508.556 120.952 508.442 121.174 508.31 121.402H512.666V122.752H511.316C511.016 123.844 510.578 124.756 510.002 125.488C510.314 125.68 510.614 125.878 510.902 126.082C511.202 126.274 511.478 126.472 511.73 126.676C511.706 126.7 511.67 126.736 511.622 126.784C511.586 126.832 511.538 126.886 511.478 126.946C512.342 126.622 513.098 126.202 513.746 125.686C514.394 125.158 514.952 124.558 515.42 123.886C514.58 122.458 514.022 120.874 513.746 119.134C513.59 119.434 513.422 119.728 513.242 120.016C513.074 120.292 512.9 120.556 512.72 120.808C512.588 120.688 512.384 120.55 512.108 120.394C511.844 120.226 511.61 120.112 511.406 120.052C511.802 119.56 512.162 118.984 512.486 118.324C512.822 117.664 513.11 116.968 513.35 116.236C513.602 115.504 513.806 114.784 513.962 114.076C514.13 113.356 514.256 112.69 514.34 112.078L515.87 112.33C515.774 112.882 515.66 113.44 515.528 114.004C515.396 114.568 515.246 115.132 515.078 115.696H520.226V117.118H518.948C518.864 118.462 518.678 119.698 518.39 120.826C518.102 121.942 517.712 122.95 517.22 123.85C518.132 125.05 519.272 126.07 520.64 126.91C520.532 127.006 520.4 127.138 520.244 127.306C520.088 127.486 519.938 127.654 519.794 127.81C519.662 127.966 519.578 128.086 519.542 128.17C518.894 127.75 518.3 127.294 517.76 126.802C517.232 126.298 516.752 125.77 516.32 125.218C515.276 126.538 513.884 127.57 512.144 128.314ZM516.266 122.374C516.626 121.594 516.896 120.76 517.076 119.872C517.268 118.972 517.382 118.054 517.418 117.118H514.88C514.928 118.102 515.066 119.032 515.294 119.908C515.534 120.784 515.858 121.606 516.266 122.374ZM508.652 124.714C508.88 124.438 509.078 124.138 509.246 123.814C509.426 123.49 509.576 123.136 509.696 122.752H507.59C507.458 122.98 507.332 123.19 507.212 123.382C507.092 123.574 506.984 123.748 506.888 123.904C507.164 124.012 507.452 124.138 507.752 124.282C508.052 124.414 508.352 124.558 508.652 124.714Z" fill="white"/>
<path d="M488.564 127.108V113.212H499.436V127.108H488.564ZM490.31 125.524H497.69V120.79H490.31V125.524ZM490.31 119.26H497.69V114.796H490.31V119.26Z" fill="white"/>
<path d="M491.333 81.6668C490.417 81.6668 489.632 81.3404 488.979 80.6877C488.326 80.0349 488 79.2502 488 78.3335V55.0002C488 54.0835 488.326 53.2988 488.979 52.646C489.632 51.9932 490.417 51.6668 491.333 51.6668H493V48.3335H496.333V51.6668H509.667V48.3335H513V51.6668H514.667C515.583 51.6668 516.368 51.9932 517.021 52.646C517.674 53.2988 518 54.0835 518 55.0002V78.3335C518 79.2502 517.674 80.0349 517.021 80.6877C516.368 81.3404 515.583 81.6668 514.667 81.6668H491.333ZM491.333 78.3335H514.667V61.6668H491.333V78.3335ZM491.333 58.3335H514.667V55.0002H491.333V58.3335ZM503 68.3335C502.528 68.3335 502.132 68.1738 501.812 67.8543C501.493 67.5349 501.333 67.1391 501.333 66.6668C501.333 66.1946 501.493 65.7988 501.812 65.4793C502.132 65.1599 502.528 65.0002 503 65.0002C503.472 65.0002 503.868 65.1599 504.188 65.4793C504.507 65.7988 504.667 66.1946 504.667 66.6668C504.667 67.1391 504.507 67.5349 504.188 67.8543C503.868 68.1738 503.472 68.3335 503 68.3335ZM496.333 68.3335C495.861 68.3335 495.465 68.1738 495.146 67.8543C494.826 67.5349 494.667 67.1391 494.667 66.6668C494.667 66.1946 494.826 65.7988 495.146 65.4793C495.465 65.1599 495.861 65.0002 496.333 65.0002C496.806 65.0002 497.201 65.1599 497.521 65.4793C497.84 65.7988 498 66.1946 498 66.6668C498 67.1391 497.84 67.5349 497.521 67.8543C497.201 68.1738 496.806 68.3335 496.333 68.3335ZM509.667 68.3335C509.194 68.3335 508.799 68.1738 508.479 67.8543C508.16 67.5349 508 67.1391 508 66.6668C508 66.1946 508.16 65.7988 508.479 65.4793C508.799 65.1599 509.194 65.0002 509.667 65.0002C510.139 65.0002 510.535 65.1599 510.854 65.4793C511.174 65.7988 511.333 66.1946 511.333 66.6668C511.333 67.1391 511.174 67.5349 510.854 67.8543C510.535 68.1738 510.139 68.3335 509.667 68.3335ZM503 75.0002C502.528 75.0002 502.132 74.8404 501.812 74.521C501.493 74.2015 501.333 73.8057 501.333 73.3335C501.333 72.8613 501.493 72.4654 501.812 72.146C502.132 71.8265 502.528 71.6668 503 71.6668C503.472 71.6668 503.868 71.8265 504.188 72.146C504.507 72.4654 504.667 72.8613 504.667 73.3335C504.667 73.8057 504.507 74.2015 504.188 74.521C503.868 74.8404 503.472 75.0002 503 75.0002ZM496.333 75.0002C495.861 75.0002 495.465 74.8404 495.146 74.521C494.826 74.2015 494.667 73.8057 494.667 73.3335C494.667 72.8613 494.826 72.4654 495.146 72.146C495.465 71.8265 495.861 71.6668 496.333 71.6668C496.806 71.6668 497.201 71.8265 497.521 72.146C497.84 72.4654 498 72.8613 498 73.3335C498 73.8057 497.84 74.2015 497.521 74.521C497.201 74.8404 496.806 75.0002 496.333 75.0002ZM509.667 75.0002C509.194 75.0002 508.799 74.8404 508.479 74.521C508.16 74.2015 508 73.8057 508 73.3335C508 72.8613 508.16 72.4654 508.479 72.146C508.799 71.8265 509.194 71.6668 509.667 71.6668C510.139 71.6668 510.535 71.8265 510.854 72.146C511.174 72.4654 511.333 72.8613 511.333 73.3335C511.333 73.8057 511.174 74.2015 510.854 74.521C510.535 74.8404 510.139 75.0002 509.667 75.0002Z" fill="white"/>
<path d="M65 55.0002C64.0833 55.0002 63.2986 54.6738 62.6458 54.021C61.9931 53.3682 61.6667 52.5835 61.6667 51.6668C61.6667 50.7502 61.9931 49.9654 62.6458 49.3127C63.2986 48.6599 64.0833 48.3335 65 48.3335C65.9167 48.3335 66.7014 48.6599 67.3542 49.3127C68.0069 49.9654 68.3333 50.7502 68.3333 51.6668C68.3333 52.5835 68.0069 53.3682 67.3542 54.021C66.7014 54.6738 65.9167 55.0002 65 55.0002ZM60 81.6668V60.0002H50V56.6668H80V60.0002H70V81.6668H66.6667V71.6668H63.3333V81.6668H60Z" fill="white"/>
<path d="M120 159V161H10V159H120ZM128 151V24C128 19.5817 124.418 16 120 16H10C5.58172 16 2 19.5817 2 24V151C2 155.418 5.58172 159 10 159V161L9.48535 160.987C4.20167 160.719 0 156.35 0 151V24C0 18.4772 4.47715 14 10 14H120C125.523 14 130 18.4772 130 24V151C130 156.523 125.523 161 120 161V159C124.418 159 128 155.418 128 151Z" fill="white"/>
<path d="M266 159V161H156V159H266ZM274 151V24C274 19.5817 270.418 16 266 16H156C151.582 16 148 19.5817 148 24V151C148 155.418 151.582 159 156 159V161L155.485 160.987C150.202 160.719 146 156.35 146 151V24C146 18.4772 150.477 14 156 14H266C271.523 14 276 18.4772 276 24V151C276 156.523 271.523 161 266 161V159C270.418 159 274 155.418 274 151Z" fill="white"/>
<path d="M412 159V161H302V159H412ZM420 151V24C420 19.5817 416.418 16 412 16H302C297.582 16 294 19.5817 294 24V151C294 155.418 297.582 159 302 159V161L301.485 160.987C296.202 160.719 292 156.35 292 151V24C292 18.4772 296.477 14 302 14H412C417.523 14 422 18.4772 422 24V151C422 156.523 417.523 161 412 161V159C416.418 159 420 155.418 420 151Z" fill="white"/>
<path d="M558 159V161H448V159H558ZM566 151V24C566 19.5817 562.418 16 558 16H448C443.582 16 440 19.5817 440 24V151C440 155.418 443.582 159 448 159V161L447.485 160.987C442.202 160.719 438 156.35 438 151V24C438 18.4772 442.477 14 448 14H558C563.523 14 568 18.4772 568 24V151C568 156.523 563.523 161 558 161V159C562.418 159 566 155.418 566 151Z" fill="white"/>
<path d="M79 14C79 21.732 72.732 28 65 28C57.268 28 51 21.732 51 14C51 6.26801 57.268 0 65 0C72.732 0 79 6.26801 79 14Z" fill="white"/>
<path d="M70.9562 9.57848C71.3633 9.20566 71.9952 9.23317 72.3683 9.64C72.7415 10.0471 72.7139 10.6799 72.3068 11.0531L62.6945 19.8646L57.6027 13.7953C57.2477 13.3722 57.3028 12.7421 57.7257 12.3871C58.1488 12.0321 58.7789 12.0871 59.1339 12.5101L62.883 16.9769L70.9562 9.57848Z" fill="#74CDCC"/>
<path d="M371 14C371 21.732 364.732 28 357 28C349.268 28 343 21.732 343 14C343 6.26801 349.268 0 357 0C364.732 0 371 6.26801 371 14Z" fill="white"/>
<path d="M362.956 9.57848C363.363 9.20566 363.995 9.23317 364.368 9.64C364.741 10.0471 364.714 10.6799 364.307 11.0531L354.694 19.8646L349.603 13.7953C349.248 13.3722 349.303 12.7421 349.726 12.3871C350.149 12.0321 350.779 12.0871 351.134 12.5101L354.883 16.9769L362.956 9.57848Z" fill="#74CDCC"/>
<path d="M225 14C225 21.732 218.732 28 211 28C203.268 28 197 21.732 197 14C197 6.26801 203.268 0 211 0C218.732 0 225 6.26801 225 14Z" fill="white"/>
<path d="M216.956 9.57848C217.363 9.20566 217.995 9.23317 218.368 9.64C218.741 10.0471 218.714 10.6799 218.307 11.0531L208.694 19.8646L203.603 13.7953C203.248 13.3722 203.303 12.7421 203.726 12.3871C204.149 12.0321 204.779 12.0871 205.134 12.5101L208.883 16.9769L216.956 9.57848Z" fill="#74CDCC"/>
<path d="M517 14C517 21.732 510.732 28 503 28C495.268 28 489 21.732 489 14C489 6.26801 495.268 0 503 0C510.732 0 517 6.26801 517 14Z" fill="white"/>
<path d="M508.956 9.57848C509.363 9.20566 509.995 9.23317 510.368 9.64C510.741 10.0471 510.714 10.6799 510.307 11.0531L500.694 19.8646L495.603 13.7953C495.248 13.3722 495.303 12.7421 495.726 12.3871C496.149 12.0321 496.779 12.0871 497.134 12.5101L500.883 16.9769L508.956 9.57848Z" fill="#74CDCC"/>
</svg>
