<svg width="400" height="110" viewBox="0 0 400 110" fill="none" xmlns="http://www.w3.org/2000/svg">
<rect width="400" height="110" rx="10" fill="white"/>
<path d="M63.7184 42H30.0794C29.484 42 29 42.484 29 43.0804V45.2053L46.8988 57.1994L64.7977 45.2042V43.0804C64.7977 42.484 64.3137 42 63.7184 42Z" fill="#2CBCE0"/>
<path d="M29 49.6339V63.8545C29 66.2404 30.9326 68.173 33.3196 68.173H60.4781C62.8652 68.173 64.7977 66.2404 64.7977 63.8545V49.6328L46.8988 61.628L29 49.6339Z" fill="#2CBCE0"/>
<path d="M91.414 81.742V80.272H100.598V78.732H91.918V77.29H100.598V75.862H91.442V74.42H96.104V69.366H97.868V74.42H102.362V81.742H91.414ZM100.094 74.112C99.982 74.028 99.8373 73.9347 99.66 73.832C99.4827 73.7293 99.3007 73.6313 99.114 73.538C98.9273 73.4447 98.764 73.3793 98.624 73.342C98.8667 73.0527 99.1187 72.6933 99.38 72.264C99.6507 71.8347 99.898 71.396 100.122 70.948C100.346 70.4907 100.509 70.0893 100.612 69.744L102.236 70.36C102.068 70.7707 101.863 71.214 101.62 71.69C101.377 72.1567 101.121 72.6047 100.85 73.034C100.589 73.454 100.337 73.8133 100.094 74.112ZM93.612 74.182C93.4907 73.846 93.3227 73.4633 93.108 73.034C92.8933 72.6047 92.6553 72.1847 92.394 71.774C92.142 71.354 91.89 71.004 91.638 70.724L93.094 69.94C93.3553 70.248 93.6167 70.598 93.878 70.99C94.1487 71.382 94.396 71.7833 94.62 72.194C94.8533 72.6047 95.0493 72.992 95.208 73.356C95.0773 73.4027 94.9093 73.4773 94.704 73.58C94.508 73.6827 94.3073 73.79 94.102 73.902C93.906 74.0047 93.7427 74.098 93.612 74.182ZM106.45 81L104.28 71.2H105.946L107.332 78.074L109.11 71.2H110.552L112.33 78.074L113.716 71.2H115.396L113.212 81H111.728L109.824 73.762L107.934 81H106.45ZM118.909 81.154C117.929 81.154 117.136 80.86 116.529 80.272C115.923 79.6747 115.619 78.7927 115.619 77.626C115.619 76.898 115.755 76.2727 116.025 75.75C116.296 75.218 116.674 74.812 117.159 74.532C117.645 74.2427 118.2 74.098 118.825 74.098C119.451 74.098 119.983 74.252 120.421 74.56C120.86 74.8587 121.196 75.2693 121.429 75.792C121.663 76.3147 121.779 76.9027 121.779 77.556V77.92H117.173C117.211 78.592 117.388 79.0727 117.705 79.362C118.023 79.642 118.433 79.782 118.937 79.782C119.376 79.782 119.735 79.6793 120.015 79.474C120.295 79.2593 120.538 78.942 120.743 78.522L121.905 79.334C121.56 79.978 121.135 80.4447 120.631 80.734C120.137 81.014 119.563 81.154 118.909 81.154ZM117.243 76.702H120.225C120.151 76.2633 119.987 75.9273 119.735 75.694C119.493 75.4513 119.18 75.33 118.797 75.33C118.387 75.33 118.046 75.442 117.775 75.666C117.514 75.89 117.337 76.2353 117.243 76.702ZM126.602 81.154C126.219 81.154 125.869 81.0747 125.552 80.916C125.235 80.748 124.959 80.5193 124.726 80.23L124.642 81H123.27V71.018H124.852V74.868C125.076 74.6253 125.337 74.4387 125.636 74.308C125.935 74.168 126.257 74.098 126.602 74.098C127.227 74.098 127.783 74.238 128.268 74.518C128.763 74.798 129.15 75.204 129.43 75.736C129.71 76.2587 129.85 76.8887 129.85 77.626C129.85 78.3633 129.71 78.998 129.43 79.53C129.15 80.0527 128.763 80.454 128.268 80.734C127.783 81.014 127.227 81.154 126.602 81.154ZM126.546 79.726C127.041 79.726 127.451 79.544 127.778 79.18C128.105 78.816 128.268 78.298 128.268 77.626C128.268 76.954 128.105 76.436 127.778 76.072C127.451 75.708 127.041 75.526 126.546 75.526C126.051 75.526 125.641 75.708 125.314 76.072C124.987 76.436 124.824 76.954 124.824 77.626C124.824 78.298 124.987 78.816 125.314 79.18C125.641 79.544 126.051 79.726 126.546 79.726ZM135.833 81.686C135.712 81.49 135.544 81.2613 135.329 81C135.115 80.7387 134.9 80.5333 134.685 80.384C135.964 79.852 136.911 79.138 137.527 78.242C138.153 77.3367 138.479 76.17 138.507 74.742H136.057V77.528H134.377V74.756C133.92 74.756 133.477 74.7607 133.047 74.77C132.627 74.77 132.254 74.7747 131.927 74.784C131.61 74.784 131.381 74.7887 131.241 74.798V73.118C131.344 73.118 131.549 73.1227 131.857 73.132C132.175 73.1413 132.553 73.1507 132.991 73.16C133.439 73.16 133.901 73.1647 134.377 73.174C134.377 72.7447 134.373 72.3293 134.363 71.928C134.363 71.5267 134.359 71.172 134.349 70.864C134.34 70.5467 134.326 70.318 134.307 70.178H136.113C136.104 70.318 136.095 70.5467 136.085 70.864C136.076 71.1813 136.067 71.5453 136.057 71.956C136.057 72.3573 136.057 72.768 136.057 73.188H138.507C138.507 72.8613 138.503 72.488 138.493 72.068C138.484 71.648 138.475 71.242 138.465 70.85C138.456 70.4487 138.447 70.1313 138.437 69.898H140.187V73.174C140.645 73.1647 141.083 73.16 141.503 73.16C141.933 73.1507 142.311 73.146 142.637 73.146C142.973 73.1367 143.221 73.1273 143.379 73.118V74.798C143.23 74.7887 142.987 74.784 142.651 74.784C142.325 74.7747 141.947 74.77 141.517 74.77C141.088 74.7607 140.645 74.756 140.187 74.756C140.159 76.4733 139.781 77.8873 139.053 78.998C138.325 80.0993 137.252 80.9953 135.833 81.686ZM151.135 81.224V75.162C150.426 75.6473 149.698 76.1 148.951 76.52C148.214 76.9307 147.491 77.29 146.781 77.598C146.707 77.458 146.604 77.2947 146.473 77.108C146.343 76.9213 146.203 76.7393 146.053 76.562C145.913 76.3847 145.773 76.2447 145.633 76.142C146.445 75.8527 147.285 75.4747 148.153 75.008C149.021 74.5413 149.857 74.0233 150.659 73.454C151.471 72.8847 152.213 72.2873 152.885 71.662C153.557 71.0367 154.103 70.416 154.523 69.8L155.979 70.794C155.578 71.326 155.111 71.8533 154.579 72.376C154.057 72.8893 153.492 73.3887 152.885 73.874V81.224H151.135ZM163.763 81.434V70.15H165.471V74.392L166.101 73.496C166.325 73.6547 166.619 73.8553 166.983 74.098C167.357 74.3313 167.753 74.574 168.173 74.826C168.593 75.0687 168.999 75.2927 169.391 75.498C169.783 75.7033 170.115 75.8573 170.385 75.96C170.273 76.0627 170.143 76.212 169.993 76.408C169.853 76.5947 169.723 76.7907 169.601 76.996C169.48 77.192 169.382 77.36 169.307 77.5C169.083 77.3787 168.803 77.2247 168.467 77.038C168.141 76.842 167.791 76.6273 167.417 76.394C167.053 76.1607 166.699 75.932 166.353 75.708C166.017 75.4747 165.723 75.2647 165.471 75.078V81.434H163.763ZM177.161 81.644C176.303 81.616 175.645 81.3873 175.187 80.958C174.73 80.5193 174.501 79.9967 174.501 79.39C174.501 78.97 174.632 78.592 174.893 78.256C175.164 77.9107 175.537 77.64 176.013 77.444C176.499 77.248 177.054 77.164 177.679 77.192C177.969 77.2013 178.253 77.2293 178.533 77.276C178.505 76.6787 178.468 76.03 178.421 75.33C178.384 74.63 178.347 73.9347 178.309 73.244C178.272 72.544 178.239 71.8907 178.211 71.284C178.183 70.6773 178.169 70.164 178.169 69.744H179.919C179.901 70.0613 179.891 70.4627 179.891 70.948C179.901 71.4333 179.915 71.956 179.933 72.516C180.307 72.488 180.722 72.4413 181.179 72.376C181.637 72.3107 182.08 72.2313 182.509 72.138C182.948 72.0447 183.317 71.9467 183.615 71.844C183.615 71.956 183.625 72.1193 183.643 72.334C183.671 72.5393 183.699 72.7447 183.727 72.95C183.755 73.146 183.783 73.3 183.811 73.412C183.513 73.5053 183.139 73.594 182.691 73.678C182.243 73.7527 181.781 73.818 181.305 73.874C180.829 73.93 180.395 73.972 180.003 74C180.041 74.6533 180.078 75.2973 180.115 75.932C180.153 76.5573 180.185 77.122 180.213 77.626C180.979 77.8313 181.702 78.102 182.383 78.438C183.065 78.774 183.695 79.1193 184.273 79.474C184.152 79.5673 184.012 79.712 183.853 79.908C183.704 80.0947 183.569 80.286 183.447 80.482C183.326 80.6687 183.237 80.8227 183.181 80.944C182.743 80.5987 182.276 80.286 181.781 80.006C181.296 79.7167 180.801 79.4693 180.297 79.264C180.297 79.7307 180.19 80.1507 179.975 80.524C179.761 80.8973 179.42 81.182 178.953 81.378C178.496 81.5833 177.899 81.672 177.161 81.644ZM177.203 80.048C177.651 80.0853 177.997 80.0293 178.239 79.88C178.482 79.7213 178.603 79.4973 178.603 79.208V78.746C178.407 78.6993 178.211 78.6713 178.015 78.662C177.819 78.6433 177.628 78.634 177.441 78.634C177.003 78.634 176.667 78.6993 176.433 78.83C176.209 78.9607 176.097 79.1333 176.097 79.348C176.097 79.7587 176.466 79.992 177.203 80.048ZM192.337 81.966C192.207 81.742 192.02 81.4947 191.777 81.224C191.535 80.9627 191.301 80.7527 191.077 80.594C192.356 80.09 193.341 79.334 194.031 78.326C194.731 77.318 195.081 76.086 195.081 74.63C195.081 73.7433 194.923 73.1273 194.605 72.782C194.297 72.4273 193.924 72.264 193.485 72.292C193.14 72.3107 192.818 72.5067 192.519 72.88C192.221 73.244 192.001 73.7713 191.861 74.462C191.731 75.1527 191.735 75.9973 191.875 76.996C191.745 77.0053 191.572 77.0287 191.357 77.066C191.152 77.1033 190.951 77.1453 190.755 77.192C190.569 77.2387 190.429 77.2807 190.335 77.318C190.27 76.9727 190.214 76.5387 190.167 76.016C190.13 75.4933 190.097 74.9287 190.069 74.322C190.051 73.7153 190.037 73.1087 190.027 72.502C190.027 71.8953 190.037 71.3353 190.055 70.822C190.074 70.3087 190.102 69.8933 190.139 69.576L191.847 69.73C191.801 69.954 191.754 70.2433 191.707 70.598C191.67 70.9433 191.637 71.312 191.609 71.704C191.581 72.096 191.563 72.474 191.553 72.838C191.768 72.25 192.076 71.7647 192.477 71.382C192.888 70.99 193.341 70.7893 193.835 70.78C194.405 70.7707 194.913 70.9107 195.361 71.2C195.809 71.48 196.164 71.9093 196.425 72.488C196.687 73.0573 196.817 73.7713 196.817 74.63C196.817 76.4313 196.421 77.9247 195.627 79.11C194.843 80.286 193.747 81.238 192.337 81.966ZM205.203 81.966C205.091 81.7793 204.942 81.5553 204.755 81.294C204.569 81.0327 204.354 80.8087 204.111 80.622C205.101 80.342 205.861 80.02 206.393 79.656C206.925 79.2827 207.294 78.844 207.499 78.34C207.201 78.4893 206.902 78.564 206.603 78.564C205.894 78.564 205.32 78.3633 204.881 77.962C204.452 77.5607 204.223 77.0193 204.195 76.338C204.177 75.8713 204.27 75.456 204.475 75.092C204.681 74.7187 204.97 74.4247 205.343 74.21C205.717 73.9953 206.141 73.888 206.617 73.888C206.692 73.888 206.757 73.8927 206.813 73.902C206.869 73.902 206.93 73.9067 206.995 73.916C206.977 73.748 206.958 73.5753 206.939 73.398C206.921 73.2207 206.911 73.034 206.911 72.838C206.155 72.866 205.418 72.908 204.699 72.964C203.981 73.02 203.323 73.0853 202.725 73.16C202.128 73.2253 201.633 73.3047 201.241 73.398L201.003 71.774C201.339 71.746 201.811 71.718 202.417 71.69C203.024 71.6527 203.715 71.6153 204.489 71.578C205.273 71.5407 206.081 71.5033 206.911 71.466V69.492H208.535V71.396C209.263 71.368 209.959 71.3447 210.621 71.326C211.284 71.298 211.877 71.2793 212.399 71.27C212.922 71.2513 213.333 71.2467 213.631 71.256L213.519 72.894C212.978 72.8287 212.259 72.7913 211.363 72.782C210.477 72.7633 209.534 72.7633 208.535 72.782C208.535 73.118 208.545 73.4587 208.563 73.804C208.591 74.1493 208.615 74.4807 208.633 74.798C209.091 75.3393 209.319 76.058 209.319 76.954C209.319 78.1953 208.96 79.2407 208.241 80.09C207.523 80.93 206.51 81.5553 205.203 81.966ZM206.617 77.164C206.879 77.1453 207.084 77.0567 207.233 76.898C207.383 76.7393 207.457 76.534 207.457 76.282C207.457 76.198 207.448 76.1093 207.429 76.016C207.42 75.9133 207.406 75.806 207.387 75.694C207.191 75.47 206.944 75.358 206.645 75.358C206.384 75.358 206.165 75.442 205.987 75.61C205.81 75.778 205.726 75.9927 205.735 76.254C205.735 76.5247 205.815 76.7487 205.973 76.926C206.141 77.094 206.356 77.1733 206.617 77.164ZM222.829 82.05C222.661 81.7047 222.433 81.3173 222.143 80.888C221.863 80.4493 221.551 80.0013 221.205 79.544C220.86 79.0773 220.51 78.6247 220.155 78.186C219.801 77.7473 219.465 77.3553 219.147 77.01C218.839 76.6553 218.578 76.3753 218.363 76.17C218.037 75.862 217.873 75.5913 217.873 75.358C217.883 75.1153 218.037 74.8633 218.335 74.602C218.569 74.3967 218.844 74.1353 219.161 73.818C219.479 73.5007 219.81 73.1507 220.155 72.768C220.501 72.3853 220.837 71.9933 221.163 71.592C221.499 71.1907 221.798 70.8033 222.059 70.43C222.33 70.0473 222.54 69.702 222.689 69.394L224.285 70.472C224.08 70.752 223.8 71.0973 223.445 71.508C223.091 71.9187 222.708 72.348 222.297 72.796C221.887 73.2347 221.49 73.6547 221.107 74.056C220.734 74.448 220.412 74.7747 220.141 75.036C219.908 75.2507 219.917 75.4793 220.169 75.722C220.375 75.9273 220.627 76.2027 220.925 76.548C221.224 76.884 221.541 77.262 221.877 77.682C222.223 78.0927 222.563 78.508 222.899 78.928C223.235 79.348 223.539 79.7447 223.809 80.118C224.089 80.482 224.309 80.7853 224.467 81.028C224.309 81.084 224.122 81.1727 223.907 81.294C223.693 81.4153 223.487 81.5413 223.291 81.672C223.095 81.812 222.941 81.938 222.829 82.05ZM225.713 74.294C225.527 74.014 225.279 73.7153 224.971 73.398C224.673 73.0713 224.402 72.81 224.159 72.614L224.901 71.97C225.041 72.082 225.214 72.2407 225.419 72.446C225.634 72.6513 225.839 72.866 226.035 73.09C226.231 73.3047 226.385 73.4867 226.497 73.636L225.713 74.294ZM226.945 73.188C226.749 72.908 226.497 72.6093 226.189 72.292C225.881 71.9747 225.606 71.7227 225.363 71.536L226.105 70.892C226.245 71.004 226.418 71.1627 226.623 71.368C226.838 71.564 227.043 71.7693 227.239 71.984C227.445 72.1987 227.603 72.3807 227.715 72.53L226.945 73.188ZM230.459 81.098C230.394 80.7153 230.343 80.2487 230.305 79.698C230.268 79.138 230.24 78.5313 230.221 77.878C230.212 77.2153 230.212 76.534 230.221 75.834C230.24 75.134 230.268 74.4527 230.305 73.79C230.352 73.118 230.408 72.4973 230.473 71.928C230.548 71.3587 230.632 70.8733 230.725 70.472L232.363 70.808C232.261 71.144 232.172 71.5827 232.097 72.124C232.023 72.656 231.962 73.244 231.915 73.888C231.869 74.5227 231.836 75.176 231.817 75.848C231.808 76.52 231.813 77.1733 231.831 77.808C231.85 78.4427 231.883 79.0167 231.929 79.53C231.976 80.0433 232.037 80.4587 232.111 80.776L230.459 81.098ZM236.409 80.342C234.795 80.2953 233.88 79.768 233.665 78.76C233.609 78.508 233.591 78.228 233.609 77.92C233.628 77.612 233.698 77.2713 233.819 76.898L235.289 77.262C235.224 77.4393 235.187 77.598 235.177 77.738C235.177 77.878 235.196 78.004 235.233 78.116C235.355 78.452 235.849 78.634 236.717 78.662C237.137 78.6713 237.585 78.6573 238.061 78.62C238.547 78.5733 239.018 78.508 239.475 78.424C239.942 78.34 240.348 78.2467 240.693 78.144C240.675 78.2747 240.651 78.452 240.623 78.676C240.605 78.9 240.591 79.1287 240.581 79.362C240.572 79.586 240.572 79.7727 240.581 79.922C240.143 80.034 239.671 80.1227 239.167 80.188C238.673 80.2533 238.183 80.3 237.697 80.328C237.221 80.3467 236.792 80.3513 236.409 80.342ZM234.309 73.51L234.211 71.788C234.566 71.8347 235 71.8627 235.513 71.872C236.027 71.8813 236.559 71.8767 237.109 71.858C237.669 71.83 238.201 71.788 238.705 71.732C239.219 71.6667 239.643 71.5873 239.979 71.494L239.909 73.188C239.536 73.2533 239.102 73.314 238.607 73.37C238.113 73.4167 237.599 73.454 237.067 73.482C236.545 73.51 236.041 73.5287 235.555 73.538C235.079 73.538 234.664 73.5287 234.309 73.51ZM248.505 80.692C247.88 80.692 247.32 80.6267 246.825 80.496C246.34 80.356 245.92 80.1133 245.565 79.768C245.22 79.4133 244.935 78.914 244.711 78.27L246.195 77.458C246.317 77.9433 246.564 78.312 246.937 78.564C247.311 78.816 247.833 78.942 248.505 78.942C249.103 78.942 249.719 78.914 250.353 78.858C250.988 78.802 251.585 78.7227 252.145 78.62C252.705 78.5173 253.167 78.4007 253.531 78.27C253.531 78.4193 253.541 78.6153 253.559 78.858C253.587 79.1007 253.62 79.3387 253.657 79.572C253.704 79.8053 253.746 79.9873 253.783 80.118C253.41 80.2393 252.934 80.342 252.355 80.426C251.777 80.51 251.151 80.5753 250.479 80.622C249.817 80.6687 249.159 80.692 248.505 80.692ZM246.307 72.46L246.293 70.766C246.564 70.85 246.9 70.9153 247.301 70.962C247.712 71.0087 248.151 71.0367 248.617 71.046C249.093 71.0553 249.569 71.0507 250.045 71.032C250.521 71.004 250.96 70.9667 251.361 70.92C251.763 70.864 252.094 70.794 252.355 70.71V72.418C252.122 72.4927 251.805 72.5533 251.403 72.6C251.002 72.6467 250.563 72.684 250.087 72.712C249.611 72.7307 249.131 72.7353 248.645 72.726C248.16 72.7167 247.712 72.6887 247.301 72.642C246.891 72.5953 246.559 72.5347 246.307 72.46ZM254.231 72.768C254.054 72.4787 253.816 72.1707 253.517 71.844C253.219 71.5173 252.953 71.2513 252.719 71.046L253.475 70.43C253.615 70.542 253.783 70.7053 253.979 70.92C254.185 71.1347 254.385 71.354 254.581 71.578C254.777 71.7927 254.927 71.9793 255.029 72.138L254.231 72.768ZM255.477 71.704C255.3 71.4147 255.062 71.1113 254.763 70.794C254.465 70.4673 254.194 70.206 253.951 70.01L254.721 69.38C254.861 69.492 255.029 69.6553 255.225 69.87C255.431 70.0753 255.631 70.29 255.827 70.514C256.023 70.7287 256.173 70.9153 256.275 71.074L255.477 71.704ZM259.369 81.994V76.954C259.117 77.3833 258.861 77.7893 258.599 78.172C258.338 78.5547 258.091 78.8813 257.857 79.152C257.689 78.984 257.475 78.7973 257.213 78.592C256.961 78.3867 256.733 78.2373 256.527 78.144C256.779 77.9107 257.041 77.612 257.311 77.248C257.591 76.8747 257.862 76.4733 258.123 76.044C258.394 75.6053 258.637 75.176 258.851 74.756C259.075 74.3267 259.248 73.9393 259.369 73.594V73.524H257.073V72.068H259.369V69.38H260.979V72.068H262.617V73.524H260.979V74.476C261.175 74.7187 261.409 74.9893 261.679 75.288C261.95 75.5773 262.221 75.8527 262.491 76.114C262.771 76.3753 263 76.576 263.177 76.716V69.898H269.057V81.546H263.177V76.73C263.075 76.814 262.953 76.9307 262.813 77.08C262.683 77.22 262.552 77.3647 262.421 77.514C262.3 77.654 262.207 77.7707 262.141 77.864C261.992 77.7147 261.815 77.528 261.609 77.304C261.404 77.08 261.194 76.842 260.979 76.59V81.994H259.369ZM264.787 80.09H267.447V78.06H264.787V80.09ZM264.787 76.646H267.447V74.672H264.787V76.646ZM264.787 73.272H267.447V71.354H264.787V73.272ZM276.393 82.092C276.319 81.896 276.202 81.6673 276.043 81.406C275.885 81.1447 275.721 80.93 275.553 80.762C276.459 80.5193 277.154 80.174 277.639 79.726C278.125 79.2687 278.456 78.6667 278.633 77.92C278.811 77.164 278.885 76.226 278.857 75.106L280.397 75.176C280.397 75.54 280.388 75.89 280.369 76.226C280.36 76.562 280.332 76.8793 280.285 77.178C280.537 78.0087 280.981 78.7273 281.615 79.334C282.25 79.9407 283.02 80.3933 283.925 80.692C283.767 80.8413 283.589 81.056 283.393 81.336C283.197 81.616 283.048 81.854 282.945 82.05C281.517 81.49 280.449 80.5613 279.739 79.264C279.441 79.9453 279.021 80.5193 278.479 80.986C277.938 81.4433 277.243 81.812 276.393 82.092ZM276.463 75.974C276.379 75.778 276.263 75.5587 276.113 75.316C275.973 75.0733 275.819 74.868 275.651 74.7C276.547 74.4853 277.224 74.154 277.681 73.706C278.148 73.258 278.456 72.6747 278.605 71.956C278.764 71.228 278.829 70.346 278.801 69.31L280.355 69.366C280.355 69.7207 280.346 70.0613 280.327 70.388C280.309 70.7053 280.281 71.0087 280.243 71.298C280.729 72.9407 281.919 74.0373 283.813 74.588C283.655 74.756 283.487 74.9707 283.309 75.232C283.141 75.484 283.006 75.7127 282.903 75.918C282.194 75.6473 281.573 75.3113 281.041 74.91C280.519 74.4993 280.075 73.9813 279.711 73.356C279.422 74.0093 279.016 74.546 278.493 74.966C277.971 75.386 277.294 75.722 276.463 75.974ZM271.465 81.714V77.682H275.525V81.714H271.465ZM270.975 73.02V71.746H275.777V73.02H270.975ZM271.591 71.06V69.744H275.301V71.06H271.591ZM271.591 76.968V75.68H275.301V76.968H271.591ZM271.591 74.994V73.706H275.301V74.994H271.591ZM277.485 72.95C277.28 72.866 277.033 72.7867 276.743 72.712C276.454 72.628 276.211 72.5767 276.015 72.558C276.127 72.334 276.23 72.0633 276.323 71.746C276.426 71.4287 276.515 71.1113 276.589 70.794C276.664 70.4673 276.715 70.1967 276.743 69.982L278.157 70.178C278.139 70.4113 278.097 70.7007 278.031 71.046C277.966 71.3913 277.882 71.7367 277.779 72.082C277.686 72.418 277.588 72.7073 277.485 72.95ZM277.387 79.18C277.182 79.096 276.935 79.012 276.645 78.928C276.365 78.8347 276.127 78.774 275.931 78.746C276.053 78.522 276.165 78.2513 276.267 77.934C276.379 77.6167 276.473 77.2993 276.547 76.982C276.631 76.6647 276.692 76.3987 276.729 76.184L278.129 76.436C278.111 76.6693 278.059 76.9587 277.975 77.304C277.901 77.64 277.812 77.976 277.709 78.312C277.607 78.648 277.499 78.9373 277.387 79.18ZM282.077 72.838C281.928 72.7167 281.718 72.5813 281.447 72.432C281.177 72.2827 280.953 72.1753 280.775 72.11C280.934 71.914 281.088 71.6853 281.237 71.424C281.387 71.1533 281.522 70.8827 281.643 70.612C281.765 70.332 281.863 70.08 281.937 69.856L283.295 70.388C283.221 70.6213 283.113 70.8873 282.973 71.186C282.843 71.4847 282.698 71.7787 282.539 72.068C282.381 72.3573 282.227 72.614 282.077 72.838ZM282.105 78.9C281.956 78.7787 281.746 78.6433 281.475 78.494C281.205 78.3353 280.981 78.2233 280.803 78.158C281.037 77.8687 281.256 77.5187 281.461 77.108C281.667 76.6973 281.825 76.3287 281.937 76.002L283.295 76.534C283.174 76.8887 283.001 77.29 282.777 77.738C282.563 78.1767 282.339 78.564 282.105 78.9ZM272.893 80.426H274.097V78.97H272.893V80.426ZM290.183 79.586C289.717 79.8473 289.278 79.9547 288.867 79.908C288.457 79.852 288.093 79.586 287.775 79.11C287.486 78.662 287.22 78.1347 286.977 77.528C286.735 76.9213 286.525 76.2773 286.347 75.596C286.179 74.9147 286.049 74.2333 285.955 73.552C285.871 72.8707 285.834 72.2313 285.843 71.634L287.551 71.648C287.523 72.1053 287.537 72.6047 287.593 73.146C287.649 73.6873 287.738 74.2333 287.859 74.784C287.981 75.3347 288.125 75.848 288.293 76.324C288.461 76.7907 288.643 77.1827 288.839 77.5C288.97 77.724 289.11 77.8547 289.259 77.892C289.418 77.92 289.586 77.878 289.763 77.766C289.987 77.6167 290.221 77.4113 290.463 77.15C290.715 76.8887 290.925 76.6367 291.093 76.394C291.14 76.534 291.215 76.6927 291.317 76.87C291.429 77.0473 291.546 77.22 291.667 77.388C291.798 77.556 291.915 77.6913 292.017 77.794C291.765 78.1673 291.476 78.5127 291.149 78.83C290.832 79.1473 290.51 79.3993 290.183 79.586ZM295.475 76.968C295.382 76.6973 295.237 76.3613 295.041 75.96C294.845 75.5587 294.621 75.1433 294.369 74.714C294.117 74.2753 293.865 73.874 293.613 73.51C293.361 73.1367 293.128 72.8473 292.913 72.642L294.257 71.788C294.491 72.0213 294.747 72.334 295.027 72.726C295.317 73.118 295.597 73.538 295.867 73.986C296.147 74.4247 296.395 74.854 296.609 75.274C296.824 75.6847 296.978 76.0347 297.071 76.324C296.782 76.38 296.488 76.4687 296.189 76.59C295.9 76.7113 295.662 76.8373 295.475 76.968ZM301.159 81.644C300.954 81.5133 300.688 81.378 300.361 81.238C300.035 81.1073 299.75 81.014 299.507 80.958C299.75 80.6127 300.002 80.174 300.263 79.642C300.525 79.1007 300.786 78.5033 301.047 77.85C301.309 77.1873 301.561 76.5013 301.803 75.792C302.046 75.0733 302.265 74.3687 302.461 73.678C301.929 73.7247 301.425 73.7573 300.949 73.776C300.483 73.7947 300.095 73.7947 299.787 73.776L299.633 72.096C300.016 72.1333 300.497 72.1473 301.075 72.138C301.663 72.1287 302.27 72.096 302.895 72.04C303.017 71.5547 303.11 71.1067 303.175 70.696C303.25 70.2853 303.297 69.9213 303.315 69.604L305.065 69.842C305.028 70.1127 304.972 70.416 304.897 70.752C304.823 71.0787 304.739 71.4333 304.645 71.816C305.028 71.7507 305.387 71.6807 305.723 71.606C306.059 71.522 306.344 71.438 306.577 71.354L306.829 72.922C306.54 73.0153 306.162 73.1133 305.695 73.216C305.238 73.3093 304.739 73.3933 304.197 73.468C303.992 74.2053 303.763 74.966 303.511 75.75C303.259 76.5247 302.998 77.2807 302.727 78.018C302.457 78.7553 302.186 79.4367 301.915 80.062C301.654 80.678 301.402 81.2053 301.159 81.644ZM310.651 81.056C309.643 81.2147 308.691 81.252 307.795 81.168C306.909 81.084 306.134 80.902 305.471 80.622C304.818 80.342 304.328 79.992 304.001 79.572L304.855 78.312C305.182 78.648 305.639 78.9233 306.227 79.138C306.825 79.3433 307.52 79.4647 308.313 79.502C309.116 79.53 309.989 79.4553 310.931 79.278C310.838 79.5113 310.763 79.8053 310.707 80.16C310.661 80.5147 310.642 80.8133 310.651 81.056ZM310.231 76.1C309.923 75.9973 309.569 75.9087 309.167 75.834C308.766 75.75 308.341 75.6847 307.893 75.638C307.455 75.5913 307.021 75.5633 306.591 75.554C306.171 75.5353 305.789 75.5353 305.443 75.554L305.653 73.916C305.989 73.8973 306.381 73.902 306.829 73.93C307.287 73.9487 307.758 73.9813 308.243 74.028C308.738 74.0747 309.205 74.1353 309.643 74.21C310.091 74.2753 310.474 74.3453 310.791 74.42L310.231 76.1ZM315.159 81.644C314.954 81.5133 314.688 81.378 314.361 81.238C314.035 81.1073 313.75 81.014 313.507 80.958C313.75 80.6127 314.002 80.174 314.263 79.642C314.525 79.1007 314.786 78.5033 315.047 77.85C315.309 77.1873 315.561 76.5013 315.803 75.792C316.046 75.0733 316.265 74.3687 316.461 73.678C315.929 73.7247 315.425 73.7573 314.949 73.776C314.483 73.7947 314.095 73.7947 313.787 73.776L313.633 72.096C314.016 72.1333 314.497 72.1473 315.075 72.138C315.663 72.1287 316.27 72.096 316.895 72.04C317.017 71.5547 317.11 71.1067 317.175 70.696C317.25 70.2853 317.297 69.9213 317.315 69.604L319.065 69.842C319.028 70.1127 318.972 70.416 318.897 70.752C318.823 71.0787 318.739 71.4333 318.645 71.816C319.028 71.7507 319.387 71.6807 319.723 71.606C320.059 71.522 320.344 71.438 320.577 71.354L320.829 72.922C320.54 73.0153 320.162 73.1133 319.695 73.216C319.238 73.3093 318.739 73.3933 318.197 73.468C317.992 74.2053 317.763 74.966 317.511 75.75C317.259 76.5247 316.998 77.2807 316.727 78.018C316.457 78.7553 316.186 79.4367 315.915 80.062C315.654 80.678 315.402 81.2053 315.159 81.644ZM324.651 81.056C323.643 81.2147 322.691 81.252 321.795 81.168C320.909 81.084 320.134 80.902 319.471 80.622C318.818 80.342 318.328 79.992 318.001 79.572L318.855 78.312C319.182 78.648 319.639 78.9233 320.227 79.138C320.825 79.3433 321.52 79.4647 322.313 79.502C323.116 79.53 323.989 79.4553 324.931 79.278C324.838 79.5113 324.763 79.8053 324.707 80.16C324.661 80.5147 324.642 80.8133 324.651 81.056ZM324.231 76.1C323.923 75.9973 323.569 75.9087 323.167 75.834C322.766 75.75 322.341 75.6847 321.893 75.638C321.455 75.5913 321.021 75.5633 320.591 75.554C320.171 75.5353 319.789 75.5353 319.443 75.554L319.653 73.916C319.989 73.8973 320.381 73.902 320.829 73.93C321.287 73.9487 321.758 73.9813 322.243 74.028C322.738 74.0747 323.205 74.1353 323.643 74.21C324.091 74.2753 324.474 74.3453 324.791 74.42L324.231 76.1ZM324.819 71.676C324.605 71.4053 324.329 71.1253 323.993 70.836C323.667 70.5467 323.373 70.318 323.111 70.15L323.783 69.436C323.933 69.5293 324.119 69.6693 324.343 69.856C324.577 70.0427 324.801 70.2387 325.015 70.444C325.239 70.64 325.412 70.808 325.533 70.948L324.819 71.676ZM323.685 72.88C323.545 72.7027 323.377 72.516 323.181 72.32C322.985 72.124 322.78 71.942 322.565 71.774C322.36 71.5967 322.173 71.452 322.005 71.34L322.677 70.626C322.827 70.7193 323.013 70.864 323.237 71.06C323.461 71.2467 323.681 71.4427 323.895 71.648C324.11 71.844 324.278 72.012 324.399 72.152L323.685 72.88ZM333.023 81.868C332.855 81.6253 332.669 81.3827 332.463 81.14C332.267 80.9067 332.048 80.7107 331.805 80.552C332.515 80.2347 333.098 79.8567 333.555 79.418C334.013 78.9793 334.353 78.4333 334.577 77.78C334.801 77.1173 334.913 76.31 334.913 75.358V74.28C334.297 74.3267 333.719 74.3687 333.177 74.406C332.645 74.434 332.244 74.448 331.973 74.448L331.749 72.768C332.085 72.7867 332.538 72.7913 333.107 72.782C333.686 72.7633 334.288 72.7353 334.913 72.698V69.828H336.565V72.558C337.032 72.5113 337.457 72.4553 337.839 72.39C338.231 72.3247 338.544 72.2593 338.777 72.194V73.888C338.563 73.9253 338.259 73.9673 337.867 74.014C337.475 74.0607 337.041 74.1073 336.565 74.154V75.358C336.565 76.9727 336.285 78.298 335.725 79.334C335.175 80.3607 334.274 81.2053 333.023 81.868ZM328.655 79.81C328.599 79.4833 328.548 79.0773 328.501 78.592C328.455 78.0973 328.417 77.556 328.389 76.968C328.361 76.38 328.343 75.7733 328.333 75.148C328.324 74.5227 328.319 73.916 328.319 73.328C328.329 72.74 328.347 72.2033 328.375 71.718C328.403 71.2327 328.441 70.8313 328.487 70.514L330.181 70.738C330.107 71.0927 330.051 71.564 330.013 72.152C329.976 72.7307 329.953 73.3653 329.943 74.056C329.943 74.7467 329.953 75.4373 329.971 76.128C329.999 76.8093 330.037 77.4393 330.083 78.018C330.139 78.5873 330.209 79.0447 330.293 79.39L328.655 79.81ZM345.413 81.756C344.62 81.728 344.004 81.5087 343.565 81.098C343.127 80.6873 342.912 80.1787 342.921 79.572C342.931 79.1707 343.061 78.8113 343.313 78.494C343.565 78.1767 343.915 77.9293 344.363 77.752C344.811 77.5747 345.329 77.5 345.917 77.528C346.076 77.528 346.225 77.5373 346.365 77.556C346.515 77.5653 346.664 77.5793 346.813 77.598L346.771 75.988C346.613 75.9973 346.449 76.002 346.281 76.002C346.123 76.002 345.964 76.002 345.805 76.002C345.245 76.002 344.802 75.96 344.475 75.876C344.158 75.7827 343.901 75.6333 343.705 75.428C343.519 75.2133 343.332 74.9193 343.145 74.546L344.461 73.888C344.592 74.14 344.746 74.3033 344.923 74.378C345.101 74.4433 345.404 74.476 345.833 74.476C345.973 74.476 346.118 74.476 346.267 74.476C346.426 74.4667 346.585 74.4573 346.743 74.448C346.734 74.196 346.725 73.9393 346.715 73.678C346.715 73.4167 346.711 73.16 346.701 72.908C346.02 72.9453 345.376 72.9733 344.769 72.992C344.163 73.0013 343.691 73.0013 343.355 72.992L343.285 71.424C343.612 71.452 344.083 71.466 344.699 71.466C345.315 71.4567 345.973 71.438 346.673 71.41C346.664 71.074 346.659 70.752 346.659 70.444C346.659 70.136 346.659 69.8513 346.659 69.59H348.283C348.283 69.842 348.283 70.1127 348.283 70.402C348.283 70.6913 348.288 70.9947 348.297 71.312C348.932 71.2653 349.515 71.214 350.047 71.158C350.579 71.0927 350.971 71.0273 351.223 70.962V72.502C350.971 72.558 350.579 72.614 350.047 72.67C349.525 72.7167 348.946 72.7633 348.311 72.81C348.321 73.062 348.325 73.3187 348.325 73.58C348.335 73.832 348.344 74.084 348.353 74.336C348.904 74.28 349.427 74.2147 349.921 74.14C350.416 74.056 350.808 73.9673 351.097 73.874V75.512C350.752 75.5867 350.341 75.6567 349.865 75.722C349.399 75.7873 348.904 75.8433 348.381 75.89C348.4 76.2633 348.409 76.6227 348.409 76.968C348.419 77.3133 348.428 77.6353 348.437 77.934C349.128 78.1207 349.781 78.3633 350.397 78.662C351.013 78.9607 351.592 79.2873 352.133 79.642C352.012 79.7353 351.877 79.8753 351.727 80.062C351.587 80.2393 351.457 80.4213 351.335 80.608C351.214 80.7947 351.121 80.9533 351.055 81.084C350.271 80.4213 349.413 79.8987 348.479 79.516C348.47 80.216 348.223 80.7713 347.737 81.182C347.261 81.602 346.487 81.7933 345.413 81.756ZM345.469 80.258C345.955 80.2767 346.305 80.2067 346.519 80.048C346.734 79.8893 346.841 79.6793 346.841 79.418V79.026C346.645 78.9887 346.449 78.9607 346.253 78.942C346.067 78.9233 345.88 78.914 345.693 78.914C345.301 78.914 345.003 78.9793 344.797 79.11C344.592 79.2407 344.489 79.3993 344.489 79.586C344.489 80.006 344.816 80.23 345.469 80.258ZM359.203 81.966C359.091 81.7793 358.942 81.5553 358.755 81.294C358.569 81.0327 358.354 80.8087 358.111 80.622C359.101 80.342 359.861 80.02 360.393 79.656C360.925 79.2827 361.294 78.844 361.499 78.34C361.201 78.4893 360.902 78.564 360.603 78.564C359.894 78.564 359.32 78.3633 358.881 77.962C358.452 77.5607 358.223 77.0193 358.195 76.338C358.177 75.8713 358.27 75.456 358.475 75.092C358.681 74.7187 358.97 74.4247 359.343 74.21C359.717 73.9953 360.141 73.888 360.617 73.888C360.692 73.888 360.757 73.8927 360.813 73.902C360.869 73.902 360.93 73.9067 360.995 73.916C360.977 73.748 360.958 73.5753 360.939 73.398C360.921 73.2207 360.911 73.034 360.911 72.838C360.155 72.866 359.418 72.908 358.699 72.964C357.981 73.02 357.323 73.0853 356.725 73.16C356.128 73.2253 355.633 73.3047 355.241 73.398L355.003 71.774C355.339 71.746 355.811 71.718 356.417 71.69C357.024 71.6527 357.715 71.6153 358.489 71.578C359.273 71.5407 360.081 71.5033 360.911 71.466V69.492H362.535V71.396C363.263 71.368 363.959 71.3447 364.621 71.326C365.284 71.298 365.877 71.2793 366.399 71.27C366.922 71.2513 367.333 71.2467 367.631 71.256L367.519 72.894C366.978 72.8287 366.259 72.7913 365.363 72.782C364.477 72.7633 363.534 72.7633 362.535 72.782C362.535 73.118 362.545 73.4587 362.563 73.804C362.591 74.1493 362.615 74.4807 362.633 74.798C363.091 75.3393 363.319 76.058 363.319 76.954C363.319 78.1953 362.96 79.2407 362.241 80.09C361.523 80.93 360.51 81.5553 359.203 81.966ZM360.617 77.164C360.879 77.1453 361.084 77.0567 361.233 76.898C361.383 76.7393 361.457 76.534 361.457 76.282C361.457 76.198 361.448 76.1093 361.429 76.016C361.42 75.9133 361.406 75.806 361.387 75.694C361.191 75.47 360.944 75.358 360.645 75.358C360.384 75.358 360.165 75.442 359.987 75.61C359.81 75.778 359.726 75.9927 359.735 76.254C359.735 76.5247 359.815 76.7487 359.973 76.926C360.141 77.094 360.356 77.1733 360.617 77.164Z" fill="#2CBCE0"/>
<path d="M99.23 54.806C97.9473 54.962 96.812 54.9013 95.824 54.624C94.836 54.364 94.0647 53.922 93.51 53.298C92.9553 52.674 92.678 51.894 92.678 50.958C92.678 49.7273 93.172 48.5227 94.16 47.344C95.1653 46.148 96.5433 45.1773 98.294 44.432V40.506C97.3407 40.5753 96.4133 40.6273 95.512 40.662C94.628 40.6967 93.8047 40.6967 93.042 40.662L92.886 37.672C93.5447 37.7413 94.3507 37.7673 95.304 37.75C96.2573 37.7153 97.254 37.646 98.294 37.542V33.356L101.18 33.382V37.204C102.047 37.0653 102.853 36.918 103.598 36.762C104.361 36.5887 104.985 36.4067 105.47 36.216L105.782 39.076C105.175 39.3013 104.473 39.5007 103.676 39.674C102.879 39.8473 102.047 40.0033 101.18 40.142V43.548C101.787 43.4093 102.419 43.3053 103.078 43.236C103.737 43.1667 104.421 43.132 105.132 43.132C106.796 43.132 108.209 43.392 109.37 43.912C110.549 44.4147 111.441 45.0993 112.048 45.966C112.655 46.8153 112.958 47.7773 112.958 48.852C112.958 50.516 112.455 51.8247 111.45 52.778C110.445 53.7313 109.084 54.1993 107.368 54.182C106.033 54.182 104.907 53.8527 103.988 53.194C103.087 52.518 102.437 51.5213 102.038 50.204C102.437 50.0827 102.922 49.9007 103.494 49.658C104.066 49.398 104.517 49.1553 104.846 48.93C105.279 50.3687 106.111 51.088 107.342 51.088C108.105 51.088 108.685 50.8713 109.084 50.438C109.483 49.9873 109.682 49.4327 109.682 48.774C109.682 47.9247 109.301 47.2227 108.538 46.668C107.775 46.096 106.631 45.81 105.106 45.81C103.719 45.81 102.411 45.9833 101.18 46.33V52.804C101.18 53.4453 101.033 53.9133 100.738 54.208C100.443 54.52 99.9407 54.7193 99.23 54.806ZM112.464 42.768C112.048 42.352 111.485 41.9013 110.774 41.416C110.063 40.9133 109.335 40.4453 108.59 40.012C107.845 39.5613 107.177 39.2233 106.588 38.998L108.226 36.658C108.85 36.9007 109.535 37.23 110.28 37.646C111.025 38.062 111.753 38.504 112.464 38.972C113.175 39.44 113.773 39.8907 114.258 40.324C114.085 40.5147 113.868 40.7747 113.608 41.104C113.365 41.4333 113.131 41.754 112.906 42.066C112.698 42.378 112.551 42.612 112.464 42.768ZM97.358 52.05C97.6873 52.0673 97.9213 52.0327 98.06 51.946C98.216 51.8593 98.294 51.7033 98.294 51.478V47.5C97.4967 47.9853 96.864 48.514 96.396 49.086C95.928 49.658 95.694 50.23 95.694 50.802C95.694 51.2007 95.8413 51.504 96.136 51.712C96.4307 51.92 96.838 52.0327 97.358 52.05ZM135.032 55.794C135.015 55.5167 134.971 55.1873 134.902 54.806C134.833 54.442 134.755 54.0867 134.668 53.74C134.581 53.376 134.486 53.0813 134.382 52.856H136.124C136.471 52.856 136.722 52.7953 136.878 52.674C137.034 52.5527 137.112 52.3447 137.112 52.05V41.702H129.91V32.862H140.128V53.168C140.128 54.0693 139.885 54.728 139.4 55.144C138.932 55.5773 138.161 55.794 137.086 55.794H135.032ZM117.924 55.82V32.862H128.09V41.702H120.914V55.82H117.924ZM123.982 51.504V43.782H133.784V51.504H123.982ZM126.946 49.19H130.82V46.122H126.946V49.19ZM132.822 39.596H137.112V38.166H132.822V39.596ZM120.914 39.596H125.178V38.166H120.914V39.596ZM132.822 36.372H137.112V34.994H132.822V36.372ZM120.914 36.372H125.178V34.994H120.914V36.372ZM152.816 51.374C151.949 51.8593 151.135 52.0587 150.372 51.972C149.609 51.868 148.933 51.374 148.344 50.49C147.807 49.658 147.313 48.6787 146.862 47.552C146.411 46.4253 146.021 45.2293 145.692 43.964C145.38 42.6987 145.137 41.4333 144.964 40.168C144.808 38.9027 144.739 37.7153 144.756 36.606L147.928 36.632C147.876 37.4813 147.902 38.4087 148.006 39.414C148.11 40.4193 148.275 41.4333 148.5 42.456C148.725 43.4787 148.994 44.432 149.306 45.316C149.618 46.1827 149.956 46.9107 150.32 47.5C150.563 47.916 150.823 48.1587 151.1 48.228C151.395 48.28 151.707 48.202 152.036 47.994C152.452 47.7167 152.885 47.3353 153.336 46.85C153.804 46.3647 154.194 45.8967 154.506 45.446C154.593 45.706 154.731 46.0007 154.922 46.33C155.13 46.6593 155.347 46.98 155.572 47.292C155.815 47.604 156.031 47.8553 156.222 48.046C155.754 48.7393 155.217 49.3807 154.61 49.97C154.021 50.5593 153.423 51.0273 152.816 51.374ZM162.644 46.512C162.471 46.0093 162.202 45.3853 161.838 44.64C161.474 43.8947 161.058 43.1233 160.59 42.326C160.122 41.5113 159.654 40.766 159.186 40.09C158.718 39.3967 158.285 38.8593 157.886 38.478L160.382 36.892C160.815 37.3253 161.292 37.906 161.812 38.634C162.349 39.362 162.869 40.142 163.372 40.974C163.892 41.7887 164.351 42.586 164.75 43.366C165.149 44.1287 165.435 44.7787 165.608 45.316C165.071 45.42 164.525 45.5847 163.97 45.81C163.433 46.0353 162.991 46.2693 162.644 46.512ZM170.106 44.354C169.881 43.9033 169.595 43.444 169.248 42.976C168.901 42.4907 168.555 42.1007 168.208 41.806C169.335 41.338 170.461 40.7487 171.588 40.038C172.732 39.31 173.815 38.5127 174.838 37.646C175.878 36.762 176.805 35.8433 177.62 34.89C178.452 33.9193 179.128 32.9573 179.648 32.004L182.534 32.394C183.089 33.278 183.782 34.1533 184.614 35.02C185.446 35.8867 186.365 36.71 187.37 37.49C188.375 38.27 189.424 38.9807 190.516 39.622C191.608 40.246 192.691 40.766 193.766 41.182C193.61 41.39 193.411 41.676 193.168 42.04C192.943 42.3867 192.717 42.742 192.492 43.106C192.267 43.47 192.085 43.7993 191.946 44.094C191.235 43.7473 190.507 43.3573 189.762 42.924C189.017 42.4733 188.28 41.9967 187.552 41.494V43.574H174.396V41.676C173.685 42.196 172.966 42.69 172.238 43.158C171.51 43.6087 170.799 44.0073 170.106 44.354ZM173.33 55.716V45.758H188.67V55.716H173.33ZM176.528 52.96H185.42V48.54H176.528V52.96ZM175.618 40.74H186.538C185.429 39.908 184.389 39.0153 183.418 38.062C182.465 37.0913 181.659 36.1033 181 35.098C180.411 36.034 179.639 36.9873 178.686 37.958C177.75 38.9287 176.727 39.856 175.618 40.74ZM201.592 55.17V47.734C200.327 48.9473 199.261 50.1087 198.394 51.218L196.028 49.034C196.756 48.4447 197.597 47.7253 198.55 46.876C199.503 46.0093 200.517 45.1513 201.592 44.302V40.792C200.812 40.9653 200.049 41.13 199.304 41.286C198.559 41.4247 197.961 41.5373 197.51 41.624L196.86 38.79C197.328 38.7727 198.004 38.6947 198.888 38.556C199.789 38.4 200.691 38.2353 201.592 38.062V33.2H204.504V37.308C204.729 37.256 204.894 37.1953 204.998 37.126L206.662 38.374L204.894 41.91C205.899 41.3033 206.913 40.8007 207.936 40.402C208.959 40.0033 209.947 39.804 210.9 39.804C212.269 39.804 213.483 40.064 214.54 40.584C215.597 41.0867 216.421 41.8147 217.01 42.768C217.617 43.704 217.92 44.8393 217.92 46.174C217.92 48.1673 217.192 49.866 215.736 51.27C214.28 52.674 212.131 53.636 209.288 54.156C209.219 53.8787 209.089 53.5493 208.898 53.168C208.725 52.7867 208.525 52.4053 208.3 52.024C208.075 51.6427 207.849 51.3307 207.624 51.088C208.993 50.9147 210.215 50.6373 211.29 50.256C212.365 49.8573 213.214 49.3287 213.838 48.67C214.462 47.994 214.774 47.162 214.774 46.174C214.774 44.9433 214.436 44.0333 213.76 43.444C213.084 42.8373 212.131 42.534 210.9 42.534C209.947 42.534 208.915 42.794 207.806 43.314C206.697 43.834 205.596 44.5013 204.504 45.316V55.17H201.592ZM233.286 54.234C231.709 54.234 230.478 54.104 229.594 53.844C228.727 53.5667 228.112 53.1073 227.748 52.466C227.401 51.8073 227.228 50.8973 227.228 49.736V43.08C226.119 43.2013 225.087 43.34 224.134 43.496C223.198 43.6347 222.401 43.782 221.742 43.938L221.456 40.87C222.115 40.7833 222.947 40.688 223.952 40.584C224.957 40.4627 226.049 40.35 227.228 40.246V34.656H230.192V39.986C231.111 39.8993 232.038 39.8213 232.974 39.752C233.927 39.6827 234.855 39.6133 235.756 39.544V33.85H238.772V39.362C239.916 39.2927 240.956 39.2407 241.892 39.206C242.845 39.1713 243.643 39.154 244.284 39.154V42.274C243.608 42.222 242.793 42.196 241.84 42.196C240.904 42.1787 239.881 42.1873 238.772 42.222V43.886C238.772 44.822 238.625 45.5933 238.33 46.2C238.035 46.8067 237.533 47.2833 236.822 47.63C236.129 47.9593 235.167 48.176 233.936 48.28C233.867 47.8293 233.728 47.3353 233.52 46.798C233.312 46.2433 233.078 45.8013 232.818 45.472C233.893 45.4547 234.647 45.3247 235.08 45.082C235.531 44.8393 235.756 44.4407 235.756 43.886V42.352C234.855 42.404 233.927 42.4647 232.974 42.534C232.038 42.6033 231.111 42.6813 230.192 42.768V49.32C230.192 49.84 230.279 50.2473 230.452 50.542C230.643 50.8193 230.972 51.01 231.44 51.114C231.908 51.218 232.567 51.27 233.416 51.27C234.057 51.27 234.82 51.2353 235.704 51.166C236.588 51.0967 237.481 51.0013 238.382 50.88C239.283 50.7587 240.063 50.6113 240.722 50.438C240.618 50.7327 240.523 51.088 240.436 51.504C240.367 51.92 240.315 52.3273 240.28 52.726C240.245 53.1247 240.237 53.4453 240.254 53.688C239.197 53.8613 238.035 53.9913 236.77 54.078C235.522 54.182 234.361 54.234 233.286 54.234ZM253.072 53.922C252.968 53.6967 252.803 53.402 252.578 53.038C252.353 52.674 252.101 52.31 251.824 51.946C251.564 51.582 251.313 51.296 251.07 51.088C254.363 49.996 257.085 48.4967 259.234 46.59C261.401 44.6833 262.961 42.2393 263.914 39.258C263.099 39.2753 262.172 39.3013 261.132 39.336C260.092 39.3707 259.026 39.4053 257.934 39.44C256.859 39.4747 255.819 39.5093 254.814 39.544C253.826 39.5787 252.959 39.6133 252.214 39.648C251.469 39.6827 250.923 39.7087 250.576 39.726L250.368 36.216C250.871 36.2507 251.529 36.2767 252.344 36.294C253.159 36.3113 254.06 36.32 255.048 36.32C256.053 36.32 257.076 36.32 258.116 36.32C259.173 36.3027 260.196 36.2853 261.184 36.268C262.172 36.2333 263.065 36.1987 263.862 36.164C264.659 36.1293 265.292 36.0947 265.76 36.06L267.866 37.152C267.277 39.9253 266.306 42.4127 264.954 44.614C263.602 46.798 261.921 48.6787 259.91 50.256C257.899 51.816 255.62 53.038 253.072 53.922ZM283.804 54.91C283.735 54.5633 283.648 54.156 283.544 53.688C283.44 53.2027 283.293 52.7953 283.102 52.466C284.211 52.4833 284.948 52.4053 285.312 52.232C285.676 52.0587 285.849 51.7207 285.832 51.218C285.832 51.0447 285.815 50.5767 285.78 49.814C285.763 49.0513 285.737 48.1673 285.702 47.162C284.749 48.4273 283.596 49.58 282.244 50.62C280.892 51.6427 279.514 52.492 278.11 53.168C277.954 52.8213 277.737 52.4573 277.46 52.076C277.183 51.6773 276.897 51.3653 276.602 51.14C277.451 50.7933 278.344 50.3253 279.28 49.736C280.216 49.1293 281.109 48.462 281.958 47.734C282.825 46.9887 283.561 46.2347 284.168 45.472C283.163 45.4893 282.209 45.5153 281.308 45.55C280.407 45.5847 279.644 45.6193 279.02 45.654C278.413 45.6713 278.023 45.6973 277.85 45.732L277.72 43.314C278.101 43.3313 278.699 43.34 279.514 43.34C280.329 43.34 281.265 43.3313 282.322 43.314C283.379 43.2793 284.463 43.2533 285.572 43.236L285.416 39.128H287.964L288.094 43.158C289.117 43.1233 290.044 43.08 290.876 43.028C291.708 42.976 292.341 42.9413 292.774 42.924V45.316C292.566 45.2987 292.037 45.2987 291.188 45.316C290.339 45.316 289.333 45.3333 288.172 45.368C288.207 46.3213 288.233 47.2573 288.25 48.176C288.285 49.0773 288.311 49.84 288.328 50.464C288.363 51.088 288.38 51.4693 288.38 51.608C288.432 52.8733 288.077 53.74 287.314 54.208C286.569 54.676 285.399 54.91 283.804 54.91ZM300.392 45.81C300.409 45.5673 300.418 45.238 300.418 44.822C300.418 44.406 300.418 43.99 300.418 43.574C300.418 43.158 300.409 42.8287 300.392 42.586C300.721 42.6033 301.302 42.6207 302.134 42.638C302.983 42.6553 303.989 42.6727 305.15 42.69C306.329 42.7073 307.585 42.7247 308.92 42.742C310.255 42.742 311.589 42.742 312.924 42.742C314.259 42.742 315.515 42.7333 316.694 42.716C317.89 42.6987 318.921 42.6813 319.788 42.664C320.655 42.6467 321.27 42.6207 321.634 42.586C321.617 42.8113 321.599 43.132 321.582 43.548C321.582 43.964 321.582 44.3887 321.582 44.822C321.599 45.238 321.608 45.5587 321.608 45.784C321.175 45.7667 320.533 45.7493 319.684 45.732C318.852 45.7147 317.873 45.6973 316.746 45.68C315.637 45.6627 314.449 45.654 313.184 45.654C311.936 45.654 310.671 45.654 309.388 45.654C308.105 45.654 306.883 45.6627 305.722 45.68C304.561 45.6973 303.512 45.7147 302.576 45.732C301.657 45.7493 300.929 45.7753 300.392 45.81ZM344.67 52.96C344.497 52.5787 344.271 52.154 343.994 51.686C343.717 51.2007 343.405 50.6893 343.058 50.152C342.607 50.204 341.949 50.2907 341.082 50.412C340.215 50.516 339.236 50.6373 338.144 50.776C337.052 50.9147 335.925 51.062 334.764 51.218C333.62 51.374 332.519 51.5213 331.462 51.66C330.422 51.7987 329.512 51.9287 328.732 52.05C327.952 52.154 327.397 52.232 327.068 52.284L326.184 49.008C326.461 49.008 326.929 48.982 327.588 48.93C328.247 48.8607 329.018 48.7913 329.902 48.722C330.249 48.0633 330.647 47.2487 331.098 46.278C331.549 45.3073 332.008 44.2673 332.476 43.158C332.961 42.0487 333.421 40.948 333.854 39.856C334.287 38.764 334.66 37.776 334.972 36.892C335.284 36.008 335.501 35.3147 335.622 34.812L339.158 35.826C338.985 36.19 338.733 36.736 338.404 37.464C338.075 38.1747 337.702 38.998 337.286 39.934C336.87 40.8527 336.428 41.8147 335.96 42.82C335.509 43.8253 335.059 44.8133 334.608 45.784C334.175 46.7373 333.776 47.604 333.412 48.384C334.833 48.2453 336.246 48.098 337.65 47.942C339.054 47.7687 340.25 47.6213 341.238 47.5C340.735 46.824 340.241 46.2 339.756 45.628C339.288 45.0387 338.872 44.5793 338.508 44.25L340.874 42.664C341.671 43.3573 342.477 44.1807 343.292 45.134C344.124 46.0873 344.904 47.084 345.632 48.124C346.377 49.164 347.019 50.152 347.556 51.088C347.261 51.2093 346.932 51.3827 346.568 51.608C346.204 51.8333 345.849 52.0673 345.502 52.31C345.173 52.5527 344.895 52.7693 344.67 52.96Z" fill="#2CBCE0"/>
</svg>
