<svg width="400" height="110" viewBox="0 0 400 110" fill="none" xmlns="http://www.w3.org/2000/svg">
<rect width="400" height="110" rx="10" fill="#36BE4F"/>
<path d="M107.144 82.91C107.041 82.714 106.906 82.4853 106.738 82.224C106.579 81.9627 106.402 81.6873 106.206 81.398C105.786 81.4633 105.273 81.5333 104.666 81.608C104.059 81.6827 103.415 81.762 102.734 81.846C102.062 81.9207 101.395 81.9907 100.732 82.056C100.079 82.1307 99.4813 82.1913 98.94 82.238C98.3987 82.294 97.9693 82.336 97.652 82.364L97.288 80.712C97.4933 80.7027 97.764 80.6887 98.1 80.67C98.436 80.6513 98.814 80.6233 99.234 80.586C99.458 80.1753 99.7053 79.6993 99.976 79.158C100.247 78.6073 100.508 78.0427 100.76 77.464C101.021 76.8853 101.25 76.3487 101.446 75.854C101.651 75.35 101.801 74.944 101.894 74.636L103.574 75.252C103.453 75.588 103.299 75.9707 103.112 76.4C102.925 76.8293 102.72 77.282 102.496 77.758C102.272 78.234 102.043 78.7007 101.81 79.158C101.586 79.6153 101.367 80.04 101.152 80.432C101.871 80.376 102.589 80.3153 103.308 80.25C104.036 80.1753 104.671 80.1053 105.212 80.04C104.923 79.6573 104.633 79.3027 104.344 78.976C104.064 78.6493 103.807 78.3833 103.574 78.178L104.82 77.142C105.1 77.4033 105.413 77.73 105.758 78.122C106.113 78.5047 106.467 78.92 106.822 79.368C107.186 79.8067 107.527 80.2453 107.844 80.684C108.171 81.1133 108.446 81.5007 108.67 81.846C108.521 81.93 108.348 82.0327 108.152 82.154C107.956 82.2847 107.769 82.4153 107.592 82.546C107.415 82.686 107.265 82.8073 107.144 82.91ZM108.642 77.758C107.895 77.338 107.219 76.8433 106.612 76.274C106.005 75.7047 105.492 75.0933 105.072 74.44C104.652 73.7867 104.344 73.124 104.148 72.452H101.782V70.94H105.506C105.571 71.5653 105.735 72.1533 105.996 72.704C106.267 73.2453 106.603 73.7447 107.004 74.202C107.405 74.65 107.849 75.056 108.334 75.42C108.819 75.7747 109.314 76.0873 109.818 76.358C109.697 76.4607 109.557 76.596 109.398 76.764C109.249 76.932 109.104 77.1093 108.964 77.296C108.833 77.4733 108.726 77.6273 108.642 77.758ZM97.554 77.912C97.4607 77.7907 97.33 77.66 97.162 77.52C96.994 77.3707 96.8167 77.2307 96.63 77.1C96.4527 76.9693 96.294 76.8713 96.154 76.806C96.546 76.5447 96.9333 76.2087 97.316 75.798C97.6987 75.3873 98.058 74.944 98.394 74.468C98.73 73.992 99.0193 73.5253 99.262 73.068C99.5047 72.6013 99.682 72.186 99.794 71.822L101.418 72.466C100.961 73.5673 100.391 74.5893 99.71 75.532C99.0287 76.4747 98.31 77.268 97.554 77.912ZM121.256 82.826C120.668 82.5553 120.103 82.0793 119.562 81.398C119.03 80.7167 118.559 79.8067 118.148 78.668C117.747 77.5293 117.443 76.148 117.238 74.524H110.756V72.942H117.084C117.028 72.102 117 71.206 117 70.254H118.694C118.666 71.206 118.68 72.102 118.736 72.942H120.822C120.589 72.6433 120.332 72.3587 120.052 72.088C119.772 71.808 119.506 71.5793 119.254 71.402L120.346 70.352C120.551 70.492 120.775 70.674 121.018 70.898C121.261 71.1127 121.489 71.332 121.704 71.556C121.928 71.78 122.105 71.976 122.236 72.144C122.105 72.228 121.942 72.3493 121.746 72.508C121.559 72.6573 121.391 72.802 121.242 72.942H123.244V74.524H118.89C119.105 76.1573 119.459 77.52 119.954 78.612C120.449 79.704 121.013 80.4693 121.648 80.908C121.751 80.6187 121.844 80.3153 121.928 79.998C122.012 79.6807 122.073 79.4147 122.11 79.2C122.213 79.2653 122.357 79.3447 122.544 79.438C122.74 79.5313 122.941 79.6153 123.146 79.69C123.351 79.7647 123.515 79.8207 123.636 79.858C123.58 80.1567 123.501 80.4787 123.398 80.824C123.295 81.16 123.183 81.4773 123.062 81.776C122.95 82.0747 122.838 82.3173 122.726 82.504C122.577 82.7653 122.371 82.9193 122.11 82.966C121.858 83.022 121.573 82.9753 121.256 82.826ZM111.05 82.658L110.728 81.09C111.017 81.062 111.386 81.02 111.834 80.964C112.291 80.908 112.777 80.8427 113.29 80.768V77.702H111.036V76.204H117.098V77.702H115.082V80.488C115.633 80.3947 116.146 80.306 116.622 80.222C117.098 80.1287 117.481 80.0493 117.77 79.984V81.482C117.453 81.566 117.065 81.6547 116.608 81.748C116.151 81.8413 115.661 81.9347 115.138 82.028C114.625 82.1213 114.111 82.21 113.598 82.294C113.085 82.378 112.604 82.4527 112.156 82.518C111.717 82.5833 111.349 82.63 111.05 82.658ZM124.994 82V72.2H126.604V80.502H131.714V82H124.994ZM132.978 82V72.2H134.588V82H132.978ZM136.574 82V72.2H138.184L142.804 79.158V72.2H144.442V82H142.888L138.184 74.846V82H136.574ZM146.418 82V72.2H152.97V73.698H148.028V76.246H152.536V77.758H148.028V80.502H153.124V82H146.418ZM162.839 77.03C162.755 76.918 162.634 76.792 162.475 76.652C162.326 76.512 162.167 76.3767 161.999 76.246C161.831 76.1153 161.677 76.0127 161.537 75.938C161.789 75.742 162.064 75.504 162.363 75.224C162.662 74.944 162.96 74.6407 163.259 74.314C163.558 73.9873 163.833 73.6607 164.085 73.334C163.572 73.3433 162.979 73.362 162.307 73.39C161.644 73.4087 160.958 73.432 160.249 73.46C159.549 73.488 158.872 73.516 158.219 73.544C157.566 73.572 156.987 73.5953 156.483 73.614C155.979 73.6327 155.606 73.6513 155.363 73.67L155.293 71.906C155.601 71.9247 156.021 71.9387 156.553 71.948C157.094 71.948 157.696 71.948 158.359 71.948C159.031 71.9387 159.722 71.9293 160.431 71.92C161.14 71.9013 161.822 71.8827 162.475 71.864C163.138 71.836 163.726 71.8033 164.239 71.766C164.762 71.7287 165.158 71.6913 165.429 71.654L166.535 72.508C166.33 72.8813 166.078 73.278 165.779 73.698C165.48 74.118 165.158 74.538 164.813 74.958C164.477 75.3687 164.136 75.756 163.791 76.12C163.455 76.4747 163.138 76.778 162.839 77.03ZM157.435 82.616C157.351 82.4947 157.239 82.35 157.099 82.182C156.959 82.0233 156.81 81.8693 156.651 81.72C156.492 81.5613 156.338 81.44 156.189 81.356C157.057 80.8707 157.748 80.278 158.261 79.578C158.774 78.878 159.138 78.0847 159.353 77.198C159.568 76.3113 159.656 75.3547 159.619 74.328H161.369C161.369 76.232 161.047 77.87 160.403 79.242C159.768 80.6047 158.779 81.7293 157.435 82.616ZM170.175 82.154C170.072 81.9487 169.9 81.706 169.657 81.426C169.424 81.146 169.195 80.9313 168.971 80.782C170.156 80.306 171.132 79.6387 171.897 78.78C172.672 77.912 173.241 76.82 173.605 75.504L169.825 75.616L169.699 73.978C169.82 73.9873 170.086 73.992 170.497 73.992C170.908 73.9827 171.412 73.9733 172.009 73.964C172.606 73.9547 173.241 73.9407 173.913 73.922C174.044 73.054 174.1 72.102 174.081 71.066L175.817 71.08C175.826 71.5747 175.817 72.0553 175.789 72.522C175.761 72.9887 175.719 73.4413 175.663 73.88C176.316 73.8613 176.928 73.8427 177.497 73.824C178.066 73.8053 178.542 73.7867 178.925 73.768C179.317 73.7493 179.564 73.7353 179.667 73.726C179.667 74.118 179.644 74.5893 179.597 75.14C179.55 75.6907 179.49 76.26 179.415 76.848C179.34 77.4267 179.261 77.9727 179.177 78.486C179.093 78.9993 179.009 79.4147 178.925 79.732C178.766 80.376 178.552 80.866 178.281 81.202C178.02 81.538 177.651 81.7667 177.175 81.888C176.708 82 176.083 82.0513 175.299 82.042C175.262 81.818 175.187 81.5287 175.075 81.174C174.972 80.8193 174.842 80.5253 174.683 80.292C175.28 80.3013 175.747 80.2873 176.083 80.25C176.419 80.2127 176.671 80.1193 176.839 79.97C177.016 79.8207 177.152 79.592 177.245 79.284C177.338 78.9947 177.427 78.626 177.511 78.178C177.595 77.73 177.67 77.2587 177.735 76.764C177.8 76.26 177.847 75.7887 177.875 75.35L175.383 75.434C174.991 77.03 174.356 78.3833 173.479 79.494C172.611 80.6047 171.51 81.4913 170.175 82.154ZM187.185 82.77C187.045 82.5647 186.849 82.3267 186.597 82.056C186.354 81.7853 186.112 81.5847 185.869 81.454C186.718 81.0527 187.507 80.5347 188.235 79.9C188.972 79.2653 189.612 78.542 190.153 77.73C190.704 76.9087 191.124 76.0313 191.413 75.098H185.771C185.771 75.4247 185.771 75.7793 185.771 76.162C185.78 76.5353 185.79 76.8807 185.799 77.198C185.818 77.506 185.832 77.73 185.841 77.87H184.049V73.46C184.404 73.4787 184.912 73.4973 185.575 73.516C186.247 73.5253 186.961 73.53 187.717 73.53V70.688H189.467V73.53C190.102 73.5207 190.676 73.5113 191.189 73.502C191.702 73.4833 192.076 73.46 192.309 73.432L193.499 74.02C193.331 74.9813 193.051 75.9053 192.659 76.792C192.267 77.6693 191.791 78.486 191.231 79.242C190.671 79.9887 190.046 80.6607 189.355 81.258C188.664 81.8553 187.941 82.3593 187.185 82.77ZM198.819 81.608L197.867 79.886C198.53 79.746 199.225 79.5173 199.953 79.2C200.69 78.8733 201.428 78.4953 202.165 78.066C202.902 77.6273 203.602 77.1607 204.265 76.666C204.928 76.162 205.525 75.6533 206.057 75.14C206.598 74.6267 207.037 74.1367 207.373 73.67C207.41 73.8287 207.471 74.0247 207.555 74.258C207.648 74.4913 207.746 74.72 207.849 74.944C207.952 75.1587 208.04 75.3267 208.115 75.448C207.658 76.036 207.084 76.6333 206.393 77.24C205.712 77.8373 204.956 78.416 204.125 78.976C203.294 79.5267 202.426 80.0307 201.521 80.488C200.616 80.9453 199.715 81.3187 198.819 81.608ZM200.317 75.434C200.196 75.3033 200.023 75.1493 199.799 74.972C199.584 74.7947 199.342 74.608 199.071 74.412C198.81 74.216 198.553 74.0387 198.301 73.88C198.049 73.712 197.83 73.586 197.643 73.502L198.763 72.088C198.95 72.1907 199.169 72.3213 199.421 72.48C199.673 72.6387 199.93 72.8113 200.191 72.998C200.462 73.1847 200.714 73.3713 200.947 73.558C201.18 73.7353 201.367 73.894 201.507 74.034L200.317 75.434ZM215.031 82.434V71.15H216.739V75.392L217.369 74.496C217.593 74.6547 217.887 74.8553 218.251 75.098C218.624 75.3313 219.021 75.574 219.441 75.826C219.861 76.0687 220.267 76.2927 220.659 76.498C221.051 76.7033 221.382 76.8573 221.653 76.96C221.541 77.0627 221.41 77.212 221.261 77.408C221.121 77.5947 220.99 77.7907 220.869 77.996C220.748 78.192 220.65 78.36 220.575 78.5C220.351 78.3787 220.071 78.2247 219.735 78.038C219.408 77.842 219.058 77.6273 218.685 77.394C218.321 77.1607 217.966 76.932 217.621 76.708C217.285 76.4747 216.991 76.2647 216.739 76.078V82.434H215.031ZM225.881 82.35C225.797 82.266 225.666 82.1633 225.489 82.042C225.312 81.93 225.13 81.8227 224.943 81.72C224.756 81.6173 224.598 81.5473 224.467 81.51C224.859 81.09 225.237 80.5813 225.601 79.984C225.965 79.3773 226.31 78.7193 226.637 78.01C226.964 77.3007 227.253 76.5727 227.505 75.826C227.029 75.882 226.567 75.9473 226.119 76.022C225.68 76.0967 225.316 76.1713 225.027 76.246C225.018 76.1247 224.994 75.9613 224.957 75.756C224.92 75.5507 224.878 75.35 224.831 75.154C224.784 74.9487 224.738 74.7947 224.691 74.692C224.906 74.6733 225.186 74.65 225.531 74.622C225.876 74.594 226.259 74.5613 226.679 74.524C227.099 74.4773 227.519 74.44 227.939 74.412C228.107 73.824 228.242 73.25 228.345 72.69C228.457 72.1207 228.532 71.5933 228.569 71.108L230.221 71.402C230.174 71.8313 230.1 72.2933 229.997 72.788C229.894 73.2733 229.768 73.7727 229.619 74.286C229.806 74.2767 229.974 74.272 230.123 74.272C230.272 74.2627 230.403 74.258 230.515 74.258C230.888 74.258 231.22 74.3187 231.509 74.44C231.808 74.552 232.046 74.7573 232.223 75.056C232.4 75.3453 232.503 75.7513 232.531 76.274C232.559 76.7873 232.498 77.4453 232.349 78.248C232.162 79.256 231.948 80.0447 231.705 80.614C231.472 81.1833 231.178 81.5847 230.823 81.818C230.468 82.0513 230.016 82.168 229.465 82.168C229.204 82.168 228.947 82.14 228.695 82.084C228.443 82.0373 228.21 81.958 227.995 81.846C228.004 81.6313 228.004 81.3653 227.995 81.048C227.986 80.7307 227.958 80.4693 227.911 80.264C228.378 80.4693 228.835 80.572 229.283 80.572C229.507 80.572 229.698 80.5113 229.857 80.39C230.025 80.2593 230.184 80.0073 230.333 79.634C230.482 79.2513 230.632 78.6913 230.781 77.954C230.921 77.2727 230.977 76.7687 230.949 76.442C230.921 76.106 230.832 75.8867 230.683 75.784C230.534 75.6813 230.347 75.63 230.123 75.63C229.862 75.63 229.549 75.644 229.185 75.672C228.896 76.54 228.564 77.394 228.191 78.234C227.827 79.074 227.444 79.8487 227.043 80.558C226.651 81.2673 226.264 81.8647 225.881 82.35ZM236.087 78.724C235.938 78.472 235.732 78.1733 235.471 77.828C235.21 77.4827 234.925 77.1373 234.617 76.792C234.309 76.4373 234.01 76.1153 233.721 75.826C233.432 75.5273 233.18 75.3033 232.965 75.154L234.197 74.118C234.421 74.286 234.682 74.5147 234.981 74.804C235.28 75.084 235.588 75.392 235.905 75.728C236.222 76.064 236.516 76.3953 236.787 76.722C237.058 77.0487 237.268 77.3333 237.417 77.576L236.087 78.724ZM243.549 82.742C243.521 82.602 243.465 82.4247 243.381 82.21C243.306 81.9953 243.213 81.7807 243.101 81.566C242.989 81.3513 242.877 81.1833 242.765 81.062C244.258 81.0993 245.397 80.922 246.181 80.53C246.974 80.138 247.371 79.5827 247.371 78.864C247.371 78.444 247.203 78.1173 246.867 77.884C246.531 77.6507 246.092 77.534 245.551 77.534C245.131 77.534 244.683 77.5993 244.207 77.73C243.731 77.8513 243.278 78.0567 242.849 78.346C242.429 78.626 242.074 79.004 241.785 79.48L240.287 78.822C240.474 78.4953 240.632 78.0893 240.763 77.604C240.903 77.1093 241.015 76.596 241.099 76.064C241.183 75.532 241.244 75.028 241.281 74.552C241.318 74.076 241.323 73.684 241.295 73.376L243.045 73.586C243.054 74.0433 243.017 74.5847 242.933 75.21C242.849 75.826 242.718 76.4373 242.541 77.044C243.036 76.7173 243.554 76.4653 244.095 76.288C244.636 76.1107 245.145 76.022 245.621 76.022C246.349 76.022 246.979 76.148 247.511 76.4C248.052 76.6427 248.472 76.9833 248.771 77.422C249.07 77.8513 249.219 78.346 249.219 78.906C249.219 79.6153 249.014 80.2547 248.603 80.824C248.202 81.384 247.581 81.832 246.741 82.168C245.91 82.504 244.846 82.6953 243.549 82.742ZM245.873 73.768C245.64 73.5813 245.36 73.3947 245.033 73.208C244.716 73.0213 244.38 72.844 244.025 72.676C243.67 72.508 243.32 72.3633 242.975 72.242C242.639 72.1113 242.34 72.0227 242.079 71.976L242.919 70.52C243.162 70.5853 243.451 70.688 243.787 70.828C244.123 70.9587 244.473 71.108 244.837 71.276C245.21 71.444 245.56 71.612 245.887 71.78C246.223 71.948 246.498 72.102 246.713 72.242L245.873 73.768ZM257.773 81.692C257.148 81.692 256.588 81.6267 256.093 81.496C255.608 81.356 255.188 81.1133 254.833 80.768C254.488 80.4133 254.203 79.914 253.979 79.27L255.463 78.458C255.584 78.9433 255.832 79.312 256.205 79.564C256.578 79.816 257.101 79.942 257.773 79.942C258.37 79.942 258.986 79.914 259.621 79.858C260.256 79.802 260.853 79.7227 261.413 79.62C261.973 79.5173 262.435 79.4007 262.799 79.27C262.799 79.4193 262.808 79.6153 262.827 79.858C262.855 80.1007 262.888 80.3387 262.925 80.572C262.972 80.8053 263.014 80.9873 263.051 81.118C262.678 81.2393 262.202 81.342 261.623 81.426C261.044 81.51 260.419 81.5753 259.747 81.622C259.084 81.6687 258.426 81.692 257.773 81.692ZM255.575 73.46L255.561 71.766C255.832 71.85 256.168 71.9153 256.569 71.962C256.98 72.0087 257.418 72.0367 257.885 72.046C258.361 72.0553 258.837 72.0507 259.313 72.032C259.789 72.004 260.228 71.9667 260.629 71.92C261.03 71.864 261.362 71.794 261.623 71.71V73.418C261.39 73.4927 261.072 73.5533 260.671 73.6C260.27 73.6467 259.831 73.684 259.355 73.712C258.879 73.7307 258.398 73.7353 257.913 73.726C257.428 73.7167 256.98 73.6887 256.569 73.642C256.158 73.5953 255.827 73.5347 255.575 73.46ZM263.499 73.768C263.322 73.4787 263.084 73.1707 262.785 72.844C262.486 72.5173 262.22 72.2513 261.987 72.046L262.743 71.43C262.883 71.542 263.051 71.7053 263.247 71.92C263.452 72.1347 263.653 72.354 263.849 72.578C264.045 72.7927 264.194 72.9793 264.297 73.138L263.499 73.768ZM264.745 72.704C264.568 72.4147 264.33 72.1113 264.031 71.794C263.732 71.4673 263.462 71.206 263.219 71.01L263.989 70.38C264.129 70.492 264.297 70.6553 264.493 70.87C264.698 71.0753 264.899 71.29 265.095 71.514C265.291 71.7287 265.44 71.9153 265.543 72.074L264.745 72.704ZM268.637 82.994V77.954C268.385 78.3833 268.128 78.7893 267.867 79.172C267.606 79.5547 267.358 79.8813 267.125 80.152C266.957 79.984 266.742 79.7973 266.481 79.592C266.229 79.3867 266 79.2373 265.795 79.144C266.047 78.9107 266.308 78.612 266.579 78.248C266.859 77.8747 267.13 77.4733 267.391 77.044C267.662 76.6053 267.904 76.176 268.119 75.756C268.343 75.3267 268.516 74.9393 268.637 74.594V74.524H266.341V73.068H268.637V70.38H270.247V73.068H271.885V74.524H270.247V75.476C270.443 75.7187 270.676 75.9893 270.947 76.288C271.218 76.5773 271.488 76.8527 271.759 77.114C272.039 77.3753 272.268 77.576 272.445 77.716V70.898H278.325V82.546H272.445V77.73C272.342 77.814 272.221 77.9307 272.081 78.08C271.95 78.22 271.82 78.3647 271.689 78.514C271.568 78.654 271.474 78.7707 271.409 78.864C271.26 78.7147 271.082 78.528 270.877 78.304C270.672 78.08 270.462 77.842 270.247 77.59V82.994H268.637ZM274.055 81.09H276.715V79.06H274.055V81.09ZM274.055 77.646H276.715V75.672H274.055V77.646ZM274.055 74.272H276.715V72.354H274.055V74.272ZM285.661 83.092C285.586 82.896 285.47 82.6673 285.311 82.406C285.152 82.1447 284.989 81.93 284.821 81.762C285.726 81.5193 286.422 81.174 286.907 80.726C287.392 80.2687 287.724 79.6667 287.901 78.92C288.078 78.164 288.153 77.226 288.125 76.106L289.665 76.176C289.665 76.54 289.656 76.89 289.637 77.226C289.628 77.562 289.6 77.8793 289.553 78.178C289.805 79.0087 290.248 79.7273 290.883 80.334C291.518 80.9407 292.288 81.3933 293.193 81.692C293.034 81.8413 292.857 82.056 292.661 82.336C292.465 82.616 292.316 82.854 292.213 83.05C290.785 82.49 289.716 81.5613 289.007 80.264C288.708 80.9453 288.288 81.5193 287.747 81.986C287.206 82.4433 286.51 82.812 285.661 83.092ZM285.731 76.974C285.647 76.778 285.53 76.5587 285.381 76.316C285.241 76.0733 285.087 75.868 284.919 75.7C285.815 75.4853 286.492 75.154 286.949 74.706C287.416 74.258 287.724 73.6747 287.873 72.956C288.032 72.228 288.097 71.346 288.069 70.31L289.623 70.366C289.623 70.7207 289.614 71.0613 289.595 71.388C289.576 71.7053 289.548 72.0087 289.511 72.298C289.996 73.9407 291.186 75.0373 293.081 75.588C292.922 75.756 292.754 75.9707 292.577 76.232C292.409 76.484 292.274 76.7127 292.171 76.918C291.462 76.6473 290.841 76.3113 290.309 75.91C289.786 75.4993 289.343 74.9813 288.979 74.356C288.69 75.0093 288.284 75.546 287.761 75.966C287.238 76.386 286.562 76.722 285.731 76.974ZM280.733 82.714V78.682H284.793V82.714H280.733ZM280.243 74.02V72.746H285.045V74.02H280.243ZM280.859 72.06V70.744H284.569V72.06H280.859ZM280.859 77.968V76.68H284.569V77.968H280.859ZM280.859 75.994V74.706H284.569V75.994H280.859ZM286.753 73.95C286.548 73.866 286.3 73.7867 286.011 73.712C285.722 73.628 285.479 73.5767 285.283 73.558C285.395 73.334 285.498 73.0633 285.591 72.746C285.694 72.4287 285.782 72.1113 285.857 71.794C285.932 71.4673 285.983 71.1967 286.011 70.982L287.425 71.178C287.406 71.4113 287.364 71.7007 287.299 72.046C287.234 72.3913 287.15 72.7367 287.047 73.082C286.954 73.418 286.856 73.7073 286.753 73.95ZM286.655 80.18C286.45 80.096 286.202 80.012 285.913 79.928C285.633 79.8347 285.395 79.774 285.199 79.746C285.32 79.522 285.432 79.2513 285.535 78.934C285.647 78.6167 285.74 78.2993 285.815 77.982C285.899 77.6647 285.96 77.3987 285.997 77.184L287.397 77.436C287.378 77.6693 287.327 77.9587 287.243 78.304C287.168 78.64 287.08 78.976 286.977 79.312C286.874 79.648 286.767 79.9373 286.655 80.18ZM291.345 73.838C291.196 73.7167 290.986 73.5813 290.715 73.432C290.444 73.2827 290.22 73.1753 290.043 73.11C290.202 72.914 290.356 72.6853 290.505 72.424C290.654 72.1533 290.79 71.8827 290.911 71.612C291.032 71.332 291.13 71.08 291.205 70.856L292.563 71.388C292.488 71.6213 292.381 71.8873 292.241 72.186C292.11 72.4847 291.966 72.7787 291.807 73.068C291.648 73.3573 291.494 73.614 291.345 73.838ZM291.373 79.9C291.224 79.7787 291.014 79.6433 290.743 79.494C290.472 79.3353 290.248 79.2233 290.071 79.158C290.304 78.8687 290.524 78.5187 290.729 78.108C290.934 77.6973 291.093 77.3287 291.205 77.002L292.563 77.534C292.442 77.8887 292.269 78.29 292.045 78.738C291.83 79.1767 291.606 79.564 291.373 79.9ZM282.161 81.426H283.365V79.97H282.161V81.426ZM299.451 80.586C298.984 80.8473 298.546 80.9547 298.135 80.908C297.724 80.852 297.36 80.586 297.043 80.11C296.754 79.662 296.488 79.1347 296.245 78.528C296.002 77.9213 295.792 77.2773 295.615 76.596C295.447 75.9147 295.316 75.2333 295.223 74.552C295.139 73.8707 295.102 73.2313 295.111 72.634L296.819 72.648C296.791 73.1053 296.805 73.6047 296.861 74.146C296.917 74.6873 297.006 75.2333 297.127 75.784C297.248 76.3347 297.393 76.848 297.561 77.324C297.729 77.7907 297.911 78.1827 298.107 78.5C298.238 78.724 298.378 78.8547 298.527 78.892C298.686 78.92 298.854 78.878 299.031 78.766C299.255 78.6167 299.488 78.4113 299.731 78.15C299.983 77.8887 300.193 77.6367 300.361 77.394C300.408 77.534 300.482 77.6927 300.585 77.87C300.697 78.0473 300.814 78.22 300.935 78.388C301.066 78.556 301.182 78.6913 301.285 78.794C301.033 79.1673 300.744 79.5127 300.417 79.83C300.1 80.1473 299.778 80.3993 299.451 80.586ZM304.743 77.968C304.65 77.6973 304.505 77.3613 304.309 76.96C304.113 76.5587 303.889 76.1433 303.637 75.714C303.385 75.2753 303.133 74.874 302.881 74.51C302.629 74.1367 302.396 73.8473 302.181 73.642L303.525 72.788C303.758 73.0213 304.015 73.334 304.295 73.726C304.584 74.118 304.864 74.538 305.135 74.986C305.415 75.4247 305.662 75.854 305.877 76.274C306.092 76.6847 306.246 77.0347 306.339 77.324C306.05 77.38 305.756 77.4687 305.457 77.59C305.168 77.7113 304.93 77.8373 304.743 77.968ZM310.427 82.644C310.222 82.5133 309.956 82.378 309.629 82.238C309.302 82.1073 309.018 82.014 308.775 81.958C309.018 81.6127 309.27 81.174 309.531 80.642C309.792 80.1007 310.054 79.5033 310.315 78.85C310.576 78.1873 310.828 77.5013 311.071 76.792C311.314 76.0733 311.533 75.3687 311.729 74.678C311.197 74.7247 310.693 74.7573 310.217 74.776C309.75 74.7947 309.363 74.7947 309.055 74.776L308.901 73.096C309.284 73.1333 309.764 73.1473 310.343 73.138C310.931 73.1287 311.538 73.096 312.163 73.04C312.284 72.5547 312.378 72.1067 312.443 71.696C312.518 71.2853 312.564 70.9213 312.583 70.604L314.333 70.842C314.296 71.1127 314.24 71.416 314.165 71.752C314.09 72.0787 314.006 72.4333 313.913 72.816C314.296 72.7507 314.655 72.6807 314.991 72.606C315.327 72.522 315.612 72.438 315.845 72.354L316.097 73.922C315.808 74.0153 315.43 74.1133 314.963 74.216C314.506 74.3093 314.006 74.3933 313.465 74.468C313.26 75.2053 313.031 75.966 312.779 76.75C312.527 77.5247 312.266 78.2807 311.995 79.018C311.724 79.7553 311.454 80.4367 311.183 81.062C310.922 81.678 310.67 82.2053 310.427 82.644ZM319.919 82.056C318.911 82.2147 317.959 82.252 317.063 82.168C316.176 82.084 315.402 81.902 314.739 81.622C314.086 81.342 313.596 80.992 313.269 80.572L314.123 79.312C314.45 79.648 314.907 79.9233 315.495 80.138C316.092 80.3433 316.788 80.4647 317.581 80.502C318.384 80.53 319.256 80.4553 320.199 80.278C320.106 80.5113 320.031 80.8053 319.975 81.16C319.928 81.5147 319.91 81.8133 319.919 82.056ZM319.499 77.1C319.191 76.9973 318.836 76.9087 318.435 76.834C318.034 76.75 317.609 76.6847 317.161 76.638C316.722 76.5913 316.288 76.5633 315.859 76.554C315.439 76.5353 315.056 76.5353 314.711 76.554L314.921 74.916C315.257 74.8973 315.649 74.902 316.097 74.93C316.554 74.9487 317.026 74.9813 317.511 75.028C318.006 75.0747 318.472 75.1353 318.911 75.21C319.359 75.2753 319.742 75.3453 320.059 75.42L319.499 77.1ZM324.427 82.644C324.222 82.5133 323.956 82.378 323.629 82.238C323.302 82.1073 323.018 82.014 322.775 81.958C323.018 81.6127 323.27 81.174 323.531 80.642C323.792 80.1007 324.054 79.5033 324.315 78.85C324.576 78.1873 324.828 77.5013 325.071 76.792C325.314 76.0733 325.533 75.3687 325.729 74.678C325.197 74.7247 324.693 74.7573 324.217 74.776C323.75 74.7947 323.363 74.7947 323.055 74.776L322.901 73.096C323.284 73.1333 323.764 73.1473 324.343 73.138C324.931 73.1287 325.538 73.096 326.163 73.04C326.284 72.5547 326.378 72.1067 326.443 71.696C326.518 71.2853 326.564 70.9213 326.583 70.604L328.333 70.842C328.296 71.1127 328.24 71.416 328.165 71.752C328.09 72.0787 328.006 72.4333 327.913 72.816C328.296 72.7507 328.655 72.6807 328.991 72.606C329.327 72.522 329.612 72.438 329.845 72.354L330.097 73.922C329.808 74.0153 329.43 74.1133 328.963 74.216C328.506 74.3093 328.006 74.3933 327.465 74.468C327.26 75.2053 327.031 75.966 326.779 76.75C326.527 77.5247 326.266 78.2807 325.995 79.018C325.724 79.7553 325.454 80.4367 325.183 81.062C324.922 81.678 324.67 82.2053 324.427 82.644ZM333.919 82.056C332.911 82.2147 331.959 82.252 331.063 82.168C330.176 82.084 329.402 81.902 328.739 81.622C328.086 81.342 327.596 80.992 327.269 80.572L328.123 79.312C328.45 79.648 328.907 79.9233 329.495 80.138C330.092 80.3433 330.788 80.4647 331.581 80.502C332.384 80.53 333.256 80.4553 334.199 80.278C334.106 80.5113 334.031 80.8053 333.975 81.16C333.928 81.5147 333.91 81.8133 333.919 82.056ZM333.499 77.1C333.191 76.9973 332.836 76.9087 332.435 76.834C332.034 76.75 331.609 76.6847 331.161 76.638C330.722 76.5913 330.288 76.5633 329.859 76.554C329.439 76.5353 329.056 76.5353 328.711 76.554L328.921 74.916C329.257 74.8973 329.649 74.902 330.097 74.93C330.554 74.9487 331.026 74.9813 331.511 75.028C332.006 75.0747 332.472 75.1353 332.911 75.21C333.359 75.2753 333.742 75.3453 334.059 75.42L333.499 77.1ZM334.087 72.676C333.872 72.4053 333.597 72.1253 333.261 71.836C332.934 71.5467 332.64 71.318 332.379 71.15L333.051 70.436C333.2 70.5293 333.387 70.6693 333.611 70.856C333.844 71.0427 334.068 71.2387 334.283 71.444C334.507 71.64 334.68 71.808 334.801 71.948L334.087 72.676ZM332.953 73.88C332.813 73.7027 332.645 73.516 332.449 73.32C332.253 73.124 332.048 72.942 331.833 72.774C331.628 72.5967 331.441 72.452 331.273 72.34L331.945 71.626C332.094 71.7193 332.281 71.864 332.505 72.06C332.729 72.2467 332.948 72.4427 333.163 72.648C333.378 72.844 333.546 73.012 333.667 73.152L332.953 73.88ZM342.291 82.868C342.123 82.6253 341.936 82.3827 341.731 82.14C341.535 81.9067 341.316 81.7107 341.073 81.552C341.782 81.2347 342.366 80.8567 342.823 80.418C343.28 79.9793 343.621 79.4333 343.845 78.78C344.069 78.1173 344.181 77.31 344.181 76.358V75.28C343.565 75.3267 342.986 75.3687 342.445 75.406C341.913 75.434 341.512 75.448 341.241 75.448L341.017 73.768C341.353 73.7867 341.806 73.7913 342.375 73.782C342.954 73.7633 343.556 73.7353 344.181 73.698V70.828H345.833V73.558C346.3 73.5113 346.724 73.4553 347.107 73.39C347.499 73.3247 347.812 73.2593 348.045 73.194V74.888C347.83 74.9253 347.527 74.9673 347.135 75.014C346.743 75.0607 346.309 75.1073 345.833 75.154V76.358C345.833 77.9727 345.553 79.298 344.993 80.334C344.442 81.3607 343.542 82.2053 342.291 82.868ZM337.923 80.81C337.867 80.4833 337.816 80.0773 337.769 79.592C337.722 79.0973 337.685 78.556 337.657 77.968C337.629 77.38 337.61 76.7733 337.601 76.148C337.592 75.5227 337.587 74.916 337.587 74.328C337.596 73.74 337.615 73.2033 337.643 72.718C337.671 72.2327 337.708 71.8313 337.755 71.514L339.449 71.738C339.374 72.0927 339.318 72.564 339.281 73.152C339.244 73.7307 339.22 74.3653 339.211 75.056C339.211 75.7467 339.22 76.4373 339.239 77.128C339.267 77.8093 339.304 78.4393 339.351 79.018C339.407 79.5873 339.477 80.0447 339.561 80.39L337.923 80.81ZM354.681 82.756C353.888 82.728 353.272 82.5087 352.833 82.098C352.394 81.6873 352.18 81.1787 352.189 80.572C352.198 80.1707 352.329 79.8113 352.581 79.494C352.833 79.1767 353.183 78.9293 353.631 78.752C354.079 78.5747 354.597 78.5 355.185 78.528C355.344 78.528 355.493 78.5373 355.633 78.556C355.782 78.5653 355.932 78.5793 356.081 78.598L356.039 76.988C355.88 76.9973 355.717 77.002 355.549 77.002C355.39 77.002 355.232 77.002 355.073 77.002C354.513 77.002 354.07 76.96 353.743 76.876C353.426 76.7827 353.169 76.6333 352.973 76.428C352.786 76.2133 352.6 75.9193 352.413 75.546L353.729 74.888C353.86 75.14 354.014 75.3033 354.191 75.378C354.368 75.4433 354.672 75.476 355.101 75.476C355.241 75.476 355.386 75.476 355.535 75.476C355.694 75.4667 355.852 75.4573 356.011 75.448C356.002 75.196 355.992 74.9393 355.983 74.678C355.983 74.4167 355.978 74.16 355.969 73.908C355.288 73.9453 354.644 73.9733 354.037 73.992C353.43 74.0013 352.959 74.0013 352.623 73.992L352.553 72.424C352.88 72.452 353.351 72.466 353.967 72.466C354.583 72.4567 355.241 72.438 355.941 72.41C355.932 72.074 355.927 71.752 355.927 71.444C355.927 71.136 355.927 70.8513 355.927 70.59H357.551C357.551 70.842 357.551 71.1127 357.551 71.402C357.551 71.6913 357.556 71.9947 357.565 72.312C358.2 72.2653 358.783 72.214 359.315 72.158C359.847 72.0927 360.239 72.0273 360.491 71.962V73.502C360.239 73.558 359.847 73.614 359.315 73.67C358.792 73.7167 358.214 73.7633 357.579 73.81C357.588 74.062 357.593 74.3187 357.593 74.58C357.602 74.832 357.612 75.084 357.621 75.336C358.172 75.28 358.694 75.2147 359.189 75.14C359.684 75.056 360.076 74.9673 360.365 74.874V76.512C360.02 76.5867 359.609 76.6567 359.133 76.722C358.666 76.7873 358.172 76.8433 357.649 76.89C357.668 77.2633 357.677 77.6227 357.677 77.968C357.686 78.3133 357.696 78.6353 357.705 78.934C358.396 79.1207 359.049 79.3633 359.665 79.662C360.281 79.9607 360.86 80.2873 361.401 80.642C361.28 80.7353 361.144 80.8753 360.995 81.062C360.855 81.2393 360.724 81.4213 360.603 81.608C360.482 81.7947 360.388 81.9533 360.323 82.084C359.539 81.4213 358.68 80.8987 357.747 80.516C357.738 81.216 357.49 81.7713 357.005 82.182C356.529 82.602 355.754 82.7933 354.681 82.756ZM354.737 81.258C355.222 81.2767 355.572 81.2067 355.787 81.048C356.002 80.8893 356.109 80.6793 356.109 80.418V80.026C355.913 79.9887 355.717 79.9607 355.521 79.942C355.334 79.9233 355.148 79.914 354.961 79.914C354.569 79.914 354.27 79.9793 354.065 80.11C353.86 80.2407 353.757 80.3993 353.757 80.586C353.757 81.006 354.084 81.23 354.737 81.258ZM368.471 82.966C368.359 82.7793 368.21 82.5553 368.023 82.294C367.836 82.0327 367.622 81.8087 367.379 81.622C368.368 81.342 369.129 81.02 369.661 80.656C370.193 80.2827 370.562 79.844 370.767 79.34C370.468 79.4893 370.17 79.564 369.871 79.564C369.162 79.564 368.588 79.3633 368.149 78.962C367.72 78.5607 367.491 78.0193 367.463 77.338C367.444 76.8713 367.538 76.456 367.743 76.092C367.948 75.7187 368.238 75.4247 368.611 75.21C368.984 74.9953 369.409 74.888 369.885 74.888C369.96 74.888 370.025 74.8927 370.081 74.902C370.137 74.902 370.198 74.9067 370.263 74.916C370.244 74.748 370.226 74.5753 370.207 74.398C370.188 74.2207 370.179 74.034 370.179 73.838C369.423 73.866 368.686 73.908 367.967 73.964C367.248 74.02 366.59 74.0853 365.993 74.16C365.396 74.2253 364.901 74.3047 364.509 74.398L364.271 72.774C364.607 72.746 365.078 72.718 365.685 72.69C366.292 72.6527 366.982 72.6153 367.757 72.578C368.541 72.5407 369.348 72.5033 370.179 72.466V70.492H371.803V72.396C372.531 72.368 373.226 72.3447 373.889 72.326C374.552 72.298 375.144 72.2793 375.667 72.27C376.19 72.2513 376.6 72.2467 376.899 72.256L376.787 73.894C376.246 73.8287 375.527 73.7913 374.631 73.782C373.744 73.7633 372.802 73.7633 371.803 73.782C371.803 74.118 371.812 74.4587 371.831 74.804C371.859 75.1493 371.882 75.4807 371.901 75.798C372.358 76.3393 372.587 77.058 372.587 77.954C372.587 79.1953 372.228 80.2407 371.509 81.09C370.79 81.93 369.778 82.5553 368.471 82.966ZM369.885 78.164C370.146 78.1453 370.352 78.0567 370.501 77.898C370.65 77.7393 370.725 77.534 370.725 77.282C370.725 77.198 370.716 77.1093 370.697 77.016C370.688 76.9133 370.674 76.806 370.655 76.694C370.459 76.47 370.212 76.358 369.913 76.358C369.652 76.358 369.432 76.442 369.255 76.61C369.078 76.778 368.994 76.9927 369.003 77.254C369.003 77.5247 369.082 77.7487 369.241 77.926C369.409 78.094 369.624 78.1733 369.885 78.164Z" fill="white"/>
<path d="M116.696 56.69C116.505 56.326 116.254 55.9013 115.942 55.416C115.647 54.9307 115.318 54.4193 114.954 53.882C114.174 54.0033 113.221 54.1333 112.094 54.272C110.967 54.4107 109.771 54.558 108.506 54.714C107.258 54.8527 106.019 54.9827 104.788 55.104C103.575 55.2427 102.465 55.3553 101.46 55.442C100.455 55.546 99.6573 55.624 99.068 55.676L98.392 52.608C98.7733 52.5907 99.276 52.5647 99.9 52.53C100.524 52.4953 101.226 52.4433 102.006 52.374C102.422 51.6113 102.881 50.7273 103.384 49.722C103.887 48.6993 104.372 47.6507 104.84 46.576C105.325 45.5013 105.75 44.5047 106.114 43.586C106.495 42.65 106.773 41.896 106.946 41.324L110.066 42.468C109.841 43.092 109.555 43.8027 109.208 44.6C108.861 45.3973 108.48 46.238 108.064 47.122C107.648 48.006 107.223 48.8727 106.79 49.722C106.374 50.5713 105.967 51.36 105.568 52.088C106.903 51.984 108.237 51.8713 109.572 51.75C110.924 51.6113 112.103 51.4813 113.108 51.36C112.571 50.6493 112.033 49.9907 111.496 49.384C110.976 48.7773 110.499 48.2833 110.066 47.902L112.38 45.978C112.9 46.4633 113.481 47.07 114.122 47.798C114.781 48.5087 115.439 49.28 116.098 50.112C116.774 50.9267 117.407 51.7413 117.996 52.556C118.603 53.3533 119.114 54.0727 119.53 54.714C119.253 54.87 118.932 55.0607 118.568 55.286C118.204 55.5287 117.857 55.7713 117.528 56.014C117.199 56.274 116.921 56.4993 116.696 56.69ZM119.478 47.122C118.091 46.342 116.835 45.4233 115.708 44.366C114.581 43.3087 113.628 42.1733 112.848 40.96C112.068 39.7467 111.496 38.516 111.132 37.268H106.738V34.46H113.654C113.775 35.6213 114.079 36.7133 114.564 37.736C115.067 38.7413 115.691 39.6687 116.436 40.518C117.181 41.35 118.005 42.104 118.906 42.78C119.807 43.4387 120.726 44.0193 121.662 44.522C121.437 44.7127 121.177 44.964 120.882 45.276C120.605 45.588 120.336 45.9173 120.076 46.264C119.833 46.5933 119.634 46.8793 119.478 47.122ZM98.886 47.408C98.7127 47.1827 98.47 46.94 98.158 46.68C97.846 46.4027 97.5167 46.1427 97.17 45.9C96.8407 45.6573 96.546 45.4753 96.286 45.354C97.014 44.8687 97.7333 44.2447 98.444 43.482C99.1547 42.7193 99.822 41.896 100.446 41.012C101.07 40.128 101.607 39.2613 102.058 38.412C102.509 37.5453 102.838 36.774 103.046 36.098L106.062 37.294C105.213 39.3393 104.155 41.2373 102.89 42.988C101.625 44.7387 100.29 46.212 98.886 47.408ZM142.904 56.534C141.812 56.0313 140.763 55.1473 139.758 53.882C138.77 52.6167 137.895 50.9267 137.132 48.812C136.387 46.6973 135.823 44.132 135.442 41.116H123.404V38.178H135.156C135.052 36.618 135 34.954 135 33.186H138.146C138.094 34.954 138.12 36.618 138.224 38.178H142.098C141.665 37.6233 141.188 37.0947 140.668 36.592C140.148 36.072 139.654 35.6473 139.186 35.318L141.214 33.368C141.595 33.628 142.011 33.966 142.462 34.382C142.913 34.7807 143.337 35.188 143.736 35.604C144.152 36.02 144.481 36.384 144.724 36.696C144.481 36.852 144.178 37.0773 143.814 37.372C143.467 37.6493 143.155 37.918 142.878 38.178H146.596V41.116H138.51C138.909 44.1493 139.567 46.68 140.486 48.708C141.405 50.736 142.453 52.1573 143.632 52.972C143.823 52.4347 143.996 51.8713 144.152 51.282C144.308 50.6927 144.421 50.1987 144.49 49.8C144.681 49.9213 144.949 50.0687 145.296 50.242C145.66 50.4153 146.033 50.5713 146.414 50.71C146.795 50.8487 147.099 50.9527 147.324 51.022C147.22 51.5767 147.073 52.1747 146.882 52.816C146.691 53.44 146.483 54.0293 146.258 54.584C146.05 55.1387 145.842 55.5893 145.634 55.936C145.357 56.4213 144.975 56.7073 144.49 56.794C144.022 56.898 143.493 56.8113 142.904 56.534ZM123.95 56.222L123.352 53.31C123.889 53.258 124.574 53.18 125.406 53.076C126.255 52.972 127.157 52.8507 128.11 52.712V47.018H123.924V44.236H135.182V47.018H131.438V52.192C132.461 52.0187 133.414 51.854 134.298 51.698C135.182 51.5247 135.893 51.3773 136.43 51.256V54.038C135.841 54.194 135.121 54.3587 134.272 54.532C133.423 54.7053 132.513 54.8787 131.542 55.052C130.589 55.2253 129.635 55.39 128.682 55.546C127.729 55.702 126.836 55.8407 126.004 55.962C125.189 56.0833 124.505 56.17 123.95 56.222ZM149.846 55V36.8H152.836V52.218H162.326V55H149.846ZM164.674 55V36.8H167.664V55H164.674ZM171.352 55V36.8H174.342L182.922 49.722V36.8H185.964V55H183.078L174.342 41.714V55H171.352ZM189.633 55V36.8H201.801V39.582H192.623V44.314H200.995V47.122H192.623V52.218H202.087V55H189.633Z" fill="white"/>
<g clip-path="url(#clip0_148_108)">
<path d="M73 51.6081C73 42.4505 63.5796 35 52 35C40.4203 35 31 42.4505 31 51.6081C31 59.818 38.4709 66.6936 48.5627 67.9934C49.2464 68.1374 50.1775 68.4329 50.4128 69.0027C50.6245 69.5199 50.5514 70.3305 50.4808 70.8532C50.4808 70.8532 50.2344 72.2973 50.181 72.6052C50.0894 73.1222 49.7589 74.6287 52 73.7085C54.2414 72.788 64.0936 66.7684 68.4995 61.8265H68.4986C71.5419 58.5738 73 55.2731 73 51.6081Z" fill="white"/>
<path d="M66.0137 56.8957C66.2352 56.8957 66.4147 56.7208 66.4147 56.5049V55.0535C66.4147 54.8386 66.2343 54.6628 66.0137 54.6628H62.0041V53.1556H66.0137C66.2352 53.1556 66.4147 52.9806 66.4147 52.7648V51.3135C66.4147 51.0985 66.2343 50.9227 66.0137 50.9227H62.0041V49.4155H66.0137C66.2352 49.4155 66.4147 49.2405 66.4147 49.0247V47.5733C66.4147 47.3584 66.2343 47.1826 66.0137 47.1826H60.1138C59.8924 47.1826 59.7129 47.3575 59.7129 47.5733V56.505C59.7129 56.7208 59.8924 56.8957 60.1138 56.8957L66.0137 56.8957Z" fill="#36BE4F"/>
<path d="M44.19 56.8957C44.4114 56.8957 44.5909 56.7208 44.5909 56.505V55.0536C44.5909 54.8387 44.4105 54.6628 44.19 54.6628H40.1803V47.5733C40.1803 47.3584 39.9999 47.1826 39.7794 47.1826H38.2901C38.0686 47.1826 37.8892 47.3575 37.8892 47.5733V56.505C37.8892 56.7208 38.0686 56.8957 38.2901 56.8957H44.19Z" fill="#36BE4F"/>
<path d="M47.7416 47.1826H46.2523C46.0308 47.1826 45.8513 47.3576 45.8513 47.5733V56.5051C45.8513 56.7208 46.0308 56.8958 46.2523 56.8958H47.7416C47.963 56.8958 48.1425 56.7208 48.1425 56.5051V47.5733C48.1425 47.3576 47.963 47.1826 47.7416 47.1826Z" fill="#36BE4F"/>
<path d="M57.8804 47.1827H56.3911C56.1697 47.1827 55.9902 47.3576 55.9902 47.5734V52.8783L51.797 47.3596C51.7872 47.3454 51.7763 47.3321 51.7647 47.3192C51.7639 47.3183 51.763 47.3174 51.7621 47.3164C51.7544 47.308 51.7464 47.2998 51.738 47.292C51.7355 47.2898 51.733 47.2876 51.7305 47.2854C51.7233 47.2792 51.7161 47.2732 51.7087 47.2675C51.7051 47.2647 51.7015 47.2622 51.6978 47.2596C51.691 47.2547 51.6839 47.2499 51.6766 47.2453C51.6726 47.2428 51.6685 47.2405 51.6643 47.2381C51.657 47.2339 51.6497 47.2299 51.6422 47.2262C51.638 47.2241 51.6337 47.2221 51.6294 47.2202C51.6218 47.2167 51.6139 47.2134 51.606 47.2103C51.6017 47.2087 51.5973 47.2072 51.593 47.2057C51.5849 47.2029 51.5769 47.2004 51.5686 47.1981C51.5639 47.1968 51.5591 47.1956 51.5544 47.1945C51.5465 47.1926 51.5386 47.1909 51.5306 47.1894C51.5249 47.1884 51.5192 47.1877 51.5135 47.1869C51.5063 47.1859 51.4991 47.1849 51.4919 47.1843C51.4847 47.1837 51.4777 47.1835 51.4705 47.1833C51.4659 47.1832 51.4614 47.1826 51.4567 47.1826H49.9756C49.7542 47.1826 49.5747 47.3576 49.5747 47.5733V56.505C49.5747 56.7208 49.7542 56.8958 49.9756 56.8958H51.465C51.6864 56.8958 51.8659 56.7208 51.8659 56.505V51.2018L56.0644 56.7274C56.0933 56.7673 56.1286 56.7998 56.1677 56.8258C56.1693 56.8268 56.1708 56.8279 56.1725 56.8289C56.1806 56.8342 56.1891 56.8392 56.1976 56.8438C56.2014 56.8459 56.2053 56.8481 56.2093 56.8501C56.2157 56.8533 56.2221 56.8563 56.2287 56.8592C56.2353 56.8621 56.2418 56.8649 56.2484 56.8675C56.2526 56.8691 56.2569 56.8705 56.2611 56.872C56.2702 56.8751 56.2793 56.8781 56.2888 56.8806C56.2906 56.8811 56.2926 56.8816 56.2945 56.8821C56.328 56.8907 56.363 56.8958 56.3993 56.8958H57.8804C58.1018 56.8958 58.2814 56.7208 58.2814 56.505V47.5733C58.2814 47.3576 58.1018 47.1827 57.8804 47.1827Z" fill="#36BE4F"/>
</g>
<defs>
<clipPath id="clip0_148_108">
<rect width="42" height="39" fill="white" transform="translate(31 35)"/>
</clipPath>
</defs>
</svg>
