<svg width="42" height="39" viewBox="0 0 42 39" fill="none" xmlns="http://www.w3.org/2000/svg">
<g clip-path="url(#clip0_38_572)">
<path d="M42 16.6081C42 7.4505 32.5796 0 21 0C9.42033 0 0 7.4505 0 16.6081C0 24.818 7.47092 31.6936 17.5627 32.9934C18.2464 33.1374 19.1775 33.4329 19.4128 34.0027C19.6245 34.5199 19.5514 35.3305 19.4808 35.8532C19.4808 35.8532 19.2344 37.2973 19.181 37.6052C19.0894 38.1222 18.7589 39.6287 21 38.7085C23.2414 37.788 33.0936 31.7684 37.4995 26.8265H37.4986C40.5419 23.5738 42 20.2731 42 16.6081Z" fill="white"/>
<path d="M35.0137 21.896C35.2352 21.896 35.4147 21.7211 35.4147 21.5052V20.0538C35.4147 19.839 35.2343 19.6631 35.0137 19.6631H31.0041V18.1559H35.0137C35.2352 18.1559 35.4147 17.9809 35.4147 17.7651V16.3138C35.4147 16.0988 35.2343 15.923 35.0137 15.923H31.0041V14.4158H35.0137C35.2352 14.4158 35.4147 14.2408 35.4147 14.025V12.5737C35.4147 12.3587 35.2343 12.1829 35.0137 12.1829H29.1138C28.8924 12.1829 28.7129 12.3578 28.7129 12.5737V21.5053C28.7129 21.7211 28.8924 21.896 29.1138 21.896L35.0137 21.896Z" fill="#36BE4F"/>
<path d="M13.19 21.896C13.4114 21.896 13.5909 21.7211 13.5909 21.5053V20.0539C13.5909 19.839 13.4105 19.6631 13.19 19.6631H9.18035V12.5737C9.18035 12.3587 8.9999 12.1829 8.77941 12.1829H7.2901C7.06864 12.1829 6.88916 12.3578 6.88916 12.5737V21.5053C6.88916 21.7211 7.06864 21.896 7.2901 21.896H13.19Z" fill="#36BE4F"/>
<path d="M16.7416 12.1828H15.2523C15.0308 12.1828 14.8513 12.3577 14.8513 12.5735V21.5052C14.8513 21.721 15.0308 21.896 15.2523 21.896H16.7416C16.963 21.896 17.1425 21.721 17.1425 21.5052V12.5735C17.1425 12.3577 16.963 12.1828 16.7416 12.1828Z" fill="#36BE4F"/>
<path d="M26.8804 12.1828H25.3911C25.1697 12.1828 24.9902 12.3578 24.9902 12.5736V17.8785L20.797 12.3598C20.7872 12.3456 20.7763 12.3323 20.7647 12.3194C20.7639 12.3185 20.763 12.3176 20.7621 12.3166C20.7544 12.3081 20.7464 12.3 20.738 12.2922C20.7355 12.29 20.733 12.2878 20.7305 12.2856C20.7233 12.2794 20.7161 12.2734 20.7087 12.2676C20.7051 12.2649 20.7015 12.2624 20.6978 12.2597C20.691 12.2549 20.6839 12.2501 20.6766 12.2455C20.6726 12.243 20.6685 12.2406 20.6643 12.2383C20.657 12.2341 20.6497 12.2301 20.6422 12.2264C20.638 12.2242 20.6337 12.2223 20.6294 12.2204C20.6218 12.2169 20.6139 12.2136 20.606 12.2105C20.6017 12.2089 20.5973 12.2074 20.593 12.2058C20.5849 12.2031 20.5769 12.2005 20.5686 12.1982C20.5639 12.1969 20.5591 12.1958 20.5544 12.1947C20.5465 12.1928 20.5386 12.191 20.5306 12.1896C20.5249 12.1886 20.5192 12.1879 20.5135 12.1871C20.5063 12.1861 20.4991 12.1851 20.4919 12.1845C20.4847 12.1839 20.4777 12.1837 20.4705 12.1835C20.4659 12.1833 20.4614 12.1828 20.4567 12.1828H18.9756C18.7542 12.1828 18.5747 12.3578 18.5747 12.5735V21.5052C18.5747 21.721 18.7542 21.8959 18.9756 21.8959H20.465C20.6864 21.8959 20.8659 21.721 20.8659 21.5052V16.2019L25.0644 21.7276C25.0933 21.7674 25.1286 21.8 25.1677 21.826C25.1693 21.827 25.1708 21.8281 25.1725 21.8291C25.1806 21.8344 25.1891 21.8393 25.1976 21.844C25.2014 21.8461 25.2053 21.8483 25.2093 21.8503C25.2157 21.8535 25.2221 21.8565 25.2287 21.8594C25.2353 21.8623 25.2418 21.865 25.2484 21.8676C25.2526 21.8692 25.2569 21.8707 25.2611 21.8722C25.2702 21.8753 25.2793 21.8783 25.2888 21.8808C25.2906 21.8813 25.2926 21.8818 25.2945 21.8823C25.328 21.8909 25.363 21.8959 25.3993 21.8959H26.8804C27.1018 21.8959 27.2814 21.721 27.2814 21.5052V12.5735C27.2814 12.3578 27.1018 12.1828 26.8804 12.1828Z" fill="#36BE4F"/>
</g>
<defs>
<clipPath id="clip0_38_572">
<rect width="42" height="39" fill="white"/>
</clipPath>
</defs>
</svg>
