<svg width="18" height="15" viewBox="0 0 18 15" fill="none" xmlns="http://www.w3.org/2000/svg">
<path d="M7.39746 1.63889C7.39746 1.46964 7.64588 1.35972 7.7942 1.32247C8.25225 1.20772 8.99996 1.25077 8.99996 1.25077C8.99996 1.25077 9.7477 1.20772 10.2057 1.3225C10.354 1.35976 10.6025 1.46967 10.6025 1.63892C10.6025 2.05571 10.6025 2.32908 10.6025 2.32908H11.7929C11.7929 2.32908 11.7929 1.85454 11.7929 1.46642C11.7929 0.733212 11.6555 0 8.99999 0C6.34446 0 6.20703 0.733212 6.20703 1.46642C6.20703 1.85454 6.20703 2.32908 6.20703 2.32908H7.3975C7.3975 2.32908 7.39746 2.05568 7.39746 1.63889Z" fill="#C72424"/>
<path d="M12.5716 3.43269H5.42847V14.56H12.5716V3.43269Z" fill="#C72424"/>
<path d="M3.45988 3.43269H0V14.56H3.45988V3.43269Z" fill="#C72424"/>
<path d="M17.9999 3.43269H14.54V14.56H17.9999V3.43269Z" fill="#C72424"/>
</svg>
