<svg width="14" height="18" viewBox="0 0 14 18" fill="none" xmlns="http://www.w3.org/2000/svg">
<path d="M12.275 0H1.72561C0.772777 0 0 0.706613 0 1.57735V16.2332C0 17.104 0.772777 17.8105 1.72561 17.8105H12.275C13.2273 17.8105 14 17.104 14 16.2332V1.57735C14 0.706613 13.2273 0 12.275 0ZM13.087 16.2332C13.087 16.6425 12.7226 16.9757 12.275 16.9757H1.72561C1.27742 16.9757 0.913043 16.6425 0.913043 16.2332V1.57735C0.913043 1.16805 1.27742 0.834869 1.72561 0.834869H12.275C12.7226 0.834869 13.087 1.16805 13.087 1.57735V16.2332Z" fill="#FC873E"/>
<path d="M4.56515 13.6362H2.13037V15.5843H4.56515V13.6362Z" fill="#FC873E"/>
<path d="M4.56515 10.5747H2.13037V12.5227H4.56515V10.5747Z" fill="#FC873E"/>
<path d="M4.56515 7.51416H2.13037V9.46219H4.56515V7.51416Z" fill="#FC873E"/>
<path d="M8.21725 13.6362H5.78247V15.5843H8.21725V13.6362Z" fill="#FC873E"/>
<path d="M8.21725 10.5747H5.78247V12.5227H8.21725V10.5747Z" fill="#FC873E"/>
<path d="M8.21725 7.51416H5.78247V9.46219H8.21725V7.51416Z" fill="#FC873E"/>
<path d="M11.8696 10.5747H9.43481V15.5839H11.8696V10.5747Z" fill="#FC873E"/>
<path d="M11.8696 7.51416H9.43481V9.46219H11.8696V7.51416Z" fill="#FC873E"/>
<path d="M11.8695 2.50488H2.13037V5.56607H11.8695V2.50488Z" fill="#FC873E"/>
</svg>
