<svg width="33" height="40" viewBox="0 0 33 40" fill="none" xmlns="http://www.w3.org/2000/svg">
<path d="M28.3558 4.78538C28.4165 4.6657 28.4715 4.54176 28.5187 4.41217C29.137 2.70617 28.2606 0.820291 26.5629 0.199219C24.8645 -0.421853 22.987 0.457704 22.3686 2.1637C22.3193 2.30038 22.2805 2.43848 22.2495 2.57657C17.3156 2.32021 12.5277 5.35475 10.7285 10.3198L9.87044 12.5874C7.36403 18.5729 3.73732 22.6392 1.80551 24.5258C1.00177 24.9727 0.436329 25.5647 0.169824 26.2998C-1.07034 29.7217 4.61509 34.9417 12.8683 37.9585C21.1214 40.9761 28.6456 40.5802 30.0571 37.2263C30.1473 37.0117 30.208 36.5939 30.2066 36.5854C30.2679 36.0507 30.184 35.482 29.9697 34.8921C29.694 32.2414 29.498 26.7899 31.3903 20.5735L32.2878 18.2011C34.0962 13.2106 32.3428 7.76468 28.3558 4.78538ZM27.7587 36.3864C27.6191 36.7716 26.3479 37.5669 23.3085 37.5669C20.4968 37.5669 17.0858 36.8864 13.7051 35.6506C10.0608 34.3185 6.74571 32.4291 4.60945 30.4681C2.5592 28.5858 2.37236 27.406 2.46825 27.1404C2.60785 26.7552 3.87903 25.9599 6.91845 25.9599C7.88364 25.9599 8.92005 26.042 10.0002 26.1971C9.45306 26.8777 9.12451 27.7438 9.12451 28.6864C9.12451 30.8761 10.892 32.6515 13.072 32.6515C15.252 32.6515 17.0195 30.8761 17.0195 28.6864C17.0195 28.4675 17.0012 28.2523 16.9674 28.0426C20.4354 29.3634 23.5686 31.177 25.6175 33.0587C27.6677 34.941 27.8545 36.1208 27.7587 36.3864Z" fill="white"/>
</svg>
