<svg width="352" height="57" viewBox="0 0 352 57" fill="none" xmlns="http://www.w3.org/2000/svg">
<path d="M60.4817 45.584C56.3938 45.584 53.2343 44.1315 51.0032 41.2266C48.787 38.3066 47.679 34.1738 47.679 28.8281C47.679 23.4974 48.787 19.3721 51.0032 16.4521C53.2343 13.5322 56.3938 12.0723 60.4817 12.0723C64.5846 12.0723 67.7441 13.5322 69.9602 16.4521C72.1764 19.3721 73.2844 23.4974 73.2844 28.8281C73.2844 34.1589 72.1764 38.2842 69.9602 41.2041C67.7441 44.124 64.5846 45.584 60.4817 45.584ZM60.4817 40.1934C62.3534 40.1934 63.761 39.235 64.7043 37.3184C65.6627 35.4017 66.1418 32.5716 66.1418 28.8281C66.1418 25.0846 65.6627 22.262 64.7043 20.3604C63.761 18.4437 62.3534 17.4854 60.4817 17.4854C58.6099 17.4854 57.1949 18.4437 56.2366 20.3604C55.2932 22.262 54.8215 25.0846 54.8215 28.8281C54.8215 32.5716 55.2932 35.4017 56.2366 37.3184C57.1949 39.235 58.6099 40.1934 60.4817 40.1934ZM79.2815 45C80.3896 39.4297 82.1116 34.4134 84.4475 29.9512C86.7984 25.4889 89.6135 21.5583 92.8928 18.1592H74.9241V12.6562H99.2717V17.3506C97.5647 19.6416 96.0374 21.8577 94.6897 23.999C93.342 26.1403 92.1591 28.2965 91.1409 30.4678C90.1226 32.624 89.2467 34.8926 88.5129 37.2734C87.7792 39.6393 87.1578 42.2148 86.6487 45H79.2815ZM114.051 45.584C109.858 45.584 106.646 44.1839 104.415 41.3838C102.199 38.5687 101.091 34.6455 101.091 29.6143C101.091 27.3831 101.323 25.2269 101.787 23.1455C102.267 21.0492 103.023 19.1699 104.056 17.5078C105.089 15.8457 106.444 14.528 108.121 13.5547C109.798 12.5664 111.85 12.0723 114.276 12.0723C116.537 12.0723 118.498 12.4915 120.16 13.3301C121.823 14.1536 123.148 15.2168 124.136 16.5195C125.124 17.8073 125.731 19.1624 125.955 20.585L119.487 22.292C119.412 20.7646 118.918 19.5368 118.004 18.6084C117.106 17.68 115.885 17.2158 114.343 17.2158C113.115 17.2158 112.104 17.4928 111.311 18.0469C110.517 18.6009 109.888 19.3346 109.424 20.248C108.96 21.1465 108.615 22.1348 108.391 23.2129C108.166 24.276 108.024 25.3392 107.964 26.4023C107.904 27.4655 107.874 28.4163 107.874 29.2549L106.998 28.8281C107.747 27.4355 108.81 26.2751 110.188 25.3467C111.565 24.4033 113.377 23.9316 115.623 23.9316C117.824 23.9316 119.704 24.3883 121.261 25.3018C122.833 26.2002 124.031 27.443 124.855 29.0303C125.693 30.6025 126.113 32.4069 126.113 34.4434C126.113 36.7194 125.603 38.6885 124.585 40.3506C123.582 42.0127 122.174 43.3005 120.363 44.2139C118.551 45.1273 116.447 45.584 114.051 45.584ZM114.006 40.4404C115.668 40.4404 116.948 39.9163 117.847 38.8682C118.745 37.805 119.195 36.3975 119.195 34.6455C119.195 32.8636 118.738 31.4785 117.824 30.4902C116.926 29.487 115.676 28.9854 114.073 28.9854C112.411 28.9854 111.094 29.5094 110.12 30.5576C109.162 31.5908 108.683 32.9834 108.683 34.7354C108.683 36.4723 109.162 37.8574 110.12 38.8906C111.079 39.9238 112.374 40.4404 114.006 40.4404ZM132.694 45C133.802 39.4297 135.524 34.4134 137.86 29.9512C140.211 25.4889 143.026 21.5583 146.305 18.1592H128.336V12.6562H152.684V17.3506C150.977 19.6416 149.449 21.8577 148.102 23.999C146.754 26.1403 145.571 28.2965 144.553 30.4678C143.535 32.624 142.659 34.8926 141.925 37.2734C141.191 39.6393 140.57 42.2148 140.061 45H132.694ZM152.145 33.7695V27.9297H168.698V33.7695H152.145ZM184.646 45.584C182.519 45.584 180.528 45.1947 178.671 44.416C176.814 43.6224 175.28 42.4619 174.067 40.9346C172.854 39.4072 172.15 37.528 171.955 35.2969L179.075 33.8369C179.15 35.7236 179.659 37.251 180.603 38.4189C181.546 39.5869 182.909 40.1709 184.691 40.1709C185.874 40.1709 186.877 39.9014 187.7 39.3623C188.524 38.8083 189.16 38.0596 189.61 37.1162C190.059 36.1579 190.283 35.0798 190.283 33.8818C190.283 32.1299 189.797 30.7373 188.823 29.7041C187.85 28.6709 186.503 28.1543 184.781 28.1543C183.553 28.1543 182.549 28.4388 181.771 29.0078C181.007 29.5768 180.393 30.318 179.929 31.2314L172.854 30.6924L174.381 12.6562H195.405V18.1592H179.996L179.188 27.9746L178.222 27.4355C179.105 26.043 180.273 24.9798 181.726 24.2461C183.178 23.4974 184.855 23.123 186.757 23.123C189.033 23.123 190.957 23.5872 192.53 24.5156C194.117 25.444 195.315 26.7093 196.123 28.3115C196.932 29.8988 197.336 31.7031 197.336 33.7246C197.336 36.2702 196.745 38.4264 195.562 40.1934C194.379 41.9603 192.822 43.3005 190.89 44.2139C188.958 45.1273 186.877 45.584 184.646 45.584ZM212.947 45.584C210.656 45.584 208.567 45.1797 206.68 44.3711C204.793 43.5625 203.258 42.3796 202.075 40.8223C200.907 39.265 200.249 37.3783 200.099 35.1621L206.837 33.1855C206.912 35.4766 207.474 37.221 208.522 38.4189C209.57 39.6019 210.985 40.1934 212.767 40.1934C214.324 40.1934 215.619 39.7591 216.653 38.8906C217.701 38.0221 218.225 36.7568 218.225 35.0947C218.225 34.3161 218.045 33.5524 217.686 32.8037C217.341 32.04 216.735 31.4111 215.866 30.917C215.013 30.4079 213.808 30.1533 212.25 30.1533H209.488V25.4141H212.677C214.174 25.4141 215.32 25.0322 216.114 24.2686C216.922 23.4899 217.326 22.5615 217.326 21.4834C217.326 20.3903 216.945 19.4469 216.181 18.6533C215.417 17.8597 214.279 17.4629 212.767 17.4629C211.135 17.4629 209.884 17.9046 209.016 18.7881C208.162 19.6715 207.676 21.0566 207.556 22.9434L200.952 21.1689C201.072 19.6715 201.634 18.2266 202.637 16.834C203.64 15.4414 205.04 14.3034 206.837 13.4199C208.649 12.5215 210.79 12.0723 213.261 12.0723C215.282 12.0723 217.124 12.4092 218.786 13.083C220.448 13.7568 221.766 14.7376 222.74 16.0254C223.728 17.2982 224.222 18.848 224.222 20.6748C224.222 21.738 224.012 22.7562 223.593 23.7295C223.174 24.7028 222.5 25.5339 221.572 26.2227C220.643 26.8965 219.393 27.3457 217.821 27.5703C220.261 27.9596 222.118 28.873 223.391 30.3105C224.679 31.748 225.323 33.4925 225.323 35.5439C225.323 37.2809 224.978 38.7858 224.289 40.0586C223.601 41.3164 222.665 42.3571 221.482 43.1807C220.314 43.9893 218.996 44.5957 217.529 45C216.061 45.3893 214.534 45.584 212.947 45.584ZM228.602 33.7695V27.9297H245.156V33.7695H228.602ZM248.278 45C249.386 39.4297 251.108 34.4134 253.444 29.9512C255.795 25.4889 258.61 21.5583 261.889 18.1592H243.92V12.6562H268.268V17.3506C266.561 19.6416 265.033 21.8577 263.686 23.999C262.338 26.1403 261.155 28.2965 260.137 30.4678C259.119 32.624 258.243 34.8926 257.509 37.2734C256.775 39.6393 256.154 42.2148 255.645 45H248.278ZM275.59 45C276.698 39.4297 278.42 34.4134 280.756 29.9512C283.107 25.4889 285.922 21.5583 289.201 18.1592H271.233V12.6562H295.58V17.3506C293.873 19.6416 292.346 21.8577 290.998 23.999C289.651 26.1403 288.468 28.2965 287.449 30.4678C286.431 32.624 285.555 34.8926 284.822 37.2734C284.088 39.6393 283.466 42.2148 282.957 45H275.59ZM309.484 45V34.9824L309.888 34.3086V17.1709L311.595 18.0918L298.433 34.376L297.332 32.1748H320.422V37.6553H293.604V32.2871L309.731 12.6562H316.312V45H309.484ZM339.357 45V34.9824L339.761 34.3086V17.1709L341.468 18.0918L328.306 34.376L327.205 32.1748H350.295V37.6553H323.477V32.2871L339.604 12.6562H346.185V45H339.357Z" fill="white"/>
<path d="M3.26716 25.4747L7.51076 24.4571C8.23196 24.2849 8.73679 23.5827 8.7132 22.785L8.65862 21.054C8.63619 20.3217 9.06226 19.6587 9.70587 19.427C9.70587 19.427 13.3349 18.0422 15.9421 17.4427C18.5494 16.8433 22.3863 16.5127 22.3863 16.5127C23.0621 16.4414 23.702 16.8582 23.9566 17.5376L24.5614 19.1417C24.8396 19.8806 25.5651 20.3013 26.288 20.1403L30.5474 19.2032C31.2662 19.0447 31.7801 18.3616 31.7752 17.5697L31.7607 14.8446C31.9849 12.3257 30.4365 10.7779 27.7898 10.5639C25.1413 10.3506 19.5881 10.6529 14.8196 11.7491C10.0506 12.8453 4.86644 15.0108 2.52885 16.3708C0.190674 17.7307 -0.638392 19.8256 0.516725 22.0264L1.53001 24.5218C1.82417 25.247 2.55199 25.6449 3.26716 25.4747Z" fill="white"/>
<path d="M17.1054 38.7428C17.8539 38.7415 18.5144 38.4208 19.0066 37.8926C19.4957 37.3606 19.7926 36.6479 19.7939 35.8397C19.7927 35.0314 19.4957 34.3181 19.0066 33.7867C18.5145 33.2586 17.8539 32.9379 17.1054 32.9365C16.357 32.9379 15.6963 33.2585 15.2042 33.7867C14.7152 34.3181 14.4176 35.0314 14.417 35.8397C14.4176 36.6479 14.7152 37.3606 15.2042 37.8926C15.6963 38.4207 16.357 38.7415 17.1054 38.7428Z" fill="white"/>
<path d="M30.9849 34.7537C30.9849 34.7537 28.3838 32.2263 27.2346 30.329C24.2553 25.4103 24.0608 21.2415 24.0608 21.2415C23.9838 21.0203 23.7868 20.873 23.5674 20.873H20.7365C20.445 20.873 20.2086 21.1283 20.2086 21.443V23.6538C20.2086 23.9686 19.9722 24.2238 19.6807 24.2238H14.5304C14.2389 24.2238 14.0026 23.9686 14.0026 23.6538V21.443C14.0026 21.1283 13.7662 20.873 13.4747 20.873H10.6438C10.4244 20.873 10.2274 21.0196 10.1499 21.2415C10.1499 21.2415 9.9541 25.4377 6.9493 30.3741C5.80326 32.257 3.22933 34.753 3.22933 34.753C2.57483 35.5239 2.21118 36.5317 2.21118 37.5775V38.1704C2.21131 42.6815 5.59797 46.3385 9.7761 46.3385H24.4353C28.6135 46.3385 32.0001 42.6815 32.0001 38.1705V37.575C32.0001 36.5304 31.6376 35.5239 30.9849 34.7537ZM10.6937 35.8393C10.6925 33.9336 11.4143 32.1902 12.5718 30.9434C13.7263 29.6935 15.3409 28.914 17.1057 28.9154C18.8705 28.9141 20.485 29.6935 21.6396 30.9434C22.7971 32.1902 23.5184 33.9335 23.5178 35.8393C23.5184 37.745 22.7971 39.4884 21.6396 40.7352C20.485 41.9851 18.8705 42.7646 17.1057 42.7633C15.3409 42.7646 13.7263 41.9852 12.5718 40.7352C11.4143 39.4885 10.6924 37.745 10.6937 35.8393Z" fill="white"/>
</svg>
