<svg width="32" height="32" viewBox="0 0 32 32" fill="none" xmlns="http://www.w3.org/2000/svg">
<g clip-path="url(#clip0_434_930)">
<path d="M17.831 21.5048C16.5698 22.6892 16.1217 22.7848 16.0135 22.7848C15.9785 22.7167 15.8617 22.3617 16.2254 20.9929C16.4898 19.9998 16.901 18.8454 17.2642 17.8273C17.5198 17.1111 17.7404 16.4923 17.8592 16.0686C18.1648 14.9786 18.1323 14.2104 17.7604 13.7204C17.5879 13.4929 17.2554 13.2217 16.6498 13.2217C15.3204 13.2217 13.4342 14.5661 12.8229 15.6667C12.4554 16.3286 12.5742 16.7823 12.7385 17.0473L12.9967 17.4623L13.3467 17.1204C14.3685 16.1217 14.8035 15.9167 14.9485 15.8748C15.076 16.3823 14.4054 18.3767 14.0373 19.4704C13.826 20.0992 13.626 20.6929 13.4967 21.1629C13.0323 22.8529 13.0373 23.9767 13.5117 24.5992C13.7648 24.9317 14.1454 25.1073 14.611 25.1073C16.0979 25.1073 18.1154 23.3586 18.9142 22.6073L19.2123 22.3261L18.1054 21.2473L17.8317 21.5042L17.831 21.5048Z" fill="#E08CBF"/>
<path d="M19.392 9.43909C19.5862 8.24249 18.7737 7.11499 17.5771 6.92076C16.3805 6.72652 15.253 7.5391 15.0587 8.7357C14.8645 9.93231 15.6771 11.0598 16.8737 11.254C18.0703 11.4483 19.1978 10.6357 19.392 9.43909Z" fill="#E08CBF"/>
<path d="M16 0C7.16313 0 0 7.16313 0 16C0 24.8369 7.16313 32 16 32C24.8369 32 32 24.8369 32 16C32 7.16313 24.8369 0 16 0ZM28 16C28 22.6169 22.6169 28 16 28C9.38313 28 4 22.6169 4 16C4 9.38313 9.38313 4 16 4C22.6169 4 28 9.38313 28 16Z" fill="#E08CBF"/>
</g>
<defs>
<clipPath id="clip0_434_930">
<rect width="32" height="32" fill="white"/>
</clipPath>
</defs>
</svg>
