<svg width="28" height="29" viewBox="0 0 28 29" fill="none" xmlns="http://www.w3.org/2000/svg">
<path fill-rule="evenodd" clip-rule="evenodd" d="M19.9521 0.000976562C24.3965 0.000976562 28 3.64229 28 8.13379V20.6455C28 25.1375 24.3964 28.7782 19.9521 28.7783H8.04688C3.60269 28.7782 0 25.1369 0 20.6455V8.13379C0 3.64183 3.60269 0.000157624 8.04688 0H19.9521V0.000976562ZM8.04688 2.8877C5.18498 2.88785 2.85742 5.24148 2.85742 8.13379V20.6455C2.85742 23.5378 5.18498 25.8905 8.04688 25.8906H19.9521C22.8141 25.8905 25.1416 23.5378 25.1416 20.6455V8.13379C25.1416 5.24147 22.8141 2.88784 19.9521 2.8877H8.04688ZM14 6.97754C18.0432 6.97765 21.333 10.3035 21.333 14.3896C21.3327 18.4756 18.0431 21.7997 14 21.7998C9.95683 21.7998 6.66725 18.4762 6.66699 14.3896C6.66699 10.3028 9.95667 6.97754 14 6.97754ZM14 9.28809C11.2169 9.28809 8.95215 11.5765 8.95215 14.3896C8.95241 17.2026 11.2171 19.4902 14 19.4902C16.7828 19.4901 19.0466 17.2025 19.0469 14.3896C19.0469 11.5766 16.783 9.28819 14 9.28809ZM21.5479 5.10156C22.455 5.10174 23.1903 5.84492 23.1904 6.76172C23.1904 7.6786 22.4551 8.4217 21.5479 8.42188C20.6405 8.42188 19.9043 7.67871 19.9043 6.76172C19.9044 5.84481 20.6406 5.10156 21.5479 5.10156Z" fill="#C72424"/>
</svg>
