<svg width="14" height="18" viewBox="0 0 14 18" fill="none" xmlns="http://www.w3.org/2000/svg">
<path d="M0.722036 17.0645C0.721115 17.0693 0.726283 17.0666 0.722036 17.0645V17.0645Z" fill="#2CBCE0"/>
<path d="M13.9052 0.0587384C13.6916 -0.0839059 13.1559 0.0737097 12.9091 0.108354C12.7213 0.134795 12.5346 0.168406 12.3473 0.198348C12.3413 0.199249 12.3353 0.200149 12.3294 0.201216C12.1376 0.231959 11.9454 0.259034 11.7545 0.293311C10.8112 0.461964 9.87447 0.670128 8.95059 0.924507C8.3612 1.08679 7.76715 1.26991 7.17907 1.47635C7.1564 1.48428 7.13349 1.49288 7.11082 1.50095C6.89345 1.57808 6.67721 1.65854 6.46228 1.7435C6.3228 1.79871 6.18319 1.85563 6.04328 1.91528C5.93298 1.9623 5.82368 2.01128 5.71455 2.06076C5.60281 2.11158 5.49145 2.16446 5.38008 2.21838C5.2411 2.2857 5.10356 2.35525 4.96708 2.42717C4.88512 2.47042 4.80377 2.5156 4.72234 2.56092C4.56019 2.65091 4.40051 2.74407 4.24316 2.8412C4.1719 2.88535 4.10158 2.93093 4.03126 2.97665C3.87131 3.08048 3.71463 3.18818 3.56091 3.30045C3.48799 3.35373 3.41593 3.40841 3.34418 3.46376C3.27032 3.52095 3.19257 3.5732 3.12028 3.63255C2.74476 3.94111 2.39532 4.28328 2.09366 4.66477C1.62398 5.25885 1.27557 5.9343 1.02119 6.65105C1.02079 6.65235 1.02029 6.65365 1.01989 6.65485C0.971675 6.7907 0.927028 6.92784 0.885615 7.06658C0.882881 7.07569 0.88028 7.08492 0.877679 7.09406C0.8386 7.22613 0.802389 7.35924 0.769312 7.49338C0.767112 7.50238 0.764978 7.51135 0.762777 7.52022C0.729433 7.65713 0.69869 7.79464 0.671082 7.93312V7.93325C0.456548 9.00702 0.408767 10.1212 0.465818 11.1659C0.502796 11.8411 0.609996 12.5 0.701424 13.1682C0.738536 13.4393 0.665613 13.6598 0.588489 13.9169C0.47322 14.3018 0.365787 14.6889 0.266389 15.0782C0.1928 15.3666 0.123612 15.6561 0.059425 15.9467C-0.000360263 16.2173 -0.0534767 16.4705 0.102438 16.7212C0.200369 16.8788 0.461917 17.1055 0.669648 17.0677C0.704926 17.0612 0.717463 17.0625 0.721497 17.0644C0.722131 17.0613 0.725532 17.0549 0.736469 17.0428C0.762143 17.0144 0.762543 16.8987 0.769412 16.8616C1.19261 14.6204 1.91874 12.3934 2.91658 10.3419C3.47155 9.20078 4.12802 8.10187 4.92904 7.11536C5.33696 6.61301 5.7831 6.14046 6.27179 5.7157C6.31073 5.68169 6.49802 5.47996 6.54324 5.48803C6.66618 5.5099 6.66031 5.81129 6.63907 5.88918C6.59349 6.05604 6.44631 6.18014 6.33771 6.30701C6.19026 6.47933 6.04622 6.65439 5.90577 6.83231C5.0111 7.966 4.2705 9.21782 3.72436 10.5554C3.45421 11.217 3.23084 11.8975 3.05099 12.5891C2.9736 12.8863 2.90458 13.1856 2.84049 13.4861C2.78357 13.7524 2.55994 14.2758 2.85703 14.4672C3.02701 14.5767 3.32711 14.51 3.51973 14.5001C3.76954 14.4872 4.01912 14.47 4.26827 14.4468C4.40504 14.4342 4.54115 14.4145 4.67753 14.3981C4.67779 14.3981 4.67793 14.3981 4.67793 14.3981C4.9164 14.3694 5.15374 14.3342 5.39025 14.2932C5.43076 14.2861 5.47127 14.2789 5.51152 14.2715C5.61755 14.252 5.72445 14.2371 5.83008 14.2147C7.01078 13.9647 8.15527 13.5262 9.15665 12.8456C10.2158 12.1258 11.0931 11.1612 11.6654 10.0131C12.2251 8.89075 12.5285 7.65587 12.7321 6.42422C12.9163 5.3106 13.0059 4.18602 13.138 3.06591C13.2118 2.44098 13.3312 1.83439 13.5621 1.24661C13.6481 1.02727 13.7466 0.813273 13.8503 0.601874C13.93 0.43969 14.1106 0.195848 13.9052 0.0587384Z" fill="#2CBCE0"/>
</svg>
