<svg width="46" height="42" viewBox="0 0 46 42" fill="none" xmlns="http://www.w3.org/2000/svg">
<g clip-path="url(#clip0_806_5119)">
<path d="M46 17.8856C46 8.02361 35.6824 0 23 0C10.3175 0 0 8.02361 0 17.8856C0 26.727 8.18244 34.1316 19.2353 35.5314C19.9842 35.6865 21.0039 36.0047 21.2616 36.6183C21.4935 37.1753 21.4134 38.0483 21.3361 38.6111C21.3361 38.6111 21.0662 40.1663 21.0077 40.4979C20.9074 41.0547 20.5454 42.6771 23 41.686C25.4549 40.6948 36.2454 34.2121 41.0709 28.8901C44.4041 25.3872 46 21.8325 46 17.8856Z" fill="#36BE4F"/>
<path d="M38.3482 23.5803C38.5907 23.5803 38.7873 23.3919 38.7873 23.1595V21.5964C38.7873 21.365 38.5897 21.1756 38.3482 21.1756H33.9567V19.5525H38.3482C38.5907 19.5525 38.7873 19.3641 38.7873 19.1317V17.5687C38.7873 17.3372 38.5897 17.1478 38.3482 17.1478H33.9567V15.5247H38.3482C38.5907 15.5247 38.7873 15.3363 38.7873 15.1038V13.5408C38.7873 13.3094 38.5897 13.1201 38.3482 13.1201H31.8864C31.6438 13.1201 31.4473 13.3084 31.4473 13.5408V23.1595C31.4473 23.3919 31.6438 23.5803 31.8864 23.5803L38.3482 23.5803Z" fill="white"/>
<path d="M14.4459 23.5803C14.6883 23.5803 14.885 23.3919 14.885 23.1595V21.5965C14.885 21.3651 14.6873 21.1757 14.4459 21.1757H10.0543V13.5408C10.0543 13.3094 9.85669 13.1201 9.6152 13.1201H7.98404C7.7415 13.1201 7.54492 13.3084 7.54492 13.5408V23.1595C7.54492 23.3919 7.7415 23.5803 7.98404 23.5803H14.4459Z" fill="white"/>
<path d="M18.3359 13.1199H16.7047C16.4622 13.1199 16.2656 13.3083 16.2656 13.5407V23.1595C16.2656 23.3919 16.4622 23.5803 16.7047 23.5803H18.3359C18.5784 23.5803 18.775 23.3919 18.775 23.1595V13.5407C18.775 13.3083 18.5784 13.1199 18.3359 13.1199Z" fill="white"/>
<path d="M29.4405 13.12H27.8093C27.5668 13.12 27.3702 13.3084 27.3702 13.5408V19.2538L22.7776 13.3106C22.767 13.2952 22.755 13.2809 22.7423 13.2671C22.7415 13.266 22.7405 13.2651 22.7395 13.264C22.731 13.2549 22.7223 13.2462 22.7131 13.2378C22.7103 13.2354 22.7076 13.233 22.7048 13.2306C22.697 13.2239 22.6891 13.2174 22.681 13.2113C22.677 13.2084 22.6731 13.2056 22.669 13.2028C22.6615 13.1975 22.6538 13.1924 22.6458 13.1875C22.6414 13.1848 22.6369 13.1822 22.6324 13.1797C22.6244 13.1752 22.6164 13.1709 22.6081 13.1669C22.6036 13.1646 22.5989 13.1625 22.5942 13.1604C22.5858 13.1566 22.5772 13.1531 22.5685 13.1498C22.5638 13.1481 22.559 13.1464 22.5542 13.1448C22.5454 13.1418 22.5366 13.139 22.5276 13.1366C22.5224 13.1352 22.5172 13.134 22.512 13.1327C22.5033 13.1307 22.4947 13.1288 22.4859 13.1273C22.4797 13.1262 22.4735 13.1254 22.4672 13.1246C22.4594 13.1235 22.4515 13.1224 22.4435 13.1218C22.4357 13.1211 22.4279 13.1209 22.4201 13.1207C22.4151 13.1205 22.4101 13.1199 22.405 13.1199H20.7829C20.5404 13.1199 20.3438 13.3084 20.3438 13.5407V23.1595C20.3438 23.3918 20.5404 23.5802 20.7829 23.5802H22.414C22.6566 23.5802 22.8531 23.3918 22.8531 23.1595V17.4482L27.4515 23.3989C27.4831 23.4419 27.5218 23.477 27.5647 23.5049C27.5664 23.506 27.5681 23.5072 27.5699 23.5083C27.5788 23.514 27.5881 23.5193 27.5974 23.5243C27.6016 23.5266 27.6058 23.5289 27.6102 23.531C27.6172 23.5345 27.6243 23.5378 27.6315 23.5409C27.6386 23.544 27.6458 23.547 27.653 23.5498C27.6576 23.5515 27.6623 23.5531 27.6669 23.5547C27.6769 23.558 27.6869 23.5612 27.6972 23.5639C27.6993 23.5645 27.7014 23.565 27.7035 23.5655C27.7402 23.5748 27.7786 23.5802 27.8183 23.5802H29.4405C29.683 23.5802 29.8796 23.3918 29.8796 23.1595V13.5407C29.8796 13.3084 29.683 13.12 29.4405 13.12Z" fill="white"/>
</g>
<defs>
<clipPath id="clip0_806_5119">
<rect width="46" height="42" fill="white"/>
</clipPath>
</defs>
</svg>
