<svg width="17" height="17" viewBox="0 0 17 17" fill="none" xmlns="http://www.w3.org/2000/svg">
<path d="M8.5 0C3.80561 0 0 3.80548 0 8.5C0 13.1945 3.80561 17 8.5 17C13.1944 17 17 13.1945 17 8.5C17 3.80548 13.1944 0 8.5 0ZM6.89556 12.5771C6.89556 11.9924 7.36973 11.5182 7.95451 11.5182C8.53885 11.5182 9.01302 11.9924 9.01302 12.5771C9.01302 13.1614 8.53885 13.6358 7.95451 13.6358C7.36973 13.6358 6.89556 13.1614 6.89556 12.5771ZM11.4094 7.26657C11.29 7.59173 11.1172 7.87382 10.9215 8.10847C10.5281 8.57823 10.0619 8.86278 9.67831 9.07272C9.42202 9.21131 9.19577 9.31806 9.05512 9.39708C8.95867 9.45034 8.90641 9.49503 8.88061 9.52412C8.85511 9.55486 8.84644 9.56748 8.83094 9.61795C8.82187 9.65145 8.81241 9.70468 8.81241 9.78699C8.81241 10.015 8.81241 10.2024 8.81241 10.2024C8.81241 10.4173 8.63816 10.5918 8.42317 10.5918H7.48511C7.27012 10.5918 7.09557 10.4173 7.09557 10.2024C7.09557 10.2024 7.09557 10.015 7.09557 9.78699C7.09557 9.57322 7.12054 9.36385 7.17543 9.16353C7.22975 8.96405 7.31538 8.77446 7.42472 8.60924C7.64382 8.27445 7.94076 8.05136 8.22106 7.89604C8.4668 7.76077 8.70991 7.64851 8.93546 7.52147C9.16087 7.39553 9.36189 7.25883 9.50994 7.11068C9.60915 7.0119 9.68625 6.9098 9.74525 6.79459C9.82278 6.64092 9.87657 6.46033 9.8778 6.18402C9.8782 6.10224 9.85462 5.99469 9.79041 5.87174C9.72646 5.74935 9.6222 5.61628 9.48281 5.49688C9.20225 5.25622 8.79076 5.08034 8.31891 5.08114C7.7782 5.08307 7.41625 5.20984 7.13731 5.36735C6.85973 5.52593 6.77111 5.68594 6.77111 5.68594C6.6294 5.80938 6.41906 5.81377 6.27224 5.69636L5.5514 5.11873C5.46112 5.04658 5.40789 4.93817 5.40544 4.82236C5.40334 4.70684 5.45275 4.59624 5.54027 4.52024C5.54027 4.52024 5.76489 4.17393 6.28572 3.87676C6.80435 3.5782 7.49172 3.36251 8.31894 3.36447C8.99014 3.36447 9.60852 3.54915 10.1208 3.85126C10.6333 4.15501 11.0471 4.57323 11.3112 5.07566C11.4865 5.41015 11.5942 5.7872 11.5945 6.18398C11.5949 6.57561 11.5297 6.94138 11.4094 7.26657Z" fill="#ECB100"/>
</svg>
