<svg width="20" height="18" viewBox="0 0 20 18" fill="none" xmlns="http://www.w3.org/2000/svg">
<path fill-rule="evenodd" clip-rule="evenodd" d="M9.48633 5.02468e-07C12.4002 -0.00074293 14.7834 0.823516 16.4502 2.2334C18.1185 3.64002 19.0373 5.63803 19.0332 7.81934C19.0339 9.20611 18.7131 10.4041 18.1455 11.3936C17.579 12.3842 16.7733 13.1574 15.8477 13.7373C13.992 14.8956 11.6684 15.3193 9.48633 15.3223C8.96074 15.3253 8.3058 15.4034 7.48438 15.8691L7.48047 15.8711L7.47852 15.873C7.4157 15.9076 7.24546 16.0061 7.02539 16.1348C6.80464 16.2637 6.52768 16.4261 6.2334 16.5996C5.64424 16.9464 4.98322 17.3373 4.54981 17.5938C4.26033 17.7651 4.07129 17.877 4.07129 17.877L4.0586 17.8848L4.04492 17.8916C3.90924 17.9645 3.75867 18.001 3.61035 18.001C3.41344 18.0009 3.21622 17.9373 3.05274 17.8125L3.05078 17.8115C2.82228 17.6364 2.69066 17.3641 2.69141 17.082C2.69071 17.0113 2.69993 16.9414 2.71582 16.874C2.71582 16.874 3.06661 15.3712 3.31641 14.3203C2.2607 13.6118 1.43125 12.705 0.874025 11.6396C0.289046 10.525 -0.000701353 9.24726 1.70666e-06 7.86426C-0.000741655 6.72022 0.241365 5.64251 0.69922 4.67871C1.15645 3.71445 1.82805 2.86664 2.67188 2.17188C4.36023 0.780561 6.72116 3.47481e-05 9.48633 5.02468e-07Z" fill="#A576E1"/>
<path d="M5.02078 6.81396C4.4156 6.81396 3.92529 7.30465 3.92529 7.90982C3.92529 8.51499 4.4156 9.0053 5.02078 9.0053C5.62595 9.0053 6.11663 8.51499 6.11663 7.90982C6.11663 7.30465 5.62632 6.81396 5.02078 6.81396Z" fill="white"/>
<path d="M9.29421 6.81396C8.68904 6.81396 8.19873 7.30465 8.19873 7.90982C8.19873 8.51499 8.68904 9.0053 9.29421 9.0053C9.89939 9.0053 10.3901 8.51499 10.3901 7.90982C10.3901 7.30465 9.89976 6.81396 9.29421 6.81396Z" fill="white"/>
<path d="M13.568 6.81396C12.9628 6.81396 12.4722 7.30465 12.4722 7.90982C12.4722 8.51499 12.9628 9.0053 13.568 9.0053C14.1732 9.0053 14.6639 8.51499 14.6639 7.90982C14.6639 7.30465 14.1732 6.81396 13.568 6.81396Z" fill="white"/>
</svg>
