<svg width="16" height="16" viewBox="0 0 16 16" fill="none" xmlns="http://www.w3.org/2000/svg">
<path d="M15.4772 12.4678C15.4772 12.4678 13.3352 10.7031 12.8229 10.221C12.0709 9.51639 11.7701 9.17706 12.0356 8.60408C13.1966 6.37343 12.795 3.60427 10.8256 1.74969C8.34946 -0.583229 4.33371 -0.583229 1.8573 1.74969C-0.619101 4.0829 -0.619101 7.86439 1.8573 10.1979C3.82559 12.0519 6.7663 12.4302 9.13352 11.3368C9.74183 11.087 10.103 11.3704 10.8507 12.079C11.3627 12.5613 13.2354 14.5792 13.2354 14.5792C14.2069 15.4938 14.9544 14.931 15.4031 14.5089C15.8509 14.0865 16.4487 13.3827 15.4772 12.4678ZM8.93796 8.41902C7.50358 9.76928 5.17896 9.76928 3.74518 8.41902C2.31143 7.06876 2.31143 4.87852 3.74518 3.52827C5.17896 2.17801 7.50358 2.17801 8.93796 3.52827C10.3717 4.87852 10.3717 7.06876 8.93796 8.41902Z" fill="#ECB100"/>
</svg>
