<svg width="16" height="13" viewBox="0 0 16 13" fill="none" xmlns="http://www.w3.org/2000/svg">
<path d="M11.2979 0.000706957C8.98297 0.0427015 7.85003 1.5859 7.59863 2.98895C7.34722 1.5859 6.21431 0.0426736 3.89934 0.000706957C1.76496 -0.0379325 0 1.5086 0 4.33101C0 7.95418 4.35087 9.62786 7.32605 12.3343C7.42962 12.4286 7.40525 12.4261 7.40525 12.4261C7.45413 12.4829 7.52439 12.5158 7.5983 12.5158V12.5161C7.5983 12.5161 7.59848 12.5161 7.59863 12.5161C7.59863 12.5161 7.5988 12.5161 7.59895 12.5161V12.5158C7.67283 12.5158 7.74309 12.4829 7.79198 12.4261C7.79198 12.4261 7.76761 12.4285 7.8712 12.3343C10.8464 9.62786 15.1973 7.95418 15.1973 4.33101C15.1973 1.5086 13.4323 -0.0379325 11.2979 0.000706957Z" fill="#FF8688"/>
</svg>
