<svg width="33" height="34" viewBox="0 0 33 34" fill="none" xmlns="http://www.w3.org/2000/svg">
<path d="M1 17.0284C1 14.1297 1.72469 11.4441 3.15986 8.98579C4.59503 6.52753 6.54174 4.58082 9 3.14565C11.4583 1.71048 14.1297 1 17.0142 1C19.1741 1 21.2487 1.42629 23.2238 2.26465C25.1989 3.10302 26.8899 4.254 28.325 5.67496C29.7602 7.09591 30.897 8.80107 31.7353 10.7904C32.5737 12.7798 33 14.8401 33 17.0284C33 19.1883 32.5737 21.2629 31.7353 23.238C30.897 25.2131 29.746 26.9183 28.325 28.3393C26.9041 29.7602 25.1989 30.897 23.2238 31.7353C21.2487 32.5737 19.1883 33 17.0142 33C14.8401 33 12.7513 32.5737 10.7762 31.7353C8.80107 30.897 7.09591 29.746 5.66075 28.325C4.22558 26.9041 3.10302 25.1989 2.25044 23.238C1.39787 21.2771 1 19.2025 1 17.0284ZM4.52398 17.0284C4.52398 20.3961 5.746 23.3233 8.20426 25.8099C10.6625 28.2682 13.5897 29.4902 17.0142 29.4902C19.2593 29.4902 21.3481 28.9361 23.2522 27.8135C25.1563 26.6909 26.6909 25.1847 27.8135 23.2664C28.9361 21.3481 29.5044 19.2735 29.5044 17.0284C29.5044 14.7833 28.9361 12.6945 27.8135 10.7762C26.6909 8.8579 25.1705 7.33748 23.2522 6.21492C21.3339 5.09236 19.2593 4.53819 17.0142 4.53819C14.7691 4.53819 12.6803 5.09236 10.7762 6.21492C8.87211 7.33748 7.33748 8.8579 6.20071 10.7762C5.06394 12.6945 4.52398 14.7833 4.52398 17.0284ZM15.778 17.0284V7.56483C15.778 7.23801 15.8917 6.95382 16.119 6.72647C16.3464 6.49911 16.6306 6.38544 16.9574 6.38544C17.2842 6.38544 17.5684 6.49911 17.7957 6.72647C18.0231 6.95382 18.1368 7.23801 18.1368 7.56483V14.968L22.087 12.7371C22.3712 12.5666 22.6696 12.524 22.9822 12.6092C23.4512 12.7371 23.5364 12.8934 23.6927 13.1918C23.8632 13.476 23.8917 13.7744 23.8064 14.087C23.7211 14.3996 23.5364 14.6554 23.2522 14.8117L17.7389 17.8952C17.5244 18.099 17.239 18.2111 16.9432 18.2078C16.7882 18.2104 16.6344 18.1815 16.4909 18.123C16.3475 18.0644 16.2174 17.9774 16.1085 17.8672C15.9996 17.757 15.9141 17.6258 15.8573 17.4816C15.8005 17.3375 15.7735 17.1833 15.778 17.0284Z" fill="white"/>
</svg>
