<svg width="34" height="34" viewBox="0 0 34 34" fill="none" xmlns="http://www.w3.org/2000/svg">
<g clip-path="url(#clip0_806_1439)">
<path d="M6.11643 31.293C5.40624 31.293 4.81373 31.0556 4.33889 30.5807C3.86406 30.1059 3.62613 29.5134 3.6251 28.8032V16.6472H4.30652C4.4206 16.345 4.5835 16.0654 4.79523 15.8085C5.00695 15.5515 5.27725 15.3537 5.60614 15.2149C6.304 14.8655 7.02345 14.846 7.76448 15.1564C8.5055 15.4667 9.10624 15.9637 9.56668 16.6472H31.3751V28.8032C31.3751 29.5124 31.1377 30.1044 30.6628 30.5792C30.188 31.054 29.5955 31.292 28.8853 31.293H6.11643ZM4.39593 11.9327C3.77927 11.9327 3.25459 11.7169 2.82189 11.2852C2.3892 10.8515 2.17285 10.3263 2.17285 9.70965C2.17285 9.09915 2.38868 8.57601 2.82035 8.14023C3.25407 7.70446 3.77927 7.48657 4.39593 7.48657C5.02699 7.48657 5.55527 7.70446 5.98077 8.14023C6.40627 8.57601 6.61902 9.09915 6.61902 9.70965C6.61902 10.3263 6.40627 10.851 5.98077 11.2837C5.55527 11.7164 5.02699 11.9327 4.39593 11.9327ZM6.11643 29.7513H28.8853C29.1423 29.7513 29.3596 29.6624 29.5374 29.4846C29.7152 29.3068 29.8139 29.0894 29.8334 28.8325V25.8972H12.0657C11.0996 25.8972 10.2039 25.652 9.3786 25.1618C8.5533 24.6715 7.88061 24.0076 7.36056 23.1699L5.16677 19.5917V28.8017C5.16677 29.0781 5.25567 29.3053 5.43348 29.4831C5.61128 29.6609 5.83893 29.7513 6.11643 29.7513ZM13.0848 22.0106L29.8334 24.0364V18.1888H10.5842L13.0848 22.0106ZM15.7334 13.7396C15.757 13.6162 15.7734 13.4965 15.7827 13.3804C15.7909 13.2642 15.7924 13.1568 15.7873 13.0582C15.7359 12.2935 15.5756 11.5946 15.3063 10.9615C15.037 10.3284 14.611 9.60533 14.0283 8.79236C13.5617 8.14383 13.1588 7.49685 12.8196 6.8514C12.4794 6.20596 12.2836 5.4305 12.2322 4.52503C12.2261 4.36367 12.2271 4.20847 12.2353 4.05944C12.2456 3.91144 12.2589 3.73878 12.2754 3.54144H13.8479C13.8294 3.71308 13.816 3.86571 13.8078 3.99932C13.7996 4.13293 13.798 4.25215 13.8032 4.35698C13.8546 5.21621 14.054 5.94387 14.4014 6.53998C14.7498 7.1361 15.1331 7.73169 15.5514 8.32678C16.165 9.17469 16.6018 9.94039 16.8619 10.6239C17.1229 11.3063 17.2791 12.0494 17.3305 12.8531C17.3367 13.0042 17.3367 13.1481 17.3305 13.2848C17.3244 13.4204 17.3156 13.5726 17.3043 13.7411L15.7334 13.7396ZM21.7721 13.7396C21.7957 13.6162 21.8121 13.4965 21.8214 13.3804C21.8306 13.2642 21.8322 13.1568 21.826 13.0582C21.7746 12.2935 21.6158 11.5946 21.3496 10.9615C21.0845 10.3273 20.66 9.6043 20.0762 8.79236C19.6096 8.14383 19.2067 7.49685 18.8676 6.8514C18.5274 6.20596 18.3316 5.4305 18.2802 4.52503C18.274 4.36367 18.274 4.20847 18.2802 4.05944C18.2864 3.91042 18.2982 3.73826 18.3156 3.54298H19.8866C19.8691 3.71462 19.8573 3.86725 19.8511 4.00086C19.845 4.13447 19.845 4.25369 19.8511 4.35853C19.9025 5.21775 20.1009 5.94542 20.4462 6.54153C20.7905 7.13764 21.1724 7.73323 21.5917 8.32832C22.2042 9.17623 22.6426 9.94193 22.9067 10.6254C23.1709 11.3089 23.3286 12.052 23.38 12.8547C23.3852 13.0057 23.3831 13.1496 23.3739 13.2863L23.343 13.7427L21.7721 13.7396ZM27.9202 13.7396C27.9449 13.6162 27.9629 13.4965 27.9742 13.3804C27.9855 13.2642 27.9886 13.1568 27.9834 13.0582C27.932 12.2935 27.7717 11.5946 27.5024 10.9615C27.2332 10.3284 26.8071 9.60533 26.2244 8.79236C25.7588 8.14383 25.3559 7.49685 25.0157 6.8514C24.6766 6.20596 24.4813 5.4305 24.4299 4.52503C24.4227 4.36367 24.4237 4.20898 24.433 4.06098C24.4422 3.91196 24.4556 3.73878 24.4731 3.54144H26.0456C26.0271 3.71308 26.0132 3.86571 26.0039 3.99932C25.9957 4.13293 25.9947 4.25215 26.0009 4.35698C26.0522 5.21723 26.2501 5.9449 26.5944 6.53998C26.9387 7.13507 27.3205 7.73067 27.7399 8.32678C28.3534 9.17469 28.7918 9.94039 29.0549 10.6239C29.318 11.3073 29.4758 12.0504 29.5282 12.8531C29.5343 13.0042 29.5328 13.1481 29.5236 13.2848L29.4927 13.7411L27.9202 13.7396Z" fill="white"/>
</g>
<defs>
<clipPath id="clip0_806_1439">
<rect width="33.8361" height="33.8361" fill="white"/>
</clipPath>
</defs>
</svg>
