<svg width="34" height="34" viewBox="0 0 34 34" fill="none" xmlns="http://www.w3.org/2000/svg">
<path d="M29.4468 3.70081L29.4451 29.1011C29.8998 29.8494 30.3703 30.1371 30.7648 30.1352C31.1563 30.1334 31.6218 29.8422 32.0677 29.1163L30.8499 16.1428L30.8357 15.9848L30.9332 15.8589C32.3325 14.0634 32.8215 10.9614 32.4223 8.3376C32.2228 7.02566 31.805 5.83823 31.2199 4.9988C30.7293 4.29485 30.144 3.8458 29.4469 3.70081H29.4468ZM4.83801 3.70107L4.83695 8.13723L4.00691 8.13617V3.70133H3.06155L3.06168 8.13637H2.23045V3.70133H1.26758V10.5233C1.26751 11.2778 1.67929 11.6962 2.3276 11.9548L2.59591 12.062L2.58996 12.3508C2.45779 17.9397 2.32714 23.5285 2.19596 29.1174C2.64798 29.857 3.1123 30.1371 3.49891 30.1352C3.88551 30.1334 4.34944 29.846 4.79571 29.1154C4.64266 23.528 4.48976 17.9405 4.33701 12.3531L4.32908 12.0623L4.59825 11.9561C5.28052 11.6848 5.72429 11.2243 5.72429 10.5237V3.70107H4.83801ZM16.9177 6.27816C14.0958 6.27816 11.3895 7.39914 9.39417 9.3945C7.39881 11.3899 6.27783 14.0962 6.27783 16.918C6.27783 19.7399 7.39881 22.4462 9.39417 24.4415C11.3895 26.4369 14.0958 27.5579 16.9177 27.5579C19.7395 27.5579 22.4458 26.4369 24.4412 24.4415C26.4366 22.4462 27.5575 19.7399 27.5575 16.918C27.5575 14.0962 26.4366 11.3899 24.4412 9.3945C22.4458 7.39914 19.7395 6.27816 16.9177 6.27816Z" fill="white"/>
</svg>
