<svg width="49" height="49" viewBox="0 0 49 49" fill="none" xmlns="http://www.w3.org/2000/svg">
<circle cx="24.5" cy="24.5" r="24.5" fill="#2CBCE0"/>
<path d="M24.0216 35.48C22.1216 35.48 20.4216 35.03 18.9216 34.13C17.4416 33.23 16.2816 31.96 15.4416 30.32C14.6016 28.66 14.1816 26.72 14.1816 24.5C14.1816 22.26 14.6016 20.32 15.4416 18.68C16.2816 17.02 17.4416 15.74 18.9216 14.84C20.4216 13.92 22.1216 13.46 24.0216 13.46C25.9216 13.46 27.6016 13.92 29.0616 14.84C30.5416 15.74 31.7016 17.02 32.5416 18.68C33.4016 20.32 33.8316 22.26 33.8316 24.5C33.8316 25.58 33.7216 26.6 33.5016 27.56C33.3016 28.5 33.0016 29.37 32.6016 30.17L35.8116 32.63L33.5916 35.45L30.5016 33.05C29.6616 33.83 28.6916 34.43 27.5916 34.85C26.5116 35.27 25.3216 35.48 24.0216 35.48ZM24.0216 32.12C24.7216 32.12 25.3816 32.01 26.0016 31.79C26.6216 31.55 27.1716 31.23 27.6516 30.83L24.8316 28.61L26.9616 25.88L29.6316 27.95C29.8116 27.45 29.9516 26.91 30.0516 26.33C30.1516 25.75 30.2016 25.14 30.2016 24.5C30.2016 22.96 29.9416 21.62 29.4216 20.48C28.9216 19.32 28.2116 18.43 27.2916 17.81C26.3716 17.17 25.2816 16.85 24.0216 16.85C22.7816 16.85 21.6916 17.17 20.7516 17.81C19.8116 18.43 19.0816 19.32 18.5616 20.48C18.0616 21.62 17.8116 22.96 17.8116 24.5C17.8116 26.02 18.0616 27.36 18.5616 28.52C19.0816 29.66 19.8116 30.55 20.7516 31.19C21.6916 31.81 22.7816 32.12 24.0216 32.12Z" fill="white"/>
</svg>
