<svg width="20" height="20" viewBox="0 0 20 20" fill="none" xmlns="http://www.w3.org/2000/svg">
<path d="M19.3466 16.5452C19.3466 16.5452 16.6692 14.2033 16.0288 13.5637C15.0888 12.6286 14.7127 12.1783 15.0446 11.4179C16.496 8.45776 15.9939 4.78299 13.5321 2.32189C10.4369 -0.773965 5.41719 -0.773965 2.32165 2.32189C-0.773884 5.41814 -0.773884 10.4363 2.32165 13.5329C4.78202 15.9933 8.45795 16.4953 11.417 15.0443C12.1774 14.7129 12.6288 15.0889 13.5635 16.0293C14.2036 16.6693 16.5444 19.3471 16.5444 19.3471C17.7588 20.5608 18.6932 19.8139 19.2541 19.2538C19.8138 18.6932 20.5611 17.7593 19.3466 16.5452ZM11.1725 11.1723C9.37956 12.9642 6.47376 12.9642 4.68152 11.1723C2.88931 9.38049 2.88931 6.47396 4.68152 4.68213C6.47376 2.89029 9.37956 2.89029 11.1725 4.68213C12.9648 6.47396 12.9648 9.38049 11.1725 11.1723Z" fill="white"/>
</svg>
