<svg width="30" height="30" viewBox="0 0 30 30" fill="none" xmlns="http://www.w3.org/2000/svg">
<path d="M11.25 15.0493H13.125V16.9243H11.25V15.0493ZM15 16.9243V18.7993H13.125V16.9243H15ZM16.875 16.9243H15V15.0493H16.875V16.9243ZM18.75 16.9243V18.7993H16.875V16.9243H18.75ZM18.75 16.9243V15.0493H20.625V16.9243H18.75Z" fill="#6575C0"/>
<path d="M15.8222 4.73682H16.0528C16.5066 4.73682 16.875 5.10525 16.875 5.559V6.61182H22.3331C23.0925 6.61182 23.8031 7.01494 24.1763 7.68057L26.8275 12.2978C28.1137 12.5715 29.0503 13.7303 29.0625 15.0728V20.6415C29.0625 22.2053 27.8128 23.4868 26.2519 23.4868H24.9966C24.7306 24.0482 24.3108 24.5226 23.7858 24.8547C23.2609 25.1869 22.6525 25.3632 22.0312 25.3632C21.41 25.3632 20.8016 25.1869 20.2767 24.8547C19.7517 24.5226 19.3319 24.0482 19.0659 23.4868H10.9341C10.6681 24.0482 10.2483 24.5226 9.72332 24.8547C9.19839 25.1869 8.58995 25.3632 7.96875 25.3632C7.34755 25.3632 6.73911 25.1869 6.21418 24.8547C5.68925 24.5226 5.2694 24.0482 5.00344 23.4868H3.74719C2.17312 23.4868 0.9375 22.1893 0.9375 20.6415V16.9243C0.9375 15.5649 1.94062 13.8165 4.07344 13.1903L6.82406 12.3896L8.85563 7.85869C9.02483 7.48675 9.29754 7.17139 9.64117 6.95029C9.9848 6.72918 10.3848 6.61168 10.7934 6.61182H15V5.559C15 5.10525 15.3684 4.73682 15.8222 4.73682ZM2.8125 16.9243H4.04812C4.39781 16.9243 4.6875 17.2806 4.6875 17.7081V18.9531C4.6875 19.3815 4.40625 19.7368 4.04812 19.7368H2.8125V20.6415C2.8125 21.1928 3.24563 21.6118 3.74812 21.6118H4.72031C4.83176 20.8297 5.22167 20.114 5.81843 19.5962C6.41518 19.0785 7.1787 18.7934 7.96875 18.7934C8.7588 18.7934 9.52232 19.0785 10.1191 19.5962C10.7158 20.114 11.1057 20.8297 11.2172 21.6118H18.7828C18.8957 20.8308 19.2862 20.1166 19.8828 19.6C20.4794 19.0834 21.2421 18.7991 22.0312 18.7991C22.8204 18.7991 23.5831 19.0834 24.1797 19.6C24.7763 20.1166 25.1668 20.8308 25.2797 21.6118H26.2519C26.7516 21.6118 27.1875 21.1956 27.1875 20.6415V19.7368H26.7047C26.5209 19.7362 26.3389 19.6993 26.1694 19.6282C25.9998 19.5572 25.846 19.4534 25.7167 19.3227C25.5873 19.1921 25.485 19.0372 25.4157 18.8669C25.3463 18.6967 25.3113 18.5144 25.3125 18.3306C25.3125 17.559 25.9303 16.9243 26.7047 16.9243H27.1875V15.0868C27.1809 14.5299 26.7431 14.1118 26.2425 14.1118H17.6681C17.2275 14.1118 16.875 13.7274 16.875 13.2493V10.2868C16.875 9.80869 17.2275 9.42432 17.6681 9.42432H23.0156L22.5469 8.60869L22.5403 8.59744C22.5186 8.5624 22.488 8.53373 22.4516 8.5143C22.4152 8.49488 22.3743 8.4854 22.3331 8.48682H10.7925C10.7439 8.48676 10.6963 8.50069 10.6554 8.52696C10.6145 8.55323 10.582 8.59071 10.5619 8.63494L10.2056 9.429L14.1853 9.43463C14.6381 9.43463 15 9.819 15 10.2971V13.2493C15 13.7274 14.6381 14.1118 14.1853 14.1118H7.61813L4.60219 14.9893C3.25594 15.3868 2.8125 16.4096 2.8125 16.9243ZM7.96875 23.4868C8.34171 23.4868 8.6994 23.3387 8.96312 23.0749C9.22684 22.8112 9.375 22.4535 9.375 22.0806C9.375 21.7076 9.22684 21.3499 8.96312 21.0862C8.6994 20.8225 8.34171 20.6743 7.96875 20.6743C7.59579 20.6743 7.2381 20.8225 6.97438 21.0862C6.71066 21.3499 6.5625 21.7076 6.5625 22.0806C6.5625 22.4535 6.71066 22.8112 6.97438 23.0749C7.2381 23.3387 7.59579 23.4868 7.96875 23.4868ZM22.0312 23.4868C22.4042 23.4868 22.7619 23.3387 23.0256 23.0749C23.2893 22.8112 23.4375 22.4535 23.4375 22.0806C23.4375 21.7076 23.2893 21.3499 23.0256 21.0862C22.7619 20.8225 22.4042 20.6743 22.0312 20.6743C21.6583 20.6743 21.3006 20.8225 21.0369 21.0862C20.7732 21.3499 20.625 21.7076 20.625 22.0806C20.625 22.4535 20.7732 22.8112 21.0369 23.0749C21.3006 23.3387 21.6583 23.4868 22.0312 23.4868Z" fill="#6575C0"/>
</svg>
