<svg width="34" height="38" viewBox="0 0 34 38" fill="none" xmlns="http://www.w3.org/2000/svg">
<path d="M3.4642 15.8778L7.96373 14.7988C8.72843 14.6163 9.2637 13.8717 9.23869 13.0259L9.18081 11.1905C9.15703 10.414 9.6088 9.71102 10.2912 9.46536C10.2912 9.46536 14.1391 7.99703 16.9036 7.36143C19.6681 6.72583 23.7364 6.37537 23.7364 6.37537C24.4529 6.29974 25.1315 6.74171 25.4014 7.46207L26.0427 9.16285C26.3377 9.94629 27.1069 10.3924 27.8734 10.2217L32.3897 9.22808C33.1518 9.06005 33.6967 8.33569 33.6916 7.49606L33.6762 4.60661C33.9139 1.93581 32.2721 0.294703 29.4658 0.067745C26.6576 -0.158397 20.7694 0.16215 15.7134 1.32448C10.6567 2.48673 5.15993 4.78288 2.68136 6.22486C0.202173 7.66676 -0.676893 9.88803 0.547889 12.2216L1.62229 14.8675C1.93419 15.6363 2.7059 16.0583 3.4642 15.8778Z" fill="#ECB100"/>
<path d="M18.1367 29.9459C18.9303 29.9445 19.6307 29.6045 20.1525 29.0444C20.6711 28.4803 20.986 27.7247 20.9873 26.8677C20.986 26.0107 20.6712 25.2543 20.1525 24.6909C19.6307 24.1309 18.9303 23.7909 18.1367 23.7894C17.3431 23.7908 16.6426 24.1308 16.1208 24.6909C15.6023 25.2543 15.2868 26.0107 15.2861 26.8677C15.2868 27.7246 15.6023 28.4803 16.1208 29.0444C16.6426 29.6044 17.3431 29.9445 18.1367 29.9459Z" fill="#ECB100"/>
<path d="M32.8538 25.7164C32.8538 25.7164 30.0958 23.0366 28.8773 21.0249C25.7183 15.8095 25.5121 11.3893 25.5121 11.3893C25.4304 11.1548 25.2216 10.9987 24.9889 10.9987H21.9873C21.6782 10.9987 21.4275 11.2693 21.4275 11.603V13.9471C21.4275 14.2809 21.177 14.5515 20.8678 14.5515H15.4069C15.0979 14.5515 14.8473 14.2809 14.8473 13.9471V11.603C14.8473 11.2693 14.5967 10.9987 14.2875 10.9987H11.2859C11.0533 10.9987 10.8445 11.1541 10.7622 11.3893C10.7622 11.3893 10.5546 15.8386 7.3686 21.0728C6.15344 23.0692 3.42428 25.7157 3.42428 25.7157C2.73031 26.5331 2.34473 27.6017 2.34473 28.7105V29.3392C2.34486 34.1223 5.93577 37.9999 10.3659 37.9999H25.9092C30.3393 37.9999 33.9302 34.1223 33.9302 29.3393V28.7079C33.9302 27.6003 33.5459 26.5331 32.8538 25.7164ZM11.3388 26.8675C11.3375 24.8469 12.1028 22.9983 13.3302 21.6764C14.5543 20.3511 16.2663 19.5246 18.1375 19.526C20.0088 19.5247 21.7207 20.3511 22.9448 21.6764C24.1722 22.9983 24.9369 24.8468 24.9363 26.8675C24.9369 28.8882 24.1722 30.7367 22.9448 32.0586C21.7206 33.384 20.0088 34.2105 18.1375 34.2091C16.2663 34.2105 14.5543 33.3841 13.3302 32.0586C12.1028 30.7368 11.3375 28.8882 11.3388 26.8675Z" fill="#ECB100"/>
</svg>
