<svg width="30" height="30" viewBox="0 0 30 30" fill="none" xmlns="http://www.w3.org/2000/svg">
<path d="M8.75 26.25L12.5 21.25M20 26.25L17.5 21.25L13.75 17.5L15 10M15 5C15 5.33152 15.1317 5.64946 15.3661 5.88388C15.6005 6.1183 15.9185 6.25 16.25 6.25C16.5815 6.25 16.8995 6.1183 17.1339 5.88388C17.3683 5.64946 17.5 5.33152 17.5 5C17.5 4.66848 17.3683 4.35054 17.1339 4.11612C16.8995 3.8817 16.5815 3.75 16.25 3.75C15.9185 3.75 15.6005 3.8817 15.3661 4.11612C15.1317 4.35054 15 4.66848 15 5Z" stroke="#ECB100" stroke-width="2" stroke-linecap="round" stroke-linejoin="round"/>
<path d="M7.5 15L10 11.25L15 10L18.75 13.75L22.5 15" stroke="#ECB100" stroke-width="2" stroke-linecap="round" stroke-linejoin="round"/>
</svg>
