<svg width="73" height="102" viewBox="0 0 73 102" fill="none" xmlns="http://www.w3.org/2000/svg">
<g clip-path="url(#clip0_184_107)">
<path d="M29.1979 49.2242C30.7361 50.393 32.1513 51.179 33.9767 52.0721C34.1285 52.1461 34.2433 52.2778 34.2925 52.4383L36.2574 58.5579L38.1894 52.6359C38.2674 52.3931 38.4889 52.2243 38.7432 52.212C41.6679 52.0556 43.0339 50.6234 44.3547 49.2366C44.3547 49.2366 44.3588 49.2324 44.3629 49.2283C44.2727 49.1049 44.2234 48.9526 44.2439 48.788L44.7526 44.5985C44.0717 45.0759 43.3702 45.5245 42.6442 45.9154C41.2577 46.6562 39.9533 47.0019 38.5381 47.0019C37.5167 47.0019 36.5568 46.8291 35.5436 46.6439L34.4197 46.4463C32.9922 46.2076 31.0479 45.8702 29.3332 44.8866V48.8621C29.3332 49.002 29.2799 49.1213 29.2061 49.2242H29.1979Z" fill="white"/>
<path d="M68.2939 59.418C66.6162 56.7636 63.8884 55.5001 61.0006 54.1585C60.5863 53.9651 60.172 53.7758 59.7618 53.5782C57.4114 52.4547 55.0814 51.4053 52.7269 50.3765V50.4341L51.1928 49.7098C49.5602 49.006 47.9194 48.3023 46.2335 47.5862L45.6469 47.3393L45.5607 48.043C45.5607 48.043 45.5895 48.0142 45.6059 48.0019C45.8684 47.7838 46.254 47.8249 46.4714 48.0883C46.6888 48.3517 46.6478 48.7427 46.3852 48.9567C46.0038 49.2694 45.6305 49.6604 45.2367 50.076C43.9487 51.43 42.3571 53.1009 39.2273 53.4013L36.8358 60.739C36.7538 60.9942 36.5159 61.1629 36.2492 61.1629C35.9826 61.1629 35.7488 60.9901 35.6668 60.7349L33.2015 53.0556C30.9208 51.9321 29.2513 50.9485 27.151 49.146C26.8926 48.9237 26.8639 48.5328 27.0813 48.2735C27.3028 48.0142 27.6925 47.9854 27.9509 48.2035C28.0002 48.2488 28.0494 48.2859 28.0986 48.327V47.0183C25.6497 48.0965 23.0614 48.8332 20.5551 49.541C17.7165 50.3435 14.7836 51.1707 12.1091 52.5C8.09733 54.4919 3.10112 56.9693 1.85412 61.7802C1.27984 63.9984 1.30035 66.4882 1.32086 68.8957C1.32906 69.8299 1.33727 70.7929 1.30855 71.7148C1.15678 76.8137 1.22241 80.7316 1.53006 84.4067C1.56287 84.777 1.58749 85.3285 1.6203 86.0034C1.79259 89.6579 2.25201 99.3702 5.3326 99.8805C18.3154 102.049 27.754 99.7735 33.3861 97.4812C37.8039 95.6869 40.6302 93.6046 41.8649 92.5798C41.8361 92.5428 41.7869 92.4769 41.7131 92.3782C39.0304 90.5962 37.2501 86.5014 36.6758 85.024L19.8946 89.2916C19.8249 89.3081 19.7552 89.3122 19.6854 89.3081L14.357 88.8019C14.1314 88.7813 13.9345 88.6332 13.8483 88.4233C13.7622 88.2134 13.795 87.9706 13.9386 87.7977C13.9509 87.7813 15.2799 86.1392 15.7927 85.0857C16.2849 84.0774 17.1094 82.8058 18.4138 81.851L17.1422 75.5174C17.0766 75.1841 17.2899 74.8589 17.6221 74.789C17.9462 74.7231 18.2785 74.9371 18.3482 75.2705L19.5378 81.1843C19.5952 81.1555 19.6444 81.1267 19.7018 81.0979C21.8226 80.1637 28.9518 83.9005 30.3629 84.6618C30.5885 84.7853 30.7075 85.0281 30.6829 85.2709L36.8974 83.6906C48.104 80.46 52.1157 79.9044 53.6293 79.9991L54.5113 75.645C54.5769 75.3116 54.9051 75.0976 55.2373 75.1635C55.5696 75.2293 55.787 75.5586 55.7173 75.8919L54.7615 80.6246C55.3891 81.9827 53.9739 84.2791 53.3586 85.1762C53.2807 86.0898 52.7966 90.0283 50.1509 90.6497C47.9317 91.1724 44.084 92.6292 43.3703 92.9049C42.7878 93.4564 39.6949 96.2343 33.9275 98.5924C38.8007 99.0163 53.5227 100.037 64.8483 98.0327C65.2585 97.9586 65.7179 97.6047 66.1732 97.0985C66.2635 96.9998 66.3496 96.8928 66.4398 96.7899C67.3669 95.6458 68.2447 93.9832 68.6549 92.8967C71.5755 85.1762 71.3376 76.2993 70.8043 69.4266C70.5459 66.0808 70.1152 62.27 68.3021 59.4015L68.2939 59.418Z" fill="#CCCCCC"/>
<path d="M16.5638 86.2422C17.614 84.8964 18.943 83.2791 19.8864 82.4066C18.34 83.2091 17.4047 84.5878 16.892 85.6454C16.8018 85.8347 16.6869 86.0364 16.5638 86.2422Z" fill="#CCCCCC"/>
<path d="M49.8719 89.4645C50.1221 89.4027 50.3477 89.2793 50.5487 89.1188C50.4585 89.1723 50.3723 89.2258 50.2698 89.2752C50.1426 89.3369 50.0032 89.4027 49.8678 89.4645H49.8719Z" fill="#CCCCCC"/>
<path d="M41.9387 92.5304C41.8608 92.4852 41.7869 92.4399 41.709 92.3905C41.7828 92.4893 41.832 92.551 41.8608 92.5922C41.8854 92.5716 41.9141 92.551 41.9346 92.5304H41.9387Z" fill="white"/>
<path d="M49.8637 89.4645C49.8637 89.4645 49.8678 89.4645 49.8719 89.4645C50.0073 89.3986 50.1468 89.3369 50.2739 89.2751C50.3724 89.2258 50.4585 89.1723 50.5529 89.1188C51.6973 88.201 52.087 85.9005 52.1403 84.9499C52.1485 84.8346 52.1855 84.7194 52.2552 84.6248C53.1207 83.3984 53.8673 81.7481 53.6704 81.209C52.3864 80.9332 44.8511 82.7317 37.8818 84.7194C38.5176 86.3162 40.4333 90.5756 43.0585 91.7238C44.0348 91.3493 47.6528 89.9871 49.8719 89.4686L49.8637 89.4645Z" fill="white"/>
<path d="M16.5637 86.2421C16.2643 86.7401 15.8992 87.2669 15.5834 87.6949L19.6936 88.0858L29.4604 85.6001C26.1706 83.8593 21.3097 81.7481 20.194 82.2461C20.0874 82.2955 19.9889 82.3531 19.8905 82.4066C18.947 83.2791 17.618 84.9005 16.5678 86.2421H16.5637Z" fill="white"/>
<path d="M22.6922 23.7006L22.8973 22.6347C22.9178 22.5195 22.9794 22.4248 23.0532 22.3425C23.0122 22.075 23.1393 21.8034 23.3978 21.6882L33.2056 17.2477C33.4681 17.1283 33.784 17.2106 33.9522 17.4452C34.1244 17.6798 34.108 18.0008 33.9193 18.2189L30.7362 21.8281C33.6322 20.6799 38.21 18.2765 40.1339 17.2189C40.3554 17.0954 40.6302 17.1242 40.823 17.2847C41.0158 17.4452 41.0937 17.7086 41.0158 17.9514L39.3791 22.9927C42.0085 21.3342 47.3123 15.6221 50.4914 11.8565C50.7129 11.5972 51.0985 11.5643 51.361 11.7865C51.6194 12.0088 51.6522 12.3956 51.4307 12.6549C51.1354 13.0006 50.6267 13.6014 49.9786 14.3422C52.6162 17.8691 54.0642 22.7294 53.7935 28.0259C58.5928 23.1821 57.5468 16.7662 56.7551 13.9512C55.385 9.06215 52.2798 5.40356 50.4175 5.40356C50.1263 5.40356 49.872 5.49822 49.6463 5.68753C49.511 5.79864 49.3387 5.84803 49.1705 5.82745C48.9982 5.80276 48.8465 5.71222 48.748 5.56818C46.8283 2.81087 43.3621 1.22644 39.2396 1.22644C33.8373 1.22644 28.4186 3.92202 25.0878 8.26376C22.7948 11.2515 20.5346 16.227 21.4903 23.6965C21.8841 23.643 22.2902 23.6389 22.6963 23.6965L22.6922 23.7006Z" fill="#5F67AE"/>
<path d="M34.6126 45.2241L35.7529 45.4216C36.7128 45.5944 37.6152 45.7591 38.53 45.7591C39.7359 45.7591 40.8558 45.4586 42.0577 44.8166C45.8479 42.796 49.0351 39.409 50.8072 35.5282C50.881 35.3636 51.0246 35.2401 51.1969 35.1907C51.3692 35.1413 51.5538 35.1702 51.7055 35.2689C51.9804 35.45 52.2675 35.5693 52.5587 35.6311C53.7032 35.8492 54.8887 35.1002 55.4588 33.7503C55.6968 33.2565 55.7009 32.7709 55.4876 32.3182C55.1881 31.6885 54.4867 31.207 53.5637 30.993C53.5104 30.9848 53.4448 30.9807 53.3832 30.9766L53.2069 32.4663C53.1699 32.7791 52.9033 33.0096 52.5957 33.0096C52.571 33.0096 52.5464 33.0096 52.5218 33.0055C52.1855 32.9643 51.9434 32.6598 51.9845 32.3182L52.1978 30.5486C52.2142 30.421 52.2757 30.3181 52.3536 30.2276C53.1904 24.4619 51.886 19.0666 49.1541 15.2887C45.9627 18.8773 40.663 24.4619 38.452 24.6883C38.4315 24.6883 38.411 24.6883 38.3905 24.6883C38.2059 24.6883 38.0295 24.6059 37.9106 24.4578C37.7793 24.2973 37.7383 24.0792 37.8039 23.8775L39.3791 19.0296C36.7292 20.4371 30.9782 23.396 28.9149 23.6676C28.6647 23.7047 28.4104 23.573 28.2914 23.3466C28.1724 23.1203 28.2053 22.8404 28.3734 22.647L31.1013 19.5522L24.4027 22.5853C24.2551 23.0256 24.1197 23.4742 23.9925 23.9269C23.9925 23.931 23.9925 23.9393 23.9925 23.9434L23.4511 26.6842C23.3936 26.9764 23.1352 27.1822 22.8481 27.1822C22.8071 27.1822 22.766 27.1822 22.7291 27.1698C22.3969 27.104 22.1795 26.7789 22.2451 26.4455L22.364 25.8529C22.3353 25.7583 22.3189 25.6595 22.3394 25.5566L22.4625 24.9146C22.3394 24.8981 22.2164 24.8817 22.0851 24.8817C21.2442 24.8817 20.4156 25.2109 19.8741 25.7665C19.5255 26.1245 19.3368 26.5319 19.345 26.9106C19.4229 28.2193 20.432 29.4539 21.6462 29.7049C21.9374 29.7625 22.241 29.7584 22.5363 29.6967C22.5773 29.6885 22.6184 29.6843 22.6594 29.6843C22.7948 29.6843 22.926 29.7296 23.0327 29.8119C23.1762 29.9189 23.2624 30.0876 23.2747 30.2646C23.5454 34.6928 25.3954 39.1662 28.3488 42.5326C30.0265 44.4462 32.6805 44.8907 34.6167 45.2158L34.6126 45.2241ZM38.0008 31.0465L37.3404 34.4829C37.283 34.7792 37.0245 34.985 36.7374 34.985C36.7005 34.985 36.6594 34.985 36.6184 34.9726C36.2862 34.9068 36.0688 34.5858 36.1303 34.2483L36.7907 30.812C36.8563 30.4786 37.1722 30.2564 37.5127 30.3222C37.8449 30.3881 38.0623 30.7091 38.0008 31.0465ZM37.1148 42.0676C37.0738 42.0758 37.0327 42.0799 36.9958 42.0799C36.7087 42.0799 36.4503 41.8741 36.3928 41.5819C36.3067 41.1292 36.0852 40.7836 35.7775 40.6066C35.5273 40.4667 35.2361 40.4461 34.9325 40.5531C34.6085 40.6683 34.2598 40.4996 34.1449 40.1786C34.0301 39.8576 34.1983 39.5037 34.5182 39.3884C35.1581 39.158 35.8226 39.2074 36.3846 39.5284C37.0081 39.8864 37.4388 40.5284 37.5988 41.3391C37.6644 41.6725 37.447 41.9976 37.1148 42.0634V42.0676ZM46.2786 19.6222C46.5945 19.4987 46.9513 19.6551 47.0744 19.972C47.5379 21.1696 49.0392 21.6429 49.8924 21.8198C50.2247 21.8898 50.438 22.2149 50.3724 22.5482C50.315 22.8404 50.0565 23.0421 49.7694 23.0421C49.7284 23.0421 49.6873 23.0421 49.6463 23.0297C47.7512 22.6388 46.4263 21.7128 45.9258 20.4206C45.8028 20.1037 45.9586 19.7457 46.2745 19.6222H46.2786ZM43.5344 28.6308C43.6574 28.0011 44.162 27.5773 44.7855 27.6966C45.4131 27.816 45.8561 28.4291 45.733 29.0547C45.6141 29.6843 44.9619 30.1617 44.3343 30.0383C43.7108 29.9189 43.4113 29.2522 43.5344 28.6267V28.6308ZM30.3506 26.2398C30.4696 25.6142 31.0069 25.1121 31.6345 25.2356C32.2621 25.3549 32.5616 26.0175 32.4426 26.6472C32.3237 27.2727 31.8068 27.7213 31.1792 27.6019C30.5516 27.4826 30.2316 26.8694 30.3506 26.2439V26.2398Z" fill="white"/>
<path d="M44.3342 30.0423C44.9618 30.1617 45.614 29.6843 45.733 29.0588C45.856 28.4291 45.4089 27.82 44.7854 27.7007C44.1619 27.5813 43.6533 28.0052 43.5343 28.6349C43.4153 29.2604 43.7107 29.923 44.3342 30.0465V30.0423Z" fill="black"/>
<path d="M31.1792 27.6019C31.8068 27.7213 32.3195 27.2727 32.4426 26.6472C32.5615 26.0216 32.2621 25.3549 31.6345 25.2356C31.0069 25.1121 30.4695 25.6142 30.3506 26.2397C30.2316 26.8694 30.5516 27.4785 31.1792 27.5978V27.6019Z" fill="black"/>
<path d="M36.7948 30.816L36.1344 34.2524C36.0687 34.5857 36.2861 34.9108 36.6225 34.9767C36.6635 34.9849 36.7004 34.989 36.7415 34.989C37.0286 34.989 37.287 34.7833 37.3445 34.487L38.0049 31.0506C38.0705 30.7173 37.8531 30.3921 37.5167 30.3263C37.1763 30.2605 36.8604 30.4786 36.7948 30.816Z" fill="black"/>
<path d="M56.0208 47.4588C56.1397 47.6234 56.3612 47.8374 56.9109 47.8374C56.9724 47.8374 57.0381 47.8374 57.1037 47.8291C57.3047 47.8127 57.358 47.7427 57.399 47.6686C57.7969 46.9361 57.0422 44.6562 56.1807 42.7384C55.3686 45.8702 55.709 47.0308 56.0208 47.4588Z" fill="white"/>
<path d="M69.3316 58.7552C67.4611 55.7962 64.4379 54.3929 61.5173 53.0389C61.1071 52.8496 60.6969 52.6603 60.2908 52.4669C55.7909 50.3145 51.1762 48.3556 46.7132 46.4584L45.8026 46.0715L46.1061 43.5529C48.4032 41.6475 50.3312 39.2688 51.6397 36.6349C51.8571 36.7255 52.0827 36.7954 52.3124 36.8448C52.5339 36.886 52.7554 36.9066 52.977 36.9066C54.5029 36.9066 55.8853 35.8818 56.5744 34.2604C56.9641 33.4537 56.9682 32.5731 56.5908 31.7829C56.1273 30.8117 55.1223 30.0874 53.8097 29.7828C53.7809 29.7787 53.7522 29.7746 53.7235 29.7664C60.0488 24.4163 58.8346 16.8399 57.9322 13.6176C56.4718 8.40747 53.1 4.17273 50.4132 4.17273C50.0522 4.17273 49.7118 4.24681 49.4 4.39084C47.1973 1.58826 43.526 -0.00439453 39.2353 -0.00439453C33.4597 -0.00439453 27.6636 2.87638 24.1072 7.51443C21.6501 10.7203 19.2217 16.0539 20.2924 24.0254C19.8042 24.2394 19.3571 24.5357 18.992 24.9061C18.4095 25.5028 18.0978 26.223 18.1142 26.9638C18.225 28.8569 19.636 30.5565 21.4081 30.9187C21.6337 30.9639 21.8675 30.9845 22.0931 30.9845C22.5115 35.4703 24.4354 39.9478 27.4257 43.3513C27.6349 43.59 27.8646 43.804 28.0984 44.0056V45.7793C27.9959 45.767 27.8851 45.7711 27.7826 45.8205C25.3624 46.907 22.7494 47.6436 20.2226 48.3597C17.3307 49.1787 14.3404 50.0223 11.5633 51.401C7.32599 53.5039 2.05494 56.1172 0.664372 61.4755C0.0449726 63.85 0.0695845 66.4263 0.0900944 68.912C0.0982983 69.8503 0.106502 70.7803 0.0777884 71.6816C-0.0780869 76.83 -0.00835321 80.789 0.303397 84.5134C0.332111 84.8756 0.356723 85.4106 0.389539 86.0649C0.74231 93.522 1.56271 100.51 5.12733 101.103C8.88475 101.728 12.355 101.991 15.53 101.991C22.2777 101.991 27.6882 100.806 31.7123 99.4276C31.8107 99.5593 31.9584 99.6539 32.1348 99.6704C32.2537 99.6828 39.6045 100.473 48.4812 100.473C53.8671 100.473 59.815 100.185 65.0532 99.2547C67.6251 98.7979 69.7746 93.3985 69.7951 93.345C72.8018 85.3941 72.5639 76.3402 72.0225 69.34C71.7517 65.846 71.2964 61.8582 69.3316 58.7469V58.7552ZM68.6465 92.9129C68.2363 93.9953 67.3585 95.662 66.4315 96.8061C66.3453 96.9131 66.2551 97.0201 66.1648 97.1147C65.7095 97.6209 65.2501 97.9749 64.8399 98.0489C53.5143 100.053 38.7964 99.0325 33.9191 98.6086C39.6865 96.2505 42.7794 93.4726 43.3619 92.9212C44.0757 92.6454 47.9192 91.1886 50.1425 90.6659C52.7883 90.0445 53.2723 86.1061 53.3502 85.1925C53.9655 84.2953 55.3848 81.9989 54.7531 80.6408L55.7089 75.9081C55.7745 75.5748 55.5612 75.2455 55.2289 75.1797C54.8967 75.1139 54.5685 75.3279 54.5029 75.6612L53.621 80.0153C52.1073 79.9206 48.0956 80.4762 36.889 83.7068L30.6745 85.2871C30.6991 85.0443 30.5801 84.8015 30.3545 84.678C28.9434 83.9167 21.8142 80.1799 19.6935 81.1141C19.636 81.1388 19.5827 81.1717 19.5294 81.2005L18.3398 75.2867C18.2701 74.9534 17.9378 74.7394 17.6138 74.8052C17.2815 74.8711 17.0641 75.1962 17.1338 75.5336L18.4054 81.8672C17.1051 82.822 16.2765 84.0936 15.7843 85.1019C15.2756 86.1555 13.9466 87.7934 13.9302 87.814C13.7866 87.9909 13.7497 88.2337 13.8399 88.4395C13.9261 88.6494 14.123 88.7934 14.3486 88.8181L19.6771 89.3243C19.7468 89.3284 19.8165 89.3243 19.8863 89.3078L36.6675 85.0402C37.2418 86.5176 39.022 90.6124 41.7047 92.3944C41.7785 92.4438 41.8565 92.489 41.9344 92.5343C41.9098 92.5549 41.8852 92.5755 41.8606 92.596C40.6218 93.6208 37.7996 95.7032 33.3818 97.4975C27.7498 99.7898 18.307 102.061 5.32833 99.8968C2.24774 99.3823 1.79242 89.6741 1.61603 86.0196C1.58322 85.3447 1.5586 84.7933 1.52579 84.4229C1.21814 80.7437 1.15251 76.83 1.30428 71.731C1.333 70.8092 1.32479 69.8462 1.31659 68.912C1.29608 66.5045 1.27147 64.0146 1.84985 61.7965C3.09685 56.9856 8.09306 54.5081 12.1048 52.5162C14.7793 51.1911 17.7122 50.3598 20.5508 49.5573C23.0571 48.8494 25.6454 48.1128 28.0902 47.0345V48.3432C28.041 48.3021 27.9959 48.265 27.9426 48.2198C27.6841 48.0017 27.2985 48.0305 27.0729 48.2897C26.8514 48.549 26.8842 48.94 27.1427 49.1622C29.2429 50.9647 30.9165 51.9483 33.1931 53.0718L35.6584 60.7511C35.7404 61.0063 35.9783 61.1791 36.2409 61.1791C36.5075 61.1791 36.7413 61.0063 36.8274 60.7553L39.2189 53.4175C42.3487 53.1171 43.9403 51.4462 45.2283 50.0923C45.6221 49.6766 45.9995 49.2857 46.3769 48.9729C46.6394 48.7589 46.6763 48.3679 46.463 48.1045C46.2456 47.8412 45.86 47.8041 45.5975 48.0181C45.5811 48.0305 45.5688 48.0469 45.5524 48.0593L45.6385 47.3555L46.2251 47.6025C47.9069 48.3185 49.5518 49.0182 51.1844 49.726C51.6971 49.9482 52.2099 50.1664 52.7185 50.3886C55.0731 51.4174 57.403 52.4627 59.7534 53.5904C60.1636 53.7879 60.5779 53.9772 60.9922 54.1706C63.88 55.5122 66.6078 56.7757 68.2856 59.4301C70.1027 62.2985 70.5293 66.1094 70.7878 69.4552C71.321 76.3279 71.5589 85.2048 68.6383 92.9253L68.6465 92.9129ZM37.8735 84.7151C44.8427 82.7273 52.3781 80.9289 53.662 81.2046C53.8589 81.7438 53.1164 83.394 52.2468 84.6204C52.1812 84.7151 52.1402 84.8303 52.1319 84.9455C52.0827 85.9003 51.693 88.1967 50.5445 89.1144C50.3435 89.2749 50.1179 89.4025 49.8677 89.4601C49.8677 89.4601 49.8636 89.4601 49.8595 89.4601C47.6403 89.9787 44.0223 91.3409 43.0461 91.7154C40.4208 90.563 38.5052 86.3077 37.8694 84.711L37.8735 84.7151ZM19.8904 82.4063C19.9929 82.3528 20.0873 82.2952 20.1939 82.2458C21.3055 81.752 26.1705 83.8591 29.4603 85.5999L19.6935 88.0856L15.5833 87.6946C15.8991 87.2666 16.2642 86.744 16.5637 86.2419C16.6867 86.0361 16.8016 85.8345 16.8918 85.6451C17.4046 84.5875 18.3398 83.2088 19.8863 82.4063H19.8904ZM23.0325 29.824C22.9258 29.7417 22.7905 29.6964 22.6592 29.6964C22.6182 29.6964 22.5772 29.6964 22.5361 29.7087C22.2408 29.7705 21.9373 29.7705 21.646 29.717C20.4318 29.47 19.4186 28.2313 19.3448 26.9226C19.3366 26.5399 19.5253 26.1325 19.874 25.7785C20.4154 25.223 21.2399 24.8937 22.0849 24.8937C22.2162 24.8937 22.3351 24.9143 22.4623 24.9267L22.3392 25.5687C22.3187 25.6715 22.3351 25.7703 22.3639 25.865L22.2449 26.4576C22.1793 26.7909 22.3967 27.116 22.7289 27.1819C22.77 27.1901 22.811 27.1942 22.8479 27.1942C23.135 27.1942 23.3935 26.9926 23.4509 26.6963L23.9923 23.9554C23.9923 23.9554 23.9923 23.9431 23.9923 23.939C24.1154 23.4821 24.2508 23.0377 24.4025 22.5973L31.1011 19.5643L28.3733 22.6591C28.201 22.8525 28.1682 23.1323 28.2912 23.3587C28.4102 23.585 28.6645 23.7167 28.9147 23.6797C30.9739 23.4081 36.729 20.4491 39.3789 19.0416L37.8037 23.8896C37.7381 24.0871 37.7791 24.3052 37.9104 24.4698C38.0293 24.618 38.2057 24.7003 38.3903 24.7003C38.4108 24.7003 38.4313 24.7003 38.4518 24.7003C40.6628 24.474 45.9585 18.8894 49.1539 15.3007C51.8899 19.0787 53.1944 24.474 52.3535 30.2396C52.2755 30.3302 52.214 30.433 52.1976 30.5606L51.9843 32.3302C51.9433 32.6677 52.1853 32.9764 52.5216 33.0175C52.5462 33.0175 52.5709 33.0216 52.5955 33.0216C52.9031 33.0216 53.1698 32.7912 53.2067 32.4784L53.3831 30.9886C53.4446 30.9886 53.5102 30.9969 53.5635 31.0051C54.4865 31.2191 55.1879 31.7006 55.4874 32.3302C55.7048 32.7829 55.6966 33.2686 55.4587 33.7624C54.8844 35.1122 53.703 35.8613 52.5586 35.6431C52.2673 35.5855 51.9802 35.4621 51.7053 35.281C51.5577 35.1822 51.3731 35.1534 51.1967 35.2028C51.0244 35.2522 50.8808 35.3756 50.807 35.5402C49.035 39.4211 45.8477 42.808 42.0575 44.8287C40.8556 45.4707 39.7358 45.7711 38.5298 45.7711C37.6191 45.7711 36.7126 45.6065 35.7527 45.4337L34.6124 45.2361C32.6762 44.911 30.0223 44.4665 28.3445 42.5529C25.3911 39.1865 23.5411 34.7172 23.2704 30.2849C23.2581 30.1079 23.172 29.9433 23.0284 29.8322L23.0325 29.824ZM25.0835 8.27166C28.4143 3.92992 33.833 1.23434 39.2353 1.23434C43.3578 1.23434 46.824 2.81465 48.7437 5.57608C48.8422 5.716 48.998 5.81065 49.1662 5.83535C49.3344 5.85592 49.5108 5.80654 49.642 5.69542C49.8677 5.50612 50.122 5.41146 50.4132 5.41146C52.2755 5.41146 55.3766 9.06593 56.7508 13.9591C57.5384 16.7741 58.5885 23.19 53.7892 28.0338C54.0599 22.7373 52.6119 17.877 49.9743 14.3501C50.6265 13.6052 51.1352 13.0085 51.4264 12.6628C51.6479 12.4035 51.6151 12.0126 51.3567 11.7944C51.0982 11.5763 50.7086 11.6051 50.4871 11.8644C47.308 15.63 42.0042 21.3421 39.3748 23.0006L41.0115 17.9593C41.0894 17.7206 41.0115 17.4531 40.8187 17.2926C40.6259 17.1321 40.3552 17.1033 40.1295 17.2268C38.2016 18.2844 33.6279 20.6878 30.7319 21.836L33.915 18.2268C34.1078 18.0087 34.1201 17.6877 33.9479 17.4531C33.7756 17.2185 33.4638 17.1362 33.2013 17.2556L23.3935 21.6961C23.135 21.8113 23.0079 22.0829 23.0489 22.3504C22.9751 22.4327 22.9135 22.5274 22.893 22.6426L22.6879 23.7085C22.2818 23.655 21.8798 23.6591 21.4819 23.7085C20.5262 16.2391 22.7864 11.2635 25.0794 8.27578L25.0835 8.27166ZM34.4114 46.4419L35.5353 46.6395C36.5485 46.8247 37.5084 46.9975 38.5298 46.9975C39.945 46.9975 41.2494 46.6518 42.6359 45.911C43.366 45.5242 44.0633 45.0715 44.7443 44.5941L44.2356 48.7836C44.2151 48.9482 44.2643 49.1046 44.3546 49.2239C44.3546 49.2239 44.3546 49.228 44.3464 49.2322C43.0255 50.619 41.6637 52.0512 38.7349 52.2076C38.4805 52.2199 38.2631 52.3887 38.1811 52.6315L36.2491 58.5535L34.2842 52.4339C34.235 52.2734 34.1201 52.1417 33.9684 52.0677C32.1389 51.1746 30.7278 50.3886 29.1896 49.2198C29.2675 49.1169 29.3208 48.9935 29.3208 48.8577V44.8822C31.0314 45.8658 32.9757 46.2032 34.4032 46.4419H34.4114Z" fill="black"/>
<path d="M49.6463 23.0297C49.6873 23.038 49.7283 23.0421 49.7694 23.0421C50.0565 23.0421 50.3108 22.8404 50.3724 22.5482C50.4421 22.2149 50.2247 21.8898 49.8924 21.8198C49.0392 21.6428 47.5379 21.1737 47.0744 19.972C46.9513 19.6551 46.5944 19.4987 46.2786 19.6222C45.9627 19.7457 45.8069 20.1037 45.9299 20.4206C46.4304 21.7128 47.7553 22.6388 49.6504 23.0297H49.6463Z" fill="black"/>
<path d="M36.3846 39.5325C35.8226 39.2115 35.1622 39.1621 34.5182 39.3926C34.1982 39.5078 34.03 39.8617 34.1449 40.1827C34.2598 40.5037 34.6043 40.6724 34.9325 40.5572C35.236 40.4502 35.5273 40.4667 35.7775 40.6107C36.0851 40.7877 36.3066 41.1334 36.3928 41.5861C36.4502 41.8824 36.7086 42.084 36.9958 42.084C37.0368 42.084 37.0737 42.084 37.1147 42.0717C37.447 42.0058 37.6644 41.6807 37.5988 41.3474C37.4388 40.5366 37.0081 39.8946 36.3846 39.5366V39.5325Z" fill="black"/>
</g>
<defs>
<clipPath id="clip0_184_107">
<rect width="72.359" height="102" fill="white"/>
</clipPath>
</defs>
</svg>
