<svg width="63" height="105" viewBox="0 0 63 105" fill="none" xmlns="http://www.w3.org/2000/svg">
<g clip-path="url(#clip0_184_105)">
<path d="M5.69836 31.3429C6.48512 31.0423 7.31281 30.9876 8.09503 31.1744C8.06774 30.9193 8.04955 30.6688 8.02681 30.3865L7.98588 29.8308C7.95405 29.4528 8.23146 29.1249 8.60892 29.093C8.68169 29.093 8.74535 29.1022 8.81357 29.1204C8.79993 28.9883 8.78174 28.8517 8.77264 28.7196C9.4639 27.959 10.0824 26.9889 10.6145 26.4698C11.2921 25.8048 13.5705 20.1757 14.8484 14.7014C18.7049 18.9733 24.0213 20.3214 28.5144 20.5947C28.619 20.285 28.9192 20.0755 29.2512 20.1301C30.4927 20.3169 31.7388 19.8796 32.5892 18.9551C32.8439 18.6773 33.2759 18.6636 33.5533 18.9141C33.8308 19.1692 33.8489 19.6018 33.5897 19.8796C33.3487 20.1392 33.0895 20.367 32.8075 20.5719C34.854 20.4353 36.3957 20.1666 37.0096 20.0983L32.8348 15.2843C34.2082 16.7463 36.1865 18.5953 38.0192 19.3331C38.1056 19.4698 38.1829 19.6155 38.2648 19.7567C38.424 19.7977 38.5741 19.8933 38.6696 20.0436C39.0288 20.6083 39.238 20.9772 39.429 21.378C39.9156 20.7996 40.5705 20.3624 41.3345 20.1256C42.1941 19.8569 43.0718 19.8979 43.8676 20.1711C41.5483 15.2889 38.333 9.69617 34.8222 5.71113C34.6857 5.69292 34.5538 5.63371 34.4447 5.53807C30.3608 1.81263 23.0298 -1.30708 11.3103 4.99155C4.04298 8.33443 2.2739 15.2342 3.03338 20.5765C3.03793 20.6174 3.04247 20.6584 3.03793 20.6994C2.8833 24.9759 3.19255 28.8699 3.97022 32.5726C4.42954 32.0443 5.0071 31.607 5.69836 31.3474V31.3429Z" fill="#C5B897"/>
<path d="M47.0601 29.9311C46.8055 28.4692 46.5281 27.1575 46.2006 25.9005C46.1915 25.9187 46.187 25.9415 46.1733 25.9643C45.664 26.9025 44.8181 27.572 43.7903 27.8498C43.09 28.0456 42.3487 28.041 41.6438 27.8498C42.7398 33.3332 42.003 38.6526 39.5564 42.6149C39.3654 42.9246 39.1607 43.2115 38.9561 43.4984C40.1203 42.879 41.0162 42.328 41.5574 41.8953C43.9586 40.0371 47.856 36.0248 47.0601 29.9311Z" fill="#C5B897"/>
<path d="M10.0551 37.5003C9.58212 38.0787 8.96362 38.5341 8.24962 38.821C7.48105 39.1307 6.66246 39.2036 5.89844 39.0624C6.33502 40.1919 6.83527 41.3441 7.43103 42.6011C10.287 48.0071 15.7852 49.0227 18.805 49.1457C20.0874 49.2186 22.0293 48.8451 23.4846 48.5582C17.8499 47.2648 12.8292 43.2706 10.0505 37.4957L10.0551 37.5003Z" fill="#C5B897"/>
<path d="M15.1213 88.3859C15.8808 87.1926 16.7676 85.8719 17.4816 85.0111C16.2355 85.9311 15.5442 87.2473 15.1758 88.2492C15.1577 88.2902 15.1395 88.3403 15.1213 88.3859Z" fill="#F5E27B"/>
<path d="M39.2153 92.5394C36.4321 91.6012 34.8676 88.1444 34.2082 86.2681C34.1036 86.095 34.0263 85.9447 33.9672 85.8035L18.3957 91.5283C18.3229 91.5556 18.2456 91.5693 18.1683 91.5693L12.9566 91.6239C12.6746 91.6057 12.4699 91.4873 12.3517 91.2687C12.2289 91.0501 12.2426 90.7768 12.379 90.5673C12.3926 90.5491 13.5068 88.8367 13.8934 87.7755C14.2663 86.7508 14.9348 85.4392 16.09 84.3826L14.2345 78.4392C14.1208 78.0794 14.3209 77.6968 14.6802 77.583C15.0394 77.4691 15.4214 77.6695 15.5351 78.0293L17.2496 83.5218C17.2496 83.5218 17.2906 83.4945 17.3133 83.4808C19.2597 82.3696 26.0359 85.0111 28.0687 85.8445C28.2961 85.9356 28.4462 86.136 28.4826 86.3637L34.2491 84.2414C44.5589 80.0742 48.4654 79.0722 50.0298 78.9811L50.4391 74.7547C50.4755 74.3767 50.812 74.0943 51.185 74.1399C51.5579 74.1763 51.8353 74.5088 51.7989 74.8868L51.3487 79.5368C52.0809 80.8211 50.9621 83.1666 50.4482 84.1139C50.4619 85.0566 50.3664 88.9141 47.8378 89.7886C45.664 90.5446 41.8984 92.4483 41.4437 92.676C40.9298 93.0403 37.4235 95.5042 32.4118 98.1275C33.1486 98.4281 34.4038 98.92 36.0273 99.4711C39.7565 100.373 45.0137 101.612 49.002 102.422C50.3163 102.559 51.6534 102.645 52.9904 102.659C53.2906 102.659 54.3729 102.368 56.0329 98.7241C60.4078 89.11 63.9732 66.0605 59.6483 61.1783C58.7615 60.1763 54.7277 58.514 50.4209 56.8835C50.3618 56.92 50.2981 56.9519 50.2299 56.9701C46.8373 57.7489 44.7044 58.2954 42.9899 58.7326C39.6337 59.5934 38.0965 59.985 32.4346 60.7046C31.6069 60.8094 29.3421 61.0599 26.4725 61.0599C22.4659 61.0599 17.2769 60.5771 13.1839 58.5368C13.1021 58.4958 13.0293 58.4411 12.9747 58.3728C12.9338 58.391 12.8883 58.4138 12.8383 58.4366C4.79789 62.5628 1.46439 65.4411 1.38708 66.5342C1.31431 67.5452 1.43255 69.7632 1.70542 72.6324C2.38303 78.7489 3.74281 87.7938 5.26176 94.5251C6.27591 98.5511 7.43559 101.789 8.69077 103.124C8.8272 103.269 9.00456 103.424 9.19557 103.52C11.7878 103.283 19.6508 101.361 25.281 99.9265C31.5205 97.3624 36.7777 94.1334 39.2244 92.5348L39.2153 92.5394Z" fill="#F5E27B"/>
<path d="M32.8347 15.2889L37.0096 20.1028C36.3956 20.1712 34.8539 20.4399 32.8075 20.5765C31.9388 21.2004 30.8929 21.542 29.815 21.542C29.5604 21.542 29.3011 21.5238 29.0465 21.4828C28.6736 21.4282 28.4189 21.0775 28.4735 20.704C28.478 20.663 28.5007 20.6312 28.5144 20.5947C24.0212 20.3215 18.7049 18.9779 14.8484 14.7014C13.5705 20.1757 11.292 25.8049 10.6144 26.4698C10.0823 26.989 9.46385 27.9591 8.77259 28.7196C8.78169 28.8517 8.79988 28.9883 8.81352 29.1204C9.09548 29.1887 9.32287 29.4119 9.34561 29.717L9.39109 30.2863C9.44111 30.9604 9.47295 31.3657 9.64576 32.1399C9.70488 32.4132 9.59574 32.691 9.36835 32.8504C9.14096 33.0098 8.84081 33.0144 8.60887 32.8595C7.89488 32.395 7.01261 32.3039 6.18947 32.6181C4.75693 33.1601 3.93379 34.7997 4.38856 36.2024C4.58866 36.8127 4.99796 37.2772 5.57098 37.5459C6.21676 37.8465 7.01261 37.8511 7.74935 37.5505C8.5634 37.2226 9.20918 36.5713 9.50933 35.7652C9.60938 35.501 9.85951 35.328 10.1369 35.3234C10.4371 35.3189 10.669 35.4874 10.7782 35.747C14.2617 44.2727 22.7751 49.1048 31.0202 47.2466C34.1081 46.5726 36.664 44.719 38.4057 41.8907C40.857 37.9148 41.4482 32.4223 40.0202 26.8205C39.952 26.5427 40.0566 26.2557 40.2931 26.0918C40.525 25.9278 40.8342 25.9278 41.0707 26.0918C41.7893 26.5882 42.6533 26.7476 43.4401 26.529C44.1086 26.3468 44.6544 25.9142 44.9863 25.3084C45.3365 24.6708 45.4047 23.9239 45.1773 23.2089C44.7271 21.7834 43.1945 20.9864 41.7529 21.4327C40.9206 21.6923 40.284 22.298 40.0111 23.0996C39.9201 23.3637 39.6746 23.5459 39.3972 23.5596C39.1197 23.5732 38.8605 23.4093 38.7423 23.1542L38.5604 22.7444C38.2056 21.9382 38.0601 21.6012 37.5326 20.786C37.3279 20.4672 37.4189 20.0482 37.7372 19.8433C37.9055 19.7339 38.0965 19.7157 38.2739 19.7613C38.192 19.6201 38.1147 19.4744 38.0283 19.3377C36.1955 18.5999 34.2173 16.7554 32.8438 15.2889H32.8347ZM31.9752 25.6637C32.7029 25.4314 33.5442 25.7183 33.7761 26.4425C34.0081 27.1712 33.5033 27.9545 32.7802 28.1868C32.0525 28.419 31.1748 28.0729 30.9429 27.3442C30.7109 26.6201 31.2521 25.8914 31.9798 25.6591L31.9752 25.6637ZM28.7099 39.7866C29.333 39.4314 30.0652 39.3768 30.7792 39.6318C31.1339 39.7593 31.3203 40.151 31.193 40.5062C31.0657 40.8615 30.6791 41.0482 30.3198 40.9207C29.9833 40.8023 29.6604 40.8205 29.383 40.9799C29.0419 41.1757 28.7963 41.5583 28.7008 42.0593C28.6372 42.3872 28.3507 42.6103 28.0323 42.6103C27.9868 42.6103 27.9459 42.6103 27.9004 42.5967C27.5321 42.5238 27.291 42.164 27.3638 41.7951C27.5412 40.8979 28.0187 40.1874 28.7099 39.7912V39.7866ZM26.1814 30.6325C26.5407 30.5186 26.9227 30.719 27.0364 31.0742L27.814 33.5153C27.9277 33.8751 27.7276 34.2577 27.3729 34.3716C27.3047 34.3943 27.2365 34.4034 27.1637 34.4034C26.8726 34.4034 26.6043 34.2167 26.5134 33.9298L25.7357 31.4887C25.622 31.1289 25.8221 30.7463 26.1768 30.6325H26.1814ZM13.9525 27.2714C13.8934 27.2896 13.8297 27.2941 13.7706 27.2941C13.4704 27.2941 13.1976 27.0937 13.1111 26.7932C13.0111 26.4288 13.2248 26.0554 13.5887 25.9552C14.7984 25.6227 15.7625 24.7118 16.1672 23.5231C16.29 23.1679 16.6766 22.9721 17.0313 23.095C17.386 23.218 17.577 23.6051 17.4588 23.9604C16.9085 25.5771 15.5988 26.8159 13.9525 27.2668V27.2714ZM17.4406 32.8094C16.713 33.0417 16.0035 32.7138 15.7716 31.9896C15.5396 31.2564 15.9035 30.4913 16.6311 30.259C17.3542 30.0313 18.2456 30.3956 18.4775 31.1243C18.7094 31.853 18.1682 32.5817 17.4406 32.8094Z" fill="white"/>
<path d="M32.2617 59.3611C37.8418 58.6552 39.2516 58.2954 42.6488 57.421C44.0086 57.0748 45.6367 56.6558 47.9333 56.1093C47.9924 56.082 48.0515 56.0547 48.1061 56.0273C47.333 55.7404 46.569 55.458 45.8231 55.1848C42.2213 53.8595 38.8014 52.6025 36.8777 51.6734C36.7913 51.8692 36.623 52.0286 36.3956 52.0742C36.3502 52.0833 36.3047 52.0878 36.2638 52.0878C35.9454 52.0878 35.6589 51.8647 35.5952 51.5368L34.7494 47.2739C33.6852 47.866 32.5346 48.3078 31.2976 48.581C30.0152 48.8725 28.7236 49.0091 27.4502 49.0091C27.0409 49.0091 26.6316 48.9909 26.2223 48.9636L26.5907 52.4795C26.6316 52.853 26.3588 53.19 25.9858 53.231C25.9631 53.231 25.9358 53.231 25.9131 53.231C25.6084 53.231 25.3537 53.0215 25.2719 52.7346C22.9616 53.6955 20.8423 54.6201 18.9005 55.5081L14.5073 57.6396C21.147 60.5543 30.4063 59.5888 32.2526 59.3566L32.2617 59.3611Z" fill="white"/>
<path d="M34.0444 85.7808L33.9717 85.8081C34.0263 85.9447 34.1036 86.0996 34.2127 86.2726C34.149 86.095 34.0945 85.9265 34.049 85.7853L34.0444 85.7808Z" fill="white"/>
<path d="M40.7751 91.4918C40.9479 91.4053 44.9954 89.3376 47.3875 88.5042C49.2248 87.8666 49.0748 84.0273 49.0748 83.9863C49.0657 83.8542 49.0975 83.7267 49.1612 83.6128C49.907 82.2875 50.3754 80.7709 50.2026 80.2927C48.8201 80.2426 41.7711 82.702 35.3178 85.2934C35.7817 86.769 37.2415 90.6447 39.8656 91.3233C40.102 91.3871 40.2658 91.5693 40.334 91.7879C40.5432 91.6467 40.666 91.5556 40.6796 91.5465C40.7069 91.5283 40.7342 91.51 40.766 91.4918H40.7751Z" fill="white"/>
<path d="M14.1844 90.2485L18.0409 90.2075L27.0318 86.9011C23.8529 85.635 20.2375 84.551 18.6503 84.551C18.3547 84.551 18.1319 84.5875 17.9909 84.6649C17.809 84.7696 17.6407 84.8835 17.4815 85.0019C16.7675 85.8627 15.8807 87.1834 15.1213 88.3767C14.8893 88.9687 14.5119 89.6701 14.1799 90.2439L14.1844 90.2485Z" fill="white"/>
<path d="M16.6311 30.259C15.9035 30.4912 15.5397 31.2609 15.7716 31.9896C16.0036 32.7138 16.713 33.0417 17.4406 32.8094C18.1637 32.5817 18.7095 31.853 18.4775 31.1243C18.2456 30.3956 17.3542 30.0267 16.6311 30.259Z" fill="black"/>
<path d="M32.7756 28.1867C33.5033 27.9544 34.0035 27.1711 33.7716 26.4424C33.5397 25.7182 32.6983 25.4313 31.9707 25.6636C31.2431 25.8959 30.7064 26.6246 30.9338 27.3487C31.1657 28.0774 32.048 28.4235 32.7711 28.1912L32.7756 28.1867Z" fill="black"/>
<path d="M26.518 33.9343C26.6089 34.2258 26.8772 34.408 27.1683 34.408C27.2365 34.408 27.3047 34.3989 27.3775 34.3761C27.7368 34.2622 27.9369 33.8751 27.8186 33.5199L27.041 31.0787C26.9273 30.719 26.5407 30.5231 26.186 30.637C25.8267 30.7508 25.6266 31.138 25.7449 31.4932L26.5225 33.9343H26.518Z" fill="black"/>
<path d="M17.4588 23.9648C17.5816 23.6096 17.3906 23.2179 17.0313 23.0995C16.6721 22.9766 16.2855 23.1678 16.1673 23.5276C15.7625 24.7163 14.7984 25.6272 13.5887 25.9596C13.2249 26.0598 13.0111 26.4378 13.1112 26.7976C13.193 27.0982 13.4705 27.2986 13.7706 27.2986C13.8297 27.2986 13.8934 27.2895 13.9525 27.2758C15.5988 26.8204 16.9086 25.5862 17.4588 23.9694V23.9648Z" fill="black"/>
<path d="M29.051 21.4782C29.3057 21.5146 29.5649 21.5374 29.8196 21.5374C30.8974 21.5374 31.9434 21.1958 32.812 20.5718C33.094 20.3715 33.3532 20.1392 33.5942 19.8796C33.8489 19.6018 33.8353 19.1691 33.5578 18.9141C33.2804 18.659 32.8484 18.6772 32.5937 18.9551C31.7433 19.875 30.4972 20.3168 29.2557 20.1301C28.9282 20.0754 28.6235 20.2849 28.5189 20.5946C28.5053 20.6311 28.4871 20.6629 28.478 20.7039C28.4234 21.0774 28.6781 21.4235 29.051 21.4827V21.4782Z" fill="black"/>
<path d="M27.9004 42.592C27.9459 42.6011 27.9914 42.6057 28.0323 42.6057C28.3507 42.6057 28.6372 42.3779 28.7008 42.0546C28.7963 41.5536 29.0419 41.1711 29.383 40.9752C29.6604 40.8158 29.9833 40.7976 30.3198 40.916C30.6791 41.0435 31.0657 40.8568 31.193 40.5016C31.3203 40.1463 31.1339 39.7547 30.7792 39.6271C30.0652 39.3721 29.333 39.4313 28.7099 39.782C28.0187 40.1782 27.5412 40.8887 27.3638 41.7859C27.291 42.1548 27.5321 42.5146 27.9004 42.5874V42.592Z" fill="black"/>
<path d="M60.6716 60.2815C59.3391 58.7785 53.8772 56.6927 46.3007 53.9054C42.2668 52.4207 38.4603 51.0225 36.8504 50.1299C36.8004 50.1025 36.7504 50.098 36.7004 50.0843L35.9909 46.5046C36.05 46.4591 36.1046 46.409 36.1637 46.3634C36.2001 46.3543 36.2365 46.3543 36.2683 46.3407C38.3239 45.3979 41.0526 44.0453 42.3941 42.9705C44.5088 41.3355 49.3249 36.7766 48.4017 29.7265C48.0606 27.7636 47.6832 26.0876 47.2148 24.448C47.2148 24.4389 47.2011 24.4298 47.2011 24.4161C47.2011 24.407 47.2011 24.3934 47.1966 24.3843C44.9318 18.6413 40.525 9.99259 35.5725 4.50463C35.4452 4.36344 35.2633 4.28602 35.0814 4.28146C30.6246 0.373851 22.8297 -2.74131 10.7054 3.77593C2.81051 7.40118 0.905004 15.1481 1.67357 20.7089C1.50531 25.4181 1.88277 29.6809 2.8287 33.7434C2.86963 33.9074 2.96514 34.044 3.09247 34.1351C2.84235 34.9321 2.81506 35.802 3.09247 36.6308C3.30167 37.2685 3.67458 37.8013 4.15665 38.2249C4.16119 38.2522 4.15665 38.2795 4.17029 38.3068C4.72511 39.8872 5.37544 41.4402 6.22133 43.221C9.53209 49.4786 16.0945 50.4077 18.7458 50.517C18.8777 50.5261 19.0187 50.5261 19.1597 50.5261C20.5968 50.5261 22.4613 50.1617 23.8621 49.8839C24.2259 49.8111 24.5624 49.7473 24.858 49.6927C24.8853 49.6881 24.908 49.6699 24.9353 49.6608L25.1127 51.3459C25.1127 51.3459 25.0763 51.3459 25.0581 51.355C20.9333 53.0629 0.350178 61.8254 0.0227402 66.448C-0.304698 71.0843 3.00606 99.0889 7.69025 104.071C8.26781 104.691 8.88631 105 9.52299 105H9.54118C16.9768 104.928 24.8262 101.935 30.8929 98.9158C30.952 98.9796 31.0248 99.0297 31.1066 99.0707C31.2158 99.1208 41.9666 103.935 52.9768 104.039H52.9949C54.4275 104.039 55.8282 102.491 57.2789 99.3075C61.522 89.9893 65.7696 66.0427 60.6716 60.286V60.2815ZM18.8095 49.1461C15.7898 49.0232 10.2916 48.0076 7.43557 42.6016C6.83527 41.34 6.33957 40.1923 5.90298 39.0629C6.667 39.204 7.4856 39.1312 8.25417 38.8215C8.96362 38.5346 9.58211 38.0746 10.0596 37.5007C12.8429 43.2802 17.8636 47.2743 23.4937 48.5632C22.0384 48.8501 20.092 49.219 18.814 49.1507L18.8095 49.1461ZM3.0379 20.6998C3.0379 20.6588 3.0379 20.6178 3.03335 20.5768C2.27388 15.2346 4.04295 8.33481 11.3148 4.99194C23.0344 -1.31125 30.3653 1.81302 34.4492 5.53846C34.5538 5.6341 34.6902 5.6933 34.8267 5.71152C38.3375 9.69656 41.5574 15.2893 43.8722 20.1715C43.0763 19.9028 42.1986 19.8618 41.3391 20.126C40.575 20.3628 39.9202 20.8 39.4336 21.3784C39.2425 20.9776 39.0333 20.6087 38.6741 20.044C38.5786 19.8937 38.4285 19.7981 38.2693 19.7571C38.092 19.7115 37.8964 19.7343 37.7327 19.839C37.4144 20.044 37.3234 20.4675 37.528 20.7818C38.0556 21.6016 38.2011 21.934 38.5558 22.7401L38.7377 23.15C38.8514 23.4051 39.1152 23.569 39.3926 23.5554C39.6746 23.5417 39.9156 23.3595 40.0066 23.0954C40.284 22.2938 40.9161 21.6881 41.7484 21.4285C43.19 20.9822 44.7226 21.7792 45.1728 23.2047C45.4002 23.9197 45.332 24.6666 44.9818 25.3042C44.6498 25.91 44.1041 26.3472 43.4356 26.5248C42.6488 26.7434 41.7847 26.584 41.0662 26.0876C40.8297 25.9236 40.5205 25.9282 40.2885 26.0876C40.0566 26.2515 39.9474 26.543 40.0157 26.8163C41.4391 32.4181 40.8525 37.9106 38.4012 41.8865C36.6594 44.7148 34.1036 46.5638 31.0157 47.2424C22.7706 49.1006 14.2617 44.2685 10.7736 35.7428C10.6645 35.4832 10.4325 35.3146 10.1324 35.3192C9.85043 35.3192 9.6003 35.4968 9.5048 35.761C9.20465 36.5671 8.56342 37.2184 7.74482 37.5463C7.00809 37.8423 6.21223 37.8423 5.56645 37.5417C4.99343 37.273 4.58413 36.8085 4.38403 36.1982C3.92471 34.7955 4.74785 33.1559 6.18494 32.6139C7.00809 32.2997 7.89035 32.3862 8.60435 32.8553C8.83628 33.0056 9.13643 33.001 9.36382 32.8462C9.59121 32.6868 9.70036 32.409 9.64123 32.1357C9.46842 31.3615 9.43658 30.9562 9.38656 30.2821L9.34108 29.7128C9.31834 29.4077 9.09096 29.18 8.809 29.1162C8.74533 29.1025 8.67711 29.0843 8.60435 29.0889C8.22688 29.1208 7.94947 29.4487 7.9813 29.8267L8.02223 30.3823C8.04497 30.6647 8.06316 30.9152 8.09045 31.1702C7.31279 30.9835 6.48055 31.0381 5.69379 31.3387C5.00253 31.5983 4.42496 32.0355 3.96564 32.5638C3.18343 28.8612 2.87418 24.9672 3.03335 20.6907L3.0379 20.6998ZM41.5574 41.8956C41.0162 42.3283 40.1203 42.8748 38.956 43.4988C39.1652 43.2118 39.3699 42.9249 39.5563 42.6152C41.9985 38.653 42.7398 33.3335 41.6438 27.8501C42.3487 28.0414 43.0899 28.0459 43.7903 27.8501C44.8181 27.5723 45.664 26.9028 46.1733 25.9646C46.187 25.9464 46.1915 25.9236 46.2006 25.9008C46.5235 27.1578 46.8055 28.4649 47.0601 29.9314C47.856 36.0206 43.9586 40.0375 41.5574 41.8956ZM25.2764 52.7441C25.3628 53.031 25.6175 53.2405 25.9176 53.2405C25.9404 53.2405 25.9677 53.2405 25.9904 53.2405C26.3633 53.1995 26.6362 52.8625 26.5953 52.489L26.2269 48.9731C26.6362 49.0004 27.0409 49.0186 27.4548 49.0186C28.7327 49.0186 30.0197 48.8774 31.3022 48.5905C32.5346 48.3218 33.6852 47.88 34.7539 47.2834L35.5998 51.5463C35.6635 51.8696 35.95 52.0973 36.2683 52.0973C36.3138 52.0973 36.3593 52.0973 36.4002 52.0837C36.6276 52.0381 36.7959 51.8787 36.8823 51.6829C38.806 52.6074 42.2259 53.8644 45.8277 55.1943C46.569 55.4675 47.3375 55.7499 48.1107 56.0368C48.1334 56.0459 48.1561 56.055 48.1789 56.0642C48.097 56.0824 48.0152 56.1006 47.9333 56.1188C45.6367 56.6653 44.004 57.0798 42.6488 57.4305C39.2471 58.3049 37.8418 58.6647 32.2617 59.3706C30.4154 59.6029 21.1516 60.5684 14.5164 57.6536C14.4982 57.6445 14.4846 57.64 14.4664 57.6308C15.8262 56.9568 17.3087 56.2509 18.9141 55.5222C20.8514 54.6387 22.9707 53.7141 25.2855 52.7486L25.2764 52.7441ZM9.52754 103.634C9.41385 103.634 9.30015 103.589 9.19101 103.529C9 103.434 8.82264 103.279 8.68621 103.133C7.43103 101.799 6.27135 98.5651 5.2572 94.5346C3.5518 87.7577 2.27388 78.7265 1.70086 72.6419C1.428 69.7727 1.3143 67.5502 1.38252 66.5437C1.45983 65.4506 4.79333 62.5723 12.8338 58.4461C12.8792 58.4233 12.9202 58.4005 12.9656 58.3778C12.9656 58.3778 12.9656 58.3778 12.9702 58.3823C13.0248 58.4506 13.0975 58.5053 13.1794 58.5463C17.2724 60.5866 22.4568 61.0694 26.4679 61.0694C29.3375 61.0694 31.6023 60.8189 32.43 60.7141C38.0965 59.9945 39.6291 59.6029 42.9853 58.7421C44.6998 58.3049 46.8327 57.7584 50.2254 56.9796C50.2981 56.9614 50.3573 56.9295 50.4164 56.893C54.7231 58.5235 58.7569 60.1858 59.6438 61.1878C63.9687 66.0746 60.4032 89.124 56.0283 98.7336C54.3729 102.377 53.286 102.669 52.9859 102.669C51.6443 102.655 50.3118 102.573 48.9975 102.432C43.954 101.899 39.2562 100.574 36.0227 99.4805C34.3992 98.9295 33.144 98.4376 32.4073 98.137C37.4234 95.5092 40.9252 93.0498 41.4391 92.6855C41.8893 92.4578 45.6549 90.5495 47.8332 89.7981C50.3618 88.9191 50.4573 85.0661 50.4437 84.1234C50.9576 83.1761 52.0763 80.8351 51.3441 79.5463L51.7943 74.8963C51.8307 74.5228 51.5579 74.1858 51.1804 74.1494C50.8075 74.1038 50.4709 74.3862 50.4346 74.7642L50.0253 78.9906C48.4608 79.0817 44.5543 80.0837 34.2446 84.2509L28.478 86.3732C28.4416 86.15 28.2916 85.9496 28.0642 85.854C26.0313 85.016 19.2506 82.3791 17.3087 83.4903C17.286 83.504 17.2678 83.5176 17.2451 83.5313L15.5306 78.0388C15.4169 77.679 15.0349 77.4786 14.6756 77.5925C14.3163 77.7063 14.1162 78.0889 14.2299 78.4487L16.0854 84.3921C14.9348 85.4487 14.2663 86.7603 13.8888 87.785C13.5023 88.8416 12.3881 90.5586 12.3744 90.5768C12.238 90.7863 12.2244 91.0596 12.3471 91.2782C12.4699 91.4968 12.67 91.6152 12.952 91.6334L18.1637 91.5788C18.241 91.5788 18.3183 91.5606 18.3911 91.5378L33.9626 85.813L34.0354 85.7857C34.0808 85.9314 34.14 86.0999 34.1991 86.273C34.8585 88.1494 36.4184 91.6016 39.2062 92.5443C36.7595 94.1474 31.5023 97.3719 25.2628 99.936C20.3194 101.967 14.7711 103.584 9.51844 103.634H9.52754ZM39.8747 91.3238C37.2506 90.6497 35.7908 86.7694 35.3269 85.2938C41.7802 82.707 48.8247 80.2431 50.2117 80.2932C50.38 80.7714 49.9161 82.288 49.1703 83.6133C49.1066 83.7271 49.0748 83.8547 49.0839 83.9867C49.0839 84.0277 49.234 87.867 47.3967 88.5046C45 89.3335 40.957 91.4057 40.7842 91.4923C40.7524 91.5105 40.7251 91.5241 40.6978 91.5469C40.6842 91.556 40.5568 91.6471 40.3522 91.7883C40.284 91.5697 40.1203 91.3875 39.8838 91.3238H39.8747ZM17.4816 85.0069C17.6453 84.8885 17.809 84.7746 17.9909 84.6699C18.1319 84.5879 18.3547 84.556 18.6503 84.556C20.2375 84.556 23.8575 85.64 27.0318 86.9061L18.0409 90.2125L14.1844 90.2535C14.5164 89.6796 14.8939 88.9783 15.1258 88.3862C15.144 88.3407 15.1668 88.2906 15.1804 88.2496C15.5488 87.2476 16.2355 85.9269 17.4861 85.0115L17.4816 85.0069Z" fill="black"/>
<path d="M46.1233 48.8907C46.3325 49.1321 46.5872 49.2414 46.9191 49.2414C47.0783 49.2414 47.2557 49.2141 47.4467 49.1685C47.6604 49.1139 47.7105 49.0228 47.7377 48.9363C48.0424 48.0527 46.8055 45.73 45.4866 43.7808C45.2001 47.2102 45.7367 48.4444 46.1187 48.8862L46.1233 48.8907Z" fill="white"/>
<path d="M44.8363 41.2896C44.5725 41.3625 44.3724 41.5856 44.336 41.8589C43.7767 45.9623 44.0268 48.5583 45.1001 49.7925C45.5685 50.3299 46.1961 50.6123 46.9237 50.6123C47.1966 50.6123 47.4876 50.5713 47.7923 50.4939C48.5745 50.2889 48.8974 49.7788 49.0339 49.3826C49.7888 47.1783 46.2643 42.46 45.5503 41.5355C45.382 41.3169 45.0955 41.2213 44.8363 41.2941V41.2896ZM47.7423 48.9408C47.715 49.0274 47.665 49.1139 47.4512 49.1731C47.2602 49.2232 47.0829 49.246 46.9237 49.246C46.5872 49.246 46.337 49.1321 46.1278 48.8953C45.7413 48.4535 45.2047 47.2193 45.4957 43.7899C46.8146 45.7392 48.047 48.0619 47.7468 48.9454L47.7423 48.9408Z" fill="black"/>
</g>
<defs>
<clipPath id="clip0_184_105">
<rect width="63" height="105" fill="white"/>
</clipPath>
</defs>
</svg>
