<svg width="70" height="105" viewBox="0 0 70 105" fill="none" xmlns="http://www.w3.org/2000/svg">
<g clip-path="url(#clip0_184_106)">
<path d="M47.6835 48.6222C47.3985 48.885 47.1177 49.1435 46.8368 49.4147C44.6414 51.4998 42.3736 53.6569 38.2975 53.7713C38.072 53.7756 37.8762 53.9112 37.7784 54.1061L37.7699 54.1231C37.7699 54.1231 37.7486 54.1612 37.7401 54.1824L35.7701 59.98L33.8937 53.9493C33.8427 53.7925 33.7321 53.6612 33.5831 53.5849C30.7367 52.1652 28.6731 50.987 24.9374 47.1177L27.4732 46.4863L27.4264 48.0458C27.4179 48.3806 27.6817 48.6604 28.0179 48.6688C28.0221 48.6688 28.0306 48.6688 28.0349 48.6688C28.3625 48.6688 28.6348 48.4103 28.6433 48.0798L28.7454 44.7784C30.1325 45.5921 31.7323 46.1388 33.5023 46.3718C34.7021 46.5371 36.0254 46.7194 37.3742 46.7194C39.225 46.7194 41.1226 46.3761 42.8075 45.1767C43.0543 44.9987 43.2968 44.7953 43.5436 44.6046L43.6585 49.0206C43.667 49.3511 43.9393 49.6097 44.2669 49.6097C44.2712 49.6097 44.2797 49.6097 44.284 49.6097C44.6201 49.6012 44.8839 49.3215 44.8754 48.9867L44.8371 47.5373L46.8539 48.2408L47.6878 48.6222H47.6835Z" fill="white"/>
<path d="M49.3982 49.4062L49.6025 49.4995L49.5855 49.5249L49.3982 49.4062Z" fill="white"/>
<path d="M51.6192 51.6948C51.6405 51.3855 51.6618 51.11 51.6788 50.8557L51.7469 50.8981L51.615 51.6948H51.6192Z" fill="#F2F2F2"/>
<path d="M50.513 50.1098C49.7599 61.0946 47.8878 78.4491 45.905 80.0638C45.8923 80.0722 45.888 80.0892 45.8795 80.0977C43.3054 80.5723 39.4335 81.4708 33.5661 83.0812L27.7924 84.4713L27.3584 84.2933C27.3116 84.1576 27.2222 84.039 27.0861 83.9627C26.4649 83.6237 24.7119 82.6786 22.7802 81.8268C22.7674 81.7886 22.7632 81.7462 22.7377 81.7081C21.4314 79.4789 22.2058 60.247 23.061 47.5839L23.5673 47.4441C27.3158 51.3981 29.507 52.8899 32.8003 54.5469L35.1574 62.116C35.234 62.366 35.468 62.5398 35.7318 62.544H35.7403C35.9999 62.544 36.2339 62.3787 36.319 62.1329L38.757 54.9623C43.0331 54.6995 45.4966 52.3644 47.675 50.292C48.0707 49.9148 48.4622 49.5419 48.8621 49.1859C48.8664 49.1817 48.8706 49.1732 48.8749 49.1689L49.3982 49.4105L49.5812 49.5292L50.5087 50.1183L50.513 50.1098Z" fill="#F2F2F2"/>
<path d="M37.7741 54.1062C37.7741 54.1062 37.7656 54.1189 37.7656 54.1232L37.7741 54.1062Z" fill="#F2F2F2"/>
<path d="M65.3622 57.1575C67.3322 58.5136 68.7916 59.7554 69.0171 60.5902C69.0554 60.7386 69.0894 60.9759 69.1107 61.2937C68.9193 60.7937 68.698 60.3444 68.4342 59.9757C67.8683 59.1705 66.7621 58.2 65.3622 57.1575Z" fill="#B7CDDA"/>
<path d="M57.7972 103.779C48.3984 102.61 33.5704 98.7066 29.5198 97.6175C35.1574 95.134 39.2761 92.5573 39.8079 92.2183C40.344 92.0191 44.3265 90.557 46.5944 90.0569C49.2196 89.4763 49.7386 85.6113 49.828 84.7128C50.4492 83.8398 51.8746 81.5979 51.2661 80.2587L52.2617 75.6224C52.3341 75.2961 52.1213 74.974 51.7937 74.9019C51.4661 74.8341 51.1427 75.0418 51.0704 75.3681L50.1514 79.6358C49.6238 79.5976 48.7941 79.6358 47.4496 79.8307C49.7046 74.9104 51.147 57.9882 51.615 51.6906L51.7469 50.8938L51.8065 50.5378C57.4143 53.3434 65.6814 58.1704 67.4344 60.6666C71.4764 66.4218 65.5835 92.7014 60.431 101.224C58.9673 103.644 58.0951 103.813 57.793 103.779H57.7972Z" fill="#B7CDDA"/>
<path d="M21.8144 48.0035C21.457 53.4493 20.1125 75.4444 21.3293 81.2208C19.3934 80.4622 17.5043 79.9536 16.5767 80.352C16.5172 80.3774 16.4704 80.4071 16.4108 80.4325L15.3003 74.6138C15.2365 74.2832 14.9174 74.0713 14.5897 74.1306C14.2579 74.1942 14.0409 74.5121 14.1047 74.8384L15.296 81.0724C13.9983 81.9921 13.1644 83.2338 12.6708 84.2213C12.156 85.2468 10.8242 86.8488 10.8072 86.8657C10.6626 87.0395 10.6285 87.2726 10.7094 87.4803C10.7944 87.6879 10.9859 87.832 11.2114 87.8574L16.4789 88.4084C16.5512 88.4126 16.6193 88.4084 16.6873 88.3957L33.0726 84.4459C33.1364 84.751 33.3236 85.1578 33.6087 85.6367C34.2171 87.6455 35.4553 90.7308 37.5486 92.1675C32.7577 94.9603 18.4659 102.538 6.52263 101.283C6.30563 101.262 5.85037 101.054 5.2547 99.9229C3.56554 96.7021 2.13167 88.3279 1.50622 78.072C0.94033 68.7569 1.2254 60.7344 2.18698 58.9968C4.65051 54.5343 18.2318 49.3173 21.8144 48.0035Z" fill="#B7CDDA"/>
<path d="M14.9216 83.0388C15.1301 82.8015 15.3684 82.5769 15.6237 82.3607C15.3811 82.5769 15.1471 82.8015 14.9216 83.0388Z" fill="#B7CDDA"/>
<path d="M27.3967 84.5687C27.4094 84.4755 27.3924 84.3822 27.3584 84.2975L27.7924 84.4755L27.3967 84.573V84.5687Z" fill="#B7CDDA"/>
<path d="M46.739 88.6881C46.8369 88.6415 46.9262 88.5864 47.0156 88.5355C46.8113 88.6923 46.5901 88.811 46.3391 88.8703C46.4752 88.8067 46.6114 88.7474 46.739 88.6881Z" fill="#B7CDDA"/>
<path d="M48.6154 29.2844C48.5047 30.1151 46.773 31.6323 44.2627 31.6323C43.8968 31.6323 43.5266 31.5984 43.165 31.5348C40.1526 30.8991 38.1018 28.7335 38.2294 27.8944C38.323 27.229 39.7952 26.5085 42.0077 26.5085C42.1736 26.5085 42.3438 26.5213 42.5097 26.5297C42.5055 27.0213 42.8756 27.4367 43.382 27.5045C43.8755 27.5723 44.3989 27.2968 44.5478 26.8391C47.2368 27.5045 48.7303 28.5597 48.6196 29.2844H48.6154Z" fill="white"/>
<path d="M25.5926 25.699C25.7926 25.699 25.967 25.5507 25.9926 25.3473C25.9926 25.3176 25.9926 25.2922 25.9883 25.2668C26.652 24.9574 27.6349 24.7328 28.8603 24.7328C29.0815 24.7328 29.3028 24.7455 29.524 24.7582C29.5794 25.1947 29.924 25.5507 30.3835 25.61C30.826 25.6694 31.2898 25.4532 31.4898 25.0803C34.1235 25.7457 35.5786 26.7882 35.468 27.5044C35.3574 28.3351 33.6257 29.8523 31.1153 29.8523C30.7494 29.8523 30.3793 29.8184 30.0176 29.7548C27.0052 29.1191 24.9544 26.9535 25.0778 26.1144C25.099 25.966 25.2012 25.8135 25.3501 25.6651L25.5288 25.6906C25.5288 25.6906 25.5671 25.6906 25.5841 25.6906L25.5926 25.699Z" fill="white"/>
<path d="M27.886 11.1925C33.3151 12.5063 45.0669 14.9007 50.4152 15.5153C50.4407 15.5153 50.462 15.5153 50.4875 15.5153C50.5641 15.5153 50.6407 15.4983 50.7087 15.4729L50.7598 15.7441C50.5045 15.8543 50.3428 16.1128 50.3939 16.3968L52.4022 27.5892L52.3256 28.1614L50.2194 28.5046L49.2323 28.3733C49.1387 28.3605 49.0536 28.386 48.977 28.4284C48.3261 27.4579 46.4922 26.6611 44.4967 26.1865C44.3436 25.8601 44.0117 25.6016 43.6415 25.5508C43.2884 25.5042 42.9565 25.661 42.7395 25.9152C42.4927 25.8983 42.2459 25.8856 42.0034 25.8856C40.293 25.8856 38.9102 26.2797 38.1784 26.9069C37.455 26.5509 36.6211 26.4492 35.8127 26.6145C35.1617 25.6949 33.4598 24.9363 31.5707 24.4616C31.4643 24.0548 31.0856 23.72 30.6559 23.6606C30.2474 23.6055 29.8475 23.809 29.6432 24.1438C29.3837 24.1268 29.1199 24.1141 28.8646 24.1141C27.4307 24.1141 26.2266 24.3938 25.4395 24.8515L24.763 24.7583L23.0355 23.9149L27.5116 12.447C27.635 12.1334 27.4775 11.7816 27.1627 11.6629C27.1201 11.646 27.0776 11.646 27.035 11.6417L27.4307 10.6246C27.4477 10.8832 27.6222 11.112 27.886 11.1756V11.1925ZM43.5522 18.2064C45.0456 18.5581 46.4284 19.2235 47.5474 20.1346C47.6623 20.2279 47.7985 20.2703 47.9304 20.2703C48.1091 20.2703 48.2835 20.194 48.4026 20.0456C48.6154 19.7871 48.5771 19.4057 48.3133 19.1938C47.0496 18.1682 45.4966 17.4181 43.8287 17.024C43.5054 16.9477 43.1735 17.1469 43.0969 17.4732C43.0203 17.7995 43.2203 18.1258 43.5479 18.2021L43.5522 18.2064ZM27.8902 17.0367C27.9711 17.2994 28.2094 17.4647 28.4732 17.4647C28.5327 17.4647 28.5923 17.4562 28.6519 17.4393C30.0134 17.024 31.4345 16.8756 32.8684 16.9943C33.2002 17.0113 33.4981 16.7739 33.5279 16.4391C33.5576 16.1043 33.3066 15.8119 32.9705 15.7822C31.3834 15.6509 29.8092 15.8162 28.2945 16.2739C27.9753 16.3713 27.7924 16.7104 27.8902 17.0324V17.0367Z" fill="white"/>
<path d="M33.6597 45.1683C32.2344 44.9818 30.3623 44.4902 28.6689 43.2951C28.5965 43.1807 28.4859 43.0917 28.354 43.0493C27.9328 42.723 27.5158 42.3628 27.1329 41.9305C24.4141 38.9004 22.9291 34.976 22.1675 28.814L22.0994 28.2503L21.5293 28.28C21.3974 28.2885 21.2612 28.2842 21.1208 28.2673C19.7806 28.085 19.0105 26.7628 18.8615 25.6101C18.7977 25.1227 19.0275 24.7413 19.2317 24.5082C19.5806 24.1056 20.121 23.8301 20.7379 23.7157L20.9847 23.8344L20.9166 24.8854C20.8953 25.2202 21.1506 25.5084 21.4868 25.5296C21.4995 25.5296 21.5123 25.5296 21.525 25.5296C21.8442 25.5296 22.1122 25.2837 22.1335 24.9617L22.1548 24.6396C22.2569 24.6692 22.3675 24.682 22.4739 24.6565C22.5122 24.6481 22.5377 24.6226 22.5717 24.6057L24.4694 25.5296C24.5077 25.5465 24.5502 25.5592 24.5928 25.5677L24.6651 25.5762C24.58 25.7203 24.5119 25.8728 24.4906 26.0339C24.2907 27.39 26.801 29.6997 29.9113 30.3566C30.3197 30.4329 30.7239 30.4668 31.1281 30.4668C33.9278 30.4668 35.9318 28.7674 36.085 27.5977C36.0935 27.5341 36.0935 27.4663 36.0892 27.4027C36.6424 27.3137 37.1955 27.3773 37.6976 27.5934C37.672 27.6655 37.638 27.7333 37.6295 27.8053C37.4252 29.1615 39.9398 31.4712 43.0501 32.1281C43.4586 32.2044 43.8628 32.2383 44.267 32.2383C47.0666 32.2383 49.0706 30.5388 49.2238 29.3692C49.2323 29.3098 49.2281 29.2547 49.2281 29.1996L50.1726 29.3268C50.1726 29.3268 50.2067 29.3268 50.2279 29.3268C50.2492 29.3268 50.2705 29.3268 50.2918 29.3225L52.2192 29.0089L52.1766 29.3395C52.1341 29.6701 52.3681 29.9752 52.7 30.0176C52.7255 30.0176 52.7553 30.0218 52.7808 30.0218C53.0829 30.0218 53.3425 29.8014 53.385 29.4921L53.4616 28.8903C53.5382 28.8606 53.6318 28.8182 53.7382 28.7589L54.4062 28.6487C54.6019 28.8436 54.7721 29.0513 54.8784 29.2802C55.0146 29.5683 55.1337 30.0048 54.938 30.4668C54.4742 31.5687 53.351 32.6663 51.9724 32.4841C51.832 32.4671 51.7001 32.429 51.5682 32.3866L51.0406 32.2128L50.8194 32.7214C48.7175 37.5612 45.5434 41.7356 42.1055 44.1851C39.5824 45.982 36.302 45.5285 33.6683 45.1641L33.6597 45.1683ZM34.3448 42.1678H35.6978C36.0339 42.1678 36.3062 41.8966 36.3062 41.5618C36.3062 41.227 36.0339 40.9558 35.6978 40.9558H34.3448C34.0086 40.9558 33.7363 41.227 33.7363 41.5618C33.7363 41.8966 34.0086 42.1678 34.3448 42.1678ZM36.6892 30.043C36.3573 30.0006 36.0467 30.2295 36.0041 30.5643L35.5404 33.9716C35.4936 34.3022 35.7276 34.6073 36.0637 34.6539C36.0892 34.6539 36.119 34.6581 36.1445 34.6581C36.4424 34.6581 36.7062 34.4378 36.7487 34.1326L37.2125 30.7253C37.2551 30.3947 37.0253 30.0896 36.6892 30.043ZM38.289 38.9131C37.1529 39.1038 35.4723 39.1038 34.4596 38.6503C34.2554 38.5571 34.0469 38.4087 33.847 38.2604C33.4172 37.9468 32.9322 37.5866 32.3195 37.7264C31.711 37.8578 31.3324 38.4257 31.1026 38.841C30.9409 39.1334 31.0473 39.5021 31.3409 39.6632C31.6345 39.8242 32.0046 39.7183 32.1663 39.4259C32.4259 38.9554 32.5748 38.9088 32.579 38.9088C32.6854 38.9046 32.9534 39.1123 33.1236 39.2394C33.3619 39.4131 33.6342 39.6123 33.9576 39.7564C34.7362 40.1039 35.7786 40.2438 36.7828 40.2438C37.3869 40.2438 37.9784 40.1929 38.4889 40.1082C38.8208 40.0531 39.0421 39.7395 38.9868 39.4089C38.9314 39.0783 38.6208 38.8537 38.2847 38.9131H38.289Z" fill="white"/>
<path d="M53.7339 26.7797C53.768 26.5085 53.6148 26.2627 53.3765 26.1567L51.5895 16.1933C51.5299 15.8627 51.2108 15.6466 50.8832 15.7017C50.8364 15.7101 50.7981 15.7356 50.7556 15.7525L50.7045 15.4813C50.9087 15.4008 51.0576 15.2185 51.0874 14.9854C51.1257 14.6506 50.8875 14.3498 50.5513 14.3116C45.2456 13.7013 33.5662 11.3196 28.1711 10.0143C27.8434 9.93379 27.5158 10.1372 27.435 10.4593C27.418 10.5229 27.4222 10.5822 27.4265 10.6415L27.0308 11.6586C26.7542 11.6163 26.4734 11.7561 26.367 12.0273L22.1378 22.8638C22.0995 22.8003 22.0484 22.7494 21.9931 22.7028C21.5974 22.0798 21.206 21.1687 21.2911 20.088C21.9123 12.1418 25.9118 7.53509 26.9116 6.50103C27.0435 6.46289 27.1627 6.38237 27.2435 6.2637C31.7919 -0.186492 39.0676 1.06371 41.9822 1.90283C47.9857 3.62344 52.8532 8.17926 53.0617 12.2731C53.0617 12.3367 53.0787 12.4003 53.1042 12.4596C54.219 15.3287 55.3167 19.9354 54.2105 25.61C54.1041 26.1567 53.9594 26.5551 53.8062 26.8645C53.7807 26.856 53.7552 26.8433 53.7297 26.8306L53.7382 26.7755L53.7339 26.7797Z" fill="#B3B3B3"/>
<path d="M33.2598 84.4034C33.3364 84.7213 33.4512 85.1493 33.6002 85.6409C33.3193 85.162 33.1321 84.7552 33.0641 84.4501L33.2555 84.4034H33.2598Z" fill="white"/>
<path d="M46.339 88.8702C46.339 88.8702 46.3348 88.8702 46.3305 88.8702C43.8245 89.4254 39.5058 91.0316 39.3229 91.1036C39.2803 91.1206 39.242 91.1375 39.2037 91.163C39.1867 91.1714 39.0208 91.2774 38.7357 91.4554C36.1658 90.2645 34.8298 85.6833 34.4426 84.0983C41.3822 82.2124 48.9132 80.5257 50.1769 80.8011C50.3683 81.3351 49.6152 82.9455 48.743 84.1406C48.6749 84.2339 48.6366 84.3441 48.6281 84.4585C48.5686 85.3951 48.1601 87.6455 47.0156 88.5354C46.922 88.5863 46.8369 88.6414 46.739 88.688C46.6114 88.7473 46.4752 88.8109 46.339 88.8702Z" fill="white"/>
<path d="M26.1883 84.8612L16.5001 87.1963L12.4368 86.7683C12.8835 86.1792 13.4409 85.3994 13.76 84.7679C14.0281 84.234 14.4067 83.6152 14.9216 83.0346C15.1471 82.7973 15.3811 82.5727 15.6236 82.3565C16.0363 82.009 16.5086 81.6996 17.0532 81.4666C18.1637 80.9919 22.9504 83.1151 26.184 84.8612H26.1883Z" fill="white"/>
<path d="M36.1445 34.6539C36.1147 34.6539 36.0892 34.6539 36.0637 34.6497C35.7318 34.6031 35.4978 34.298 35.5403 33.9674L36.0041 30.5601C36.0467 30.2295 36.3573 29.9964 36.6891 30.0388C37.021 30.0854 37.255 30.3905 37.2125 30.7211L36.7487 34.1284C36.7062 34.4336 36.4466 34.6539 36.1445 34.6539Z" fill="black"/>
<path d="M28.2944 16.2781C29.8049 15.8161 31.3792 15.6551 32.9705 15.7865C33.3066 15.8161 33.5534 16.1086 33.5278 16.4434C33.4981 16.7782 33.2045 17.0155 32.8684 16.9985C31.4345 16.8799 30.0176 17.0282 28.6518 17.4435C28.5923 17.4605 28.5327 17.469 28.4731 17.469C28.2136 17.469 27.9711 17.2994 27.8902 17.0409C27.7924 16.7188 27.9711 16.3798 28.2944 16.2823V16.2781Z" fill="black"/>
<path d="M43.8287 17.0239C45.5009 17.418 47.0496 18.1681 48.3133 19.1937C48.5728 19.4056 48.6154 19.787 48.4026 20.0455C48.2835 20.1939 48.1091 20.2702 47.9304 20.2702C47.7942 20.2702 47.6581 20.2235 47.5474 20.1345C46.4242 19.2234 45.0413 18.558 43.5522 18.2063C43.2245 18.13 43.0246 17.8037 43.1012 17.4773C43.1777 17.151 43.5096 16.9476 43.833 17.0281L43.8287 17.0239Z" fill="black"/>
<path d="M38.4932 40.1082C37.9826 40.1929 37.3912 40.2438 36.787 40.2438C35.7829 40.2438 34.7447 40.1039 33.9618 39.7564C33.6385 39.6123 33.3704 39.4131 33.1279 39.2394C32.9577 39.1165 32.6896 38.9046 32.5833 38.9088C32.5833 38.9088 32.4343 38.9554 32.1705 39.4259C32.0089 39.7183 31.6344 39.8242 31.3451 39.6632C31.0515 39.5021 30.9452 39.1334 31.1068 38.841C31.3366 38.4257 31.7153 37.8578 32.3237 37.7264C32.9364 37.5908 33.4215 37.9468 33.8512 38.2604C34.0512 38.4087 34.2597 38.5571 34.4639 38.6503C35.4765 39.1038 37.1572 39.1038 38.2932 38.9131C38.6251 38.858 38.9399 39.0783 38.9953 39.4089C39.0506 39.7395 38.8293 40.0531 38.4974 40.1082H38.4932Z" fill="black"/>
<path d="M50.4152 15.5195C45.0669 14.905 33.3108 12.5105 27.886 11.1968C27.6222 11.1332 27.4477 10.9043 27.4307 10.6458C27.4307 10.5865 27.4222 10.5229 27.4392 10.4636C27.5201 10.1373 27.8477 9.93808 28.1753 10.0186C33.5746 11.3281 45.2541 13.7056 50.5556 14.3159C50.8917 14.354 51.13 14.6549 51.0917 14.9897C51.0661 15.2186 50.913 15.4051 50.7087 15.4856C50.6407 15.511 50.5641 15.528 50.4875 15.528C50.462 15.528 50.4407 15.528 50.4152 15.528V15.5195Z" fill="black"/>
<path d="M22.2826 46.5457C22.2826 46.5457 22.2911 46.5457 22.2996 46.5457C22.3081 46.5457 22.3124 46.5373 22.3209 46.5373L27.1926 45.1896C27.3032 45.1599 27.4096 45.1684 27.5117 45.1981L27.55 43.969C27.0735 43.5961 26.631 43.1893 26.2268 42.74C23.4101 39.5997 21.8443 35.616 21.0274 29.4837C21.0061 29.4837 20.9849 29.4794 20.9636 29.4752C19.2702 29.2463 17.9086 27.7249 17.6576 25.7754C17.5597 25.0465 17.7938 24.3176 18.3128 23.72C18.8489 23.1013 19.6361 22.6902 20.5296 22.5291C20.2233 21.8299 20.0105 20.978 20.0871 19.9948C20.8317 10.4467 26.1034 5.58573 26.3246 5.38231C26.3672 5.34417 26.4097 5.3145 26.4608 5.28908C29.9497 0.584926 35.8511 -1.11874 42.3227 0.737493C48.8538 2.61068 53.9681 7.48858 54.2744 12.1122C55.436 15.1339 56.555 19.944 55.4062 25.8432C55.2743 26.5128 55.0871 27.0426 54.8786 27.4579C54.9807 27.5384 55.0743 27.6274 55.1679 27.7122H55.185C55.4062 27.674 55.6147 27.8224 55.653 28.0427C55.6657 28.1063 55.653 28.1699 55.636 28.225C55.7636 28.3987 55.887 28.5767 55.9764 28.7717C56.3167 29.4921 56.3423 30.2634 56.0529 30.9415C55.2743 32.7893 53.5341 33.9166 51.8024 33.6877C51.7769 33.6877 51.7471 33.6792 51.7215 33.675C49.9388 37.6163 47.4582 41.0999 44.7054 43.6088C44.7139 43.647 44.7352 43.6851 44.7352 43.7275L44.7947 45.9906C44.8373 45.999 44.8798 46.0033 44.9224 46.0202L51.4152 48.9868C51.4152 48.9868 51.4195 48.9868 51.4237 48.991H51.428C54.8403 50.6523 61.3374 54.1699 65.3624 57.1491C66.7665 58.1874 67.8685 59.1622 68.4344 59.9674C68.694 60.3403 68.9195 60.7853 69.1109 61.2854C72.1914 69.3291 66.7155 93.1846 61.4778 101.843C60.2014 103.958 59.0185 104.987 57.8825 104.987C57.8059 104.987 57.7251 104.983 57.6485 104.975C46.6456 103.606 28.3201 98.5414 28.1372 98.4906C28.0266 98.4609 27.9415 98.3931 27.8691 98.3168C22.7421 100.436 15.8408 102.627 9.22885 102.627C8.27577 102.627 7.32695 102.58 6.39089 102.483C5.56121 102.394 4.83363 101.741 4.17414 100.478C1.5234 95.4223 0.532035 82.0981 0.289511 78.1356C-0.208301 69.9605 -0.14448 60.6878 1.1192 58.4036C4.17414 52.873 21.5465 46.7915 22.2868 46.5373L22.2826 46.5457ZM1.50213 78.072C2.12333 88.3321 3.56145 96.7064 5.25061 99.923C5.84628 101.055 6.29729 101.262 6.51854 101.283C18.4618 102.538 32.7494 94.9561 37.5445 92.1675C35.4512 90.7308 34.2173 87.6456 33.6046 85.6368C33.4557 85.1494 33.3408 84.7214 33.2642 84.3993L33.0728 84.4459L16.6875 88.3957C16.6194 88.4127 16.5514 88.4169 16.479 88.4084L11.2116 87.8575C10.9861 87.8321 10.7946 87.688 10.7095 87.4803C10.6244 87.2726 10.6627 87.0353 10.8074 86.8658C10.8201 86.8489 12.1561 85.2511 12.671 84.2213C13.1688 83.2339 13.9985 81.9921 15.2962 81.0725L14.1049 74.8384C14.041 74.5079 14.258 74.1943 14.5899 74.1307C14.9175 74.0671 15.2409 74.2833 15.3005 74.6138L16.411 80.4326C16.4663 80.4071 16.5173 80.3732 16.5769 80.352C17.5044 79.9537 19.3936 80.4622 21.3295 81.2208C20.1126 75.4445 21.4571 53.4494 21.8145 48.0036C18.232 49.3174 4.65068 54.5343 2.18715 58.9969C1.22556 60.7345 0.940496 68.7569 1.50638 78.072H1.50213ZM48.6283 84.4586C48.6368 84.3442 48.6751 84.234 48.7432 84.1408C49.6154 82.9457 50.3685 81.3353 50.1771 80.8013C48.9134 80.5258 41.3824 82.2125 34.4428 84.0984C34.83 85.6834 36.166 90.2647 38.7359 91.4555C39.021 91.2775 39.1869 91.1716 39.2039 91.1631C39.2422 91.1377 39.2805 91.1207 39.3231 91.1038C39.506 91.036 43.8246 89.4255 46.3307 88.8704C46.3307 88.8704 46.335 88.8704 46.3392 88.8704C46.5903 88.8153 46.8115 88.6924 47.0157 88.5356C48.1603 87.6456 48.5687 85.391 48.6283 84.4586ZM14.9218 83.0389C14.4069 83.6195 14.0283 84.2383 13.7602 84.7722C13.4411 85.4037 12.888 86.1835 12.437 86.7726L16.5003 87.2006L26.1885 84.8655C22.9548 83.1194 18.1682 80.9962 17.0577 81.4709C16.5088 81.704 16.0408 82.0176 15.6281 82.3608C15.3728 82.577 15.1345 82.8016 14.926 83.0389H14.9218ZM50.811 32.7299L51.0323 32.2214L51.5599 32.3951C51.6875 32.4375 51.8194 32.4757 51.9641 32.4926C53.3426 32.6748 54.4659 31.5815 54.9297 30.4753C55.1254 30.0134 55.0063 29.5769 54.8701 29.2887C54.7637 29.0599 54.5935 28.8522 54.3978 28.6573L53.7298 28.7674C53.6234 28.831 53.5298 28.8734 53.4533 28.8988L53.3767 29.5006C53.3384 29.8057 53.0746 30.0304 52.7725 30.0304C52.747 30.0304 52.7214 30.0304 52.6916 30.0261C52.3598 29.9837 52.1215 29.6786 52.1683 29.348L52.2109 29.0175L50.2834 29.3311C50.2622 29.3311 50.2409 29.3353 50.2196 29.3353C50.2026 29.3353 50.1813 29.3353 50.1643 29.3353L49.2197 29.2082C49.2197 29.2633 49.2197 29.3184 49.2155 29.3777C49.0623 30.5474 47.054 32.2468 44.2586 32.2468C43.8544 32.2468 43.4502 32.2087 43.0418 32.1366C39.9315 31.4797 37.4169 29.1743 37.6211 27.8139C37.6296 27.7418 37.6679 27.674 37.6892 27.602C37.1914 27.3859 36.634 27.3223 36.0809 27.4113C36.0809 27.4749 36.0809 27.5384 36.0766 27.6062C35.9235 28.7759 33.9195 30.4753 31.1198 30.4753C30.7156 30.4753 30.3114 30.4372 29.9029 30.3652C26.7927 29.7083 24.2781 27.4028 24.4823 26.0424C24.5036 25.8814 24.5717 25.7331 24.6568 25.5847L24.5844 25.5762C24.5419 25.572 24.4993 25.5593 24.461 25.5381L22.5634 24.6142C22.5294 24.6312 22.5038 24.6566 22.4655 24.6651C22.3592 24.6905 22.2528 24.682 22.1464 24.6481L22.1251 24.9702C22.1039 25.2923 21.8358 25.5381 21.5167 25.5381C21.5039 25.5381 21.4912 25.5381 21.4784 25.5381C21.1423 25.5169 20.887 25.2287 20.9083 24.8939L20.9764 23.8429L20.7296 23.7243C20.1126 23.8387 19.568 24.1184 19.2234 24.5168C19.0191 24.7498 18.7894 25.1313 18.8532 25.6186C19.0021 26.7714 19.7722 28.0936 21.1125 28.2758C21.2487 28.2928 21.3848 28.297 21.521 28.2885L22.0911 28.2589L22.1592 28.8225C22.9208 34.9888 24.4057 38.9089 27.1245 41.9391C27.5075 42.3671 27.9244 42.7273 28.3457 43.0579C28.4776 43.1003 28.5882 43.1893 28.6605 43.3037C30.3539 44.503 32.226 44.9904 33.6514 45.1769C36.2851 45.5413 39.5656 45.9906 42.0887 44.1979C45.5266 41.7526 48.7049 37.5739 50.8025 32.7342L50.811 32.7299ZM54.2106 25.6144C55.3169 19.9397 54.2191 15.3288 53.1044 12.464C53.0788 12.4046 53.0661 12.3411 53.0618 12.2775C52.8533 8.18361 47.9858 3.62779 41.9823 1.90717C39.0678 1.06806 31.7921 -0.182146 27.2479 6.27229C27.1671 6.39095 27.048 6.47147 26.9161 6.50961C25.9204 7.54368 21.9167 12.1504 21.2955 20.0966C21.2104 21.1815 21.6018 22.0884 21.9975 22.7114C22.0571 22.7538 22.1039 22.8089 22.1422 22.8724L26.3714 12.0359C26.4778 11.7647 26.7586 11.6248 27.0352 11.6672C27.0777 11.6757 27.1203 11.6715 27.1628 11.6884C27.4777 11.8113 27.6309 12.1631 27.5117 12.4724L23.0357 23.9404L24.7631 24.7837L25.4396 24.877C26.2268 24.4193 27.4309 24.1396 28.8648 24.1396C29.12 24.1396 29.3796 24.1523 29.6434 24.1692C29.8476 23.8344 30.2476 23.631 30.656 23.6861C31.0858 23.7454 31.4644 24.0802 31.5708 24.4871C33.4557 24.9575 35.1619 25.7161 35.8128 26.64C36.6213 26.4747 37.4552 26.5764 38.1785 26.9324C38.9103 26.3094 40.2974 25.911 42.0036 25.911C42.2461 25.911 42.4929 25.9238 42.7397 25.9407C42.9567 25.6864 43.2928 25.5254 43.6417 25.5762C44.0118 25.6271 44.3395 25.8814 44.4969 26.2119C46.4924 26.6866 48.3262 27.4833 48.9772 28.4538C49.0538 28.4115 49.1389 28.386 49.2325 28.3987L50.2196 28.5301L52.3257 28.1868L52.4023 27.6147L50.3941 16.4222C50.343 16.1383 50.5047 15.8755 50.76 15.7696C50.8025 15.7526 50.8408 15.7272 50.8876 15.7187C51.2152 15.6594 51.5343 15.8798 51.5939 16.2103L53.3809 26.1738C53.6192 26.2798 53.7724 26.5256 53.7383 26.7968L53.7298 26.8519C53.7553 26.8604 53.7809 26.8731 53.8064 26.8858C53.9596 26.5764 54.1042 26.178 54.2106 25.6313V25.6144ZM25.0865 26.1187C24.9631 26.9578 27.0139 29.1234 30.0263 29.7591C30.388 29.8269 30.7581 29.8566 31.1241 29.8566C33.6344 29.8566 35.3703 28.3436 35.4767 27.5088C35.5873 26.7925 34.1279 25.75 31.4985 25.0846C31.2985 25.4576 30.8305 25.6737 30.3922 25.6144C29.9327 25.5508 29.5881 25.1948 29.5328 24.7626C29.3115 24.7498 29.086 24.7371 28.869 24.7371C27.6436 24.7371 26.6565 24.9617 25.997 25.2711C25.997 25.2965 26.0055 25.322 26.0013 25.3516C25.9757 25.5551 25.8013 25.7034 25.6013 25.7034C25.5843 25.7034 25.563 25.7034 25.546 25.7034L25.3673 25.678C25.2141 25.8263 25.1163 25.9746 25.095 26.1272L25.0865 26.1187ZM44.5437 26.8392C44.3948 27.2969 43.8714 27.5723 43.3779 27.5045C42.8758 27.4367 42.5014 27.0214 42.5056 26.5298C42.3355 26.5213 42.1695 26.5086 42.0036 26.5086C39.7911 26.5086 38.3189 27.2248 38.2253 27.8944C38.1019 28.7335 40.1485 30.8991 43.1609 31.5348C43.5225 31.6026 43.8927 31.6323 44.2586 31.6323C46.769 31.6323 48.5049 30.1194 48.6113 29.2845C48.7219 28.5598 47.2285 27.5045 44.5394 26.8392H44.5437ZM44.8288 47.3213V47.5417L44.8713 48.991C44.8798 49.3258 44.616 49.6055 44.2799 49.614C44.2756 49.614 44.2714 49.614 44.2629 49.614C43.9353 49.614 43.663 49.3513 43.6544 49.0249L43.5396 44.609C43.2928 44.8039 43.0503 45.0074 42.8035 45.1811C41.1143 46.3805 39.2167 46.7237 37.3701 46.7237C36.0213 46.7237 34.6981 46.5415 33.4982 46.3762C31.7282 46.1431 30.1242 45.5964 28.7414 44.7827L28.6392 48.0841C28.6307 48.4104 28.3584 48.6732 28.0308 48.6732C28.0266 48.6732 28.018 48.6732 28.0138 48.6732C27.6777 48.6647 27.4139 48.385 27.4224 48.0502L27.4692 46.4906V46.3762L24.8993 47.0882C24.912 47.1009 24.9206 47.1136 24.9333 47.1221C28.6733 50.9914 30.7326 52.1695 33.5791 53.5892C33.728 53.6613 33.8386 53.7927 33.8897 53.9537L35.766 59.9843L37.736 54.1868C37.7445 54.1656 37.7573 54.1487 37.7658 54.1275C37.7658 54.1232 37.7743 54.1148 37.7743 54.1105C37.8722 53.9156 38.0679 53.78 38.2934 53.7757C42.3652 53.6613 44.6373 51.5042 46.8328 49.4191C47.1136 49.1521 47.3987 48.8893 47.6795 48.6266L46.8455 48.2452L44.8203 47.3213H44.8288ZM49.6027 49.4996L49.3984 49.4064L48.8751 49.1648C48.8751 49.1648 48.8666 49.1775 48.8623 49.1818C48.4624 49.542 48.0709 49.9149 47.6752 50.2879C45.4968 52.3602 43.0332 54.6954 38.7572 54.9581L36.3192 62.1288C36.2341 62.3746 36.0043 62.5398 35.7405 62.5398H35.732C35.4682 62.5398 35.2384 62.3661 35.1576 62.1118L32.8004 54.5428C29.5072 52.8857 27.3118 51.394 23.5675 47.4399L23.0612 47.5798C22.206 60.2429 21.4316 79.4748 22.7378 81.704C22.7591 81.7421 22.7676 81.7845 22.7804 81.8226C24.7163 82.6787 26.4693 83.6195 27.0862 83.9586C27.2224 84.0348 27.3118 84.1535 27.3586 84.2891C27.3883 84.3781 27.4054 84.4671 27.3968 84.5603L27.7925 84.4629L33.5663 83.0728C39.4337 81.4624 43.3013 80.5639 45.8797 80.0893C45.8925 80.0808 45.8967 80.0639 45.9052 80.0554C47.888 78.4407 49.7601 61.0905 50.5132 50.1014C50.5174 50.0378 50.5217 49.9743 50.5259 49.9107L49.6069 49.4911L49.6027 49.4996ZM67.4345 60.6709C65.6816 58.1747 57.4145 53.3477 51.8066 50.5421C51.7726 50.5252 51.7386 50.5082 51.7045 50.4913C51.696 50.6057 51.6875 50.7244 51.679 50.8515C51.662 51.1058 51.6407 51.3813 51.6194 51.6906C51.1514 57.9883 49.709 74.9105 47.454 79.8308C48.7985 79.6316 49.6282 79.5977 50.1558 79.6358L51.0748 75.3682C51.1472 75.0419 51.4705 74.8342 51.7981 74.902C52.1258 74.9741 52.3342 75.2961 52.2662 75.6225L51.2705 80.2588C51.879 81.598 50.4536 83.8399 49.8324 84.7129C49.7473 85.6114 49.224 89.4764 46.5988 90.057C44.331 90.5613 40.3485 92.0192 39.8124 92.2184C39.2805 92.5574 35.1619 95.1341 29.5242 97.6175C33.5706 98.7067 48.3985 102.61 57.8017 103.78C58.1038 103.818 58.976 103.644 60.4396 101.224C65.5922 92.7015 71.4851 66.4218 67.443 60.6667L67.4345 60.6709Z" fill="black"/>
<path d="M34.3447 40.9558H35.6978C36.0339 40.9558 36.3062 41.227 36.3062 41.5618C36.3062 41.8966 36.0339 42.1679 35.6978 42.1679H34.3447C34.0086 42.1679 33.7363 41.8966 33.7363 41.5618C33.7363 41.227 34.0086 40.9558 34.3447 40.9558Z" fill="black"/>
</g>
<defs>
<clipPath id="clip0_184_106">
<rect width="70" height="105" fill="white" transform="matrix(-1 0 0 1 70 0)"/>
</clipPath>
</defs>
</svg>
